<svg fill="none" height="76" viewBox="0 0 50 76" width="50" xmlns="http://www.w3.org/2000/svg"><g fill="#3d4059"><path d="m25.3387 67.68c-6.2334 0-11.1634-1.3883-14.79-4.165-3.62669-2.8333-5.44003-6.6017-5.44003-11.305v-2.805c0-.5667.28334-.85.85-.85h2.635c.56667 0 .85.2833.85.85v2.55c0 3.5133 1.44503 6.3467 4.33503 8.5s6.8566 3.23 11.9 3.23c4.7033 0 8.3016-.9633 10.795-2.89 2.4933-1.9833 3.74-4.7033 3.74-8.16 0-2.0967-.5667-3.91-1.7-5.44-1.0767-1.5867-2.7767-3.06-5.1-4.42-2.2667-1.36-5.4967-2.9183-9.69-4.675-4.42-1.87-7.7634-3.4283-10.03-4.675-2.21-1.2467-3.99503-2.805-5.35503-4.675-1.36-1.9267-2.04-4.3917-2.04-7.395 0-4.6467 1.58667-8.2167 4.76003-10.71 3.23-2.55 7.6783-3.825 13.345-3.825 6.1766 0 11.0216 1.41666 14.535 4.25 3.5133 2.8333 5.27 6.63 5.27 11.39v1.955c0 .5667-.2834.85-.85.85h-2.805c-.5667 0-.85-.2833-.85-.85v-1.7c0-3.57-1.36-6.4317-4.08-8.585-2.72-2.21-6.545-3.315-11.475-3.315-4.3067 0-7.6217.9067-9.945 2.72-2.3234 1.7567-3.485 4.3067-3.485 7.65 0 2.2667.5383 4.1083 1.615 5.525 1.0766 1.4167 2.6066 2.6633 4.59 3.74 2.04 1.02 5.1566 2.38 9.35 4.08 4.1933 1.7 7.565 3.3433 10.115 4.93 2.6066 1.53 4.6466 3.3433 6.12 5.44 1.4733 2.0967 2.21 4.6183 2.21 7.565 0 4.59-1.7 8.2733-5.1 11.05s-8.16 4.165-14.28 4.165z"/><rect height="76" rx="2.03008" width="4.06015" x="22.9854"/></g></svg>