<svg fill="none" height="76" viewBox="0 0 56 76" width="56" xmlns="http://www.w3.org/2000/svg"><rect height="71" rx="12.5" stroke="#3d4059" stroke-width="5" width="51" x="2.5" y="2.5"/><g fill="#3d4059"><rect height="3.19328" rx="1.59664" width="32" x="11.6924" y="58.9648"/><rect height="3.19328" rx="1.59664" width="32" x="11.6924" y="49.3848"/><rect height="3.19328" rx="1.59664" width="32" x="11.6924" y="39.8062"/><rect height="3.19328" rx="1.59664" width="32" x="11.6924" y="30.2266"/><path d="m28.9837 23.0346c-.78 0-1.465-.15-2.055-.45-.59-.31-1.045-.74-1.365-1.29s-.48-1.185-.48-1.905v-3.465c0-.72.16-1.355.48-1.9051.32-.5499.775-.9749 1.365-1.2749s1.275-.45 2.055-.45c.77 0 1.445.145 2.025.435.59.28 1.045.685 1.365 1.215.33.52.495 1.125.495 1.815 0 .09-.06.145-.18.165l-1.755.105h-.03c-.1 0-.15-.055-.15-.165 0-.53-.165-.955-.495-1.275-.32-.32-.745-.48-1.275-.48-.54 0-.975.16-1.305.48-.32.32-.48.745-.48 1.275v3.615c0 .52.16.94.48 1.26.33.32.765.48 1.305.48.53 0 .955-.16 1.275-.48.33-.32.495-.74.495-1.26 0-.11.06-.165.18-.165l1.755.075c.05 0 .09.015.12.045.04.03.06.065.06.105 0 .69-.165 1.3-.495 1.83-.32.53-.775.94-1.365 1.23-.58.29-1.255.435-2.025.435zm8.0062-.12c-.1 0-.165-.05-.195-.15l-3.09-10.14-.015-.0601c0-.0999.055-.1499.165-.1499h1.89c.11 0 .18.05.21.1499l1.995 7.3201c.01.03.025.045.045.045s.035-.015.045-.045l1.965-7.3201c.03-.0999.1-.1499.21-.1499h1.845c.06 0 .105.02.135.06s.035.09.015.15l-3.135 10.14c-.03.1-.095.15-.195.15z"/></g></svg>