<svg fill="none" height="77" viewBox="0 0 74 77" width="74" xmlns="http://www.w3.org/2000/svg"><path d="m72.8217 41.6232c-1.4276-3.3257-3.9804-5.8133-7.1879-7.0041-3.3834-1.2563-7.6195-.8597-11.333 1.0605-.713.3686-1.4653.5993-2.2155.7305-.2197-1.8058.1214-3.4839 1.022-5.0072.2882-.4877.6042-.9089.9058-1.2602.7337-.8542.8472-2.1146.2624-3.0884-.8563-1.426-2.7632-1.5948-3.838-.3444-.43.5003-.8745 1.088-1.2924 1.7634-1.0788 1.7442-2.1217 4.3233-1.9431 7.6217-.4657-.1369-.8342-.2834-1.0676-.407-2.0194-1.0689-4.2108-1.6699-6.3454-1.7835-1.1581-2.5112-1.767-5.2724-1.767-8.0679 0-2.9981-.9013-5.8464-2.6067-8.2369-1.6472-2.3094-3.9919-4.0436-6.6023-4.883-.0909-.0293-.1835-.0529-.2772-.0706-.0375-.007-.0746-.0129-.1119-.0197.8014-2.0878 2.3926-5.06971 5.4834-7.7759.998-.87384 1.2399-2.42366.4711-3.52548-.8291-1.188621-2.4218-1.3857197-3.487-.459898-1.9972 1.735618-3.5053 3.584848-4.6422 5.345778-1.1552-4.51353-6.6469-7.101283-12.8289-5.92969-4.37445.82833-9.14773 5.42429-11.60396 8.09039-.78526.85244-1.134944 2.0594-.935736 3.2288.199206 1.1696.925736 2.1729 1.942916 2.6837 2.75619 1.3842 7.61978 3.488 11.71558 3.4878.0783 0 .1554-.0031.2332-.0048-1.7603 2.3385-2.7652 5.2081-2.7652 8.0695 0 4.3101-1.445 8.5109-4.0689 11.829-3.32009 4.1983-5.14854 9.5254-5.14854 15.0001 0 12.9223 9.97014 23.4356 22.22494 23.4356 4.5037 0 8.8877-1.4463 12.5706-4.1103 4.2519 4.4528 8.1031 4.5705 10.8272 3.6474.6517-.2209 1.2516-.5803 1.797-1.0758.5459.4955 1.1456.8549 1.7973 1.0758.8192.2777 1.7398.4612 2.7431.4612 3.2939-.0001 7.4744-1.9804 11.8414-9.1147 3.005-4.9091 5.2615-10.8081 6.6253-14.8923 1.1566-3.4637 1.0164-7.1819-.3948-10.4694zm-66.17821-31.1142c2.94953-2.9383 5.73131-4.85037 7.63131-5.21036 3.8452-.72812 7.0453.65353 7.3386 2.37513.1276.74922-.3055 1.67474-1.1884 2.53893-1.1678 1.1433-2.9567 2.0108-4.9076 2.3804-1.9003.36-5.1395-.4118-8.87391-2.0841zm18.37061 60.4942c-9.5887.0002-17.39-8.2261-17.39-18.3375 0-4.2836 1.43018-8.4513 4.027-11.7351 3.3471-4.2325 5.1904-9.5929 5.1904-15.0939 0-2.2712 1.0888-4.5869 2.9121-6.1946 1.4681-1.2944 3.2895-2.0245 5.2848-2.1506.0773.0077.1544.013.2308.013.131 0 .2597-.013.3861-.0347.0025 0 .0051-.0002.0078-.0002.6118 0 1.2382.0556 1.8732.1679 3.3861 1.1544 5.6509 4.4308 5.6509 8.1994 0 3.0123.5517 5.9935 1.6124 8.7769-.0049.0018-.0099.0036-.0148.0054-.2005.0744-.3984.154-.5936.2384-2.9287 1.2668-5.2558 3.6477-6.5941 6.7658-1.4114 3.2876-1.5517 7.0056-.3949 10.4693 1.3639 4.0841 3.6203 9.9831 6.6253 14.8923.2234.3648.4462.7147.6685 1.053-2.8065 1.9246-6.1013 2.9652-9.4819 2.9652zm43.6421-20.6037c-3.7021 11.0859-9.6322 22.263-15.1701 20.3855-.1165-.0394-.5573-.4317-1.0396-1.6741-.372-.9578-1.2559-1.5833-2.2373-1.5833-.9815 0-1.8652.6257-2.2371 1.5835-.4821 1.2422-.9233 1.6343-1.0394 1.6739-2.3324.7902-4.7344-.735-7.0102-3.5932-.053-.0888-.1097-.1757-.1743-.2591-3.5133-4.5244-6.2354-11.4429-7.694-15.6739-.0177-.0516-.0354-.1032-.0531-.1547-.0299-.0873-.0595-.1738-.0883-.2584-.0505-.1488-.1008-.2976-.1504-.4462-.7409-2.2187-.6559-4.5888.239-6.6738.2746-.6397.6156-1.2284 1.0141-1.7579.3003-.3987.6342-.7622.9959-1.0896.0475-.0428.0954-.085.1435-.1265.4653-.4004.9745-.7421 1.5227-1.015.231-.115.4688-.2182.7128-.3088.1493-.0554.3032-.1048.4601-.15.0465-.0135.0942-.0243.1411-.0368.1123-.0299.2256-.0583.3412-.0829.0559-.0119.1125-.0223.1689-.0328.1116-.0211.2244-.0403.3387-.0567.057-.0081.114-.016.1716-.0229.1214-.0146.2445-.0262.3687-.0357 1.7968-.1359 3.7978.2885 5.5843 1.2346 1.3057.6912 3.543 1.3382 6.0521 1.395.0634.0053.1273.0082.1915.0082.0291 0 .0586-.0026.088-.0038 1.9977.0096 4.1498-.362 6.1326-1.3871 2.5348-1.3105 5.4465-1.6282 7.5985-.8292 1.9515.7248 3.5104 2.2511 4.389 4.2979.8957 2.0847.9804 4.4549.2395 6.6738z" fill="#3d4059"/></svg>