<svg fill="none" height="76" viewBox="0 0 57 76" width="57" xmlns="http://www.w3.org/2000/svg"><path clip-rule="evenodd" d="m42.887 28.5572c-.0643-.0366-.1275-.0751-.1889-.1167-1.1707-.7926-1.5077-2.2872-.7527-3.3352 1.8331-2.5466 1.2083-6.2466-1.4235-8.4225-1.0857-.8989-1.257-2.4063-.3836-3.3659.873-.9611 2.4621-1.0128 3.5478-.1139 4.6165 3.8187 5.7148 10.308 2.5001 14.7726-.7153.9939-2.1541 1.2328-3.2992.5816z" fill="#3d4059" fill-rule="evenodd"/><path d="m54.5159 22.7059c-.1485 11.3584-9.5516 20.5919-21.0339 20.5919s-20.644-9.2335-20.4955-20.5919c.1484-11.3583 9.5515-20.59181 21.0338-20.59181s20.6441 9.23351 20.4956 20.59181z" stroke="#3d4059" stroke-width="4"/><rect fill="#3d4059" height="34.3877" rx="3.97454" transform="matrix(.869262 .494351 -.50567 .862727 17.7217 42.1938)" width="7.94907"/></svg>