<svg fill="none" height="887" viewBox="0 0 795 887" width="795" xmlns="http://www.w3.org/2000/svg" xmlns:xlink="http://www.w3.org/1999/xlink"><mask id="a" fill="#fff"><path clip-rule="evenodd" d="m213.34 513.449c.914-.528 1.844-1.027 2.799-1.483 18.209-8.684 39.264-2.055 46.988 14.786 18.78 40.902 69.413 59.89 115.27 43.207 18.932-6.872 38.97 1.888 44.749 19.546 5.802 17.665-4.838 37.582-23.77 44.455-80.46 29.249-169.282-4.022-202.2-75.742-7.331-15.963-.097-35.381 16.164-44.769z" fill="#fff" fill-rule="evenodd"/></mask><g opacity=".2"><path clip-rule="evenodd" d="m213.34 513.449c.914-.528 1.844-1.027 2.799-1.483 18.209-8.684 39.264-2.055 46.988 14.786 18.78 40.902 69.413 59.89 115.27 43.207 18.932-6.872 38.97 1.888 44.749 19.546 5.802 17.665-4.838 37.582-23.77 44.455-80.46 29.249-169.282-4.022-202.2-75.742-7.331-15.963-.097-35.381 16.164-44.769z" fill="#eb4526" fill-rule="evenodd"/><path d="m216.139 511.966-27.98-58.67-.017.008-.016.008zm46.988 14.786-59.082 27.099.006.011.005.012zm115.27 43.207-22.179-61.099-.022.008-.021.008zm44.749 19.546-61.776 20.217.011.033.01.032zm-23.77 44.455-22.179-61.099-.014.005-.014.005zm-202.2-75.742 59.075-27.114-.004-.008-.003-.008zm48.664 11.522c-.248.143-.831.471-1.688.88l-56.026-117.308c-2.767 1.322-5.211 2.647-7.286 3.845zm-1.721.896c-9.648 4.601-30.508 4.069-40.074-16.785l118.164-54.198c-25.014-54.536-87.984-68.326-134.05-46.357zm-40.063-16.762c34.688 75.549 123.084 103.9 196.563 77.169l-44.444-122.167c-8.24 2.998-16.39 2.595-22.749.211-6.311-2.366-9.694-6.116-11.228-9.457zm196.52 77.184c-10.651 3.867-32.001.681-39.206-21.336l123.552-40.434c-18.763-57.334-80.189-78.039-128.704-60.428zm-39.185-21.271c-3.21-9.774-1.343-18.729 1.821-24.649 3.14-5.875 8.15-10.159 13.985-12.277l44.358 122.198c47.516-17.248 81.517-70.506 63.346-125.836zm15.778-36.916c-52.891 19.227-103.924-4.74-120.918-41.767l-118.15 54.228c48.842 106.413 175.453 148.988 283.483 109.716zm-120.925-41.783c8.647 18.827-1.883 33.733-10.404 38.652l-65-112.583c-41.043 23.696-66.041 77.439-42.732 128.19z" fill="#70738c" mask="url(#a)"/><circle cx="351.275" cy="443.275" r="292" stroke="#70738c" stroke-width="65" transform="matrix(-.8660254 .5 -.5 -.8660254 877.125574 651.524911)"/></g></svg>