<svg width="1407" height="459" viewBox="0 0 1407 459" fill="none" xmlns="http://www.w3.org/2000/svg">
<path d="M-98.3092 -255.377C16.2826 -255.396 109.149 -162.56 109.13 -48.0381C109.112 66.4836 16.2148 159.35 -98.3771 159.369C-212.969 159.388 -305.835 66.5515 -305.817 -47.9702C-305.798 -162.492 -212.901 -255.359 -98.3092 -255.377Z" stroke="#EB4526" stroke-width="35"/>
<path d="M1079.6 385.527C1163.02 385.513 1230.63 453.1 1230.62 536.475C1230.61 619.85 1162.97 687.46 1079.55 687.473C996.122 687.487 928.513 619.9 928.527 536.525C928.54 453.15 996.172 385.54 1079.6 385.527Z" stroke="#EB4526" stroke-width="25"/>
<path fill-rule="evenodd" clip-rule="evenodd" d="M1345.58 63.178C1345.48 63.2363 1345.38 63.2913 1345.27 63.3416C1343.27 64.2999 1340.97 63.5686 1340.15 61.7105C1338.15 57.1976 1332.63 55.1028 1327.59 56.9438C1325.5 57.7022 1323.32 56.7358 1322.71 54.7874C1322.1 52.8384 1323.3 50.6407 1325.38 49.8824C1334.23 46.6546 1343.91 50.3251 1347.42 58.2383C1348.2 59.9995 1347.38 62.1421 1345.58 63.178" fill="#EB4526"/>
<path d="M1357.94 55.0324C1366.44 70.2014 1361.05 89.6451 1345.81 98.4374C1330.57 107.23 1311.34 101.99 1302.84 86.8206C1294.34 71.6515 1299.73 52.2079 1314.97 43.4156C1330.21 34.6232 1349.44 39.8633 1357.94 55.0324Z" stroke="#EB4526" stroke-width="8"/>
<rect width="12.5032" height="54.089" rx="6.25161" transform="matrix(0.866025 -0.5 0.488639 0.872486 1344.07 108.173)" fill="#EB4526"/>
<path d="M-14.5727 250.604C-179.281 294.766 -348.531 197.091 -392.615 32.4596C-436.699 -132.171 -338.93 -301.441 -174.222 -345.604C-9.51307 -389.766 159.737 -292.091 203.821 -127.46C247.905 37.1714 150.136 206.441 -14.5727 250.604Z" stroke="#EB4526" stroke-width="35"/>
<path fill-rule="evenodd" clip-rule="evenodd" d="M369.146 335.653C368.921 335.524 368.701 335.387 368.486 335.24C364.402 332.436 363.255 327.19 365.925 323.535C372.407 314.652 370.302 301.671 361.128 293.986C357.344 290.811 356.778 285.524 359.861 282.182C362.942 278.833 368.512 278.689 372.296 281.863C388.388 295.351 392.089 318.118 380.721 333.69C378.192 337.157 373.144 337.962 369.146 335.653" fill="#EB4526"/>
<path d="M399.856 351.136C379.654 385.12 335.255 396.589 300.645 376.591C266.035 356.593 254.487 312.798 274.688 278.814C294.89 244.831 339.289 233.362 373.899 253.36C408.509 273.358 420.057 317.153 399.856 351.136Z" stroke="#EB4526" stroke-width="15"/>
<rect width="27.8578" height="120.513" rx="13.9289" transform="matrix(0.866025 0.5 -0.511276 0.859417 280.645 382.869)" fill="#EB4526"/>
<mask id="path-10-inside-1" fill="white">
<path fill-rule="evenodd" clip-rule="evenodd" d="M717.324 19.2795C717.324 18.9816 717.333 18.6836 717.356 18.3857C717.803 12.7061 722.398 8.49302 727.607 8.98183C740.262 10.1643 752.055 0.462505 754.45 -13.1079C755.442 -18.7083 760.414 -22.3721 765.548 -21.292C770.688 -20.2167 774.056 -14.8025 773.064 -9.20204C768.856 14.6055 748.178 31.6302 725.99 29.5539C721.051 29.093 717.324 24.582 717.324 19.2795"/>
</mask>
<path fill-rule="evenodd" clip-rule="evenodd" d="M717.324 19.2795C717.324 18.9816 717.333 18.6836 717.356 18.3857C717.803 12.7061 722.398 8.49302 727.607 8.98183C740.262 10.1643 752.055 0.462505 754.45 -13.1079C755.442 -18.7083 760.414 -22.3721 765.548 -21.292C770.688 -20.2167 774.056 -14.8025 773.064 -9.20204C768.856 14.6055 748.178 31.6302 725.99 29.5539C721.051 29.093 717.324 24.582 717.324 19.2795" fill="#EB4526"/>
<path d="M717.356 18.3857L697.418 16.8154L697.417 16.8266L717.356 18.3857ZM727.607 8.98183L725.738 28.8944L725.746 28.8951L727.607 8.98183ZM754.45 -13.1079L734.756 -16.5977L734.754 -16.5838L754.45 -13.1079ZM765.548 -21.292L761.431 -1.72033L761.442 -1.71817L761.452 -1.71602L765.548 -21.292ZM773.064 -9.20204L753.371 -12.6919L753.369 -12.6826L773.064 -9.20204ZM725.99 29.5539L727.853 9.64093L727.848 9.64044L725.99 29.5539ZM737.324 19.2795C737.324 19.3942 737.32 19.6267 737.295 19.9448L697.417 16.8266C697.346 17.7405 697.324 18.569 697.324 19.2795L737.324 19.2795ZM737.294 19.956C736.996 23.7433 733.234 29.5977 725.738 28.8944L729.475 -10.9307C711.562 -12.6117 698.611 1.66896 697.418 16.8154L737.294 19.956ZM725.746 28.8951C750.081 31.1689 770.178 12.8448 774.145 -9.63198L734.754 -16.5838C734.392 -14.5348 733.349 -12.9464 732.168 -11.9744C730.999 -11.0129 730.027 -10.8791 729.467 -10.9314L725.746 28.8951ZM774.143 -9.61807C773.446 -5.68344 768.867 -0.156343 761.431 -1.72033L769.665 -40.8638C751.96 -44.5878 737.439 -31.7332 734.756 -16.5977L774.143 -9.61807ZM761.452 -1.71602C754.652 -3.13894 752.731 -9.07947 753.371 -12.6919L792.757 -5.71221C795.382 -20.5254 786.723 -37.2944 769.645 -40.8681L761.452 -1.71602ZM753.369 -12.6826C750.732 2.23654 738.347 10.6229 727.853 9.64093L724.127 49.4669C758.009 52.6376 786.98 26.9745 792.759 -5.72144L753.369 -12.6826ZM727.848 9.64044C734.638 10.274 737.324 15.7771 737.324 19.2795L697.324 19.2795C697.324 33.3869 707.464 47.9121 724.132 49.4674L727.848 9.64044Z" fill="#EB4526" mask="url(#path-10-inside-1)"/>
<circle cx="719.638" cy="-24.3624" r="81.6376" transform="rotate(90 719.638 -24.3624)" stroke="#EB4526" stroke-width="20"/>
<circle cx="1199.02" cy="254.287" r="4" transform="rotate(-179.649 1199.02 254.287)" fill="#EB4526"/>
<ellipse cx="1199.11" cy="239.787" rx="4" ry="4.5" transform="rotate(-179.649 1199.11 239.787)" fill="#EB4526"/>
<ellipse cx="1199.2" cy="225.787" rx="4" ry="4.5" transform="rotate(-179.649 1199.2 225.787)" fill="#EB4526"/>
<circle cx="1199.29" cy="211.288" r="4" transform="rotate(-179.649 1199.29 211.288)" fill="#EB4526"/>
<circle cx="1184.7" cy="225.699" r="4.5" transform="rotate(-179.649 1184.7 225.699)" fill="#EB4526"/>
<circle cx="1184.61" cy="239.698" r="4.5" transform="rotate(-179.649 1184.61 239.698)" fill="#EB4526"/>
<circle cx="1170.61" cy="239.613" r="4.5" transform="rotate(-179.649 1170.61 239.613)" fill="#EB4526"/>
<ellipse cx="1184.52" cy="254.198" rx="4.5" ry="4" transform="rotate(-179.649 1184.52 254.198)" fill="#EB4526"/>
<ellipse cx="1170.52" cy="254.112" rx="4.5" ry="4" transform="rotate(-179.649 1170.52 254.112)" fill="#EB4526"/>
<circle cx="1156.02" cy="254.024" r="4" transform="rotate(-179.649 1156.02 254.024)" fill="#EB4526"/>
</svg>
