<svg width="358" height="315" viewBox="0 0 358 315" fill="none" xmlns="http://www.w3.org/2000/svg">
<g filter="url(#filter0_d)">
<rect x="50" y="61" width="188" height="45" rx="22.5" fill="#70738C"/>
<path d="M92.7624 75.75C92.7624 75.5833 92.8457 75.5 93.0124 75.5H94.2874C94.4541 75.5 94.5374 75.5833 94.5374 75.75V92.75C94.5374 92.9167 94.4541 93 94.2874 93H93.0124C92.8457 93 92.7624 92.9167 92.7624 92.75V85.075C92.7624 85.0083 92.7291 84.975 92.6624 84.975H84.6874C84.6207 84.975 84.5874 85.0083 84.5874 85.075V92.75C84.5874 92.9167 84.5041 93 84.3374 93H83.0624C82.8957 93 82.8124 92.9167 82.8124 92.75V75.75C82.8124 75.5833 82.8957 75.5 83.0624 75.5H84.3374C84.5041 75.5 84.5874 75.5833 84.5874 75.75V83.325C84.5874 83.3917 84.6207 83.425 84.6874 83.425H92.6624C92.7291 83.425 92.7624 83.3917 92.7624 83.325V75.75ZM109.72 75.5C109.886 75.5 109.97 75.5833 109.97 75.75V76.825C109.97 76.9917 109.886 77.075 109.72 77.075H104.82C104.753 77.075 104.72 77.1083 104.72 77.175V92.75C104.72 92.9167 104.636 93 104.47 93H103.195C103.028 93 102.945 92.9167 102.945 92.75V77.175C102.945 77.1083 102.911 77.075 102.845 77.075H98.1448C97.9782 77.075 97.8948 76.9917 97.8948 76.825V75.75C97.8948 75.5833 97.9782 75.5 98.1448 75.5H109.72ZM124.753 75.675C124.837 75.5583 124.937 75.5 125.053 75.5H126.353C126.52 75.5 126.603 75.5833 126.603 75.75V92.75C126.603 92.9167 126.52 93 126.353 93H125.078C124.912 93 124.828 92.9167 124.828 92.75V78.85C124.828 78.8 124.812 78.7667 124.778 78.75C124.745 78.7333 124.72 78.75 124.703 78.8L120.628 85.05C120.545 85.1667 120.445 85.225 120.328 85.225H119.678C119.562 85.225 119.462 85.175 119.378 85.075L115.303 78.875C115.287 78.825 115.262 78.8083 115.228 78.825C115.195 78.8417 115.178 78.875 115.178 78.925V92.75C115.178 92.9167 115.095 93 114.928 93H113.653C113.487 93 113.403 92.9167 113.403 92.75V75.75C113.403 75.5833 113.487 75.5 113.653 75.5H114.953C115.087 75.5 115.187 75.55 115.253 75.65L119.953 82.775C119.97 82.7917 119.995 82.8 120.028 82.8C120.062 82.8 120.087 82.7917 120.103 82.775L124.753 75.675ZM131.524 93C131.358 93 131.274 92.9167 131.274 92.75V75.75C131.274 75.5833 131.358 75.5 131.524 75.5H132.799C132.966 75.5 133.049 75.5833 133.049 75.75V91.35C133.049 91.4167 133.083 91.45 133.149 91.45H141.974C142.141 91.45 142.224 91.5333 142.224 91.7V92.75C142.224 92.9167 142.141 93 141.974 93H131.524ZM149.163 93C148.98 93 148.913 92.9083 148.963 92.725L154.488 75.7C154.538 75.5667 154.638 75.5 154.788 75.5H156.038C156.222 75.5 156.288 75.5917 156.238 75.775L150.713 92.8C150.663 92.9333 150.563 93 150.413 93H149.163ZM170.828 93.225C169.661 93.225 168.636 93 167.753 92.55C166.869 92.0833 166.178 91.4333 165.678 90.6C165.194 89.75 164.953 88.775 164.953 87.675V80.8C164.953 79.7167 165.194 78.7583 165.678 77.925C166.178 77.0917 166.869 76.45 167.753 76C168.636 75.5333 169.661 75.3 170.828 75.3C171.994 75.3 173.019 75.525 173.903 75.975C174.786 76.425 175.469 77.0583 175.953 77.875C176.453 78.6917 176.703 79.6333 176.703 80.7C176.703 80.7833 176.678 80.85 176.628 80.9C176.578 80.95 176.519 80.975 176.453 80.975L175.178 81.05C175.011 81.05 174.928 80.975 174.928 80.825V80.75C174.928 79.5667 174.553 78.625 173.803 77.925C173.053 77.2083 172.061 76.85 170.828 76.85C169.594 76.85 168.603 77.2083 167.853 77.925C167.103 78.6417 166.728 79.5833 166.728 80.75V87.75C166.728 88.9167 167.103 89.8583 167.853 90.575C168.603 91.2917 169.594 91.65 170.828 91.65C172.061 91.65 173.053 91.3 173.803 90.6C174.553 89.8833 174.928 88.9333 174.928 87.75V87.7C174.928 87.55 175.011 87.475 175.178 87.475L176.453 87.55C176.619 87.55 176.703 87.625 176.703 87.775C176.703 88.8583 176.453 89.8167 175.953 90.65C175.469 91.4667 174.786 92.1 173.903 92.55C173.019 93 171.994 93.225 170.828 93.225ZM185.738 93.2C183.855 93.2 182.363 92.775 181.263 91.925C180.18 91.075 179.638 89.9417 179.638 88.525V87.75C179.638 87.5833 179.722 87.5 179.888 87.5H181.113C181.28 87.5 181.363 87.5833 181.363 87.75V88.425C181.363 89.3917 181.763 90.175 182.563 90.775C183.363 91.3583 184.472 91.65 185.888 91.65C187.172 91.65 188.147 91.3833 188.813 90.85C189.48 90.3 189.813 89.575 189.813 88.675C189.813 88.0917 189.655 87.5917 189.338 87.175C189.038 86.7583 188.563 86.3667 187.913 86C187.28 85.6333 186.38 85.2083 185.213 84.725C183.963 84.225 182.988 83.7917 182.288 83.425C181.605 83.0417 181.047 82.5583 180.613 81.975C180.197 81.375 179.988 80.625 179.988 79.725C179.988 78.325 180.472 77.2417 181.438 76.475C182.422 75.6917 183.763 75.3 185.463 75.3C187.313 75.3 188.772 75.7333 189.838 76.6C190.905 77.4667 191.438 78.6167 191.438 80.05V80.6C191.438 80.7667 191.355 80.85 191.188 80.85H189.938C189.772 80.85 189.688 80.7667 189.688 80.6V80.15C189.688 79.1833 189.305 78.3917 188.538 77.775C187.788 77.1583 186.738 76.85 185.388 76.85C184.205 76.85 183.297 77.0917 182.663 77.575C182.03 78.0583 181.713 78.7583 181.713 79.675C181.713 80.275 181.863 80.775 182.163 81.175C182.48 81.5583 182.922 81.9 183.488 82.2C184.072 82.4833 184.963 82.8583 186.163 83.325C187.38 83.825 188.355 84.2917 189.088 84.725C189.838 85.1583 190.438 85.6917 190.888 86.325C191.355 86.9417 191.588 87.7 191.588 88.6C191.588 90 191.072 91.1167 190.038 91.95C189.005 92.7833 187.572 93.2 185.738 93.2ZM200.338 93.2C198.455 93.2 196.963 92.775 195.863 91.925C194.78 91.075 194.238 89.9417 194.238 88.525V87.75C194.238 87.5833 194.321 87.5 194.488 87.5H195.713C195.88 87.5 195.963 87.5833 195.963 87.75V88.425C195.963 89.3917 196.363 90.175 197.163 90.775C197.963 91.3583 199.071 91.65 200.488 91.65C201.771 91.65 202.746 91.3833 203.413 90.85C204.08 90.3 204.413 89.575 204.413 88.675C204.413 88.0917 204.255 87.5917 203.938 87.175C203.638 86.7583 203.163 86.3667 202.513 86C201.88 85.6333 200.98 85.2083 199.813 84.725C198.563 84.225 197.588 83.7917 196.888 83.425C196.205 83.0417 195.646 82.5583 195.213 81.975C194.796 81.375 194.588 80.625 194.588 79.725C194.588 78.325 195.071 77.2417 196.038 76.475C197.021 75.6917 198.363 75.3 200.063 75.3C201.913 75.3 203.371 75.7333 204.438 76.6C205.505 77.4667 206.038 78.6167 206.038 80.05V80.6C206.038 80.7667 205.955 80.85 205.788 80.85H204.538C204.371 80.85 204.288 80.7667 204.288 80.6V80.15C204.288 79.1833 203.905 78.3917 203.138 77.775C202.388 77.1583 201.338 76.85 199.988 76.85C198.805 76.85 197.896 77.0917 197.263 77.575C196.63 78.0583 196.313 78.7583 196.313 79.675C196.313 80.275 196.463 80.775 196.763 81.175C197.08 81.5583 197.521 81.9 198.088 82.2C198.671 82.4833 199.563 82.8583 200.763 83.325C201.98 83.825 202.955 84.2917 203.688 84.725C204.438 85.1583 205.038 85.6917 205.488 86.325C205.955 86.9417 206.188 87.7 206.188 88.6C206.188 90 205.671 91.1167 204.638 91.95C203.605 92.7833 202.171 93.2 200.338 93.2Z" fill="white"/>
</g>
<rect x="92.5" y="0.5" width="103" height="44" rx="22" fill="white" stroke="#566397"/>
<path d="M136.77 32.2C135.603 32.2 134.578 31.975 133.695 31.525C132.811 31.0583 132.12 30.4083 131.62 29.575C131.136 28.7417 130.895 27.7833 130.895 26.7V19.8C130.895 18.7167 131.136 17.7583 131.62 16.925C132.12 16.0917 132.811 15.45 133.695 15C134.578 14.5333 135.603 14.3 136.77 14.3C137.92 14.3 138.936 14.525 139.82 14.975C140.72 15.425 141.411 16.0583 141.895 16.875C142.378 17.675 142.62 18.5833 142.62 19.6V19.925C142.62 20.0917 142.536 20.175 142.37 20.175H141.095C140.928 20.175 140.845 20.0917 140.845 19.925V19.625C140.845 18.5083 140.47 17.6 139.72 16.9C138.986 16.2 138.003 15.85 136.77 15.85C135.536 15.85 134.545 16.2083 133.795 16.925C133.045 17.6417 132.67 18.5833 132.67 19.75V26.75C132.67 27.9167 133.053 28.8583 133.82 29.575C134.586 30.2917 135.595 30.65 136.845 30.65C138.061 30.65 139.028 30.3167 139.745 29.65C140.478 28.9833 140.845 28.0917 140.845 26.975V24.7C140.845 24.6333 140.811 24.6 140.745 24.6H137.07C136.903 24.6 136.82 24.5167 136.82 24.35V23.3C136.82 23.1333 136.903 23.05 137.07 23.05H142.37C142.536 23.05 142.62 23.1333 142.62 23.3V26.525C142.62 28.3083 142.086 29.7 141.02 30.7C139.97 31.7 138.553 32.2 136.77 32.2ZM147.627 17.05C147.227 17.05 146.893 16.9167 146.627 16.65C146.36 16.3833 146.227 16.05 146.227 15.65C146.227 15.2333 146.36 14.9 146.627 14.65C146.893 14.3833 147.227 14.25 147.627 14.25C148.027 14.25 148.36 14.3833 148.627 14.65C148.893 14.9 149.027 15.2333 149.027 15.65C149.027 16.05 148.893 16.3833 148.627 16.65C148.36 16.9167 148.027 17.05 147.627 17.05ZM146.927 31.975C146.76 31.975 146.677 31.8917 146.677 31.725V19.575C146.677 19.4083 146.76 19.325 146.927 19.325H148.202C148.368 19.325 148.452 19.4083 148.452 19.575V31.725C148.452 31.8917 148.368 31.975 148.202 31.975H146.927ZM158.474 20.575C158.474 20.7417 158.39 20.825 158.224 20.825H155.399C155.332 20.825 155.299 20.8583 155.299 20.925V28.3C155.299 29.1 155.474 29.6667 155.824 30C156.19 30.3167 156.757 30.475 157.524 30.475H158.149C158.315 30.475 158.399 30.5583 158.399 30.725V31.75C158.399 31.9167 158.315 32 158.149 32C157.949 32.0167 157.64 32.025 157.224 32.025C156.024 32.025 155.115 31.8 154.499 31.35C153.882 30.9 153.574 30.0667 153.574 28.85V20.925C153.574 20.8583 153.54 20.825 153.474 20.825H151.949C151.782 20.825 151.699 20.7417 151.699 20.575V19.6C151.699 19.4333 151.782 19.35 151.949 19.35H153.474C153.54 19.35 153.574 19.3167 153.574 19.25V16.35C153.574 16.1833 153.657 16.1 153.824 16.1H155.049C155.215 16.1 155.299 16.1833 155.299 16.35V19.25C155.299 19.3167 155.332 19.35 155.399 19.35H158.224C158.39 19.35 158.474 19.4333 158.474 19.6V20.575Z" fill="#3D4059"/>
<g filter="url(#filter1_d)">
<rect x="80" y="191" width="236" height="45" rx="22.5" fill="#70738C"/>
<path d="M117.699 223.225C116.532 223.225 115.507 223 114.624 222.55C113.741 222.083 113.049 221.433 112.549 220.6C112.066 219.75 111.824 218.775 111.824 217.675V210.8C111.824 209.717 112.066 208.758 112.549 207.925C113.049 207.092 113.741 206.45 114.624 206C115.507 205.533 116.532 205.3 117.699 205.3C118.866 205.3 119.891 205.525 120.774 205.975C121.657 206.425 122.341 207.058 122.824 207.875C123.324 208.692 123.574 209.633 123.574 210.7C123.574 210.783 123.549 210.85 123.499 210.9C123.449 210.95 123.391 210.975 123.324 210.975L122.049 211.05C121.882 211.05 121.799 210.975 121.799 210.825V210.75C121.799 209.567 121.424 208.625 120.674 207.925C119.924 207.208 118.932 206.85 117.699 206.85C116.466 206.85 115.474 207.208 114.724 207.925C113.974 208.642 113.599 209.583 113.599 210.75V217.75C113.599 218.917 113.974 219.858 114.724 220.575C115.474 221.292 116.466 221.65 117.699 221.65C118.932 221.65 119.924 221.3 120.674 220.6C121.424 219.883 121.799 218.933 121.799 217.75V217.7C121.799 217.55 121.882 217.475 122.049 217.475L123.324 217.55C123.491 217.55 123.574 217.625 123.574 217.775C123.574 218.858 123.324 219.817 122.824 220.65C122.341 221.467 121.657 222.1 120.774 222.55C119.891 223 118.866 223.225 117.699 223.225ZM132.309 210.225C132.859 210.225 133.334 210.333 133.734 210.55C133.868 210.617 133.918 210.725 133.884 210.875L133.609 212.1C133.559 212.267 133.451 212.317 133.284 212.25C133.001 212.133 132.676 212.075 132.309 212.075L131.984 212.1C131.118 212.133 130.401 212.458 129.834 213.075C129.268 213.675 128.984 214.442 128.984 215.375V222.75C128.984 222.917 128.901 223 128.734 223H127.459C127.293 223 127.209 222.917 127.209 222.75V210.6C127.209 210.433 127.293 210.35 127.459 210.35H128.734C128.901 210.35 128.984 210.433 128.984 210.6V212.125C128.984 212.175 128.993 212.208 129.009 212.225C129.043 212.225 129.068 212.208 129.084 212.175C129.434 211.558 129.876 211.083 130.409 210.75C130.959 210.4 131.593 210.225 132.309 210.225ZM137.516 208.05C137.116 208.05 136.783 207.917 136.516 207.65C136.249 207.383 136.116 207.05 136.116 206.65C136.116 206.233 136.249 205.9 136.516 205.65C136.783 205.383 137.116 205.25 137.516 205.25C137.916 205.25 138.249 205.383 138.516 205.65C138.783 205.9 138.916 206.233 138.916 206.65C138.916 207.05 138.783 207.383 138.516 207.65C138.249 207.917 137.916 208.05 137.516 208.05ZM136.816 222.975C136.649 222.975 136.566 222.892 136.566 222.725V210.575C136.566 210.408 136.649 210.325 136.816 210.325H138.091C138.258 210.325 138.341 210.408 138.341 210.575V222.725C138.341 222.892 138.258 222.975 138.091 222.975H136.816ZM148.363 211.575C148.363 211.742 148.28 211.825 148.113 211.825H145.288C145.221 211.825 145.188 211.858 145.188 211.925V219.3C145.188 220.1 145.363 220.667 145.713 221C146.08 221.317 146.646 221.475 147.413 221.475H148.038C148.205 221.475 148.288 221.558 148.288 221.725V222.75C148.288 222.917 148.205 223 148.038 223C147.838 223.017 147.53 223.025 147.113 223.025C145.913 223.025 145.005 222.8 144.388 222.35C143.771 221.9 143.463 221.067 143.463 219.85V211.925C143.463 211.858 143.43 211.825 143.363 211.825H141.838C141.671 211.825 141.588 211.742 141.588 211.575V210.6C141.588 210.433 141.671 210.35 141.838 210.35H143.363C143.43 210.35 143.463 210.317 143.463 210.25V207.35C143.463 207.183 143.546 207.1 143.713 207.1H144.938C145.105 207.1 145.188 207.183 145.188 207.35V210.25C145.188 210.317 145.221 210.35 145.288 210.35H148.113C148.28 210.35 148.363 210.433 148.363 210.6V211.575ZM152.994 208.05C152.594 208.05 152.261 207.917 151.994 207.65C151.728 207.383 151.594 207.05 151.594 206.65C151.594 206.233 151.728 205.9 151.994 205.65C152.261 205.383 152.594 205.25 152.994 205.25C153.394 205.25 153.728 205.383 153.994 205.65C154.261 205.9 154.394 206.233 154.394 206.65C154.394 207.05 154.261 207.383 153.994 207.65C153.728 207.917 153.394 208.05 152.994 208.05ZM152.294 222.975C152.128 222.975 152.044 222.892 152.044 222.725V210.575C152.044 210.408 152.128 210.325 152.294 210.325H153.569C153.736 210.325 153.819 210.408 153.819 210.575V222.725C153.819 222.892 153.736 222.975 153.569 222.975H152.294ZM162.942 223.2C161.742 223.2 160.708 222.892 159.842 222.275C158.992 221.642 158.408 220.792 158.092 219.725C157.875 218.992 157.767 217.958 157.767 216.625C157.767 215.425 157.875 214.408 158.092 213.575C158.392 212.542 158.975 211.717 159.842 211.1C160.708 210.467 161.742 210.15 162.942 210.15C164.158 210.15 165.208 210.458 166.092 211.075C166.992 211.692 167.575 212.458 167.842 213.375C167.925 213.675 167.975 213.925 167.992 214.125V214.175C167.992 214.292 167.917 214.367 167.767 214.4L166.517 214.575H166.467C166.35 214.575 166.275 214.5 166.242 214.35L166.167 213.975C166.017 213.342 165.65 212.808 165.067 212.375C164.483 211.925 163.775 211.7 162.942 211.7C162.108 211.7 161.408 211.925 160.842 212.375C160.292 212.808 159.933 213.392 159.767 214.125C159.617 214.758 159.542 215.6 159.542 216.65C159.542 217.75 159.617 218.6 159.767 219.2C159.933 219.95 160.292 220.55 160.842 221C161.408 221.433 162.108 221.65 162.942 221.65C163.758 221.65 164.458 221.442 165.042 221.025C165.642 220.592 166.017 220.042 166.167 219.375V219.275L166.192 219.175C166.208 219.008 166.308 218.942 166.492 218.975L167.717 219.175C167.883 219.208 167.958 219.3 167.942 219.45L167.842 219.95C167.592 220.917 167.017 221.7 166.117 222.3C165.217 222.9 164.158 223.2 162.942 223.2ZM175.53 210.15C177.03 210.15 178.188 210.533 179.005 211.3C179.821 212.067 180.23 213.083 180.23 214.35V222.75C180.23 222.917 180.146 223 179.98 223H178.705C178.538 223 178.455 222.917 178.455 222.75V221.725C178.455 221.692 178.438 221.667 178.405 221.65C178.388 221.633 178.363 221.642 178.33 221.675C177.913 222.175 177.371 222.558 176.705 222.825C176.038 223.075 175.296 223.2 174.48 223.2C173.296 223.2 172.305 222.9 171.505 222.3C170.705 221.7 170.305 220.783 170.305 219.55C170.305 218.3 170.755 217.317 171.655 216.6C172.571 215.867 173.838 215.5 175.455 215.5H178.355C178.421 215.5 178.455 215.467 178.455 215.4V214.45C178.455 213.6 178.213 212.933 177.73 212.45C177.263 211.95 176.53 211.7 175.53 211.7C174.73 211.7 174.08 211.858 173.58 212.175C173.08 212.475 172.771 212.9 172.655 213.45C172.605 213.617 172.505 213.692 172.355 213.675L171.005 213.5C170.821 213.467 170.746 213.4 170.78 213.3C170.913 212.367 171.413 211.608 172.28 211.025C173.146 210.442 174.23 210.15 175.53 210.15ZM174.83 221.675C175.813 221.675 176.663 221.433 177.38 220.95C178.096 220.45 178.455 219.783 178.455 218.95V217C178.455 216.933 178.421 216.9 178.355 216.9H175.73C174.63 216.9 173.746 217.125 173.08 217.575C172.413 218.025 172.08 218.65 172.08 219.45C172.08 220.183 172.33 220.742 172.83 221.125C173.346 221.492 174.013 221.675 174.83 221.675ZM184.173 223C184.007 223 183.923 222.917 183.923 222.75V205.75C183.923 205.583 184.007 205.5 184.173 205.5H185.448C185.615 205.5 185.698 205.583 185.698 205.75V222.75C185.698 222.917 185.615 223 185.448 223H184.173ZM205.59 205.5C205.757 205.5 205.84 205.583 205.84 205.75V206.825C205.84 206.992 205.757 207.075 205.59 207.075H200.69C200.623 207.075 200.59 207.108 200.59 207.175V222.75C200.59 222.917 200.507 223 200.34 223H199.065C198.898 223 198.815 222.917 198.815 222.75V207.175C198.815 207.108 198.782 207.075 198.715 207.075H194.015C193.848 207.075 193.765 206.992 193.765 206.825V205.75C193.765 205.583 193.848 205.5 194.015 205.5H205.59ZM214.173 210.175C215.507 210.175 216.565 210.567 217.348 211.35C218.148 212.133 218.548 213.183 218.548 214.5V222.75C218.548 222.917 218.465 223 218.298 223H217.023C216.857 223 216.773 222.917 216.773 222.75V214.85C216.773 213.933 216.49 213.183 215.923 212.6C215.373 212.017 214.657 211.725 213.773 211.725C212.857 211.725 212.115 212.008 211.548 212.575C210.982 213.142 210.698 213.883 210.698 214.8V222.75C210.698 222.917 210.615 223 210.448 223H209.173C209.007 223 208.923 222.917 208.923 222.75V205.75C208.923 205.583 209.007 205.5 209.173 205.5H210.448C210.615 205.5 210.698 205.583 210.698 205.75V211.675C210.698 211.708 210.707 211.733 210.723 211.75C210.757 211.767 210.782 211.758 210.798 211.725C211.532 210.692 212.657 210.175 214.173 210.175ZM223.6 208.05C223.2 208.05 222.867 207.917 222.6 207.65C222.333 207.383 222.2 207.05 222.2 206.65C222.2 206.233 222.333 205.9 222.6 205.65C222.867 205.383 223.2 205.25 223.6 205.25C224 205.25 224.333 205.383 224.6 205.65C224.867 205.9 225 206.233 225 206.65C225 207.05 224.867 207.383 224.6 207.65C224.333 207.917 224 208.05 223.6 208.05ZM222.9 222.975C222.733 222.975 222.65 222.892 222.65 222.725V210.575C222.65 210.408 222.733 210.325 222.9 210.325H224.175C224.342 210.325 224.425 210.408 224.425 210.575V222.725C224.425 222.892 224.342 222.975 224.175 222.975H222.9ZM234.022 210.175C235.355 210.175 236.414 210.567 237.197 211.35C237.997 212.133 238.397 213.183 238.397 214.5V222.75C238.397 222.917 238.314 223 238.147 223H236.872C236.705 223 236.622 222.917 236.622 222.75V214.85C236.622 213.933 236.339 213.183 235.772 212.6C235.222 212.017 234.505 211.725 233.622 211.725C232.705 211.725 231.964 212.008 231.397 212.575C230.83 213.142 230.547 213.883 230.547 214.8V222.75C230.547 222.917 230.464 223 230.297 223H229.022C228.855 223 228.772 222.917 228.772 222.75V210.6C228.772 210.433 228.855 210.35 229.022 210.35H230.297C230.464 210.35 230.547 210.433 230.547 210.6V211.675C230.547 211.708 230.555 211.733 230.572 211.75C230.605 211.767 230.63 211.758 230.647 211.725C231.38 210.692 232.505 210.175 234.022 210.175ZM242.474 223C242.307 223 242.224 222.917 242.224 222.75V205.75C242.224 205.583 242.307 205.5 242.474 205.5H243.749C243.916 205.5 243.999 205.583 243.999 205.75V215.975C243.999 216.008 244.007 216.033 244.024 216.05C244.057 216.067 244.091 216.058 244.124 216.025L249.424 210.475C249.507 210.392 249.607 210.35 249.724 210.35H251.224C251.324 210.35 251.391 210.383 251.424 210.45C251.457 210.517 251.441 210.583 251.374 210.65L248.174 214.2C248.141 214.233 248.132 214.275 248.149 214.325L251.974 222.7L251.999 222.8C251.999 222.933 251.924 223 251.774 223H250.424C250.291 223 250.199 222.933 250.149 222.8L246.924 215.5C246.891 215.433 246.849 215.425 246.799 215.475L244.049 218.375C244.016 218.408 243.999 218.45 243.999 218.5V222.75C243.999 222.917 243.916 223 243.749 223H242.474ZM255.949 208.05C255.549 208.05 255.215 207.917 254.949 207.65C254.682 207.383 254.549 207.05 254.549 206.65C254.549 206.233 254.682 205.9 254.949 205.65C255.215 205.383 255.549 205.25 255.949 205.25C256.349 205.25 256.682 205.383 256.949 205.65C257.215 205.9 257.349 206.233 257.349 206.65C257.349 207.05 257.215 207.383 256.949 207.65C256.682 207.917 256.349 208.05 255.949 208.05ZM255.249 222.975C255.082 222.975 254.999 222.892 254.999 222.725V210.575C254.999 210.408 255.082 210.325 255.249 210.325H256.524C256.69 210.325 256.774 210.408 256.774 210.575V222.725C256.774 222.892 256.69 222.975 256.524 222.975H255.249ZM266.371 210.175C267.704 210.175 268.762 210.567 269.546 211.35C270.346 212.133 270.746 213.183 270.746 214.5V222.75C270.746 222.917 270.662 223 270.496 223H269.221C269.054 223 268.971 222.917 268.971 222.75V214.85C268.971 213.933 268.687 213.183 268.121 212.6C267.571 212.017 266.854 211.725 265.971 211.725C265.054 211.725 264.312 212.008 263.746 212.575C263.179 213.142 262.896 213.883 262.896 214.8V222.75C262.896 222.917 262.812 223 262.646 223H261.371C261.204 223 261.121 222.917 261.121 222.75V210.6C261.121 210.433 261.204 210.35 261.371 210.35H262.646C262.812 210.35 262.896 210.433 262.896 210.6V211.675C262.896 211.708 262.904 211.733 262.921 211.75C262.954 211.767 262.979 211.758 262.996 211.725C263.729 210.692 264.854 210.175 266.371 210.175ZM282.397 210.6C282.397 210.433 282.481 210.35 282.647 210.35H283.922C284.089 210.35 284.172 210.433 284.172 210.6V222.575C284.172 224.442 283.631 225.808 282.547 226.675C281.481 227.542 280.006 227.975 278.122 227.975C277.739 227.975 277.447 227.967 277.247 227.95C277.081 227.933 276.997 227.842 276.997 227.675L277.047 226.525C277.047 226.442 277.072 226.375 277.122 226.325C277.172 226.292 277.231 226.283 277.297 226.3L277.972 226.325C279.522 226.325 280.647 226.017 281.347 225.4C282.047 224.8 282.397 223.842 282.397 222.525V221.6C282.397 221.567 282.381 221.55 282.347 221.55C282.331 221.533 282.306 221.542 282.272 221.575C281.506 222.575 280.414 223.075 278.997 223.075C277.914 223.075 276.947 222.783 276.097 222.2C275.264 221.617 274.706 220.792 274.422 219.725C274.222 219.042 274.122 218.025 274.122 216.675C274.122 215.942 274.139 215.325 274.172 214.825C274.222 214.325 274.314 213.875 274.447 213.475C274.747 212.475 275.289 211.675 276.072 211.075C276.856 210.458 277.797 210.15 278.897 210.15C280.381 210.15 281.506 210.642 282.272 211.625C282.306 211.658 282.331 211.667 282.347 211.65C282.381 211.633 282.397 211.608 282.397 211.575V210.6ZM282.272 219.175C282.322 218.925 282.356 218.617 282.372 218.25C282.389 217.883 282.397 217.35 282.397 216.65C282.397 215.8 282.389 215.233 282.372 214.95C282.356 214.65 282.314 214.375 282.247 214.125C282.114 213.425 281.781 212.85 281.247 212.4C280.731 211.933 280.072 211.7 279.272 211.7C278.489 211.7 277.822 211.925 277.272 212.375C276.739 212.825 276.364 213.408 276.147 214.125C275.981 214.658 275.897 215.492 275.897 216.625C275.897 217.842 275.981 218.683 276.147 219.15C276.314 219.85 276.672 220.433 277.222 220.9C277.789 221.35 278.472 221.575 279.272 221.575C280.089 221.575 280.756 221.35 281.272 220.9C281.806 220.45 282.139 219.875 282.272 219.175Z" fill="white"/>
</g>
<g filter="url(#filter2_d)">
<rect x="118" y="252" width="145" height="45" rx="22.5" fill="#70738C"/>
<path d="M160.842 284C160.692 284 160.592 283.933 160.542 283.8L159.542 280.65C159.526 280.6 159.492 280.575 159.442 280.575H151.967C151.917 280.575 151.884 280.6 151.867 280.65L150.867 283.8C150.817 283.933 150.717 284 150.567 284H149.217C149.034 284 148.967 283.908 149.017 283.725L154.542 266.7C154.592 266.567 154.692 266.5 154.842 266.5H156.542C156.692 266.5 156.792 266.567 156.842 266.7L162.392 283.725L162.417 283.825C162.417 283.942 162.342 284 162.192 284H160.842ZM152.367 279C152.351 279.033 152.351 279.067 152.367 279.1C152.401 279.117 152.434 279.125 152.467 279.125H158.917C158.951 279.125 158.976 279.117 158.992 279.1C159.026 279.067 159.034 279.033 159.017 279L155.767 268.8C155.751 268.767 155.726 268.75 155.692 268.75C155.659 268.75 155.634 268.767 155.617 268.8L152.367 279ZM170.553 271.175C171.886 271.175 172.944 271.567 173.728 272.35C174.528 273.133 174.928 274.183 174.928 275.5V283.75C174.928 283.917 174.844 284 174.678 284H173.403C173.236 284 173.153 283.917 173.153 283.75V275.85C173.153 274.933 172.869 274.183 172.303 273.6C171.753 273.017 171.036 272.725 170.153 272.725C169.236 272.725 168.494 273.008 167.928 273.575C167.361 274.142 167.078 274.883 167.078 275.8V283.75C167.078 283.917 166.994 284 166.828 284H165.553C165.386 284 165.303 283.917 165.303 283.75V271.6C165.303 271.433 165.386 271.35 165.553 271.35H166.828C166.994 271.35 167.078 271.433 167.078 271.6V272.675C167.078 272.708 167.086 272.733 167.103 272.75C167.136 272.767 167.161 272.758 167.178 272.725C167.911 271.692 169.036 271.175 170.553 271.175ZM186.458 266.75C186.458 266.583 186.542 266.5 186.708 266.5H187.983C188.15 266.5 188.233 266.583 188.233 266.75V283.75C188.233 283.917 188.15 284 187.983 284H186.708C186.542 284 186.458 283.917 186.458 283.75V282.7C186.458 282.667 186.442 282.65 186.408 282.65C186.392 282.633 186.367 282.642 186.333 282.675C185.967 283.158 185.508 283.533 184.958 283.8C184.425 284.067 183.825 284.2 183.158 284.2C181.992 284.2 181.008 283.9 180.208 283.3C179.425 282.7 178.883 281.883 178.583 280.85C178.35 280.1 178.233 279.042 178.233 277.675C178.233 276.292 178.333 275.258 178.533 274.575C178.833 273.508 179.383 272.675 180.183 272.075C180.983 271.458 181.975 271.15 183.158 271.15C183.808 271.15 184.408 271.283 184.958 271.55C185.508 271.8 185.967 272.167 186.333 272.65C186.367 272.683 186.392 272.7 186.408 272.7C186.442 272.683 186.458 272.658 186.458 272.625V266.75ZM186.008 280.725C186.158 280.392 186.267 280 186.333 279.55C186.4 279.1 186.433 278.475 186.433 277.675C186.433 276.875 186.4 276.25 186.333 275.8C186.267 275.333 186.15 274.925 185.983 274.575C185.783 274.008 185.45 273.558 184.983 273.225C184.533 272.875 183.992 272.7 183.358 272.7C182.692 272.7 182.117 272.867 181.633 273.2C181.15 273.533 180.8 273.975 180.583 274.525C180.383 274.892 180.233 275.308 180.133 275.775C180.05 276.225 180.008 276.858 180.008 277.675C180.008 278.458 180.042 279.075 180.108 279.525C180.175 279.958 180.292 280.35 180.458 280.7C180.658 281.3 181.008 281.775 181.508 282.125C182.025 282.475 182.633 282.65 183.333 282.65C184 282.65 184.558 282.475 185.008 282.125C185.458 281.775 185.792 281.308 186.008 280.725ZM197.356 271.225C197.906 271.225 198.381 271.333 198.781 271.55C198.914 271.617 198.964 271.725 198.931 271.875L198.656 273.1C198.606 273.267 198.498 273.317 198.331 273.25C198.048 273.133 197.723 273.075 197.356 273.075L197.031 273.1C196.164 273.133 195.448 273.458 194.881 274.075C194.314 274.675 194.031 275.442 194.031 276.375V283.75C194.031 283.917 193.948 284 193.781 284H192.506C192.339 284 192.256 283.917 192.256 283.75V271.6C192.256 271.433 192.339 271.35 192.506 271.35H193.781C193.948 271.35 194.031 271.433 194.031 271.6V273.125C194.031 273.175 194.039 273.208 194.056 273.225C194.089 273.225 194.114 273.208 194.131 273.175C194.481 272.558 194.923 272.083 195.456 271.75C196.006 271.4 196.639 271.225 197.356 271.225ZM206.065 284.2C204.865 284.2 203.832 283.892 202.965 283.275C202.099 282.658 201.499 281.808 201.165 280.725C200.932 279.958 200.815 278.933 200.815 277.65C200.815 276.367 200.932 275.35 201.165 274.6C201.482 273.533 202.074 272.692 202.94 272.075C203.807 271.458 204.857 271.15 206.09 271.15C207.274 271.15 208.29 271.458 209.14 272.075C210.007 272.692 210.599 273.525 210.915 274.575C211.149 275.292 211.265 276.317 211.265 277.65C211.265 279 211.149 280.025 210.915 280.725C210.599 281.808 210.007 282.658 209.14 283.275C208.29 283.892 207.265 284.2 206.065 284.2ZM206.065 282.65C206.865 282.65 207.549 282.433 208.115 282C208.682 281.55 209.065 280.95 209.265 280.2C209.415 279.6 209.49 278.758 209.49 277.675C209.49 276.575 209.424 275.733 209.29 275.15C209.09 274.4 208.699 273.808 208.115 273.375C207.549 272.925 206.857 272.7 206.04 272.7C205.224 272.7 204.532 272.925 203.965 273.375C203.399 273.808 203.015 274.4 202.815 275.15C202.682 275.733 202.615 276.575 202.615 277.675C202.615 278.775 202.682 279.617 202.815 280.2C202.999 280.95 203.374 281.55 203.94 282C204.524 282.433 205.232 282.65 206.065 282.65ZM216.063 269.05C215.663 269.05 215.33 268.917 215.063 268.65C214.797 268.383 214.663 268.05 214.663 267.65C214.663 267.233 214.797 266.9 215.063 266.65C215.33 266.383 215.663 266.25 216.063 266.25C216.463 266.25 216.797 266.383 217.063 266.65C217.33 266.9 217.463 267.233 217.463 267.65C217.463 268.05 217.33 268.383 217.063 268.65C216.797 268.917 216.463 269.05 216.063 269.05ZM215.363 283.975C215.197 283.975 215.113 283.892 215.113 283.725V271.575C215.113 271.408 215.197 271.325 215.363 271.325H216.638C216.805 271.325 216.888 271.408 216.888 271.575V283.725C216.888 283.892 216.805 283.975 216.638 283.975H215.363ZM229.085 266.75C229.085 266.583 229.169 266.5 229.335 266.5H230.61C230.777 266.5 230.86 266.583 230.86 266.75V283.75C230.86 283.917 230.777 284 230.61 284H229.335C229.169 284 229.085 283.917 229.085 283.75V282.7C229.085 282.667 229.069 282.65 229.035 282.65C229.019 282.633 228.994 282.642 228.96 282.675C228.594 283.158 228.135 283.533 227.585 283.8C227.052 284.067 226.452 284.2 225.785 284.2C224.619 284.2 223.635 283.9 222.835 283.3C222.052 282.7 221.51 281.883 221.21 280.85C220.977 280.1 220.86 279.042 220.86 277.675C220.86 276.292 220.96 275.258 221.16 274.575C221.46 273.508 222.01 272.675 222.81 272.075C223.61 271.458 224.602 271.15 225.785 271.15C226.435 271.15 227.035 271.283 227.585 271.55C228.135 271.8 228.594 272.167 228.96 272.65C228.994 272.683 229.019 272.7 229.035 272.7C229.069 272.683 229.085 272.658 229.085 272.625V266.75ZM228.635 280.725C228.785 280.392 228.894 280 228.96 279.55C229.027 279.1 229.06 278.475 229.06 277.675C229.06 276.875 229.027 276.25 228.96 275.8C228.894 275.333 228.777 274.925 228.61 274.575C228.41 274.008 228.077 273.558 227.61 273.225C227.16 272.875 226.619 272.7 225.985 272.7C225.319 272.7 224.744 272.867 224.26 273.2C223.777 273.533 223.427 273.975 223.21 274.525C223.01 274.892 222.86 275.308 222.76 275.775C222.677 276.225 222.635 276.858 222.635 277.675C222.635 278.458 222.669 279.075 222.735 279.525C222.802 279.958 222.919 280.35 223.085 280.7C223.285 281.3 223.635 281.775 224.135 282.125C224.652 282.475 225.26 282.65 225.96 282.65C226.627 282.65 227.185 282.475 227.635 282.125C228.085 281.775 228.419 281.308 228.635 280.725Z" fill="white"/>
</g>
<g filter="url(#filter3_d)">
<rect x="12" y="122" width="327.422" height="53" rx="26.5" fill="#EB4526"/>
<path d="M50.0695 138.97C51.8295 138.97 53.2395 139.51 54.2995 140.59C55.3795 141.67 55.9195 143.09 55.9195 144.85C55.9195 146.59 55.3695 147.99 54.2695 149.05C53.1895 150.11 51.7595 150.64 49.9795 150.64H44.1295C44.0495 150.64 44.0095 150.68 44.0095 150.76V159.7C44.0095 159.9 43.9095 160 43.7095 160H42.1795C41.9795 160 41.8795 159.9 41.8795 159.7V139.27C41.8795 139.07 41.9795 138.97 42.1795 138.97H50.0695ZM49.8295 148.87C51.0095 148.87 51.9695 148.51 52.7095 147.79C53.4495 147.05 53.8195 146.08 53.8195 144.88C53.8195 143.66 53.4495 142.68 52.7095 141.94C51.9695 141.2 51.0095 140.83 49.8295 140.83H44.1295C44.0495 140.83 44.0095 140.87 44.0095 140.95V148.75C44.0095 148.83 44.0495 148.87 44.1295 148.87H49.8295ZM65.5434 144.67C66.2034 144.67 66.7734 144.8 67.2534 145.06C67.4134 145.14 67.4734 145.27 67.4334 145.45L67.1034 146.92C67.0434 147.12 66.9134 147.18 66.7134 147.1C66.3734 146.96 65.9834 146.89 65.5434 146.89L65.1534 146.92C64.1134 146.96 63.2534 147.35 62.5734 148.09C61.8934 148.81 61.5534 149.73 61.5534 150.85V159.7C61.5534 159.9 61.4534 160 61.2534 160H59.7234C59.5234 160 59.4234 159.9 59.4234 159.7V145.12C59.4234 144.92 59.5234 144.82 59.7234 144.82H61.2534C61.4534 144.82 61.5534 144.92 61.5534 145.12V146.95C61.5534 147.01 61.5634 147.05 61.5834 147.07C61.6234 147.07 61.6534 147.05 61.6734 147.01C62.0934 146.27 62.6234 145.7 63.2634 145.3C63.9234 144.88 64.6834 144.67 65.5434 144.67ZM75.9947 160.24C74.5547 160.24 73.3147 159.87 72.2747 159.13C71.2347 158.39 70.5147 157.37 70.1147 156.07C69.8347 155.15 69.6947 153.92 69.6947 152.38C69.6947 150.84 69.8347 149.62 70.1147 148.72C70.4947 147.44 71.2047 146.43 72.2447 145.69C73.2847 144.95 74.5447 144.58 76.0247 144.58C77.4447 144.58 78.6647 144.95 79.6847 145.69C80.7247 146.43 81.4347 147.43 81.8147 148.69C82.0947 149.55 82.2347 150.78 82.2347 152.38C82.2347 154 82.0947 155.23 81.8147 156.07C81.4347 157.37 80.7247 158.39 79.6847 159.13C78.6647 159.87 77.4347 160.24 75.9947 160.24ZM75.9947 158.38C76.9547 158.38 77.7747 158.12 78.4547 157.6C79.1347 157.06 79.5947 156.34 79.8347 155.44C80.0147 154.72 80.1047 153.71 80.1047 152.41C80.1047 151.09 80.0247 150.08 79.8647 149.38C79.6247 148.48 79.1547 147.77 78.4547 147.25C77.7747 146.71 76.9447 146.44 75.9647 146.44C74.9847 146.44 74.1547 146.71 73.4747 147.25C72.7947 147.77 72.3347 148.48 72.0947 149.38C71.9347 150.08 71.8547 151.09 71.8547 152.41C71.8547 153.73 71.9347 154.74 72.0947 155.44C72.3147 156.34 72.7647 157.06 73.4447 157.6C74.1447 158.12 74.9947 158.38 75.9947 158.38ZM98.2223 148.69C98.4623 149.59 98.5823 150.83 98.5823 152.41C98.5823 154.05 98.4423 155.32 98.1623 156.22C97.7823 157.46 97.1223 158.44 96.1823 159.16C95.2423 159.88 94.0723 160.24 92.6723 160.24C91.8723 160.24 91.1423 160.08 90.4823 159.76C89.8223 159.44 89.2723 158.98 88.8323 158.38C88.8123 158.34 88.7823 158.33 88.7423 158.35C88.7023 158.35 88.6823 158.37 88.6823 158.41V159.7C88.6823 159.9 88.5823 160 88.3823 160H86.8523C86.6523 160 86.5523 159.9 86.5523 159.7V139.3C86.5523 139.1 86.6523 139 86.8523 139H88.3823C88.5823 139 88.6823 139.1 88.6823 139.3V146.38C88.6823 146.42 88.6923 146.45 88.7123 146.47C88.7523 146.47 88.7923 146.45 88.8323 146.41C89.2723 145.83 89.8223 145.38 90.4823 145.06C91.1423 144.74 91.8723 144.58 92.6723 144.58C94.0923 144.58 95.2823 144.95 96.2423 145.69C97.2023 146.41 97.8623 147.41 98.2223 148.69ZM95.9123 156.04C96.1123 155.62 96.2523 155.15 96.3323 154.63C96.4123 154.09 96.4523 153.35 96.4523 152.41C96.4523 151.43 96.3923 150.67 96.2723 150.13C96.1723 149.57 96.0023 149.07 95.7623 148.63C95.5023 147.97 95.0823 147.44 94.5023 147.04C93.9223 146.64 93.2323 146.44 92.4323 146.44C91.6723 146.44 91.0123 146.65 90.4523 147.07C89.9123 147.47 89.5223 148.01 89.2823 148.69C89.0823 149.11 88.9323 149.59 88.8323 150.13C88.7523 150.67 88.7123 151.43 88.7123 152.41C88.7123 153.37 88.7523 154.12 88.8323 154.66C88.9323 155.18 89.0723 155.65 89.2523 156.07C89.5123 156.77 89.9123 157.33 90.4523 157.75C90.9923 158.17 91.6623 158.38 92.4623 158.38C93.3023 158.38 94.0223 158.17 94.6223 157.75C95.2423 157.33 95.6723 156.76 95.9123 156.04ZM103.229 160C103.029 160 102.929 159.9 102.929 159.7V139.3C102.929 139.1 103.029 139 103.229 139H104.759C104.959 139 105.059 139.1 105.059 139.3V159.7C105.059 159.9 104.959 160 104.759 160H103.229ZM121.483 149.86C121.563 150.42 121.603 151.12 121.603 151.96V152.92C121.603 153.12 121.503 153.22 121.303 153.22H111.613C111.533 153.22 111.493 153.26 111.493 153.34C111.533 154.44 111.593 155.15 111.673 155.47C111.893 156.37 112.363 157.08 113.083 157.6C113.803 158.12 114.723 158.38 115.843 158.38C116.683 158.38 117.423 158.19 118.063 157.81C118.703 157.43 119.203 156.89 119.563 156.19C119.683 156.01 119.823 155.97 119.983 156.07L121.153 156.76C121.313 156.86 121.353 157 121.273 157.18C120.773 158.14 120.023 158.9 119.023 159.46C118.023 160 116.873 160.27 115.573 160.27C114.153 160.25 112.963 159.91 112.003 159.25C111.043 158.59 110.353 157.67 109.933 156.49C109.573 155.53 109.393 154.15 109.393 152.35C109.393 151.51 109.403 150.83 109.423 150.31C109.463 149.77 109.543 149.29 109.663 148.87C110.003 147.57 110.683 146.53 111.703 145.75C112.743 144.97 113.993 144.58 115.453 144.58C117.273 144.58 118.673 145.04 119.653 145.96C120.633 146.88 121.243 148.18 121.483 149.86ZM115.453 146.44C114.473 146.44 113.653 146.7 112.993 147.22C112.353 147.72 111.933 148.4 111.733 149.26C111.613 149.68 111.533 150.36 111.493 151.3C111.493 151.38 111.533 151.42 111.613 151.42H119.383C119.463 151.42 119.503 151.38 119.503 151.3C119.463 150.4 119.403 149.76 119.323 149.38C119.103 148.48 118.653 147.77 117.973 147.25C117.313 146.71 116.473 146.44 115.453 146.44ZM141.199 144.61C142.699 144.61 143.879 145.06 144.739 145.96C145.619 146.86 146.059 148.09 146.059 149.65V159.7C146.059 159.9 145.959 160 145.759 160H144.259C144.059 160 143.959 159.9 143.959 159.7V150.07C143.959 148.97 143.639 148.1 142.999 147.46C142.379 146.8 141.559 146.47 140.539 146.47C139.479 146.47 138.619 146.79 137.959 147.43C137.319 148.07 136.999 148.93 136.999 150.01V159.7C136.999 159.9 136.899 160 136.699 160H135.169C134.969 160 134.869 159.9 134.869 159.7V150.07C134.869 148.97 134.559 148.1 133.939 147.46C133.319 146.8 132.489 146.47 131.449 146.47C130.389 146.47 129.539 146.79 128.899 147.43C128.279 148.07 127.969 148.93 127.969 150.01V159.7C127.969 159.9 127.869 160 127.669 160H126.139C125.939 160 125.839 159.9 125.839 159.7V145.12C125.839 144.92 125.939 144.82 126.139 144.82H127.669C127.869 144.82 127.969 144.92 127.969 145.12V146.32C127.969 146.36 127.979 146.39 127.999 146.41C128.039 146.41 128.079 146.39 128.119 146.35C128.559 145.77 129.119 145.34 129.799 145.06C130.499 144.76 131.269 144.61 132.109 144.61C133.149 144.61 134.039 144.82 134.779 145.24C135.519 145.66 136.079 146.27 136.459 147.07C136.499 147.17 136.549 147.17 136.609 147.07C137.049 146.25 137.669 145.64 138.469 145.24C139.269 144.82 140.179 144.61 141.199 144.61ZM163.14 160.24C160.88 160.24 159.09 159.73 157.77 158.71C156.47 157.69 155.82 156.33 155.82 154.63V153.7C155.82 153.5 155.92 153.4 156.12 153.4H157.59C157.79 153.4 157.89 153.5 157.89 153.7V154.51C157.89 155.67 158.37 156.61 159.33 157.33C160.29 158.03 161.62 158.38 163.32 158.38C164.86 158.38 166.03 158.06 166.83 157.42C167.63 156.76 168.03 155.89 168.03 154.81C168.03 154.11 167.84 153.51 167.46 153.01C167.1 152.51 166.53 152.04 165.75 151.6C164.99 151.16 163.91 150.65 162.51 150.07C161.01 149.47 159.84 148.95 159 148.51C158.18 148.05 157.51 147.47 156.99 146.77C156.49 146.05 156.24 145.15 156.24 144.07C156.24 142.39 156.82 141.09 157.98 140.17C159.16 139.23 160.77 138.76 162.81 138.76C165.03 138.76 166.78 139.28 168.06 140.32C169.34 141.36 169.98 142.74 169.98 144.46V145.12C169.98 145.32 169.88 145.42 169.68 145.42H168.18C167.98 145.42 167.88 145.32 167.88 145.12V144.58C167.88 143.42 167.42 142.47 166.5 141.73C165.6 140.99 164.34 140.62 162.72 140.62C161.3 140.62 160.21 140.91 159.45 141.49C158.69 142.07 158.31 142.91 158.31 144.01C158.31 144.73 158.49 145.33 158.85 145.81C159.23 146.27 159.76 146.68 160.44 147.04C161.14 147.38 162.21 147.83 163.65 148.39C165.11 148.99 166.28 149.55 167.16 150.07C168.06 150.59 168.78 151.23 169.32 151.99C169.88 152.73 170.16 153.64 170.16 154.72C170.16 156.4 169.54 157.74 168.3 158.74C167.06 159.74 165.34 160.24 163.14 160.24ZM179.969 160.24C178.529 160.24 177.289 159.87 176.249 159.13C175.209 158.39 174.489 157.37 174.089 156.07C173.809 155.15 173.669 153.92 173.669 152.38C173.669 150.84 173.809 149.62 174.089 148.72C174.469 147.44 175.179 146.43 176.219 145.69C177.259 144.95 178.519 144.58 179.999 144.58C181.419 144.58 182.639 144.95 183.659 145.69C184.699 146.43 185.409 147.43 185.789 148.69C186.069 149.55 186.209 150.78 186.209 152.38C186.209 154 186.069 155.23 185.789 156.07C185.409 157.37 184.699 158.39 183.659 159.13C182.639 159.87 181.409 160.24 179.969 160.24ZM179.969 158.38C180.929 158.38 181.749 158.12 182.429 157.6C183.109 157.06 183.569 156.34 183.809 155.44C183.989 154.72 184.079 153.71 184.079 152.41C184.079 151.09 183.999 150.08 183.839 149.38C183.599 148.48 183.129 147.77 182.429 147.25C181.749 146.71 180.919 146.44 179.939 146.44C178.959 146.44 178.129 146.71 177.449 147.25C176.769 147.77 176.309 148.48 176.069 149.38C175.909 150.08 175.829 151.09 175.829 152.41C175.829 153.73 175.909 154.74 176.069 155.44C176.289 156.34 176.739 157.06 177.419 157.6C178.119 158.12 178.969 158.38 179.969 158.38ZM190.827 160C190.627 160 190.527 159.9 190.527 159.7V139.3C190.527 139.1 190.627 139 190.827 139H192.357C192.557 139 192.657 139.1 192.657 139.3V159.7C192.657 159.9 192.557 160 192.357 160H190.827ZM201.311 160C201.131 160 201.011 159.92 200.951 159.76L196.031 145.15L196.001 145.03C196.001 144.89 196.091 144.82 196.271 144.82H197.981C198.161 144.82 198.281 144.9 198.341 145.06L202.091 156.82C202.111 156.86 202.141 156.88 202.181 156.88C202.221 156.88 202.251 156.86 202.271 156.82L206.021 145.06C206.081 144.9 206.201 144.82 206.381 144.82L208.091 144.85C208.311 144.85 208.391 144.96 208.331 145.18L203.411 159.76C203.351 159.92 203.231 160 203.051 160H201.311ZM213.119 142.06C212.639 142.06 212.239 141.9 211.919 141.58C211.599 141.26 211.439 140.86 211.439 140.38C211.439 139.88 211.599 139.48 211.919 139.18C212.239 138.86 212.639 138.7 213.119 138.7C213.599 138.7 213.999 138.86 214.319 139.18C214.639 139.48 214.799 139.88 214.799 140.38C214.799 140.86 214.639 141.26 214.319 141.58C213.999 141.9 213.599 142.06 213.119 142.06ZM212.279 159.97C212.079 159.97 211.979 159.87 211.979 159.67V145.09C211.979 144.89 212.079 144.79 212.279 144.79H213.809C214.009 144.79 214.109 144.89 214.109 145.09V159.67C214.109 159.87 214.009 159.97 213.809 159.97H212.279ZM225.626 144.61C227.226 144.61 228.496 145.08 229.436 146.02C230.396 146.96 230.876 148.22 230.876 149.8V159.7C230.876 159.9 230.776 160 230.576 160H229.046C228.846 160 228.746 159.9 228.746 159.7V150.22C228.746 149.12 228.406 148.22 227.726 147.52C227.066 146.82 226.206 146.47 225.146 146.47C224.046 146.47 223.156 146.81 222.476 147.49C221.796 148.17 221.456 149.06 221.456 150.16V159.7C221.456 159.9 221.356 160 221.156 160H219.626C219.426 160 219.326 159.9 219.326 159.7V145.12C219.326 144.92 219.426 144.82 219.626 144.82H221.156C221.356 144.82 221.456 144.92 221.456 145.12V146.41C221.456 146.45 221.466 146.48 221.486 146.5C221.526 146.52 221.556 146.51 221.576 146.47C222.456 145.23 223.806 144.61 225.626 144.61ZM244.858 145.12C244.858 144.92 244.958 144.82 245.158 144.82H246.688C246.888 144.82 246.988 144.92 246.988 145.12V159.49C246.988 161.73 246.338 163.37 245.038 164.41C243.758 165.45 241.988 165.97 239.728 165.97C239.268 165.97 238.918 165.96 238.678 165.94C238.478 165.92 238.378 165.81 238.378 165.61L238.438 164.23C238.438 164.13 238.468 164.05 238.528 163.99C238.588 163.95 238.658 163.94 238.738 163.96L239.548 163.99C241.408 163.99 242.758 163.62 243.598 162.88C244.438 162.16 244.858 161.01 244.858 159.43V158.32C244.858 158.28 244.838 158.26 244.798 158.26C244.778 158.24 244.748 158.25 244.708 158.29C243.788 159.49 242.478 160.09 240.778 160.09C239.478 160.09 238.318 159.74 237.298 159.04C236.298 158.34 235.628 157.35 235.288 156.07C235.048 155.25 234.928 154.03 234.928 152.41C234.928 151.53 234.948 150.79 234.988 150.19C235.048 149.59 235.158 149.05 235.318 148.57C235.678 147.37 236.328 146.41 237.268 145.69C238.208 144.95 239.338 144.58 240.658 144.58C242.438 144.58 243.788 145.17 244.708 146.35C244.748 146.39 244.778 146.4 244.798 146.38C244.838 146.36 244.858 146.33 244.858 146.29V145.12ZM244.708 155.41C244.768 155.11 244.808 154.74 244.828 154.3C244.848 153.86 244.858 153.22 244.858 152.38C244.858 151.36 244.848 150.68 244.828 150.34C244.808 149.98 244.758 149.65 244.678 149.35C244.518 148.51 244.118 147.82 243.478 147.28C242.858 146.72 242.068 146.44 241.108 146.44C240.168 146.44 239.368 146.71 238.708 147.25C238.068 147.79 237.618 148.49 237.358 149.35C237.158 149.99 237.058 150.99 237.058 152.35C237.058 153.81 237.158 154.82 237.358 155.38C237.558 156.22 237.988 156.92 238.648 157.48C239.328 158.02 240.148 158.29 241.108 158.29C242.088 158.29 242.888 158.02 243.508 157.48C244.148 156.94 244.548 156.25 244.708 155.41Z" fill="white"/>
<g clip-path="url(#clip0)">
<path d="M293.577 143.919C293.653 143.905 293.704 143.849 293.73 143.746L294.57 141.482C295.562 138.848 296.3 136.867 296.784 135.536C296.81 135.435 296.804 135.351 296.764 135.288C296.727 135.223 296.659 135.191 296.555 135.191H288.08C287.825 135.191 287.763 135.292 287.889 135.498C289.722 138.284 291.542 141.048 293.348 143.784C293.424 143.885 293.501 143.932 293.577 143.919ZM280.445 143.919C280.522 143.932 280.598 143.887 280.674 143.784C282.483 141.048 284.301 138.286 286.133 135.498C286.183 135.421 286.189 135.351 286.153 135.288C286.113 135.223 286.045 135.191 285.942 135.191H277.468C277.367 135.191 277.297 135.223 277.257 135.288C277.219 135.351 277.213 135.433 277.239 135.536C277.721 136.867 278.46 138.848 279.453 141.482L280.293 143.746C280.319 143.847 280.369 143.907 280.445 143.919ZM279.109 144.743C279.21 144.743 279.294 144.711 279.356 144.646C279.421 144.584 279.427 144.501 279.376 144.398C278.384 141.713 277.341 138.951 276.246 136.112C276.22 136.011 276.17 135.95 276.093 135.938C276.017 135.926 275.953 135.958 275.903 136.035C275.495 136.649 274.884 137.582 274.07 138.835L270.367 144.436C270.317 144.513 270.311 144.584 270.347 144.646C270.387 144.711 270.456 144.743 270.558 144.743H279.109ZM303.464 144.743C303.565 144.743 303.637 144.711 303.673 144.646C303.713 144.584 303.705 144.513 303.655 144.436C303.044 143.489 302.128 142.084 300.906 140.217L298.12 136.035C298.07 135.958 298.005 135.926 297.929 135.938C297.853 135.952 297.802 136.009 297.776 136.112C297.063 137.953 296.02 140.715 294.646 144.398C294.596 144.499 294.602 144.584 294.666 144.646C294.728 144.711 294.811 144.743 294.913 144.743H303.464ZM292.279 144.743C292.38 144.743 292.45 144.711 292.49 144.646C292.528 144.584 292.52 144.501 292.47 144.398C291.885 143.504 291.019 142.185 289.874 140.447L287.24 136.495C287.19 136.394 287.114 136.342 287.011 136.342C286.911 136.342 286.832 136.392 286.782 136.495L284.797 139.488C283.371 141.688 282.29 143.324 281.552 144.398C281.502 144.499 281.494 144.584 281.532 144.646C281.572 144.711 281.641 144.743 281.743 144.743H292.279ZM288.042 162.083C288.068 162.083 288.168 161.994 288.347 161.814L303.464 146.163C303.54 146.086 303.579 146.015 303.579 145.951C303.579 145.888 303.54 145.856 303.464 145.856H300.334C297.762 145.882 295.841 145.882 294.57 145.856C294.391 145.856 294.252 145.894 294.15 145.971C294.049 146.048 293.971 146.163 293.921 146.316C291.731 152.147 290.091 156.532 288.996 159.474C288.641 160.445 288.359 161.188 288.156 161.699L288.042 162.083ZM287.031 161.431C287.094 161.431 287.138 161.38 287.164 161.277C288.41 157.901 290.282 152.888 292.775 146.239C292.802 146.138 292.796 146.054 292.755 145.991C292.719 145.926 292.649 145.894 292.546 145.894H281.476C281.376 145.894 281.303 145.926 281.267 145.991C281.227 146.054 281.221 146.136 281.247 146.239C281.755 147.57 282.507 149.577 283.499 152.262L286.859 161.277C286.909 161.378 286.967 161.431 287.031 161.431ZM285.981 162.044L285.866 161.661L280.064 146.239C280.013 146.138 279.937 146.054 279.835 145.991C279.734 145.926 279.632 145.892 279.529 145.892H270.711C270.611 145.892 270.546 145.918 270.52 145.969C270.494 146.019 270.52 146.084 270.596 146.161C274.058 149.767 279.083 154.984 285.675 161.812C285.854 161.992 285.956 162.069 285.981 162.042V162.044Z" fill="white"/>
</g>
</g>
<defs>
<filter id="filter0_d" x="38" y="49" width="218" height="75" filterUnits="userSpaceOnUse" color-interpolation-filters="sRGB">
<feFlood flood-opacity="0" result="BackgroundImageFix"/>
<feColorMatrix in="SourceAlpha" type="matrix" values="0 0 0 0 0 0 0 0 0 0 0 0 0 0 0 0 0 0 127 0"/>
<feMorphology radius="5" operator="dilate" in="SourceAlpha" result="effect1_dropShadow"/>
<feOffset dx="3" dy="3"/>
<feGaussianBlur stdDeviation="5"/>
<feColorMatrix type="matrix" values="0 0 0 0 0 0 0 0 0 0 0 0 0 0 0 0 0 0 0.2 0"/>
<feBlend mode="normal" in2="BackgroundImageFix" result="effect1_dropShadow"/>
<feBlend mode="normal" in="SourceGraphic" in2="effect1_dropShadow" result="shape"/>
</filter>
<filter id="filter1_d" x="68" y="179" width="266" height="75" filterUnits="userSpaceOnUse" color-interpolation-filters="sRGB">
<feFlood flood-opacity="0" result="BackgroundImageFix"/>
<feColorMatrix in="SourceAlpha" type="matrix" values="0 0 0 0 0 0 0 0 0 0 0 0 0 0 0 0 0 0 127 0"/>
<feMorphology radius="5" operator="dilate" in="SourceAlpha" result="effect1_dropShadow"/>
<feOffset dx="3" dy="3"/>
<feGaussianBlur stdDeviation="5"/>
<feColorMatrix type="matrix" values="0 0 0 0 0 0 0 0 0 0 0 0 0 0 0 0 0 0 0.2 0"/>
<feBlend mode="normal" in2="BackgroundImageFix" result="effect1_dropShadow"/>
<feBlend mode="normal" in="SourceGraphic" in2="effect1_dropShadow" result="shape"/>
</filter>
<filter id="filter2_d" x="106" y="240" width="175" height="75" filterUnits="userSpaceOnUse" color-interpolation-filters="sRGB">
<feFlood flood-opacity="0" result="BackgroundImageFix"/>
<feColorMatrix in="SourceAlpha" type="matrix" values="0 0 0 0 0 0 0 0 0 0 0 0 0 0 0 0 0 0 127 0"/>
<feMorphology radius="5" operator="dilate" in="SourceAlpha" result="effect1_dropShadow"/>
<feOffset dx="3" dy="3"/>
<feGaussianBlur stdDeviation="5"/>
<feColorMatrix type="matrix" values="0 0 0 0 0 0 0 0 0 0 0 0 0 0 0 0 0 0 0.2 0"/>
<feBlend mode="normal" in2="BackgroundImageFix" result="effect1_dropShadow"/>
<feBlend mode="normal" in="SourceGraphic" in2="effect1_dropShadow" result="shape"/>
</filter>
<filter id="filter3_d" x="0" y="110" width="357.422" height="83" filterUnits="userSpaceOnUse" color-interpolation-filters="sRGB">
<feFlood flood-opacity="0" result="BackgroundImageFix"/>
<feColorMatrix in="SourceAlpha" type="matrix" values="0 0 0 0 0 0 0 0 0 0 0 0 0 0 0 0 0 0 127 0"/>
<feMorphology radius="5" operator="dilate" in="SourceAlpha" result="effect1_dropShadow"/>
<feOffset dx="3" dy="3"/>
<feGaussianBlur stdDeviation="5"/>
<feColorMatrix type="matrix" values="0 0 0 0 0 0 0 0 0 0 0 0 0 0 0 0 0 0 0.2 0"/>
<feBlend mode="normal" in2="BackgroundImageFix" result="effect1_dropShadow"/>
<feBlend mode="normal" in="SourceGraphic" in2="effect1_dropShadow" result="shape"/>
</filter>
<clipPath id="clip0">
<rect width="34.1556" height="28.2667" fill="white" transform="translate(269.934 133.778)"/>
</clipPath>
</defs>
</svg>
