<svg width="381" height="205" viewBox="0 0 381 205" fill="none" xmlns="http://www.w3.org/2000/svg">
<g filter="url(#filter0_d)">
<rect x="58" y="142" width="192.721" height="45" rx="22.5" fill="#70738C"/>
<path d="M103.139 174.2C102.006 174.2 101.006 173.983 100.139 173.55C99.2894 173.116 98.6311 172.508 98.1644 171.725C97.6978 170.925 97.4644 170.008 97.4644 168.975V167.075C97.4644 166.908 97.5478 166.825 97.7144 166.825H98.9894C99.1561 166.825 99.2394 166.908 99.2394 167.075V168.975C99.2394 170.075 99.5894 170.966 100.289 171.65C101.006 172.316 101.956 172.65 103.139 172.65C104.306 172.65 105.248 172.316 105.964 171.65C106.681 170.966 107.039 170.075 107.039 168.975V156.75C107.039 156.583 107.123 156.5 107.289 156.5H108.564C108.731 156.5 108.814 156.583 108.814 156.75V168.975C108.814 170.008 108.573 170.925 108.089 171.725C107.623 172.508 106.956 173.116 106.089 173.55C105.239 173.983 104.256 174.2 103.139 174.2ZM117.543 161.15C119.043 161.15 120.201 161.533 121.018 162.3C121.835 163.066 122.243 164.083 122.243 165.35V173.75C122.243 173.916 122.16 174 121.993 174H120.718C120.551 174 120.468 173.916 120.468 173.75V172.725C120.468 172.691 120.451 172.666 120.418 172.65C120.401 172.633 120.376 172.641 120.343 172.675C119.926 173.175 119.385 173.558 118.718 173.825C118.051 174.075 117.31 174.2 116.493 174.2C115.31 174.2 114.318 173.9 113.518 173.3C112.718 172.7 112.318 171.783 112.318 170.55C112.318 169.3 112.768 168.316 113.668 167.6C114.585 166.866 115.851 166.5 117.468 166.5H120.368C120.435 166.5 120.468 166.466 120.468 166.4V165.45C120.468 164.6 120.226 163.933 119.743 163.45C119.276 162.95 118.543 162.7 117.543 162.7C116.743 162.7 116.093 162.858 115.593 163.175C115.093 163.475 114.785 163.9 114.668 164.45C114.618 164.616 114.518 164.691 114.368 164.675L113.018 164.5C112.835 164.466 112.76 164.4 112.793 164.3C112.926 163.366 113.426 162.608 114.293 162.025C115.16 161.441 116.243 161.15 117.543 161.15ZM116.843 172.675C117.826 172.675 118.676 172.433 119.393 171.95C120.11 171.45 120.468 170.783 120.468 169.95V168C120.468 167.933 120.435 167.9 120.368 167.9H117.743C116.643 167.9 115.76 168.125 115.093 168.575C114.426 169.025 114.093 169.65 114.093 170.45C114.093 171.183 114.343 171.741 114.843 172.125C115.36 172.491 116.026 172.675 116.843 172.675ZM129.015 174C128.865 174 128.765 173.933 128.715 173.8L124.615 161.625L124.59 161.525C124.59 161.408 124.665 161.35 124.815 161.35H126.24C126.39 161.35 126.49 161.416 126.54 161.55L129.665 171.35C129.682 171.383 129.707 171.4 129.74 171.4C129.774 171.4 129.799 171.383 129.815 171.35L132.94 161.55C132.99 161.416 133.09 161.35 133.24 161.35L134.665 161.375C134.849 161.375 134.915 161.466 134.865 161.65L130.765 173.8C130.715 173.933 130.615 174 130.465 174H129.015ZM141.762 161.15C143.262 161.15 144.42 161.533 145.237 162.3C146.054 163.066 146.462 164.083 146.462 165.35V173.75C146.462 173.916 146.379 174 146.212 174H144.937C144.77 174 144.687 173.916 144.687 173.75V172.725C144.687 172.691 144.67 172.666 144.637 172.65C144.62 172.633 144.595 172.641 144.562 172.675C144.145 173.175 143.604 173.558 142.937 173.825C142.27 174.075 141.529 174.2 140.712 174.2C139.529 174.2 138.537 173.9 137.737 173.3C136.937 172.7 136.537 171.783 136.537 170.55C136.537 169.3 136.987 168.316 137.887 167.6C138.804 166.866 140.07 166.5 141.687 166.5H144.587C144.654 166.5 144.687 166.466 144.687 166.4V165.45C144.687 164.6 144.445 163.933 143.962 163.45C143.495 162.95 142.762 162.7 141.762 162.7C140.962 162.7 140.312 162.858 139.812 163.175C139.312 163.475 139.004 163.9 138.887 164.45C138.837 164.616 138.737 164.691 138.587 164.675L137.237 164.5C137.054 164.466 136.979 164.4 137.012 164.3C137.145 163.366 137.645 162.608 138.512 162.025C139.379 161.441 140.462 161.15 141.762 161.15ZM141.062 172.675C142.045 172.675 142.895 172.433 143.612 171.95C144.329 171.45 144.687 170.783 144.687 169.95V168C144.687 167.933 144.654 167.9 144.587 167.9H141.962C140.862 167.9 139.979 168.125 139.312 168.575C138.645 169.025 138.312 169.65 138.312 170.45C138.312 171.183 138.562 171.741 139.062 172.125C139.579 172.491 140.245 172.675 141.062 172.675ZM155.555 174.2C153.672 174.2 152.18 173.775 151.08 172.925C149.997 172.075 149.455 170.941 149.455 169.525V168.75C149.455 168.583 149.539 168.5 149.705 168.5H150.93C151.097 168.5 151.18 168.583 151.18 168.75V169.425C151.18 170.391 151.58 171.175 152.38 171.775C153.18 172.358 154.289 172.65 155.705 172.65C156.989 172.65 157.964 172.383 158.63 171.85C159.297 171.3 159.63 170.575 159.63 169.675C159.63 169.091 159.472 168.591 159.155 168.175C158.855 167.758 158.38 167.366 157.73 167C157.097 166.633 156.197 166.208 155.03 165.725C153.78 165.225 152.805 164.791 152.105 164.425C151.422 164.041 150.864 163.558 150.43 162.975C150.014 162.375 149.805 161.625 149.805 160.725C149.805 159.325 150.289 158.241 151.255 157.475C152.239 156.691 153.58 156.3 155.28 156.3C157.13 156.3 158.589 156.733 159.655 157.6C160.722 158.466 161.255 159.616 161.255 161.05V161.6C161.255 161.766 161.172 161.85 161.005 161.85H159.755C159.589 161.85 159.505 161.766 159.505 161.6V161.15C159.505 160.183 159.122 159.391 158.355 158.775C157.605 158.158 156.555 157.85 155.205 157.85C154.022 157.85 153.114 158.091 152.48 158.575C151.847 159.058 151.53 159.758 151.53 160.675C151.53 161.275 151.68 161.775 151.98 162.175C152.297 162.558 152.739 162.9 153.305 163.2C153.889 163.483 154.78 163.858 155.98 164.325C157.197 164.825 158.172 165.291 158.905 165.725C159.655 166.158 160.255 166.691 160.705 167.325C161.172 167.941 161.405 168.7 161.405 169.6C161.405 171 160.889 172.116 159.855 172.95C158.822 173.783 157.389 174.2 155.555 174.2ZM169.53 174.2C168.33 174.2 167.297 173.891 166.43 173.275C165.58 172.641 164.997 171.791 164.68 170.725C164.463 169.991 164.355 168.958 164.355 167.625C164.355 166.425 164.463 165.408 164.68 164.575C164.98 163.541 165.563 162.716 166.43 162.1C167.297 161.466 168.33 161.15 169.53 161.15C170.747 161.15 171.797 161.458 172.68 162.075C173.58 162.691 174.163 163.458 174.43 164.375C174.513 164.675 174.563 164.925 174.58 165.125V165.175C174.58 165.291 174.505 165.366 174.355 165.4L173.105 165.575H173.055C172.938 165.575 172.863 165.5 172.83 165.35L172.755 164.975C172.605 164.341 172.238 163.808 171.655 163.375C171.072 162.925 170.363 162.7 169.53 162.7C168.697 162.7 167.997 162.925 167.43 163.375C166.88 163.808 166.522 164.391 166.355 165.125C166.205 165.758 166.13 166.6 166.13 167.65C166.13 168.75 166.205 169.6 166.355 170.2C166.522 170.95 166.88 171.55 167.43 172C167.997 172.433 168.697 172.65 169.53 172.65C170.347 172.65 171.047 172.441 171.63 172.025C172.23 171.591 172.605 171.041 172.755 170.375V170.275L172.78 170.175C172.797 170.008 172.897 169.941 173.08 169.975L174.305 170.175C174.472 170.208 174.547 170.3 174.53 170.45L174.43 170.95C174.18 171.916 173.605 172.7 172.705 173.3C171.805 173.9 170.747 174.2 169.53 174.2ZM182.843 161.225C183.393 161.225 183.868 161.333 184.268 161.55C184.402 161.616 184.452 161.725 184.418 161.875L184.143 163.1C184.093 163.266 183.985 163.316 183.818 163.25C183.535 163.133 183.21 163.075 182.843 163.075L182.518 163.1C181.652 163.133 180.935 163.458 180.368 164.075C179.802 164.675 179.518 165.441 179.518 166.375V173.75C179.518 173.916 179.435 174 179.268 174H177.993C177.827 174 177.743 173.916 177.743 173.75V161.6C177.743 161.433 177.827 161.35 177.993 161.35H179.268C179.435 161.35 179.518 161.433 179.518 161.6V163.125C179.518 163.175 179.527 163.208 179.543 163.225C179.577 163.225 179.602 163.208 179.618 163.175C179.968 162.558 180.41 162.083 180.943 161.75C181.493 161.4 182.127 161.225 182.843 161.225ZM188.05 159.05C187.65 159.05 187.316 158.916 187.05 158.65C186.783 158.383 186.65 158.05 186.65 157.65C186.65 157.233 186.783 156.9 187.05 156.65C187.316 156.383 187.65 156.25 188.05 156.25C188.45 156.25 188.783 156.383 189.05 156.65C189.316 156.9 189.45 157.233 189.45 157.65C189.45 158.05 189.316 158.383 189.05 158.65C188.783 158.916 188.45 159.05 188.05 159.05ZM187.35 173.975C187.183 173.975 187.1 173.891 187.1 173.725V161.575C187.1 161.408 187.183 161.325 187.35 161.325H188.625C188.791 161.325 188.875 161.408 188.875 161.575V173.725C188.875 173.891 188.791 173.975 188.625 173.975H187.35ZM203.047 164.5C203.297 165.3 203.422 166.358 203.422 167.675C203.422 169.008 203.314 170.041 203.097 170.775C202.797 171.841 202.247 172.683 201.447 173.3C200.664 173.9 199.672 174.2 198.472 174.2C197.822 174.2 197.222 174.075 196.672 173.825C196.122 173.558 195.664 173.183 195.297 172.7C195.264 172.666 195.23 172.658 195.197 172.675C195.18 172.675 195.172 172.691 195.172 172.725V178.6C195.172 178.766 195.089 178.85 194.922 178.85H193.647C193.48 178.85 193.397 178.766 193.397 178.6V161.6C193.397 161.433 193.48 161.35 193.647 161.35H194.922C195.089 161.35 195.172 161.433 195.172 161.6V162.65C195.172 162.683 195.18 162.708 195.197 162.725C195.23 162.725 195.264 162.708 195.297 162.675C195.664 162.191 196.114 161.816 196.647 161.55C197.197 161.283 197.805 161.15 198.472 161.15C199.639 161.15 200.614 161.45 201.397 162.05C202.197 162.65 202.747 163.466 203.047 164.5ZM201.072 170.825C201.255 170.458 201.389 170.05 201.472 169.6C201.572 169.133 201.622 168.491 201.622 167.675C201.622 166.891 201.589 166.283 201.522 165.85C201.455 165.4 201.339 165 201.172 164.65C200.972 164.05 200.614 163.575 200.097 163.225C199.597 162.875 198.997 162.7 198.297 162.7C197.63 162.7 197.072 162.875 196.622 163.225C196.172 163.575 195.839 164.041 195.622 164.625C195.472 164.958 195.364 165.35 195.297 165.8C195.23 166.25 195.197 166.875 195.197 167.675C195.197 168.475 195.23 169.108 195.297 169.575C195.364 170.025 195.48 170.425 195.647 170.775C195.847 171.341 196.172 171.8 196.622 172.15C197.089 172.483 197.639 172.65 198.272 172.65C198.939 172.65 199.514 172.483 199.997 172.15C200.497 171.816 200.855 171.375 201.072 170.825ZM212.691 162.575C212.691 162.741 212.607 162.825 212.441 162.825H209.616C209.549 162.825 209.516 162.858 209.516 162.925V170.3C209.516 171.1 209.691 171.666 210.041 172C210.407 172.316 210.974 172.475 211.741 172.475H212.366C212.532 172.475 212.616 172.558 212.616 172.725V173.75C212.616 173.916 212.532 174 212.366 174C212.166 174.016 211.857 174.025 211.441 174.025C210.241 174.025 209.332 173.8 208.716 173.35C208.099 172.9 207.791 172.066 207.791 170.85V162.925C207.791 162.858 207.757 162.825 207.691 162.825H206.166C205.999 162.825 205.916 162.741 205.916 162.575V161.6C205.916 161.433 205.999 161.35 206.166 161.35H207.691C207.757 161.35 207.791 161.316 207.791 161.25V158.35C207.791 158.183 207.874 158.1 208.041 158.1H209.266C209.432 158.1 209.516 158.183 209.516 158.35V161.25C209.516 161.316 209.549 161.35 209.616 161.35H212.441C212.607 161.35 212.691 161.433 212.691 161.6V162.575Z" fill="white"/>
</g>
<g filter="url(#filter1_d)">
<rect x="127" y="11.9995" width="151" height="45" rx="22.5" fill="#70738C"/>
<path d="M176.479 27.7995C176.479 27.9662 176.396 28.0495 176.229 28.0495H167.029C166.963 28.0495 166.929 28.0828 166.929 28.1495V34.3245C166.929 34.3912 166.963 34.4245 167.029 34.4245H173.479C173.646 34.4245 173.729 34.5078 173.729 34.6745V35.7245C173.729 35.8912 173.646 35.9745 173.479 35.9745H167.029C166.963 35.9745 166.929 36.0078 166.929 36.0745V42.3495C166.929 42.4162 166.963 42.4495 167.029 42.4495H176.229C176.396 42.4495 176.479 42.5328 176.479 42.6995V43.7495C176.479 43.9162 176.396 43.9995 176.229 43.9995H165.404C165.238 43.9995 165.154 43.9162 165.154 43.7495V26.7495C165.154 26.5828 165.238 26.4995 165.404 26.4995H176.229C176.396 26.4995 176.479 26.5828 176.479 26.7495V27.7995ZM185.191 31.1745C186.524 31.1745 187.583 31.5662 188.366 32.3495C189.166 33.1328 189.566 34.1828 189.566 35.4995V43.7495C189.566 43.9162 189.483 43.9995 189.316 43.9995H188.041C187.874 43.9995 187.791 43.9162 187.791 43.7495V35.8495C187.791 34.9328 187.508 34.1828 186.941 33.5995C186.391 33.0162 185.674 32.7245 184.791 32.7245C183.874 32.7245 183.133 33.0078 182.566 33.5745C181.999 34.1412 181.716 34.8828 181.716 35.7995V43.7495C181.716 43.9162 181.633 43.9995 181.466 43.9995H180.191C180.024 43.9995 179.941 43.9162 179.941 43.7495V31.5995C179.941 31.4328 180.024 31.3495 180.191 31.3495H181.466C181.633 31.3495 181.716 31.4328 181.716 31.5995V32.6745C181.716 32.7078 181.724 32.7328 181.741 32.7495C181.774 32.7662 181.799 32.7578 181.816 32.7245C182.549 31.6912 183.674 31.1745 185.191 31.1745ZM201.218 31.5995C201.218 31.4328 201.301 31.3495 201.468 31.3495H202.743C202.909 31.3495 202.993 31.4328 202.993 31.5995V43.5745C202.993 45.4412 202.451 46.8078 201.368 47.6745C200.301 48.5412 198.826 48.9745 196.943 48.9745C196.559 48.9745 196.268 48.9662 196.068 48.9495C195.901 48.9328 195.818 48.8412 195.818 48.6745L195.868 47.5245C195.868 47.4412 195.893 47.3745 195.943 47.3245C195.993 47.2912 196.051 47.2828 196.118 47.2995L196.793 47.3245C198.343 47.3245 199.468 47.0162 200.168 46.3995C200.868 45.7995 201.218 44.8412 201.218 43.5245V42.5995C201.218 42.5662 201.201 42.5495 201.168 42.5495C201.151 42.5328 201.126 42.5412 201.093 42.5745C200.326 43.5745 199.234 44.0745 197.818 44.0745C196.734 44.0745 195.768 43.7828 194.918 43.1995C194.084 42.6162 193.526 41.7912 193.243 40.7245C193.043 40.0412 192.943 39.0245 192.943 37.6745C192.943 36.9412 192.959 36.3245 192.993 35.8245C193.043 35.3245 193.134 34.8745 193.268 34.4745C193.568 33.4745 194.109 32.6745 194.893 32.0745C195.676 31.4578 196.618 31.1495 197.718 31.1495C199.201 31.1495 200.326 31.6412 201.093 32.6245C201.126 32.6578 201.151 32.6662 201.168 32.6495C201.201 32.6328 201.218 32.6078 201.218 32.5745V31.5995ZM201.093 40.1745C201.143 39.9245 201.176 39.6162 201.193 39.2495C201.209 38.8828 201.218 38.3495 201.218 37.6495C201.218 36.7995 201.209 36.2328 201.193 35.9495C201.176 35.6495 201.134 35.3745 201.068 35.1245C200.934 34.4245 200.601 33.8495 200.068 33.3995C199.551 32.9328 198.893 32.6995 198.093 32.6995C197.309 32.6995 196.643 32.9245 196.093 33.3745C195.559 33.8245 195.184 34.4078 194.968 35.1245C194.801 35.6578 194.718 36.4912 194.718 37.6245C194.718 38.8412 194.801 39.6828 194.968 40.1495C195.134 40.8495 195.493 41.4328 196.043 41.8995C196.609 42.3495 197.293 42.5745 198.093 42.5745C198.909 42.5745 199.576 42.3495 200.093 41.8995C200.626 41.4495 200.959 40.8745 201.093 40.1745ZM207.047 43.9995C206.88 43.9995 206.797 43.9162 206.797 43.7495V26.7495C206.797 26.5828 206.88 26.4995 207.047 26.4995H208.322C208.488 26.4995 208.572 26.5828 208.572 26.7495V43.7495C208.572 43.9162 208.488 43.9995 208.322 43.9995H207.047ZM213.758 29.0495C213.358 29.0495 213.025 28.9162 212.758 28.6495C212.492 28.3828 212.358 28.0495 212.358 27.6495C212.358 27.2328 212.492 26.8995 212.758 26.6495C213.025 26.3828 213.358 26.2495 213.758 26.2495C214.158 26.2495 214.492 26.3828 214.758 26.6495C215.025 26.8995 215.158 27.2328 215.158 27.6495C215.158 28.0495 215.025 28.3828 214.758 28.6495C214.492 28.9162 214.158 29.0495 213.758 29.0495ZM213.058 43.9745C212.892 43.9745 212.808 43.8912 212.808 43.7245V31.5745C212.808 31.4078 212.892 31.3245 213.058 31.3245H214.333C214.5 31.3245 214.583 31.4078 214.583 31.5745V43.7245C214.583 43.8912 214.5 43.9745 214.333 43.9745H213.058ZM223.08 44.1245C222.147 44.1245 221.314 43.9745 220.58 43.6745C219.864 43.3745 219.305 42.9745 218.905 42.4745C218.522 41.9745 218.33 41.4162 218.33 40.7995V40.4995C218.33 40.3328 218.414 40.2495 218.58 40.2495H219.78C219.947 40.2495 220.03 40.3328 220.03 40.4995V40.6995C220.03 41.2495 220.314 41.7328 220.88 42.1495C221.464 42.5495 222.189 42.7495 223.055 42.7495C223.922 42.7495 224.622 42.5578 225.155 42.1745C225.689 41.7745 225.955 41.2745 225.955 40.6745C225.955 40.2578 225.814 39.9162 225.53 39.6495C225.264 39.3828 224.939 39.1745 224.555 39.0245C224.189 38.8745 223.614 38.6828 222.83 38.4495C221.897 38.1828 221.13 37.9162 220.53 37.6495C219.93 37.3828 219.422 37.0162 219.005 36.5495C218.605 36.0662 218.405 35.4578 218.405 34.7245C218.405 33.6578 218.822 32.8078 219.655 32.1745C220.489 31.5412 221.589 31.2245 222.955 31.2245C223.872 31.2245 224.68 31.3745 225.38 31.6745C226.097 31.9745 226.647 32.3912 227.03 32.9245C227.414 33.4412 227.605 34.0245 227.605 34.6745V34.7495C227.605 34.9162 227.522 34.9995 227.355 34.9995H226.18C226.014 34.9995 225.93 34.9162 225.93 34.7495V34.6745C225.93 34.1078 225.655 33.6328 225.105 33.2495C224.572 32.8662 223.847 32.6745 222.93 32.6745C222.08 32.6745 221.397 32.8495 220.88 33.1995C220.364 33.5328 220.105 33.9995 220.105 34.5995C220.105 35.1662 220.355 35.5995 220.855 35.8995C221.355 36.1995 222.13 36.4995 223.18 36.7995C224.147 37.0828 224.93 37.3495 225.53 37.5995C226.13 37.8495 226.647 38.2162 227.08 38.6995C227.514 39.1662 227.73 39.7828 227.73 40.5495C227.73 41.6328 227.305 42.4995 226.455 43.1495C225.605 43.7995 224.48 44.1245 223.08 44.1245ZM236.216 31.1745C237.55 31.1745 238.608 31.5662 239.391 32.3495C240.191 33.1328 240.591 34.1828 240.591 35.4995V43.7495C240.591 43.9162 240.508 43.9995 240.341 43.9995H239.066C238.9 43.9995 238.816 43.9162 238.816 43.7495V35.8495C238.816 34.9328 238.533 34.1828 237.966 33.5995C237.416 33.0162 236.7 32.7245 235.816 32.7245C234.9 32.7245 234.158 33.0078 233.591 33.5745C233.025 34.1412 232.741 34.8828 232.741 35.7995V43.7495C232.741 43.9162 232.658 43.9995 232.491 43.9995H231.216C231.05 43.9995 230.966 43.9162 230.966 43.7495V26.7495C230.966 26.5828 231.05 26.4995 231.216 26.4995H232.491C232.658 26.4995 232.741 26.5828 232.741 26.7495V32.6745C232.741 32.7078 232.75 32.7328 232.766 32.7495C232.8 32.7662 232.825 32.7578 232.841 32.7245C233.575 31.6912 234.7 31.1745 236.216 31.1745Z" fill="white"/>
</g>
<g filter="url(#filter2_d)">
<rect x="12" y="72.9995" width="350.562" height="53" rx="26.5" fill="#EB4526"/>
<path d="M59.4134 89.9695C61.1734 89.9695 62.5834 90.5095 63.6434 91.5895C64.7234 92.6695 65.2634 94.0895 65.2634 95.8495C65.2634 97.5895 64.7134 98.9895 63.6134 100.05C62.5334 101.11 61.1034 101.64 59.3234 101.64H53.4734C53.3934 101.64 53.3534 101.68 53.3534 101.76V110.7C53.3534 110.9 53.2534 111 53.0534 111H51.5234C51.3234 111 51.2234 110.9 51.2234 110.7V90.2695C51.2234 90.0695 51.3234 89.9695 51.5234 89.9695H59.4134ZM59.1734 99.8695C60.3534 99.8695 61.3134 99.5095 62.0534 98.7895C62.7934 98.0495 63.1634 97.0795 63.1634 95.8795C63.1634 94.6595 62.7934 93.6795 62.0534 92.9395C61.3134 92.1995 60.3534 91.8295 59.1734 91.8295H53.4734C53.3934 91.8295 53.3534 91.8695 53.3534 91.9495V99.7495C53.3534 99.8295 53.3934 99.8695 53.4734 99.8695H59.1734ZM74.8873 95.6695C75.5473 95.6695 76.1173 95.7995 76.5973 96.0595C76.7573 96.1395 76.8173 96.2695 76.7773 96.4495L76.4473 97.9195C76.3873 98.1195 76.2573 98.1795 76.0573 98.0995C75.7173 97.9595 75.3273 97.8895 74.8873 97.8895L74.4973 97.9195C73.4573 97.9595 72.5973 98.3495 71.9173 99.0895C71.2373 99.8095 70.8973 100.73 70.8973 101.85V110.7C70.8973 110.9 70.7973 111 70.5973 111H69.0673C68.8673 111 68.7673 110.9 68.7673 110.7V96.1195C68.7673 95.9195 68.8673 95.8195 69.0673 95.8195H70.5973C70.7973 95.8195 70.8973 95.9195 70.8973 96.1195V97.9495C70.8973 98.0095 70.9073 98.0495 70.9273 98.0695C70.9673 98.0695 70.9973 98.0495 71.0173 98.0095C71.4373 97.2695 71.9673 96.6995 72.6073 96.2995C73.2673 95.8795 74.0273 95.6695 74.8873 95.6695ZM85.3386 111.24C83.8986 111.24 82.6586 110.87 81.6186 110.13C80.5786 109.39 79.8586 108.37 79.4586 107.07C79.1786 106.15 79.0386 104.92 79.0386 103.38C79.0386 101.84 79.1786 100.62 79.4586 99.7195C79.8386 98.4395 80.5486 97.4295 81.5886 96.6895C82.6286 95.9495 83.8886 95.5795 85.3686 95.5795C86.7886 95.5795 88.0086 95.9495 89.0286 96.6895C90.0686 97.4295 90.7786 98.4295 91.1586 99.6895C91.4386 100.55 91.5786 101.78 91.5786 103.38C91.5786 105 91.4386 106.23 91.1586 107.07C90.7786 108.37 90.0686 109.39 89.0286 110.13C88.0086 110.87 86.7786 111.24 85.3386 111.24ZM85.3386 109.38C86.2986 109.38 87.1186 109.12 87.7986 108.6C88.4786 108.06 88.9386 107.34 89.1786 106.44C89.3586 105.72 89.4486 104.71 89.4486 103.41C89.4486 102.09 89.3686 101.08 89.2086 100.38C88.9686 99.4795 88.4986 98.7695 87.7986 98.2495C87.1186 97.7095 86.2886 97.4395 85.3086 97.4395C84.3286 97.4395 83.4986 97.7095 82.8186 98.2495C82.1386 98.7695 81.6786 99.4795 81.4386 100.38C81.2786 101.08 81.1986 102.09 81.1986 103.41C81.1986 104.73 81.2786 105.74 81.4386 106.44C81.6586 107.34 82.1086 108.06 82.7886 108.6C83.4886 109.12 84.3386 109.38 85.3386 109.38ZM107.566 99.6895C107.806 100.59 107.926 101.83 107.926 103.41C107.926 105.05 107.786 106.32 107.506 107.22C107.126 108.46 106.466 109.44 105.526 110.16C104.586 110.88 103.416 111.24 102.016 111.24C101.216 111.24 100.486 111.08 99.8262 110.76C99.1662 110.44 98.6162 109.98 98.1762 109.38C98.1562 109.34 98.1262 109.33 98.0862 109.35C98.0462 109.35 98.0262 109.37 98.0262 109.41V110.7C98.0262 110.9 97.9262 111 97.7262 111H96.1962C95.9962 111 95.8962 110.9 95.8962 110.7V90.2995C95.8962 90.0995 95.9962 89.9995 96.1962 89.9995H97.7262C97.9262 89.9995 98.0262 90.0995 98.0262 90.2995V97.3795C98.0262 97.4195 98.0362 97.4495 98.0562 97.4695C98.0962 97.4695 98.1362 97.4495 98.1762 97.4095C98.6162 96.8295 99.1662 96.3795 99.8262 96.0595C100.486 95.7395 101.216 95.5795 102.016 95.5795C103.436 95.5795 104.626 95.9495 105.586 96.6895C106.546 97.4095 107.206 98.4095 107.566 99.6895ZM105.256 107.04C105.456 106.62 105.596 106.15 105.676 105.63C105.756 105.09 105.796 104.35 105.796 103.41C105.796 102.43 105.736 101.67 105.616 101.13C105.516 100.57 105.346 100.07 105.106 99.6295C104.846 98.9695 104.426 98.4395 103.846 98.0395C103.266 97.6395 102.576 97.4395 101.776 97.4395C101.016 97.4395 100.356 97.6495 99.7962 98.0695C99.2562 98.4695 98.8662 99.0095 98.6262 99.6895C98.4262 100.11 98.2762 100.59 98.1762 101.13C98.0962 101.67 98.0562 102.43 98.0562 103.41C98.0562 104.37 98.0962 105.12 98.1762 105.66C98.2762 106.18 98.4162 106.65 98.5962 107.07C98.8562 107.77 99.2562 108.33 99.7962 108.75C100.336 109.17 101.006 109.38 101.806 109.38C102.646 109.38 103.366 109.17 103.966 108.75C104.586 108.33 105.016 107.76 105.256 107.04ZM112.573 111C112.373 111 112.273 110.9 112.273 110.7V90.2995C112.273 90.0995 112.373 89.9995 112.573 89.9995H114.103C114.303 89.9995 114.403 90.0995 114.403 90.2995V110.7C114.403 110.9 114.303 111 114.103 111H112.573ZM130.827 100.86C130.907 101.42 130.947 102.12 130.947 102.96V103.92C130.947 104.12 130.847 104.22 130.647 104.22H120.957C120.877 104.22 120.837 104.26 120.837 104.34C120.877 105.44 120.937 106.15 121.017 106.47C121.237 107.37 121.707 108.08 122.427 108.6C123.147 109.12 124.067 109.38 125.187 109.38C126.027 109.38 126.767 109.19 127.407 108.81C128.047 108.43 128.547 107.89 128.907 107.19C129.027 107.01 129.167 106.97 129.327 107.07L130.497 107.76C130.657 107.86 130.697 108 130.617 108.18C130.117 109.14 129.367 109.9 128.367 110.46C127.367 111 126.217 111.27 124.917 111.27C123.497 111.25 122.307 110.91 121.347 110.25C120.387 109.59 119.697 108.67 119.277 107.49C118.917 106.53 118.737 105.15 118.737 103.35C118.737 102.51 118.747 101.83 118.767 101.31C118.807 100.77 118.887 100.29 119.007 99.8695C119.347 98.5695 120.027 97.5295 121.047 96.7495C122.087 95.9695 123.337 95.5795 124.797 95.5795C126.617 95.5795 128.017 96.0395 128.997 96.9595C129.977 97.8795 130.587 99.1795 130.827 100.86ZM124.797 97.4395C123.817 97.4395 122.997 97.6995 122.337 98.2195C121.697 98.7195 121.277 99.3995 121.077 100.26C120.957 100.68 120.877 101.36 120.837 102.3C120.837 102.38 120.877 102.42 120.957 102.42H128.727C128.807 102.42 128.847 102.38 128.847 102.3C128.807 101.4 128.747 100.76 128.667 100.38C128.447 99.4795 127.997 98.7695 127.317 98.2495C126.657 97.7095 125.817 97.4395 124.797 97.4395ZM150.543 95.6095C152.043 95.6095 153.223 96.0595 154.083 96.9595C154.963 97.8595 155.403 99.0895 155.403 100.65V110.7C155.403 110.9 155.303 111 155.103 111H153.603C153.403 111 153.303 110.9 153.303 110.7V101.07C153.303 99.9695 152.983 99.0995 152.343 98.4595C151.723 97.7995 150.903 97.4695 149.883 97.4695C148.823 97.4695 147.963 97.7895 147.303 98.4295C146.663 99.0695 146.343 99.9295 146.343 101.01V110.7C146.343 110.9 146.243 111 146.043 111H144.513C144.313 111 144.213 110.9 144.213 110.7V101.07C144.213 99.9695 143.903 99.0995 143.283 98.4595C142.663 97.7995 141.833 97.4695 140.793 97.4695C139.733 97.4695 138.883 97.7895 138.243 98.4295C137.623 99.0695 137.313 99.9295 137.313 101.01V110.7C137.313 110.9 137.213 111 137.013 111H135.483C135.283 111 135.183 110.9 135.183 110.7V96.1195C135.183 95.9195 135.283 95.8195 135.483 95.8195H137.013C137.213 95.8195 137.313 95.9195 137.313 96.1195V97.3195C137.313 97.3595 137.323 97.3895 137.343 97.4095C137.383 97.4095 137.423 97.3895 137.463 97.3495C137.903 96.7695 138.463 96.3395 139.143 96.0595C139.843 95.7595 140.613 95.6095 141.453 95.6095C142.493 95.6095 143.383 95.8195 144.123 96.2395C144.863 96.6595 145.423 97.2695 145.803 98.0695C145.843 98.1695 145.893 98.1695 145.953 98.0695C146.393 97.2495 147.013 96.6395 147.813 96.2395C148.613 95.8195 149.523 95.6095 150.543 95.6095ZM172.484 111.24C170.224 111.24 168.434 110.73 167.114 109.71C165.814 108.69 165.164 107.33 165.164 105.63V104.7C165.164 104.5 165.264 104.4 165.464 104.4H166.934C167.134 104.4 167.234 104.5 167.234 104.7V105.51C167.234 106.67 167.714 107.61 168.674 108.33C169.634 109.03 170.964 109.38 172.664 109.38C174.204 109.38 175.374 109.06 176.174 108.42C176.974 107.76 177.374 106.89 177.374 105.81C177.374 105.11 177.184 104.51 176.804 104.01C176.444 103.51 175.874 103.04 175.094 102.6C174.334 102.16 173.254 101.65 171.854 101.07C170.354 100.47 169.184 99.9495 168.344 99.5095C167.524 99.0495 166.854 98.4695 166.334 97.7695C165.834 97.0495 165.584 96.1495 165.584 95.0695C165.584 93.3895 166.164 92.0895 167.324 91.1695C168.504 90.2295 170.114 89.7595 172.154 89.7595C174.374 89.7595 176.124 90.2795 177.404 91.3195C178.684 92.3595 179.324 93.7395 179.324 95.4595V96.1195C179.324 96.3195 179.224 96.4195 179.024 96.4195H177.524C177.324 96.4195 177.224 96.3195 177.224 96.1195V95.5795C177.224 94.4195 176.764 93.4695 175.844 92.7295C174.944 91.9895 173.684 91.6195 172.064 91.6195C170.644 91.6195 169.554 91.9095 168.794 92.4895C168.034 93.0695 167.654 93.9095 167.654 95.0095C167.654 95.7295 167.834 96.3295 168.194 96.8095C168.574 97.2695 169.104 97.6795 169.784 98.0395C170.484 98.3795 171.554 98.8295 172.994 99.3895C174.454 99.9895 175.624 100.55 176.504 101.07C177.404 101.59 178.124 102.23 178.664 102.99C179.224 103.73 179.504 104.64 179.504 105.72C179.504 107.4 178.884 108.74 177.644 109.74C176.404 110.74 174.684 111.24 172.484 111.24ZM189.313 111.24C187.873 111.24 186.633 110.87 185.593 110.13C184.553 109.39 183.833 108.37 183.433 107.07C183.153 106.15 183.013 104.92 183.013 103.38C183.013 101.84 183.153 100.62 183.433 99.7195C183.813 98.4395 184.523 97.4295 185.563 96.6895C186.603 95.9495 187.863 95.5795 189.343 95.5795C190.763 95.5795 191.983 95.9495 193.003 96.6895C194.043 97.4295 194.753 98.4295 195.133 99.6895C195.413 100.55 195.553 101.78 195.553 103.38C195.553 105 195.413 106.23 195.133 107.07C194.753 108.37 194.043 109.39 193.003 110.13C191.983 110.87 190.753 111.24 189.313 111.24ZM189.313 109.38C190.273 109.38 191.093 109.12 191.773 108.6C192.453 108.06 192.913 107.34 193.153 106.44C193.333 105.72 193.423 104.71 193.423 103.41C193.423 102.09 193.343 101.08 193.183 100.38C192.943 99.4795 192.473 98.7695 191.773 98.2495C191.093 97.7095 190.263 97.4395 189.283 97.4395C188.303 97.4395 187.473 97.7095 186.793 98.2495C186.113 98.7695 185.653 99.4795 185.413 100.38C185.253 101.08 185.173 102.09 185.173 103.41C185.173 104.73 185.253 105.74 185.413 106.44C185.633 107.34 186.083 108.06 186.763 108.6C187.463 109.12 188.313 109.38 189.313 109.38ZM200.171 111C199.971 111 199.871 110.9 199.871 110.7V90.2995C199.871 90.0995 199.971 89.9995 200.171 89.9995H201.701C201.901 89.9995 202.001 90.0995 202.001 90.2995V110.7C202.001 110.9 201.901 111 201.701 111H200.171ZM210.655 111C210.475 111 210.355 110.92 210.295 110.76L205.375 96.1495L205.345 96.0295C205.345 95.8895 205.435 95.8195 205.615 95.8195H207.325C207.505 95.8195 207.625 95.8995 207.685 96.0595L211.435 107.82C211.455 107.86 211.485 107.88 211.525 107.88C211.565 107.88 211.595 107.86 211.615 107.82L215.365 96.0595C215.425 95.8995 215.545 95.8195 215.725 95.8195L217.435 95.8495C217.655 95.8495 217.735 95.9595 217.675 96.1795L212.755 110.76C212.695 110.92 212.575 111 212.395 111H210.655ZM222.463 93.0595C221.983 93.0595 221.583 92.8995 221.263 92.5795C220.943 92.2595 220.783 91.8595 220.783 91.3795C220.783 90.8795 220.943 90.4795 221.263 90.1795C221.583 89.8595 221.983 89.6995 222.463 89.6995C222.943 89.6995 223.343 89.8595 223.663 90.1795C223.983 90.4795 224.143 90.8795 224.143 91.3795C224.143 91.8595 223.983 92.2595 223.663 92.5795C223.343 92.8995 222.943 93.0595 222.463 93.0595ZM221.623 110.97C221.423 110.97 221.323 110.87 221.323 110.67V96.0895C221.323 95.8895 221.423 95.7895 221.623 95.7895H223.153C223.353 95.7895 223.453 95.8895 223.453 96.0895V110.67C223.453 110.87 223.353 110.97 223.153 110.97H221.623ZM234.97 95.6095C236.57 95.6095 237.84 96.0795 238.78 97.0195C239.74 97.9595 240.22 99.2195 240.22 100.8V110.7C240.22 110.9 240.12 111 239.92 111H238.39C238.19 111 238.09 110.9 238.09 110.7V101.22C238.09 100.12 237.75 99.2195 237.07 98.5195C236.41 97.8195 235.55 97.4695 234.49 97.4695C233.39 97.4695 232.5 97.8095 231.82 98.4895C231.14 99.1695 230.8 100.06 230.8 101.16V110.7C230.8 110.9 230.7 111 230.5 111H228.97C228.77 111 228.67 110.9 228.67 110.7V96.1195C228.67 95.9195 228.77 95.8195 228.97 95.8195H230.5C230.7 95.8195 230.8 95.9195 230.8 96.1195V97.4095C230.8 97.4495 230.81 97.4795 230.83 97.4995C230.87 97.5195 230.9 97.5095 230.92 97.4695C231.8 96.2295 233.15 95.6095 234.97 95.6095ZM254.202 96.1195C254.202 95.9195 254.302 95.8195 254.502 95.8195H256.032C256.232 95.8195 256.332 95.9195 256.332 96.1195V110.49C256.332 112.73 255.682 114.37 254.382 115.41C253.102 116.45 251.332 116.97 249.072 116.97C248.612 116.97 248.262 116.96 248.022 116.94C247.822 116.92 247.722 116.81 247.722 116.61L247.782 115.23C247.782 115.13 247.812 115.05 247.872 114.99C247.932 114.95 248.002 114.94 248.082 114.96L248.892 114.99C250.752 114.99 252.102 114.62 252.942 113.88C253.782 113.16 254.202 112.01 254.202 110.43V109.32C254.202 109.28 254.182 109.26 254.142 109.26C254.122 109.24 254.092 109.25 254.052 109.29C253.132 110.49 251.822 111.09 250.122 111.09C248.822 111.09 247.662 110.74 246.642 110.04C245.642 109.34 244.972 108.35 244.632 107.07C244.392 106.25 244.272 105.03 244.272 103.41C244.272 102.53 244.292 101.79 244.332 101.19C244.392 100.59 244.502 100.05 244.662 99.5695C245.022 98.3695 245.672 97.4095 246.612 96.6895C247.552 95.9495 248.682 95.5795 250.002 95.5795C251.782 95.5795 253.132 96.1695 254.052 97.3495C254.092 97.3895 254.122 97.3995 254.142 97.3795C254.182 97.3595 254.202 97.3295 254.202 97.2895V96.1195ZM254.052 106.41C254.112 106.11 254.152 105.74 254.172 105.3C254.192 104.86 254.202 104.22 254.202 103.38C254.202 102.36 254.192 101.68 254.172 101.34C254.152 100.98 254.102 100.65 254.022 100.35C253.862 99.5095 253.462 98.8195 252.822 98.2795C252.202 97.7195 251.412 97.4395 250.452 97.4395C249.512 97.4395 248.712 97.7095 248.052 98.2495C247.412 98.7895 246.962 99.4895 246.702 100.35C246.502 100.99 246.402 101.99 246.402 103.35C246.402 104.81 246.502 105.82 246.702 106.38C246.902 107.22 247.332 107.92 247.992 108.48C248.672 109.02 249.492 109.29 250.452 109.29C251.432 109.29 252.232 109.02 252.852 108.48C253.492 107.94 253.892 107.25 254.052 106.41Z" fill="white"/>
<g clip-path="url(#clip0)">
<path d="M313.477 94.919C313.559 94.9049 313.612 94.8483 313.64 94.7454L314.539 92.482C315.602 89.8472 316.392 87.8665 316.91 86.5359C316.938 86.435 316.932 86.3502 316.888 86.2876C316.85 86.223 316.777 86.1907 316.665 86.1907H307.591C307.318 86.1907 307.251 86.2916 307.387 86.4976C309.349 89.2839 311.298 92.0479 313.232 94.7837C313.313 94.8847 313.395 94.9311 313.477 94.919ZM299.417 94.919C299.499 94.9311 299.58 94.8867 299.662 94.7837C301.598 92.0479 303.545 89.2859 305.507 86.4976C305.561 86.4208 305.567 86.3502 305.528 86.2876C305.485 86.223 305.412 86.1907 305.302 86.1907H296.229C296.121 86.1907 296.046 86.223 296.003 86.2876C295.962 86.3502 295.956 86.433 295.984 86.5359C296.5 87.8665 297.292 89.8472 298.354 92.482L299.253 94.7454C299.281 94.8463 299.335 94.9069 299.417 94.919ZM297.986 95.7428C298.094 95.7428 298.184 95.7105 298.251 95.6459C298.32 95.5833 298.326 95.5005 298.273 95.3975C297.21 92.7122 296.093 89.9501 294.921 87.1114C294.893 87.0104 294.839 86.9498 294.758 86.9377C294.676 86.9256 294.607 86.9579 294.553 87.0346C294.117 87.6484 293.463 88.5812 292.591 89.8351L288.627 95.4359C288.573 95.5126 288.567 95.5833 288.605 95.6459C288.648 95.7105 288.721 95.7428 288.831 95.7428H297.986ZM324.063 95.7428C324.17 95.7428 324.248 95.7105 324.286 95.6459C324.329 95.5833 324.321 95.5126 324.267 95.4359C323.613 94.489 322.632 93.0837 321.324 91.2161L318.34 87.0346C318.287 86.9579 318.218 86.9256 318.136 86.9377C318.054 86.9519 318.001 87.0084 317.973 87.1114C317.209 88.9527 316.093 91.7148 314.621 95.3975C314.567 95.4985 314.574 95.5833 314.643 95.6459C314.709 95.7105 314.798 95.7428 314.907 95.7428H324.063ZM312.087 95.7428C312.195 95.7428 312.27 95.7105 312.313 95.6459C312.354 95.5833 312.345 95.5005 312.291 95.3975C311.666 94.5031 310.738 93.1847 309.512 91.4463L306.692 87.495C306.638 87.394 306.557 87.3415 306.447 87.3415C306.339 87.3415 306.255 87.392 306.202 87.495L304.076 90.4872C302.549 92.688 301.392 94.3234 300.602 95.3975C300.548 95.4985 300.54 95.5833 300.581 95.6459C300.624 95.7105 300.697 95.7428 300.807 95.7428H312.087ZM307.55 113.082C307.578 113.082 307.686 112.994 307.877 112.814L324.063 97.1622C324.144 97.0855 324.185 97.0148 324.185 96.9502C324.185 96.8876 324.144 96.8553 324.063 96.8553H320.711C317.958 96.8815 315.901 96.8815 314.539 96.8553C314.348 96.8553 314.2 96.8936 314.09 96.9704C313.982 97.0471 313.898 97.1622 313.845 97.3156C311.5 103.147 309.745 107.532 308.572 110.474C308.191 111.445 307.89 112.188 307.673 112.699L307.55 113.082ZM306.468 112.43C306.535 112.43 306.582 112.38 306.61 112.277C307.944 108.901 309.949 103.888 312.618 97.2389C312.646 97.1379 312.64 97.0531 312.597 96.9906C312.558 96.9259 312.483 96.8936 312.373 96.8936H300.52C300.413 96.8936 300.335 96.9259 300.297 96.9906C300.254 97.0531 300.247 97.1359 300.275 97.2389C300.819 98.5695 301.624 100.576 302.687 103.262L306.283 112.277C306.337 112.378 306.4 112.43 306.468 112.43ZM305.343 113.044L305.221 112.66L299.008 97.2389C298.954 97.1379 298.873 97.0531 298.763 96.9906C298.655 96.9259 298.546 96.8916 298.436 96.8916H288.995C288.887 96.8916 288.818 96.9179 288.79 96.9684C288.762 97.0188 288.79 97.0834 288.872 97.1602C292.578 100.766 297.958 105.983 305.016 112.812C305.208 112.992 305.317 113.068 305.343 113.042V113.044Z" fill="white"/>
</g>
</g>
<defs>
<filter id="filter0_d" x="46" y="130" width="222.721" height="75" filterUnits="userSpaceOnUse" color-interpolation-filters="sRGB">
<feFlood flood-opacity="0" result="BackgroundImageFix"/>
<feColorMatrix in="SourceAlpha" type="matrix" values="0 0 0 0 0 0 0 0 0 0 0 0 0 0 0 0 0 0 127 0"/>
<feMorphology radius="5" operator="dilate" in="SourceAlpha" result="effect1_dropShadow"/>
<feOffset dx="3" dy="3"/>
<feGaussianBlur stdDeviation="5"/>
<feColorMatrix type="matrix" values="0 0 0 0 0 0 0 0 0 0 0 0 0 0 0 0 0 0 0.2 0"/>
<feBlend mode="normal" in2="BackgroundImageFix" result="effect1_dropShadow"/>
<feBlend mode="normal" in="SourceGraphic" in2="effect1_dropShadow" result="shape"/>
</filter>
<filter id="filter1_d" x="115" y="-0.000488281" width="181" height="75" filterUnits="userSpaceOnUse" color-interpolation-filters="sRGB">
<feFlood flood-opacity="0" result="BackgroundImageFix"/>
<feColorMatrix in="SourceAlpha" type="matrix" values="0 0 0 0 0 0 0 0 0 0 0 0 0 0 0 0 0 0 127 0"/>
<feMorphology radius="5" operator="dilate" in="SourceAlpha" result="effect1_dropShadow"/>
<feOffset dx="3" dy="3"/>
<feGaussianBlur stdDeviation="5"/>
<feColorMatrix type="matrix" values="0 0 0 0 0 0 0 0 0 0 0 0 0 0 0 0 0 0 0.2 0"/>
<feBlend mode="normal" in2="BackgroundImageFix" result="effect1_dropShadow"/>
<feBlend mode="normal" in="SourceGraphic" in2="effect1_dropShadow" result="shape"/>
</filter>
<filter id="filter2_d" x="0" y="60.9995" width="380.562" height="83" filterUnits="userSpaceOnUse" color-interpolation-filters="sRGB">
<feFlood flood-opacity="0" result="BackgroundImageFix"/>
<feColorMatrix in="SourceAlpha" type="matrix" values="0 0 0 0 0 0 0 0 0 0 0 0 0 0 0 0 0 0 127 0"/>
<feMorphology radius="5" operator="dilate" in="SourceAlpha" result="effect1_dropShadow"/>
<feOffset dx="3" dy="3"/>
<feGaussianBlur stdDeviation="5"/>
<feColorMatrix type="matrix" values="0 0 0 0 0 0 0 0 0 0 0 0 0 0 0 0 0 0 0.2 0"/>
<feBlend mode="normal" in2="BackgroundImageFix" result="effect1_dropShadow"/>
<feBlend mode="normal" in="SourceGraphic" in2="effect1_dropShadow" result="shape"/>
</filter>
<clipPath id="clip0">
<rect width="36.5694" height="28.2667" fill="white" transform="translate(288.162 84.7773)"/>
</clipPath>
</defs>
</svg>
