<?xml version="1.0" standalone="no"?>
<!DOCTYPE svg PUBLIC "-//W3C//DTD SVG 20010904//EN"
 "http://www.w3.org/TR/2001/REC-SVG-20010904/DTD/svg10.dtd">
<svg version="1.0" xmlns="http://www.w3.org/2000/svg"
 width="512.000000pt" height="512.000000pt" viewBox="0 0 512.000000 512.000000"
 preserveAspectRatio="xMidYMid meet">
<metadata>
Created by potrace 1.11, written by Peter Selinger 2001-2013
</metadata>
<g transform="translate(0.000000,512.000000) scale(0.100000,-0.100000)"
fill="#000000" stroke="none">
<path d="M0 2560 l0 -2560 2560 0 2560 0 0 2560 0 2560 -2560 0 -2560 0 0
-2560z m2933 2341 c484 -86 888 -290 1231 -621 370 -358 595 -793 682 -1325
26 -155 26 -525 1 -680 -42 -253 -106 -454 -216 -680 -331 -681 -977 -1153
-1741 -1271 -141 -22 -499 -25 -635 -6 -584 83 -1110 372 -1476 811 -292 350
-464 746 -525 1211 -20 154 -15 493 10 640 83 485 292 901 626 1244 385 395
841 622 1405 696 125 16 504 5 638 -19z"/>
<path d="M2408 4409 c-633 -50 -1203 -444 -1478 -1021 -290 -609 -213 -1332
198 -1864 443 -574 1173 -826 1872 -649 660 167 1174 706 1316 1379 32 150 43
421 25 573 -81 657 -514 1219 -1128 1462 -247 98 -539 142 -805 120z m58 -456
c48 -26 98 -79 120 -131 26 -57 23 -166 -6 -222 -55 -111 -111 -141 -269 -145
-196 -6 -314 -56 -451 -194 -101 -102 -157 -203 -191 -346 -24 -103 -44 -140
-100 -189 -106 -90 -265 -59 -344 68 -28 46 -30 55 -29 145 1 119 32 229 109
387 164 336 467 573 818 640 41 7 121 12 187 11 95 -2 122 -7 156 -24z"/>
</g>
</svg>
