<svg fill="none" height="299" viewBox="0 0 346 299" width="346" xmlns="http://www.w3.org/2000/svg" xmlns:xlink="http://www.w3.org/1999/xlink"><filter id="a" color-interpolation-filters="sRGB" filterUnits="userSpaceOnUse" height="257.026" width="317.265" x="28.7352" y="41.9385"><feFlood flood-opacity="0" result="BackgroundImageFix"/><feColorMatrix in="SourceAlpha" type="matrix" values="0 0 0 0 0 0 0 0 0 0 0 0 0 0 0 0 0 0 127 0"/><feMorphology in="SourceAlpha" operator="dilate" radius="5" result="effect1_dropShadow"/><feOffset dx="5" dy="5"/><feGaussianBlur stdDeviation="7.5"/><feColorMatrix type="matrix" values="0 0 0 0 0 0 0 0 0 0 0 0 0 0 0 0 0 0 0.03 0"/><feBlend in2="BackgroundImageFix" mode="normal" result="effect1_dropShadow"/><feBlend in="SourceGraphic" in2="effect1_dropShadow" mode="normal" result="shape"/></filter><path d="m63.3046 230.57c-54.02938-54.276-64.63192-115.993-63.179518-140.0665 0-71.1277 156.859918-108.333 233.110918-82.07044 76.251 26.26254 61.001 82.07044 55.554 124.74694-5.446 42.677-58.822 125.841-92.591 142.255-33.768 16.415-65.358 22.98-132.8944-44.865z" fill="#ff3000"/><g filter="url(#a)"><rect fill="#fff" height="217.026" rx="10" width="277.265" x="43.7352" y="56.9385"/></g><rect fill="#566397" height="14.0283" rx="7.01414" width="96.5476" x="130.38" y="97.3726"/><rect fill="#505050" height="14.0283" rx="7.01414" width="96.5476" x="133.681" y="151.835"/><rect fill="#323232" height="14.0283" rx="7.01414" width="96.5476" x="170.815" y="179.067"/><rect fill="#323232" height="14.0283" rx="7.01414" width="96.5476" x="133.681" y="206.298"/><rect fill="#566397" height="14.0283" rx="7.01414" width="96.5476" x="170.815" y="124.604"/><path d="m267.362 232.391 11.812 16.817 17.895-28.881" stroke="#65997d" stroke-linecap="round" stroke-linejoin="round" stroke-width="10"/><path d="m84.7345 79.2188c-5.6708 4.8794-14.7676 6.2787-18.43 6.2787 0 0-1.2405 17.5805 1.4177 22.6025 2.6581 5.023 12.7592 13.634 17.0123 16.504 4.4893-3.767 14.106-12.342 16.6575-16.504 2.552-4.161 1.772-16.8023 1.064-22.6026-3.7219 0-12.7596-1.2557-17.7215-6.2786z" fill="#65997d"/></svg>