<svg fill="none" height="384" viewBox="0 0 457 384" width="457" xmlns="http://www.w3.org/2000/svg" xmlns:xlink="http://www.w3.org/1999/xlink"><filter id="a" color-interpolation-filters="sRGB" filterUnits="userSpaceOnUse" height="332.533" width="457" x="0" y="38.7983"><feFlood flood-opacity="0" result="BackgroundImageFix"/><feColorMatrix in="SourceAlpha" type="matrix" values="0 0 0 0 0 0 0 0 0 0 0 0 0 0 0 0 0 0 127 0"/><feOffset dx="5" dy="5"/><feGaussianBlur stdDeviation="2.5"/><feColorMatrix type="matrix" values="0 0 0 0 0.380392 0 0 0 0 0.435294 0 0 0 0 0.513726 0 0 0 0.01 0"/><feBlend in2="BackgroundImageFix" mode="normal" result="effect1_dropShadow"/><feBlend in="SourceGraphic" in2="effect1_dropShadow" mode="normal" result="shape"/></filter><clipPath id="b"><path d="m0 38.7983h447v322.533h-447z"/></clipPath><path d="m100.5 326.798c-55.1395-55.186 13.518-200.022 15-224.5 0-72.3206 139.582-121.65 217.399-94.94689 77.818 26.70309 91.293 110.75689 83.824 153.86089-20.723 119.586-146.136 194.515-180.598 211.204s-66.701 23.365-135.625-45.618z" fill="#ff3000"/><g clip-path="url(#b)" filter="url(#a)"><path d="m191.571 340.435c83.788 0 151.712-67.524 151.712-150.818 0-83.295-67.924-150.8187-151.712-150.8187s-151.7111 67.5237-151.7111 150.8187c0 83.294 67.9231 150.818 151.7111 150.818z" fill="#f2f2f2"/><path d="m60.1965 361.331c33.2457 0 60.1965-4.287 60.1965-9.575s-26.9508-9.574-60.1965-9.574c-33.2456 0-60.1965 4.286-60.1965 9.574s26.9509 9.575 60.1965 9.575z" fill="#f2f2f2"/><path d="m353.858 351.598c51.441 0 93.142-6.633 93.142-14.815s-41.701-14.815-93.142-14.815-93.142 6.633-93.142 14.815 41.701 14.815 93.142 14.815z" fill="#f2f2f2"/><path d="m333.164 194.382s.793 2.627-3.701 4.992-5.815 11.299-.529 13.927c5.287 2.628 6.873 6.044 4.23 8.409-2.644 2.365-7.402 8.671-1.058 10.248 6.344 1.576 7.137 4.73 5.287 6.043-1.851 1.314 4.229-2.365 4.229-2.365s1.057 6.307 6.608 4.73c5.551-1.576 21.146-31.532 13.216-35.736-7.929-4.205-28.282-10.248-28.282-10.248z" fill="#2f2e41"/><path d="m342.744 219.755s2.742 9.54-2.056 10.221c-2.978.461-5.8 1.63-8.226 3.407l8.911 11.585h16.451l10.282-10.222s-13.709-10.221-10.967-16.354-14.395 1.363-14.395 1.363z" fill="#ffb9b9"/><path d="m342.744 219.755s2.742 9.54-2.056 10.221c-2.978.461-5.8 1.63-8.226 3.407l8.911 11.585h16.451l10.282-10.222s-13.709-10.221-10.967-16.354-14.395 1.363-14.395 1.363z" fill="#000" opacity=".1"/><path d="m346.857 338.324 15.766 5.451 10.967.681-.685-9.54-22.621-6.65z" fill="#ffb9b9"/><path d="m367.078 336.279s0 9.54 1.371 9.54 19.879-2.044 25.362 0c5.484 2.044 13.71-5.451 9.597-9.54-4.113-4.088-10.822-10.221-15.007-8.858-4.186 1.362-21.323 4.77-21.323 4.77z" fill="#575a89"/><path d="m316.696 327.421s-8.225 16.354-2.742 17.717c5.484 1.363 11.653-.682 12.339-1.363.685-.682 10.282-3.407 11.653-2.044 1.371 1.362 1.371-5.452 1.371-5.452z" fill="#575a89"/><path d="m323.551 304.933s-13.024 17.718-3.427 22.488c9.596 4.77 55.522 4.77 58.95 0 3.427-4.77 4.798-19.762 0-21.125s-55.523-1.363-55.523-1.363z" fill="#2f2e41"/><path d="m323.551 304.933s-13.024 17.718-3.427 22.488c9.596 4.77 55.522 4.77 58.95 0 3.427-4.77 4.798-19.762 0-21.125s-55.523-1.363-55.523-1.363z" fill="#000" opacity=".2"/><path d="m348.228 224.525c8.707 0 15.766-7.017 15.766-15.673s-7.059-15.673-15.766-15.673-15.766 7.017-15.766 15.673 7.059 15.673 15.766 15.673z" fill="#ffb9b9"/><path d="m323.551 233.383 13.709-2.725s3.428 10.902 14.395 8.858c10.968-2.044 13.71-8.858 13.71-8.858s8.225 3.407 8.911 3.407c.685 0 9.596 3.407 9.596 5.451s-10.282 22.487-10.282 22.487l1.371 36.797-50.725-1.362 3.428-36.116z" fill="#ff3000"/><path d="m316.011 251.1s-4.113 36.116-1.371 38.842 13.709 10.221 13.709 10.221v-8.177l-5.483-10.221 5.483-23.85z" fill="#ffb9b9"/><path d="m386.957 250.078s-2.399 37.138-2.399 38.501-6.17 6.133-8.226 6.133-3.427-3.407-3.427-3.407l4.798-5.452-3.427-27.938z" fill="#ffb9b9"/><path d="m380.445 302.208s30.846-17.036 31.531 0c.686 17.035-15.765 23.85-15.765 23.85s-42.499 12.668-44.213 8.038c-1.714-4.631-5.141-12.127-2.399-12.808 2.742-.682 6.169-2.045 7.54-.682s18.508-10.221 18.508-10.221z" fill="#2f2e41"/><path d="m394.84 300.163s-6.17 2.726-8.226 4.77c-2.056 2.045-10.968 5.452-10.968 5.452" opacity=".2" stroke="#000" stroke-miterlimit="10" stroke-width="2"/><path d="m327.664 234.746-4.113-1.363s-15.08 15.673-10.282 19.762c4.798 4.088 7.54 5.451 8.911 6.814s8.226 2.044 8.226 2.044z" fill="#ff3000"/><path d="m377.703 238.153 6.169 1.363s4.798 10.222 6.169 11.584c1.371 1.363-2.056.682-4.112 3.408-2.057 2.725-4.113 7.495-8.226 7.495s-9.597-6.814-9.597-6.814z" fill="#ff3000"/><path d="m324.922 308.341s-26.048-18.399-34.959-4.771c-8.911 13.629 38.386 32.028 45.241 34.753 6.855 2.726 13.024 5.452 13.024 5.452s6.169-14.992 6.169-17.717c0-2.726-4.798-2.726-6.169-2.726s-7.54-1.363-8.911-3.407-14.395-11.584-14.395-11.584z" fill="#2f2e41"/><path d="m310.527 303.57s6.855 5.452 13.024 6.815 8.226 4.77 8.226 4.77" opacity=".2" stroke="#000" stroke-miterlimit="10" stroke-width="2"/><path d="m320.194 277.949.547 28.852c.018.953.414 1.86 1.103 2.524.688.664 1.612 1.03 2.571 1.02l54.01-.604c.92-.01 1.802-.367 2.468-.999.665-.632 1.065-1.491 1.118-2.404l1.639-28.249c.029-.491-.044-.983-.213-1.445-.17-.462-.432-.885-.772-1.242-.339-.358-.749-.643-1.203-.838-.455-.195-.944-.295-1.439-.295h-56.197c-.483 0-.961.096-1.406.282-.445.185-.849.458-1.187.8-.338.343-.604.749-.783 1.195-.178.446-.266.923-.256 1.403z" fill="#575a89"/><path d="m349.07 189.164s.879 2.911-4.099 5.53c-4.978 2.62-6.442 12.518-.586 15.429 5.856 2.91 7.613 6.695 4.685 9.315s-8.199 9.606-1.171 11.352c7.028 1.747 7.906 5.24 5.856 6.696-2.049 1.455 4.685-2.62 4.685-2.62s1.172 6.986 7.321 5.239c6.149-1.746 12.285-33.495 5.43-41.672-6.374-7.603-22.121-9.269-22.121-9.269z" fill="#2f2e41"/><path d="m347.2 186.167c.001-4.264 12.836-1.2 18.339 4.754 3.81 4.124 9.598 10.327 4.748 14.7s8.313 10.105 11.844 11.843c3.53 1.738 10.5 7.053 4.207 10.619-6.294 3.565-6.193 7.165-3.824 8.017 2.368.852-5.222-1.267-5.222-1.267s.767 7.041-5.629 7.008c-6.395-.034-24.742-34.973-20.359-44.685 4.075-9.03-4.104-10.989-4.104-10.989z" fill="#2f2e41"/><path d="m349.98 185.233c-17.164-1.028-18.886 11.816-18.886 11.816.119 7.432 11.992 3.811 15.289 4.919 3.979-2.845 11.647-8.229 17.132-12.07-3.982-2.788-8.673-4.404-13.535-4.665z" fill="#2f2e41"/><path d="m345.09 267.188s-15.396-71.729-111.759-123.763" stroke="#3f3d56" stroke-miterlimit="10" stroke-width="2"/><path d="m237.301 141.86.193.787-3.898.94 1.228 3.796-.775.247-1.495-4.624z" fill="#3f3d56"/><path d="m27.8504 340.48c0 9.085-5.4325 12.257-12.1344 12.257-.1553 0-.3103-.002-.465-.005-.3106-.007-.6181-.022-.922-.042-6.04834-.426-10.74746-3.761-10.74746-12.21 0-8.744 11.23986-19.777 12.08416-20.594l.0015-.001c.0325-.032.0488-.047.0488-.047s12.1344 11.557 12.1344 20.642z" fill="#ff3000"/><path d="m15.2739 351.347 4.4381-6.165-4.4492 6.842-.0118.708c-.3105-.007-.6181-.022-.922-.042l.4784-9.09-.0037-.07.0081-.013.0451-.859-4.4603-6.859 4.4744 6.215.0103.183.3615-6.868-3.8185-7.087 3.8651 5.882.3763-14.238.0015-.049v.047l-.0628 11.228 3.8016-4.451-3.8172 5.418-.1005 6.149 3.5495-5.901-3.5643 6.806-.0562 3.418 5.1531-8.213-5.1723 9.406z" fill="#3f3d56"/><g fill="#2f2e41"><path d="m85.7286 338.126 2.5957-1.917s1.7182 9.541-.1991 10.971c-1.9173 1.429-9.107 3.811-9.107 6.67s-16.2969 6.671-16.7762 2.383c-.4794-4.289 1.4379-6.671 1.4379-6.671s7.6691-7.624 8.6278-9.053c.9586-1.43 3.3552-4.289 3.3552-4.289z"/><path d="m47.3829 219.478s.0719.42.1965 1.187c.1151.681.2733 1.644.465 2.83 2.0132 12.213 7.8848 48.165 7.487 49.351-.4794 1.43-3.8346 6.671 0 8.1.3691.139.7669.587 1.1935 1.292.8233 1.519 1.5021 3.111 2.0275 4.755 2.2863 6.595 4.7309 17.149 6.1449 24.459.6183 3.211 1.0401 5.794 1.1647 7.147.0433.313.0482.63.0144.944-.4793 1.906 2.8759 8.577 4.3139 10.483 1.4379 1.906 3.8345 3.812 3.3552 5.718s11.983 7.147 13.4209 3.812c1.438-3.336 1.438-5.242 1.9173-6.195s.9587-7.624-1.4379-8.577-.9587-17.63-3.3553-20.966c-.8004-1.11-2.0227-4.869-3.3025-9.391-.5032-1.773-1.0113-3.66-1.5099-5.552-2.0227-7.752-3.8153-15.552-3.8153-15.552l.4793-55.751-26.3626-3.335-.6758 1.482-1.3469 2.94z"/><path d="m45.945 310.966s-3.8345-3.812-5.7518 0-3.8345 18.583-7.1898 21.919c-3.3552 3.335-7.6691 20.012-2.8759 20.965s10.0657-1.429 10.545-4.288c.4794-2.859 10.545-17.63 10.545-19.06 0-1.429-6.7104-6.671-6.7104-6.671z"/><path d="m104.901 193.271s-6.2309 55.75-7.6688 60.992c-1.438 5.241-9.1071 25.254-11.5037 28.589-2.3966 3.336-17.7348 30.496-19.6521 31.926-1.9173 1.429-5.7518 5.241-5.7518 5.241s-7.1898 7.148-8.1485 8.577c-.9586 1.43-9.107-2.859-9.5864-5.718-.4793-2.859.4794-7.624.9587-9.53s-.9587-4.765.4793-6.194c1.438-1.43 8.6277-8.577 8.6277-11.913 0-3.335 12.4624-22.872 17.2556-27.16 4.7931-4.288 3.8345-11.436 3.8345-11.436v-29.066l-26.3626-8.101s1.438-22.872 4.7932-22.872c3.3553 0 47.4527-7.623 52.7249-3.335z"/></g><path d="m66.0765 113.696c8.7357 0 15.8175-7.04 15.8175-15.7243 0-8.6844-7.0818-15.7244-15.8175-15.7244-8.7358 0-15.8176 7.04-15.8176 15.7244 0 8.6843 7.0818 15.7243 15.8176 15.7243z" fill="#9f616a"/><path d="m71.349 110.361s1.9172 7.147 4.3138 9.053-6.2311 10.006-6.2311 10.006l-16.2969.953-2.8759-9.053s5.2725-10.483 3.8346-17.154c-1.438-6.6708 17.2555 6.195 17.2555 6.195z" fill="#9f616a"/><path d="m78.0594 118.461s-4.3139.477-5.2725 1.906c-.9587 1.43-7.6691 5.718-12.9417 4.765-5.2725-.953-8.6277-2.382-9.5863-1.906-.9587.477-2.876 10.483-2.876 10.483l5.2725 15.248-.9586 41.932-1.4379 11.436s-2.876-3.812 8.6277-1.43c11.5037 2.383 26.3626-1.906 31.1558-2.382 4.7932-.477 12.9416-1.906 13.4206-4.765.48-2.859-1.438-13.342-1.438-13.342l-7.6688-31.926-4.7931-17.154z" fill="#ff3000"/><path d="m73.5256 116.31s4.0546-2.137 5.4925-.231c1.438 1.906 19.6521 4.765 19.6521 6.194 0 1.43 3.8348 40.026 2.8758 43.361-.959 3.336 1.917 7.148 1.917 7.148l3.356 14.295s9.107 27.16 5.272 28.113c-3.834.953-7.19 0-8.628 0s-.958-18.107-4.7928-22.872c-3.8345-4.765-9.1071-16.677-10.0657-19.06-.9586-2.382-12.9416-35.261-12.4623-39.073s-2.6166-17.875-2.6166-17.875z" fill="#d0cde1"/><path d="m53.6141 118.461s-3.8346 0-4.3139.953-5.2725 7.147-7.1898 8.577c-1.9173 1.429-8.6277 7.624-8.6277 9.053 0 1.43 13.9002 11.913 13.9002 11.913s5.7519 28.113 2.8759 37.643c-2.8759 9.53-7.1897 32.402-5.2725 33.831 1.9173 1.43 6.2312 1.906 6.2312 0s2.8759-22.395 5.2725-26.683c2.3966-4.289 9.5864-31.449 6.7105-39.073-2.876-7.624-9.5864-36.214-9.5864-36.214z" fill="#d0cde1"/><path d="m116.884 165.634s.48 14.772-4.793 22.396c-5.272 7.624-8.628 16.2-8.628 16.2s-8.6275-2.382-10.0654-5.241c-1.438-2.859-10.5451-.477-10.5451-1.43 0-.952 11.0244-5.717 11.983-6.67.9587-.953 4.3139-.953 6.2315-2.859 1.917-1.906 2.396-6.195 2.396-6.195l1.918-12.389z" fill="#9f616a"/><path d="m76.9706 88.2764c1.2169-.1099 2.4719-.2308 3.5474-.8074 2.4097-1.2919 3.0487-4.9709 1.2143-6.9913-.5058-.5141-1.0715-.9663-1.6852-1.347l-3.6434-2.4653c-1.6115-1.0904-3.261-2.1986-5.1404-2.7126-1.6999-.4649-3.4953-.4172-5.255-.3084-3.416.211-6.8531.647-10.0661 1.8195s-6.2101 3.134-8.156 5.933c-3.0849 4.4373-3.1273 10.4218-1.4282 15.5444 1.699 5.1227 4.9265 9.5837 8.1066 13.9537l1.6501-8.004c.147-.713.337-1.494.9334-1.916 1.4824-1.0486 3.2957 1.105 5.115 1.091 1.169-.009 2.1504-.965 2.5934-2.041.443-1.0752.4722-2.2661.5747-3.4238.2171-2.452 1.0792-5.8637 3.415-7.216 2.1766-1.2601 5.7779-.8879 8.2244-1.1088z" fill="#2f2e41"/><path d="m76.0834 219.863s-1.6189 46.55-2.5775 47.98c-.9586 1.429 0-48.126 0-48.126z" fill="#000" opacity=".1"/><path d="m94.8356 122.273h3.8345s16.2969 21.919 14.3799 23.348c-1.918 1.43 0 5.242 0 5.242l3.834 7.147s4.793 4.289 3.356 5.242c-1.438.953-3.356 4.765-3.356 4.765s-9.586-1.43-12.462 4.288l-6.2167-7.802z" fill="#d0cde1"/><path d="m96.1909 129.323-13.1579 5.402 10.1255 24.376 13.1575-5.402z" fill="#2f2e41"/><path d="m94.6487 143.62c1.4533-.597 2.1846-2.157 1.6333-3.484-.5514-1.327-2.1765-1.919-3.6299-1.323-1.4534.597-2.1846 2.157-1.6333 3.484s2.1765 1.919 3.6299 1.323z" fill="#ff3000"/><path d="m85.2492 160.393s-34.511 28.59-40.2629 19.536c-5.7518-9.053 6.2312-16.677 6.2312-16.677s10.545.476 22.528-7.148l11.983-5.241s10.9395-15.526 14.6675-9.614-6.3635 16.202-15.1468 19.144z" fill="#9f616a"/><path d="m38.7552 135.138-5.2725 1.906v14.295l-1.9173 2.859s.4793 5.718 1.9173 7.148c1.438 1.429 4.3139.953 3.3552 4.288-.5761 2.175-.7387 4.437-.4793 6.671 0 0 8.6278 10.96 9.1071 9.53.4793-1.429 7.1898-19.06 8.1484-19.06.9587 0-9.5864-27.637-9.5864-27.637z" fill="#d0cde1"/><path d="m101.786 207.328s4.956-4.765 2.478-5.003c-2.478-.239-11.1061-5.004-12.544-2.621-1.438 2.382 10.066 7.624 10.066 7.624z" fill="#2f2e41"/><path d="m196.045 116.431c3.819 0 6.915-1.629 6.915-3.639 0-2.009-3.096-3.639-6.915-3.639-3.818 0-6.914 1.63-6.914 3.639 0 2.01 3.096 3.639 6.914 3.639z" fill="#57b894"/><path d="m222.483 124.922c-15.591-5.853-31.183-5.853-46.774 0v-19.003c15.252-4.576 31.522-4.576 46.774 0z" stroke="#3f3d56" stroke-miterlimit="10" stroke-width="2"/><path d="m215.975 120.992c-11.253-4.225-22.505-4.225-33.758 0v-13.715c11.007-3.303 22.751-3.303 33.758 0z" stroke="#3f3d56" stroke-miterlimit="10" stroke-width="2"/><path d="m198.486 114.814c3.819 0 6.914-1.629 6.914-3.639s-3.095-3.639-6.914-3.639-6.915 1.629-6.915 3.639 3.096 3.639 6.915 3.639z" stroke="#3f3d56" stroke-miterlimit="10" stroke-width="2"/><path d="m201.13 139.221c3.741-.759 6.447-2.971 6.042-4.94-.404-1.969-3.765-2.95-7.506-2.191-3.742.759-6.447 2.971-6.043 4.94.404 1.97 3.765 2.951 7.507 2.191z" fill="#57b894"/><path d="m228.741 142.285c-16.454-2.636-31.73.464-45.829 9.299l-3.823-18.62c14.024-7.515 29.966-10.75 45.83-9.299z" stroke="#3f3d56" stroke-miterlimit="10" stroke-width="2"/><path d="m221.575 139.728c-11.876-1.902-22.902.335-33.077 6.711l-2.759-13.438c10.121-5.424 21.627-7.759 33.077-6.712z" stroke="#3f3d56" stroke-miterlimit="10" stroke-width="2"/><path d="m203.195 137.152c3.742-.76 6.447-2.971 6.043-4.941-.404-1.969-3.765-2.95-7.507-2.19-3.741.759-6.447 2.97-6.042 4.94.404 1.969 3.765 2.95 7.506 2.191z" stroke="#3f3d56" stroke-miterlimit="10" stroke-width="2"/><path d="m205.861 158.751c.141-2.005-2.834-3.843-6.643-4.107-3.81-.264-7.012 1.148-7.152 3.153s2.834 3.844 6.644 4.108c3.809.263 7.011-1.149 7.151-3.154z" fill="#57b894"/><path d="m224.491 172.2c-15.145-6.916-30.699-7.992-46.662-3.228l1.327-18.958c15.535-3.512 31.766-2.389 46.662 3.228z" stroke="#3f3d56" stroke-miterlimit="10" stroke-width="2"/><path d="m218.273 167.83c-10.931-4.991-22.157-5.768-33.677-2.33l.957-13.683c11.212-2.534 22.927-1.724 33.678 2.33z" stroke="#3f3d56" stroke-miterlimit="10" stroke-width="2"/><path d="m208.409 157.306c.14-2.005-2.834-3.844-6.644-4.107-3.809-.264-7.011 1.148-7.152 3.153-.14 2.005 2.834 3.844 6.644 4.107 3.81.264 7.012-1.148 7.152-3.153z" stroke="#3f3d56" stroke-miterlimit="10" stroke-width="2"/><path d="m168.763 125.364s-29.894-4.066-51.242 8.371" stroke="#3f3d56" stroke-miterlimit="10" stroke-width="2"/><path d="m118.241 129.556.776.244-1.214 3.8 3.903.926-.19.787-4.752-1.128z" fill="#3f3d56"/></g></svg>