<svg fill="none" height="366" viewBox="0 0 485 366" width="485" xmlns="http://www.w3.org/2000/svg"><path d="m365.843 365c-102.3 9.654-157.319-132.853-225.446-120.441-68.1272 12.412-123.8256-79.527-41.4288-198.5891 57.9998-61.1398 96.6668 17.0088 178.1428-12.8717 81.476-29.88043 68.587 37.0888 162.032 78.6088 93.445 41.519 29 243.639-73.3 253.293z" fill="#ff3000"/><g fill="#2f2e41"><path d="m364.936 364.472-1.27-.584c16.496-28.363 7.675-65.197-2.629-91.103-6.998-17.412-15.922-34.163-26.643-50.006l1.208-.679c10.777 15.924 19.748 32.76 26.782 50.261 10.399 26.142 19.283 63.344 2.552 92.111z"/><path d="m377.17 222.327-9.273 45.131 1.405.228 9.273-45.131z"/><path d="m315.51 260.778-1.047.867 47.885 45.763 1.047-.866z"/><path d="m401.595 311.048-24.288 29.881 1.158.745 24.289-29.881z"/></g><path d="m303.551 259.305c3.947 0 7.147-2.846 7.147-6.356 0-3.511-3.2-6.356-7.147-6.356s-7.147 2.845-7.147 6.356c0 3.51 3.2 6.356 7.147 6.356z" fill="#3f3d56"/><path d="m334.998 265.661c3.947 0 7.147-2.846 7.147-6.356 0-3.511-3.2-6.356-7.147-6.356s-7.147 2.845-7.147 6.356c0 3.51 3.2 6.356 7.147 6.356z" fill="#3f3d56"/><path d="m320.704 290.449c3.947 0 7.147-2.845 7.147-6.356 0-3.51-3.2-6.356-7.147-6.356s-7.147 2.846-7.147 6.356c0 3.511 3.2 6.356 7.147 6.356z" fill="#f2f2f2"/><path d="m410.042 306.34c3.947 0 7.147-2.846 7.147-6.356 0-3.511-3.2-6.357-7.147-6.357s-7.147 2.846-7.147 6.357c0 3.51 3.2 6.356 7.147 6.356z" fill="#3f3d56"/><path d="m386.457 313.331c3.947 0 7.147-2.845 7.147-6.356 0-3.51-3.2-6.356-7.147-6.356-3.948 0-7.147 2.846-7.147 6.356 0 3.511 3.199 6.356 7.147 6.356z" fill="#f2f2f2"/><path d="m402.895 333.671c3.947 0 7.147-2.846 7.147-6.356s-3.2-6.356-7.147-6.356-7.147 2.846-7.147 6.356 3.2 6.356 7.147 6.356z" fill="#3f3d56"/><path d="m327.851 217.99c3.947 0 7.147-2.845 7.147-6.356 0-3.51-3.2-6.356-7.147-6.356s-7.147 2.846-7.147 6.356c0 3.511 3.2 6.356 7.147 6.356z" fill="#3f3d56"/><path d="m373.312 285.058-1.007-.902c25.492-22.49 29.812-59.953 28.948-87.421-.648-18.482-3.358-36.861-8.092-54.866l1.384-.316c4.759 18.097 7.485 36.569 8.137 55.146.872 27.719-3.516 65.549-29.37 88.359z" fill="#2f2e41"/><path d="m434.026 153.115-24.405 40.42 1.259.601 24.405-40.42z" fill="#2f2e41"/><path d="m362.071 172.877-1.296.539 29.774 56.628 1.295-.539z" fill="#2f2e41"/><path d="m426.644 244.224-33.431 21.806.845 1.026 33.431-21.806z" fill="#2f2e41"/><path d="m444.428 143.209c3.947 0 7.147-2.846 7.147-6.356s-3.2-6.356-7.147-6.356-7.147 2.846-7.147 6.356 3.2 6.356 7.147 6.356z" fill="#f2f2f2"/><path d="m353.392 168.516c3.948 0 7.148-2.845 7.148-6.356 0-3.51-3.2-6.356-7.148-6.356-3.947 0-7.147 2.846-7.147 6.356 0 3.511 3.2 6.356 7.147 6.356z" fill="#3f3d56"/><path d="m381.126 183.152c3.947 0 7.147-2.846 7.147-6.356 0-3.511-3.2-6.356-7.147-6.356s-7.147 2.845-7.147 6.356c0 3.51 3.2 6.356 7.147 6.356z" fill="#3f3d56"/><path d="m358.965 202.84c3.947 0 7.147-2.845 7.147-6.356 0-3.51-3.2-6.356-7.147-6.356s-7.147 2.846-7.147 6.356c0 3.511 3.2 6.356 7.147 6.356z" fill="#f2f2f2"/><path d="m438.502 242.356c3.948 0 7.147-2.846 7.147-6.356s-3.199-6.356-7.147-6.356c-3.947 0-7.147 2.846-7.147 6.356s3.2 6.356 7.147 6.356z" fill="#3f3d56"/><path d="m413.643 242.57c3.947 0 7.147-2.846 7.147-6.356s-3.2-6.356-7.147-6.356c-3.948 0-7.147 2.846-7.147 6.356s3.199 6.356 7.147 6.356z" fill="#3f3d56"/><path d="m422.265 266.416c3.947 0 7.147-2.846 7.147-6.356 0-3.511-3.2-6.356-7.147-6.356s-7.147 2.845-7.147 6.356c0 3.51 3.2 6.356 7.147 6.356z" fill="#3f3d56"/><path d="m390.781 135.832c3.948 0 7.147-2.846 7.147-6.356s-3.199-6.356-7.147-6.356c-3.947 0-7.147 2.846-7.147 6.356s3.2 6.356 7.147 6.356z" fill="#3f3d56"/><path d="m164.407 56.0443c-2.676-2.1525-4.345-5.1207-4.677-8.3162-.331-3.1955.7-6.3849 2.889-8.9361-.289.2416-.573.4924-.844.7591-2.559 2.5175-3.889 5.8363-3.698 9.2261.192 3.3898 1.89 6.5729 4.721 8.8492s6.563 3.4593 10.374 3.2887c3.812-.1706 7.391-1.6809 9.951-4.1984.271-.2667.523-.5425.764-.8231-2.634 2.193-6.099 3.4256-9.707 3.4535s-7.096-1.1509-9.773-3.3028z" fill="#2f2e41"/><path d="m163.058 59.1118c16.368 0 29.636-11.8002 29.636-26.3566 0-14.5563-13.268-26.35652-29.636-26.35652s-29.636 11.80022-29.636 26.35652c0 14.5564 13.268 26.3566 29.636 26.3566z" fill="#2f2e41"/><path d="m83.2284 357.261s-7.8802 7.008 0 7.008 15.4177-4.571 15.4177-4.571z" fill="#2f2e41"/><path d="m197.848 352.869s-2.181 9.719 4.373 5.829c6.555-3.89 9.973-11.412 9.973-11.412z" fill="#2f2e41"/><path d="m112.693 125.384-5.139 10.665-31.5207 37.173s-21.5848 20.72-9.5932 21.938c11.9915 1.219 19.8717-19.196 19.8717-19.196l37.0022-32.603 4.112-14.93z" fill="#ffb8b8"/><path d="m128.454 82.1167-4.967 1.2366s-19.359 30.4517-17.303 36.8507c2.055 6.399 11.306 14.321 15.417 13.712 4.112-.61 6.853-51.7993 6.853-51.7993z" fill="#2f2e41"/><path d="m144.214 49.209s5.139 18.8914 1.37 22.5478c-3.768 3.6564-11.991 6.3987-11.991 6.3987l1.37 34.1265s15.761-4.875 16.446-5.485c.685-.609 14.732-20.4146 14.732-20.4146l13.705-11.5786s-20.9-8.8363-14.732-24.0713c6.167-15.235-20.9-1.5235-20.9-1.5235z" fill="#ffb8b8"/><path d="m156.891 56.2171c9.839 0 17.816-7.0937 17.816-15.8444 0-8.7506-7.977-15.8444-17.816-15.8444-9.84 0-17.816 7.0938-17.816 15.8444 0 8.7507 7.976 15.8444 17.816 15.8444z" fill="#ffb8b8"/><path d="m136.677 76.632s-12.677 3.047-13.363 7.3128c-.685 4.2658 0 13.1021-1.027 14.9303-1.028 1.8279-4.112 4.5709-2.741 16.1489 1.37 11.579.685 18.587.685 18.587s-69.5512 218.165-44.8828 224.564c24.6688 6.399 60.9858-.61 60.6428-4.875-.342-4.266-6.509-88.668-6.509-88.668s35.974 112.13 80.514 85.925c44.541-26.204 34.605-31.079 30.493-32.907-4.111-1.828-66.125-88.668-65.782-104.817s-.685-66.729-8.223-74.347c0 0 7.88-23.157 11.649-26.204s13.02-31.6889 13.02-31.6889-5.825-7.0081-10.622-7.0081c-4.796 0-9.25 1.5235-14.732 6.094s-25.696 26.814-25.696 26.814-6.51-25.5952-3.426-29.861z" fill="#2f2e41"/><path d="m156.72 35.345c8.325 0 15.075-4.0926 15.075-9.141s-6.75-9.141-15.075-9.141c-8.326 0-15.076 4.0926-15.076 9.141s6.75 9.141 15.076 9.141z" fill="#2f2e41"/><path d="m182.416 25.5948c7.947 0 14.39-5.7296 14.39-12.7974 0-7.06781-6.443-12.7974-14.39-12.7974-7.948 0-14.39 5.72959-14.39 12.7974 0 7.0678 6.442 12.7974 14.39 12.7974z" fill="#2f2e41"/><path d="m192.694 21.9385c-3.608-.0005-7.085-1.2067-9.74-3.3795s-4.296-5.1536-4.596-8.3515c-.033.352-.054.707-.054 1.0665 0 3.3941 1.516 6.6491 4.215 9.0491s6.359 3.7483 10.175 3.7483c3.817 0 7.477-1.3483 10.175-3.7483 2.699-2.4 4.215-5.655 4.215-9.0491 0-.3595-.021-.7145-.054-1.0665-.3 3.1979-1.94 6.1787-4.596 8.3515-2.655 2.1728-6.131 3.379-9.74 3.3795z" fill="#2f2e41"/><path d="m70.8659 129.005h-70.8659v63.023h70.8659z" fill="#3f3d56"/><path d="m24.2387 159.636s8.9649-1.139 11.9532-8.352c2.9884-7.214 5.5498-13.288 10.6726-12.149 5.1229 1.139 2.1345 15.566 2.1345 15.566s10.6726-1.139 11.0995 2.278c.3534 2.829.1216 13.726.0314 17.392-.0188 1.483-.5311 2.929-1.4722 4.154-.6647.896-1.6108 1.598-2.7208 2.02-1.1101.422-2.335.545-3.5227.352-2.3682-.262-4.7545-.373-7.1406-.332-4.2767.049-8.4748-1.024-12.07-3.085l-8.965-.379z" fill="#f2f2f2"/><path d="m28.9345 154.321h-18.3569v27.715h18.3569z" fill="#ff3000"/><path d="m41.4398 144.139c-.6166.002-1.2301-.077-1.8214-.232l.1217-.364c.8104.214 1.6624.275 2.501.179.8385-.097 1.6449-.348 2.3672-.739s1.3443-.913 1.826-1.531c.4816-.618.8121-1.319.9701-2.057l.4194.07c-.2804 1.321-1.073 2.512-2.2396 3.366s-2.6333 1.317-4.1444 1.309z" fill="#3f3d56"/><path d="m254.728 207.961h-70.866v63.023h70.866z" fill="#3f3d56"/><path d="m208.1 240.353s8.965 1.139 11.954 8.352c2.988 7.214 5.549 13.288 10.672 12.149s2.135-15.566 2.135-15.566 10.672 1.139 11.099-2.278c.354-2.829.122-13.726.031-17.392-.018-1.483-.531-2.928-1.472-4.153-.664-.896-1.611-1.599-2.721-2.021s-2.335-.544-3.522-.352c-2.368.262-4.755.373-7.141.332-4.277-.049-8.475 1.024-12.07 3.085l-8.965.379z" fill="#f2f2f2"/><path d="m212.796 217.953h-18.357v27.715h18.357z" fill="#ff3000"/><path d="m225.301 255.85c-.616-.001-1.23.077-1.821.233l.122.363c.81-.214 1.662-.275 2.501-.179.838.097 1.645.349 2.367.74s1.344.912 1.826 1.53c.481.618.812 1.319.97 2.058l.419-.071c-.28-1.321-1.073-2.512-2.239-3.366-1.167-.854-2.634-1.317-4.145-1.308z" fill="#3f3d56"/><path d="m192.18 122.642-1.713 17.063 3.426 51.19s7.881 25.899-4.111 25.29c-11.992-.61-7.538-27.119-7.538-27.119l-5.481-59.416z" fill="#ffb8b8"/><path d="m182.244 76.3274 8.908 4.2658s11.992 37.1738 5.14 44.1818c-6.853 7.008-20.9 9.75-21.585 7.008s-3.084-23.157-3.084-23.157z" fill="#2f2e41"/></svg>