<svg fill="none" height="405" viewBox="0 0 513 405" width="513" xmlns="http://www.w3.org/2000/svg" xmlns:xlink="http://www.w3.org/1999/xlink"><filter id="a" color-interpolation-filters="sRGB" filterUnits="userSpaceOnUse" height="341" width="523" x="0" y="0"><feFlood flood-opacity="0" result="BackgroundImageFix"/><feColorMatrix in="SourceAlpha" type="matrix" values="0 0 0 0 0 0 0 0 0 0 0 0 0 0 0 0 0 0 127 0"/><feOffset dx="5" dy="5"/><feGaussianBlur stdDeviation="2.5"/><feColorMatrix type="matrix" values="0 0 0 0 0.380392 0 0 0 0 0.435294 0 0 0 0 0.513726 0 0 0 0.01 0"/><feBlend in2="BackgroundImageFix" mode="normal" result="effect1_dropShadow"/><feBlend in="SourceGraphic" in2="effect1_dropShadow" mode="normal" result="shape"/></filter><linearGradient id="b" gradientUnits="userSpaceOnUse" x1="345.177" x2="345.177" y1="266.413" y2="28.0568"><stop offset="0" stop-color="#808080" stop-opacity=".25"/><stop offset=".54" stop-color="#808080" stop-opacity=".12"/><stop offset="1" stop-color="#808080" stop-opacity=".1"/></linearGradient><path d="m390.091 353.392c-24.829-14.216-29.701-30.381-29.034-36.687 0-18.63 72.084-28.375 107.125-21.496s28.033 21.496 25.53 32.674-27.031 32.961-42.549 37.26c-15.519 4.3-30.035 6.019-61.072-11.751z" fill="#ff3000"/><path d="m119.725 349.879c-56.0952-53.642-67.1031-114.639-65.5951-138.432 0-70.297 162.8561-107.068 242.0231-81.112 79.166 25.956 63.333 81.112 57.678 123.291-5.655 42.178-61.071 124.372-96.131 140.595-35.059 16.222-67.856 22.711-137.975-44.342z" fill="#ff3000"/><g filter="url(#a)"><path d="m406.429 261.199c0 2.878-16.808 11.268-36.775 11.268-19.966 0-35.523-8.39-35.523-11.268s16.183-1.951 36.169-1.951c19.985 0 36.129-.932 36.129 1.951z" fill="#504f60"/><path d="m406.429 261.199c0 2.878-16.808 11.268-36.775 11.268-19.966 0-35.523-8.39-35.523-11.268" fill="#000" opacity=".2"/><path d="m205.355 208.393c3.241.414 6.604.678 9.707-.327.489-.151 1.027-.488.978-.976-.035-.177-.11-.344-.22-.488-1.17-1.751-2.153-3.619-2.933-5.575-.031-.102-.094-.191-.181-.254-.101-.036-.211-.036-.312 0-1.432.376-2.669 1.298-4.091 1.693-.726.199-1.482.255-2.229.166-.645-.073-1.525-.605-2.112-.537.333 2.132 1.144 4.122 1.393 6.298z" fill="#eb4626"/><path d="m266.642 202.993c2.136-1.463 4.35-3 5.611-5.258.09-.135.142-.292.151-.454-.021-.159-.083-.31-.18-.439-1.202-1.906-2.748-3.571-4.561-4.912-.945.667-1.8 1.454-2.541 2.342-.538.565-2.024 1.463-2.038 2.326 0 .488.567 1.054.831 1.464.356.526.694 1.063 1.016 1.609.186.268 1.882 3.215 1.711 3.322z" fill="#eb4626"/><path d="m218.058 214.924c.039.502-.1 1.003-.391 1.414-.228.229-.51.397-.821.488-4.531 1.62-9.775-.4-14.296 1.195-.929.327-1.809.8-2.742 1.112-1.113.334-2.261.537-3.421.605-1.599.151-3.207.249-4.81.293-1.218.086-2.442-.021-3.627-.317-.592-.151-1.146-.426-1.625-.805s-.873-.854-1.156-1.395c-.245-.485-.294-1.046-.137-1.566.071-.178.172-.343.299-.488.306-.343.666-.634 1.065-.863l1.667-1.073c.781-.552 1.631-1.001 2.527-1.337.66-.214 1.359-.307 2.028-.487 2.341-.683 4.13-2.537 5.792-4.317l2.268-2.415c.212-.265.481-.48.787-.629.314-.105.649-.136.977-.093 2.203.157 4.33.869 6.183 2.069.474.354.985.655 1.525.897 1.33.517 3.035.127 4.262-.527.582-.312.455-.487.699-1.043.245-.557.841-.913 1.359-.405.156.175.267.386.323.614.488 1.61.303 3.342.303 5.029-.015.264.018.528.097.781.125.254.274.496.445.722.035.059.066.121.093.185.299.747.411 1.556.327 2.356z" fill="#514e7f"/><path d="m218.058 214.924c.039.502-.1 1.002-.391 1.414-.228.229-.51.397-.821.488-4.531 1.62-9.775-.4-14.296 1.195-.929.327-1.809.8-2.742 1.112-1.113.334-2.261.537-3.421.605-1.599.151-3.207.249-4.81.293-1.218.086-2.442-.021-3.627-.317-.592-.152-1.146-.426-1.625-.805s-.873-.854-1.156-1.395c-.245-.485-.294-1.046-.137-1.566.071-.178.172-.343.299-.488.264.552.454 1.283.62 1.547.225.39.53.728.896.991.366.264.784.446 1.226.535.661.041 1.324-.043 1.955-.248 4.105-1.015 8.47-1.03 12.414-2.566 1.354-.532 2.645-1.239 4.067-1.561s2.932-.234 4.399-.356c2.317-.185 4.56-.883 6.843-1.249.294.754.4 1.567.307 2.371z" fill="#464353"/><path d="m277.018 202.695c-.215 1.717-1.305 3.195-2.502 4.449s-2.551 2.38-3.504 3.824c-1.173 1.79-1.701 4.01-3.226 5.522-.586.55-1.243 1.017-1.955 1.39-.798.469-1.641.857-2.518 1.156-2.277.727-4.731.561-7.111.385-.773-.007-1.538-.154-2.258-.434-.328-.166-.642-.359-.939-.575-.596-.367-1.099-.868-1.466-1.464-.18-.324-.231-.704-.142-1.063.136-.396.37-.752.68-1.034.535-.556 1.11-1.073 1.72-1.546.837-.539 1.591-1.197 2.239-1.952.397-.596.69-1.256.865-1.951.346-1.217.557-2.468.63-3.731-.002-.839.085-1.677.259-2.498.362-1.287 1.32-2.438 1.213-3.77-.044-.191-.027-.39.048-.571.114-.141.273-.239.45-.278.747-.297 1.535-.479 2.336-.541.403-.028.806.034 1.181.181.375.146.713.375.99.667.332.4.552.976 1.041 1.132.242.066.496.076.743.029 1.202-.122 2.473-.273 3.421-1.048.438-.393.79-.871 1.034-1.406s.375-1.114.383-1.701c0-.444-.2-.908.489-.976.518-.068.929.488 1.193.829.953 1.273 1.93 2.605 2.287 4.156.139-.054.286-.082.435-.083.305-.003.606.068.877.207.272.138.506.34.682.588.39.629.54 1.377.425 2.107z" fill="#514e7f"/><path d="m277.018 202.695c-.215 1.717-1.305 3.195-2.502 4.449-1.198 1.254-2.551 2.38-3.504 3.824-1.174 1.79-1.701 4.01-3.226 5.522-.586.55-1.243 1.017-1.955 1.39-.798.47-1.641.857-2.518 1.156-2.277.727-4.731.561-7.111.385-.773-.007-1.538-.154-2.258-.434-.328-.166-.642-.359-.939-.575-.596-.367-1.099-.868-1.466-1.464.458-.22.958-.339 1.466-.351 1.056.059 1.828 1.054 2.84 1.361 1.442.434 2.879-.581 4.34-.927.953-.224 1.955-.166 2.899-.488.786-.303 1.512-.742 2.145-1.297.868-.619 1.641-1.362 2.293-2.205.541-.843.992-1.74 1.344-2.678.772-1.796 1.68-3.531 2.717-5.19.154-.262.339-.505.553-.722.229-.209.488-.356.748-.541.977-.736 1.383-1.951 1.725-3.141.093-.362.222-.713.386-1.049.305-.003.606.068.877.207.272.138.506.34.682.588.421.644.586 1.421.464 2.18z" fill="#464353"/><path d="m174.529 50.6165c1.217.9098 2.218 2.0755 2.933 3.4145.684 1.3365 4.628 11.7066 4.398 13.2138 1.286-1.2926 6.354-1.5023 7.655-2.7949.542-.5415 3.47-3.2437 3.91-3.873.44-.6292 3.705-1.9511 4.061-2.6144 1.335-2.3853-9.462-11.4238-8.079-13.7797.077-.1083.116-.2383.112-.3707-.031-.1112-.094-.2111-.18-.2878-.885-.9024-2.058-1.4633-3.124-2.1316-1.065-.6683-2.092-1.5999-2.38-2.8291-1.016.4668-1.949 1.0962-2.761 1.8633-1.982 1.6942-3.928 3.4226-5.841 5.1851-.748.6926-2.195 1.6145-2.542 2.6047-.41 1.0633 1.124 1.8194 1.838 2.3998z" fill="#ffb9b9"/><path d="m192.007 46.7777c-1.656 1.1109-3.204 2.375-4.624 3.7754-1.339 1.3219-2.61 2.8535-2.932 4.7022-.137.7267-.117 1.4633-.23 2.1998-.489 3.195-3.255 5.5363-4.477 8.5264-.354.9228-.614 1.8788-.777 2.8534-.343 1.8477-.531 3.7208-.562 5.5997-.03 1.8194 1.759 3.073 2.414 4.7705.655 1.6974.831 3.4437 1.164 5.185.625 3.2876 1.774 6.4582 2.932 9.6092 2.41 6.6437 10.22 25.0087 12.63 31.6567 7.385-1.849 27.043-6.097 33.583-9.995 2.18-1.297-15.127-15.9352-12.796-16.9449.133-.0207.26-.072.37-.15.11-.0779.2-.1803.264-.299.063-.1187.098-.2506.102-.3851.004-.1346-.024-.2682-.081-.3902-2.331-10.175-9.624-18.5355-12.933-28.4422-1.148-3.4389-3.211-6.3753-4.775-9.6434-1.417-2.9608-2.175-6.2337-3.871-9.0482-.32-.5799-.738-1.0998-1.237-1.5365-.423-.3237-.88-.6001-1.363-.8243-.968-.4683-1.867-.7463-2.801-1.2195z" fill="#514e7f"/><path d="m174.92 49.4605c6.384 0 11.559-5.1648 11.559-11.5359s-5.175-11.5359-11.559-11.5359-11.559 5.1648-11.559 11.5359 5.175 11.5359 11.559 11.5359z" fill="#ffb9b9"/><path d="m186.68 43.3438c.576-.5302 1.299-.8738 2.075-.9852.776-.1115 1.567.0144 2.27.3609.782.4048 1.466 1.2243 1.29 2.0828l5.733.0878c.913-.0249 1.825.0586 2.718.2488.898.1952 1.701.6972 2.268 1.4194.068.0927.146.2049.264.2195.095.0015.188-.0295.264-.0878.882-.4414 1.875-.6112 2.854-.4878 3.099.2 5.963 1.7463 8.392 3.6779.438.3005.778.7228.978 1.2145.2.6488-.039 1.4633.489 1.9267 0 5.3656 1.847 10.3799 3.079 15.6089.22.9316 1.114 1.756 1.735 2.4876.767.8112 1.393 1.7442 1.852 2.7608 1.046 2.7121-.396 5.9021.621 8.6239.43 1.1512 1.261 2.0974 1.955 3.0974.915 1.1546 1.493 2.5385 1.672 3.9998.044.6536-.039 1.3121 0 1.9511.065.8788.229 1.7476.488 2.5901.418 1.5738.854 3.1461 1.31 4.7167.743 2.5364 1.711 5.2734 3.989 6.6244-5.499.931-11.296 1.843-16.535-.064-.731-.249-1.425-.595-2.063-1.029-1.891-1.346-2.805-3.649-3.622-5.824-.909-2.4389-1.833-4.9217-2.018-7.5166.002-.8254-.115-1.6467-.347-2.4389-.533-1.4146-1.955-2.2682-3.246-3.0535-1.457-.7968-2.777-1.8211-3.91-3.034-.562-.6109-.993-1.3304-1.265-2.114s-.381-1.6147-.318-2.4418c.097-.8048.415-1.5804.444-2.3901.03-.8097-.332-1.7365-1.109-1.9511-4.003-1.2097-5.914-5.9411-6.804-10.0189-.384-2.1076-.556-4.2482-.513-6.3899l-.054-4.1607c-.552-.5016-.997-1.1101-1.306-1.7885s-.477-1.4125-.492-2.1576c.053-.4348.044-.8748-.025-1.3073-.193-.5286-.508-1.0047-.919-1.3901-.884-.9052-1.624-1.9399-2.194-3.0682z" fill="#464353"/><path d="m174.368 56.5332c-.132 1.2878.161 2.6096-.127 3.873-.113.4878-.308.9755-.45 1.4292-.433 1.8183-.246 3.729.533 5.4289.777 1.6832 1.708 3.2915 2.781 4.8046.362.5165.661 1.075.889 1.6633.185.6177.3 1.2542.342 1.8975.283 2.583.737 5.1445 1.359 7.6678.548 2.1852 6.765 20.8675 8.211 22.5985.263.384.661.654 1.115.756.327.013.652-.054.948-.195l2.933-1.122c.249-.076.48-.202.679-.37.275-.321.424-.73.42-1.152.211-2.38-6.021-21.1935-6.813-23.4422-2.395-6.7898-5.582-13.3357-7.141-20.3646-.435-1.9511-.665-4.9558-2.097-6.5118-.591-.6439-.391-.3707-1.099-.0342-.359.1551-.705.3361-1.037.5415-.414.2878-.76.6644-1.01 1.1024s-.399.9263-.436 1.4291z" fill="#464353"/><path d="m183.268 69.4154c.787 4.1509 1.598 8.2921 2.405 12.4431l11.476-2.9998c.093-1.1999-.547-2.3121-.978-3.4144-1.045-2.6194-1.07-5.5363-1.915-8.2288-.641-2.0487-1.755-3.9315-2.356-5.9948-.347-1.1999-.523-2.4389-.865-3.6534-.367-1.1928-.818-2.3582-1.349-3.4876-.645-1.638-1.485-3.1923-2.503-4.629-1.466.5463-3.03 1.1804-3.866 2.5023-.429.7448-.673 1.5809-.714 2.4389-.2 2.5705.733 5.1558.426 7.7117-.318 2.4341-.237 4.9035.239 7.3118z" fill="#65997d"/><path d="m197.34 124.632c.645 2.439-.289 5.004-1.051 7.419-1.148 3.637-1.931 7.378-2.337 11.17-.049.965-.244 1.917-.576 2.824-.362.815-.978 1.502-1.398 2.278-1.154 2.039-1.124 4.527-.875 6.858.166 1.537.415 3.068.723 4.58.377 1.849.841 3.781.298 5.585.91-.2 1.525.976 1.467 1.898-.059.922-.357 1.951.088 2.746 1.124.41 1.134 1.951 1.099 3.146.019 2.072.282 4.135.783 6.146 1.7 8.162 3.506 16.302 5.415 24.418 4.13 1.278 8.954 2.61 12.894.839.733-.327 1.466-.849 1.632-1.639.043-.426-.01-.856-.156-1.258l-1.867-6.78c-.455-1.639-.909-3.332-.67-5.015.181-1.253.728-2.604.113-3.712-.211-.38-.543-.678-.787-1.039-.978-1.429-.465-3.341-.387-5.072.031-.389.005-.78-.078-1.161-.134-.445-.321-.873-.557-1.273-1.543-2.99-2.284-6.327-2.15-9.688.058-.428-.001-.865-.172-1.263-.118-.164-.224-.337-.317-.517-.073-.313-.037-.642.102-.932-.56-.424-1.065-.915-1.505-1.463.271-.168.5-.396.67-.665.171-.27.277-.574.312-.891s-.003-.637-.11-.937c-.108-.3-.282-.572-.51-.795.199-.04.383-.134.532-.272.149-.139.256-.315.311-.511.054-.196.053-.402-.004-.597-.056-.195-.166-.371-.316-.507-.24-.166-.558-.239-.729-.488-.264-.361-.048-.863.167-1.249l1.138-2.053c.851-1.527 1.041-3.415 1.955-4.878 1.31-2.132 2.166-4.507 3.011-6.858l3.29-9.058 2.214 1.917c.737.562 1.355 1.265 1.818 2.068.315.793.514 1.628.591 2.478.812 4.917 3.911 9.18 5.059 14.023.254 1.078.425 2.21 1.046 3.132.222.283.422.583.596.897.162.48.246.982.25 1.488.102.991.417 1.948.923 2.806.506.859 1.191 1.599 2.009 2.169 1.09.747 2.444 1.259 3.036 2.439.118.366.282.715.488 1.039.528.634 1.667.708 1.892 1.503.127.443-.108.975.142 1.365.141.181.328.321.542.405l3.182 1.585c3.558 1.776 5.376 5.854 8.001 8.824.906.968 1.709 2.027 2.395 3.161 1.134 2.024 1.657 4.566 3.573 5.853.515.267.984.614 1.388 1.03.601.79.381 1.897.435 2.892s.816 2.181 1.764 1.878c-.332 1.205-.332 2.478 0 3.683 4.163-.214 8.133-1.818 11.271-4.556.929-.81 1.824-1.844 1.833-3.073.015-.212-.033-.424-.137-.61-.187-.24-.435-.426-.718-.541-2.977-1.61-3.871-5.341-5.376-8.37-1.315-2.673-3.261-4.976-4.888-7.458-3.539-5.342-5.953-11.805-11.305-15.331-1.178-.776-2.547-1.464-3.138-2.746-.328-.717-.367-1.537-.626-2.278-.259-.742-.88-1.464-1.671-1.464.439-1.073.351-2.38.381-3.541.03-.515-.03-1.032-.176-1.527-.203-.532-.467-1.04-.787-1.512-1.396-2.359-2.095-5.065-2.014-7.804.039-1.41.289-2.863-.137-4.21-.215-.678-.591-1.297-.85-1.951-.39-1.184-.596-2.421-.611-3.668l-.293-4.687c-.045-1.562-.248-3.114-.606-4.634-.978-3.639-1.955-18.882-5.303-20.599-3.349-1.7171-9.101 10.014-12.87 10.243-1.667.069-3.314.387-4.887.942-2.508.936-4.609 2.682-6.657 4.39l-6.931 5.809c-1.466 1.205-2.679 2.356-4.296 3.205z" fill="#464353"/><path d="m164.074 25.1155c1.525-2.0779 4.145-3.1803 6.726-3.273 2.58-.0926 5.122.7171 7.434 1.8634.682.3872 1.411.6856 2.17.8877 1.222.2488 2.581-.0829 3.685.4878 1.466.7755 1.75 2.751 1.623 4.39-.127 1.6389-.435 3.4583.44 4.8777.31.4048.593.8302.845 1.2731.377.8439.157 1.8194-.068 2.7121-.572-.4878-.895-1.2244-1.403-1.7902s-1.393-.9463-2.023-.5219c-.631.4244-.621 1.195-.655 1.8877-.035.6926-.21 1.5218-.865 1.7462-.274.0621-.56.041-.821-.0608-.262-.1017-.487-.2793-.646-.5099-1.119-1.3657-.669-3.5461-1.779-4.9216-.63-.7805-1.681-1.1609-2.263-1.9804-.459-.6439-.577-1.4633-.977-2.156-.401-.6926-1.335-1.1999-1.955-.7219-.212.202-.389.4377-.523.6975-.388.5533-.95.9602-1.598 1.155-.647.1947-1.341.1659-1.97-.0819-.481-.2944-1.001-.5194-1.545-.6682-.356-.0178-.71.0641-1.022.2365-.311.1724-.569.4284-.742.739-.351.6207-.521 1.3271-.489 2.0389 0 .9756.176 2.0146-.381 2.795-.212.2938-.478.5453-.782.7414-.817.5219-1.955.8731-2.708.2781-.255-.2372-.445-.5358-.551-.8672-.106-.3315-.125-.6846-.055-1.0254.146-.6789.339-1.3471.576-1.9999.431-1.5121-.131-3.2144.338-4.6387.491-1.2828 1.159-2.491 1.984-3.5901z" fill="#464353"/><path d="m170.267 59.5282c-.074.3555-.036.7249.107 1.0585.146.2271.343.4161.577.5511 1.644 1.0219 3.513 1.6265 5.445 1.7609.263.0045.521.0714.753.1951.459.3024.488.9756.317 1.5121-.228.5062-.346 1.0547-.347 1.6097.142 1.0194 1.354 1.4633 2.376 1.6145 1.432.1805 3.001.0878 4.135-.8048.768-.6992 1.353-1.5749 1.706-2.5511 2.805-6.4337 3.787-13.5455 6.627-19.9598.215-.4188.359-.8705.425-1.3365.03-.2332-.003-.4703-.096-.6864-.092-.2162-.241-.4036-.431-.5428-.528-.3268-1.349-.1414-1.706-.6536-.176-.2585-.157-.6097-.313-.8829-.328-.5804-1.188-.4877-1.774-.8243-.46-.2439-.777-.7463-1.291-.8439-.252-.0142-.503.0305-.735.1304s-.437.2523-.599.4452c-1.667 1.5511-2.542 3.751-3.47 5.8289-1.418 3.1852-3.078 6.2574-4.966 9.1897.22-.3414-1.056-2.9266-1.554-3.0388-.875-.1756-1.995 1.356-2.469 1.9267-1.487 1.8002-2.43 3.9863-2.717 6.3021z" fill="#65997d"/><path d="m188.024 40.0415c-.351.0058-.697.0904-1.011.2475-.313.157-.588.3825-.803.6598-.523.678-.625 1.5755-.757 2.4388-.445 2.7353-1.423 5.357-2.879 7.7167" fill="#000" opacity=".1"/><path d="m190.517 41.9878c-.485.0108-.959.1473-1.374.3962-.416.2489-.759.6016-.997 1.0232-.324.7672-.525 1.5803-.596 2.4096-.419 1.8387-1.228 3.5667-2.371 5.068" fill="#000" opacity=".1"/><path d="m306.677 137.348v-6.058c-.001-4.46-1.778-8.736-4.938-11.89-3.16-3.153-7.446-4.924-11.915-4.924h-239.7351c-4.4688 0-8.7546 1.771-11.9149 4.924-3.1604 3.154-4.9365 7.43-4.9378 11.89v11.17z" fill="#33323d"/><path d="m116.781 107.374s-.684 42.368 6.843 56.309 10.753 74.586 10.753 74.586 78.906 8.146 133.893-9.756c54.986-17.901 171.987-25.223 171.987-25.223l-19.717-132.621s-97.406-6.2338-152.818 20.1403c-55.411 26.3737-150.941 16.5647-150.941 16.5647z" fill="#8dd070"/><path d="m116.781 107.374s-.684 42.368 6.843 56.309 10.753 74.586 10.753 74.586 78.906 8.146 133.893-9.756c54.986-17.901 171.987-25.223 171.987-25.223l-19.717-132.621s-97.406-6.2338-152.818 20.1403c-55.411 26.3737-150.941 16.5647-150.941 16.5647z" fill="#000" opacity=".1"/><path d="m134.245 122.851s-2.468 34.959 3.724 46.129c6.193 11.17 6.481 61.036 6.481 61.036s71.013 3.287 121.527-13.873 156.665-28.291 156.665-28.291l-12.063-108.4566s-87.832-.9024-139.093 23.2526c-51.262 24.154-137.241 20.203-137.241 20.203z" fill="#8dd070"/><path d="m270.706 196.286c10.104-1.256 16.106-19.806 13.407-41.433-2.699-21.626-13.078-38.14-23.182-36.884s-16.107 19.806-13.408 41.432c2.7 21.627 13.079 38.141 23.183 36.885z" fill="#000" opacity=".1"/><path d="m367.137 6.06311s-94.63 23.90099-139.254 65.97169c-44.625 42.0712-138.5657 61.9912-138.5657 61.9912s12.3757 40.53 23.8227 51.495 33.158 67.703 33.158 67.703 77.601-16.418 124.425-50.309 155.951-76.693 155.951-76.693z" fill="#000" opacity=".2"/><path d="m87.895 127.958s12.371 40.535 23.808 51.5 33.158 67.698 33.158 67.698 77.611-16.414 124.44-50.304c46.829-33.891 155.946-76.679 155.946-76.679l-59.537-120.173s-94.625 23.901-139.25 65.9717c-44.624 42.0703-138.565 61.9863-138.565 61.9863z" fill="#8dd070"/><path d="m87.895 127.958s12.371 40.535 23.808 51.5 33.158 67.698 33.158 67.698 77.611-16.414 124.44-50.304c46.829-33.891 155.946-76.679 155.946-76.679l-59.537-120.173s-94.625 23.901-139.25 65.9717c-44.624 42.0703-138.565 61.9863-138.565 61.9863z" fill="#000" opacity=".1"/><path d="m109.259 137.343s8.402 34.032 17.732 42.763c9.331 8.732 24.927 56.095 24.927 56.095s68.594-18.624 111.395-50.427c42.802-31.803 140.418-74.859 140.418-74.859l-44.825-99.5644s-83.867 26.0326-125.231 64.723c-41.365 38.6904-124.416 61.2694-124.416 61.2694z" fill="#8dd070"/><path d="m261.731 165.443c9.231-4.289 9.24-23.783.021-43.539-9.219-19.757-24.175-32.2957-33.405-28.0061s-9.24 23.7831-.021 43.5401c9.219 19.756 24.175 32.295 33.405 28.005z" fill="#000" opacity=".1"/><path d="m313.148 143.294v168.283c0 1.911-.377 3.803-1.11 5.569s-1.808 3.37-3.162 4.721-2.962 2.423-4.732 3.154c-1.769.731-3.666 1.107-5.581 1.106h-250.7371c-3.866-.001-7.5732-1.535-10.3064-4.263-2.7332-2.729-4.2686-6.429-4.2686-10.287v-185.248c7.1848 2.663 7.1848 2.663 14.575 2.439h250.7371c3.863 0 7.569 1.529 10.303 4.253 2.734 2.723 4.274 6.418 4.282 10.273z" fill="#000" opacity=".1"/><path d="m313.148 145.435v168.283c-.001 3.859-1.538 7.56-4.273 10.289s-6.444 4.261-10.312 4.261h-250.7371c-3.866-.001-7.5732-1.534-10.3064-4.263s-4.2686-6.429-4.2686-10.287v-185.252c7.1848 2.658 7.1848 2.658 14.575 2.438h250.7371c3.864 0 7.57 1.531 10.305 4.255 2.734 2.724 4.274 6.42 4.28 10.276z" fill="#504f60"/><path d="m312.435 207.651v53.816h-52.299c-7.088-.095-13.853-2.972-18.832-8.008-4.978-5.035-7.77-11.825-7.77-18.9 0-7.074 2.792-13.864 7.77-18.9 4.979-5.036 11.744-7.913 18.832-8.008z" fill="#000" opacity=".1"/><path d="m313.148 206.217v53.826h-52.298c-7.088-.095-13.854-2.972-18.832-8.008-4.979-5.036-7.77-11.826-7.77-18.9s2.791-13.864 7.77-18.9c4.978-5.036 11.744-7.913 18.832-8.008z" fill="#33323d"/><path d="m263.357 245.054c5.807 0 10.514-4.698 10.514-10.492 0-5.795-4.707-10.492-10.514-10.492-5.806 0-10.513 4.697-10.513 10.492 0 5.794 4.707 10.492 10.513 10.492z" fill="#000" opacity=".1"/><path d="m264.071 243.63c5.806 0 10.513-4.698 10.513-10.493 0-5.794-4.707-10.492-10.513-10.492s-10.513 4.698-10.513 10.492c0 5.795 4.707 10.493 10.513 10.493z" fill="#ff3000"/><path d="m403.927 205.754c.415 4.492-2.991 8.853-1.999 13.253.215.941.62 1.829.767 2.78.411 2.614-1.148 5.087-2.639 7.273l-12.806 18.75c-.513.824-1.127 1.581-1.828 2.253-2.444 2.176-6.119 1.951-9.335 2.6-2.261.458-4.396 1.4-6.257 2.761-.077.066-.127.16-.138.261-.011.102.018.204.08.285.531.723 1.235 1.301 2.048 1.681.813.381 1.708.553 2.605.5.337.443 0 1.092-.489 1.409-.689.488-1.632.605-1.769 1.766-.049.405.033.815.234 1.171.516.788 1.319 1.346 2.239 1.556 4.433 1.351 9.223-1.025 12.542-4.259 3.318-3.234 5.699-7.316 8.954-10.609 1.803-1.819 3.851-3.38 5.709-5.146 3.705-3.522 6.583-7.804 9.364-12.092.836-1.292 1.677-2.619 2.029-4.117.352-1.497.186-3.009.581-4.458.519-1.902 1.912-3.414 3.07-5.009 2.273-3.122 3.788-6.941 3.49-10.785s-2.688-7.643-6.325-8.951c-1.127-.451-2.37-.527-3.543-.214-1.491.458-2.591 1.687-3.608 2.863l-2.443 2.805c-.61.615-1.091 1.344-1.418 2.146-.156.402-.194.841-.107 1.264s.294.812.596 1.121" fill="#fbbebe"/><path d="m403.927 205.754c.415 4.492-2.991 8.853-1.999 13.253.215.941.62 1.829.767 2.78.411 2.614-1.148 5.087-2.639 7.273l-12.806 18.75c-.513.824-1.127 1.581-1.828 2.253-2.444 2.176-6.119 1.951-9.335 2.6-2.261.458-4.396 1.4-6.257 2.761-.077.066-.127.16-.138.261-.011.102.018.204.08.285.531.723 1.235 1.301 2.048 1.681.813.381 1.708.553 2.605.5.337.443 0 1.092-.489 1.409-.689.488-1.632.605-1.769 1.766-.049.405.033.815.234 1.171.516.788 1.319 1.346 2.239 1.556 4.433 1.351 9.223-1.025 12.542-4.259 3.318-3.234 5.699-7.316 8.954-10.609 1.803-1.819 3.851-3.38 5.709-5.146 3.705-3.522 6.583-7.804 9.364-12.092.836-1.292 1.677-2.619 2.029-4.117.352-1.497.186-3.009.581-4.458.519-1.902 1.912-3.414 3.07-5.009 2.273-3.122 3.788-6.941 3.49-10.785s-2.688-7.643-6.325-8.951c-1.127-.451-2.37-.527-3.543-.214-1.491.458-2.591 1.687-3.608 2.863l-2.443 2.805c-.61.615-1.091 1.344-1.418 2.146-.156.402-.194.841-.107 1.264s.294.812.596 1.121" fill="#000" opacity=".05"/><path d="m413.619 321.405c-2.796 1.703-6.281 1.805-9.531 1.41-.523-.063-1.144-.102-1.466.302-.489.586.088 1.464.684 1.917 1.917 1.437 4.17 2.362 6.545 2.688 2.12.3 4.261.442 6.402.424 5.866.103 11.731.2 17.503-.639.342-.025.675-.122.978-.282.372-.261.631-.654.723-1.098.396-1.502-.366-3.112-1.52-4.156-1.153-1.044-2.634-1.624-4.081-2.185l-5.083-1.976c-1.193-.463-3.104-1.692-4.399-1.595-2.434.176-4.736 4.01-6.755 5.19z" fill="#3f3d56"/><path d="m413.619 321.405c-2.796 1.703-6.281 1.805-9.531 1.41-.523-.063-1.144-.102-1.466.302-.489.586.088 1.464.684 1.917 1.917 1.437 4.17 2.362 6.545 2.688 2.12.3 4.261.442 6.402.424 5.866.103 11.731.2 17.503-.639.342-.025.675-.122.978-.282.372-.261.631-.654.723-1.098.396-1.502-.366-3.112-1.52-4.156-1.153-1.044-2.634-1.624-4.081-2.185l-5.083-1.976c-1.193-.463-3.104-1.692-4.399-1.595-2.434.176-4.736 4.01-6.755 5.19z" fill="#000" opacity=".05"/><path d="m417.182 254.063c-2.116 2.81-4.306 6.053-3.783 9.531.284 1.873 1.334 3.527 2.107 5.258 1.046 2.352 1.593 4.878 2.131 7.395.792 3.678 1.588 7.366 2.072 11.102.552 4.219-2.043 16.428-2.282 20.677-.059 1.024-.181 2.131-.895 2.868-.278.293-.65.527-.777.907-.075.367-.014.748.171 1.073 1.193 2.683 3.632 4.683 6.354 5.824 2.722 1.142 9.287 3.112 12.253 3.215.391.043.787-.009 1.154-.151.395-.241.705-.597.889-1.02 2.127-4.058.084-18.487.113-23.067.029-3.819.933-7.614.767-11.428-.137-3.064-.977-6.059-1.256-9.112-.489-5.005.43-10.034 1.354-14.98.704-3.795 1.413-7.589 2.317-11.336.552-2.287 1.192-4.594 2.444-6.58.977-1.575 2.351-2.892 3.489-4.39 3.161-4.135 4.566-9.346 3.91-14.506-.068-.488-7.331 1.839-7.971 2.117-2.613 1.104-5.016 2.646-7.107 4.561-1.681 1.599-3.006 3.736-4.477 5.526-2.082 2.533-4.138 5.084-6.168 7.653-2.317 2.937-4.587 5.891-6.809 8.863z" fill="#464353"/><path d="m417.182 253.892c-2.116 2.81-4.306 6.059-3.783 9.532.284 1.877 1.334 3.531 2.107 5.263 1.046 2.346 1.593 4.877 2.131 7.389.792 3.683 1.588 7.371 2.072 11.102.552 4.224-2.043 16.429-2.282 20.677-.059 1.024-.181 2.137-.895 2.873-.278.288-.65.522-.777.902-.075.367-.014.748.171 1.074 1.193 2.687 3.632 4.682 6.354 5.853s9.287 2.19 12.253 2.288c.392.043.787-.009 1.154-.152.395-.237.706-.592.889-1.014 2.127-4.059.084-17.56.113-22.145.029-3.824.933-7.614.767-11.434-.137-3.063-.977-6.058-1.256-9.107-.489-5.009.43-10.038 1.354-14.984.704-3.79 1.413-7.585 2.317-11.336.552-2.288 1.192-4.595 2.444-6.58.977-1.576 2.351-2.893 3.489-4.39 3.162-4.135 4.567-9.346 3.911-14.506-.069-.488-7.332 1.838-7.972 2.116-2.612 1.108-5.015 2.652-7.107 4.566-1.681 1.595-3.006 3.732-4.477 5.522-2.082 2.533-4.138 5.086-6.168 7.658-2.317 2.913-4.587 5.858-6.809 8.833z" fill="#000" opacity=".05"/><path d="m393.633 192.184c6.552 0 11.863-5.3 11.863-11.838 0-6.539-5.311-11.839-11.863-11.839-6.551 0-11.862 5.3-11.862 11.839 0 6.538 5.311 11.838 11.862 11.838z" fill="#fbbebe"/><path d="m404.318 179.848c1.096 1.745 2.533 3.251 4.225 4.429 1.692 1.179 3.604 2.005 5.623 2.429l-.894 3.244c-1.545 5.57-3.28 11.463-7.591 15.326.489-1.888-.137-3.902-1.202-5.541-1.066-1.639-2.561-2.927-4.027-4.2l-6.829-5.902c-.197-.16-.362-.355-.488-.576-.169-.416-.169-.881 0-1.297.87-2.703 3.353-4.39 5.376-6.215 1.015-.943 1.922-1.997 2.703-3.141 1.364-1.941 2.209.01 3.104 1.444z" fill="#fbbebe"/><path d="m378.008 168.444-.269-2.225c1.872.488 3.651-1.102 4.848-2.746 1.198-1.643 2.307-3.58 4.13-4.268 2.215-.829 4.561.488 6.677 1.6 2.369 1.312 4.97 2.157 7.659 2.488.429.014.854.083 1.266.205 1.378.487 2.033 2.214 2.233 3.78.201 1.566.147 3.229.827 4.624.488 1.059 1.397 1.844 1.955 2.888 1.466 2.8.048 6.629 1.578 9.375l-3.802-3.478c-.347-.317-.836-.649-1.222-.381-.303.215-.328.678-.45 1.049-.366 1.083-1.725 1.405-2.708.976-.982-.43-1.701-1.361-2.443-2.21-1.682-1.98-3.686-3.722-6.032-4.565-1.028-.384-2.127-.545-3.222-.473-1.096.072-2.163.376-3.132.892-1.774 1-3.074 3.332-5.249 3.414-2.982.113-4.223-5.428-5.601-7.619.504-.378.859-.922 1.002-1.536.143-.613.065-1.258-.22-1.82.2-.082 2.131-.312 2.175.03z" fill="#464353"/><path d="m231.285 99.2331c-.954.8459-1.835 1.7699-2.635 2.7609-.805 1.005-1.234 2.259-1.212 3.546.004.373.124.736.342 1.039.112.145.266.252.441.305s.363.051.537-.007c.196-.1.364-.248.488-.43.517-.619 1.065-1.212 1.643-1.775.21-.21.488-.429.772-.351.127.045.241.12.332.219.329.284.568.657.689 1.073.172.747-.264 1.493-.757 2.078-.494.586-1.075 1.146-1.276 1.883-.076.195-.076.41 0 .605.095.141.227.252.381.322.7.384 1.476.611 2.274.663.797.052 1.596-.071 2.34-.361.978-.395 1.848-1.073 2.855-1.424.436-.119.858-.283 1.261-.488.288-.191.535-.438.727-.725s.325-.609.392-.948c.127-.677.152-1.369.073-2.054-.122-2.649-.69-5.2597-1.681-7.721-.057-.1587-.155-.2999-.283-.4097-.148-.0895-.317-.1352-.489-.1317-1.251-.1317-3.304-.7707-4.512-.3073-.422.231-.786.5545-1.065.9463-.225.2487-1.637 1.3657-1.637 1.6925z" fill="#ffb9b9"/><path d="m230.889 98.1307c0-1.1901-1.467-4.0631.865-4.2534 0-1.2731-1.804-2.0633-1.467-3.4144.108-.4488.489-.8146.533-1.2731.147-1.3024-2.209-2.0096-1.818-3.2583.147-.4878.665-.7707.777-1.2536.264-1.1268-1.755-1.6292-1.794-2.7852 0-.3903.22-.7561.201-1.1463 0-.4878-.425-.8585-.66-1.2828-.611-1.0878-.313-2.7706-1.427-3.3316.738.0634.977-1.0292.674-1.6974-.303-.6683-.924-1.2487-.928-1.9902.036-.2686.036-.541 0-.8097-.206-.7121-1.374-.7706-1.569-1.4633-.026-.2658-.034-.533-.025-.7999-.078-.5512-.645-.9024-1.178-1.0585-.553-.0938-1.086-.2837-1.574-.561-.342-.2585-.738-.6877-1.104-.4877-.137.0829-.205.239-.308.356-.44.5122-1.281.2878-1.833-.0878-1.632-1.1072-2.444-3.0925-2.791-5.0289-.347-1.9365-.337-3.9364-.772-5.8533-.133-.5975-.309-1.1844-.528-1.756-.186-.4878-.782-1.2536-.821-1.7463-.088-1.1219 2.238-.356 3.123-.2439.859.0838 1.708.247 2.537.4878.884.3335 1.751.7128 2.595 1.1365 3.529 1.556 7.791 1.7463 10.626 4.3608.934.8584 1.72 1.9852 2.933 2.3754.556.1064 1.104.2481 1.642.4244 1.344.6292 1.554 2.4096 2.287 3.6973.231.3401.432.6991.601 1.0731.142.4412.208.9028.196 1.3658l.103 3.3803c.166 5.6631.332 11.3408-.274 16.9697-.196 1.8585-.489 3.7705.063 5.5558.147.4878.352.9463.489 1.4389.121.5776.183 1.166.186 1.756l.078 2.1901c.027.1704-.011.3446-.107.4878-.082.0662-.178.1133-.28.1378s-.209.0257-.312.0037c-3.055-.2732-6.144-1.9902-9.027-.9512" fill="#464353"/><path d="m370.295 266.414c19.965 0 36.149-2.335 36.149-5.215s-16.184-5.214-36.149-5.214-36.149 2.334-36.149 5.214 16.184 5.215 36.149 5.215z" fill="#504f60"/><path d="m401.395 261.453c-.635-2.717-1.031-5.102-1.031-5.102s.146-2.956-1.183-5.176v-.741-5.463c.378-.992.841-1.95 1.383-2.863.978-1.717 0-8.01 0-8.01s-3.651-8.872-2.766-14.501c.884-5.629-7.498-24.994-7.498-24.994.052-1.867.316-3.723.787-5.531.089-.38.126-.771.107-1.161 0-.049 0-.093 0-.142 0-.048 0 .03 0 .044-.127-3.712-3.069-10.667-3.069-10.667l.396-13.258s1.877-7.805-1.183-18.316c-1.07-3.663-1.755-6.595-2.19-8.858-.049-.254-.097-.488-.137-.737 6.301-.975 11.115-1.756 11.115-1.756s-3.656-15.262-6.124-17.935c-2.469-2.673-4.443-11.068-4.443-11.068s-1.286-10.7748.792-13.9259c2.077-3.151 2.37-8.5848 2.37-8.5848s4.736-3.4145 5.333-4.9607c.596-1.5463 1.578-4.9607 1.578-6.7703 0-1.8097-.591-3.4145-.396-4.39.196-.9756-1.383-4.5802-.591-6.2972.205-.5274.311-1.0879.313-1.6536.002-.0162.002-.0325 0-.0487.007-1.5026-.132-3.0022-.416-4.4778-1.37-1.1546-2.969-2.0073-4.692-2.5023l-.102-.4098-.269-1.0731c-.15-.0989-.305-.1901-.465-.2731v-.3902l-.044-1.5512.743-3.4827c1.467-6.0582-6.642-6.9606-6.642-6.9606-.492-.9292-1.31-1.6448-2.297-2.0096-1.628-.5707-.269 9.1117.489 9.7555.571.4878 2.341 3.5023 3.196 4.9949l.137.2439c-.134.1201-.258.2505-.371.3902l.307 2.1023.049.3219c-.537.666-.973 1.4072-1.295 2.1999 0 0 1.466 1.6194 1.188 3.4144-.279 1.795.454 4.0729.489 4.1949-.088-.1024-1.129-1.2243-2.171-.9512-1.041.2732-3.949 1.1463-3.949 1.1463s-2.17.3805-1.955.8585-1.466 2.5754-1.466 2.5754l-5.836-5.5216c-.059-.1658-.122-.3317-.171-.4878-.238-.7961-.402-1.6125-.489-2.4388.636-.1509 1.26-.3481 1.867-.5902.613-.2102 1.167-.5649 1.613-1.0341.592-.6975.704-1.6438.943-2.5121.46-1.6974 1.467-3.2047 2.166-4.8192 1.183-2.7282 1.565-5.7362 1.099-8.6727-.089-.9049-.396-1.7749-.894-2.5364-.953-1.3072-2.683-1.8389-3.939-2.8828-1.257-1.0438-2.068-2.6388-3.534-3.4144-1.325-.7073-2.933-.6243-4.428-.3804-2.922.4807-5.728 1.4996-8.275 3.0046-.851.4878-1.789 1.0878-2.767.9073-.84-.1512-1.466-.8195-1.994-1.4633.006-.0267.014-.0528.025-.0781-.024-.0237-.046-.0499-.064-.078-.619 1.3699-.929 2.8583-.909 4.3607 0 .2341 0 .4878.029.6975v.2439.2c0 .104-.015.2074-.044.3073-.123.2984-.31.5664-.547.7853-.18.2034-.343.4203-.489.6488 0-.0781.049-.1561.078-.239-.373.5431-.583 1.1809-.606 1.8389-.027.4789.13.9502.44 1.317.293.2836.612.5384.953.7609-.116.6439-.175 1.2968-.176 1.9511.011 1.9396.524 3.8436 1.488 5.5279.964 1.6842 2.347 3.0916 4.016 4.0862.068.1609.132.3268.195.4877.748 1.9511 1.31 4.2437 1.061 6.3411 0 .1512-.044.3073-.069.4585-.024.1513-.146.161-.21.2439 0 0-9.643.0976-11.911-1.9511-2.268-2.0486-5.728 5.0095-5.728 5.0095s-3.456.6682-4.15 0c-.694-.6683-4.736-.0927-4.736-.0927-1.656-1.4698-3.811-2.2547-6.027-2.195-1.342-1.018-2.823-1.8393-4.399-2.4389l-.107-.039c-.695-.2529-1.439-.3463-2.175-.2731 0 0-4.741-3.9022-6.124-6.0094-1.384-2.1072-7.967-9.8873-7.997-9.9214v-.3756l-.073-1.1316c-.196.0306-.393.0469-.591.0488-.034-.1122-.083-.2439-.132-.3951-.38-1.1039-.847-2.1755-1.398-3.2047 0 0 0-1.4292.415-1.7902.416-.3609-.171-5.6045-.171-5.6045s-4.272-9.9653-8.099-2.5267c0 0-7.233 4.8143-1.163 10.4238 0 0 2.444 1.1706 2.767 2.0974.224.6 1.046 2.2828 1.598 3.4144l.249.4878-.068.0585.088.9366.039.3609c-1.144.6488-1.921 1.2926-1.73 1.7755.336.8264.568 1.6916.689 2.5755 0 0 8.397 10.4969 9.482 14.9796 0 0 22.517 13.3553 29.922 14.3065l-1.31 6.6581c-.191 1.8067-.289 3.622-.293 5.4387.098 1.4292-.89 7.9164-.89 7.9164s-1.285 9.541-2.37 10.878c-1.085 1.336-.89 7.058-.89 7.058-.256 2.739-.746 5.451-1.466 8.107-1.085 3.624-.298 8.111-.298 8.111s-3.749 8.585 5.235 2.766c0 0 4.398-.273 9.491-.449v.488c0 .654 0 1.361-.034 2.102-.068 4.917-.098 11.707.127 16.819.396 9.063 3.163 26.998 3.163 26.998v9.029c-.179.847-.268 1.71-.264 2.575-.059 3.177.789 6.305 2.443 9.019l.695 6.01s1.622 3.961 1.652 6.341c-.007.192-.03.383-.069.571-.063.303-.089.612-.078.922-.093 2.731 1.554 9.267 1.554 9.267s.098 6.58 1.085 6.966c.846.326-1.129 3.79-1.715 4.785-.016-.061-.027-.123-.035-.186l-.122.196c-.203.532-.308 1.098-.308 1.668-.055.449.018.905.212 1.314s.5.755.883.998c1.877 1.146 2.884 2.097 1.291 2.478-.587.09-1.167.213-1.74.366 0-.074-.059-.152-.084-.22-.224.088-.412.25-.53.46-.119.21-.161.454-.12.691.015.774.215 1.533.582 2.215 1.579 3.531 2.674 4.877 2.674 4.877l.757-.082c-.112.288-.259.562-.44.814-.288.409-.67.744-1.114.976-.414.247-.875.405-1.354.463-.535.017-1.061.147-1.543.381-.481.233-.908.566-1.253.975-.977 1.273-1.603 3.005.342 4.527l7.063 2.439s12.151 1.575 11.506-1.147c-.646-2.722-1.037-5.102-1.037-5.102.053-1.662-.282-3.313-.977-4.824-.128-.247-.271-.485-.43-.712l.43-.044s.889-6.014 2.072-7.156c.274-.263.338-.488.274-.624.122-.327-.191-.517-.587-.629l-.087.239c-.388-.085-.782-.129-1.178-.132 0 0-.396-3.146.889-4.292.104-.131.18-.282.222-.443.043-.161.052-.329.027-.494.01-.432-.036-.863-.136-1.283-.013.027-.028.053-.044.078-.646-2.858-2.835-7.399-2.835-7.399s-.098-2.859.694-4.005-.103-15.55-.103-15.55.298-6.961-.591-10.205c-.89-3.243 1.085-7.063 1.085-7.063s0-.073 0-.204v-.049l-.113-1.098c-.002.023-.002.046 0 .069-.2-1.844-.576-5.185-.855-6.727-.396-2.195.103-12.682.103-12.682l1.774-4.488 3.162 7.732 3.358 10.302s1.662 2.175 1.701 4.389v.322c-.027.229-.04.458-.039.688-.06 1.302.298 2.588 1.021 3.673 0 0 .89 4.878 2.273 6.102 1.383 1.225 1.383 3.624 1.383 3.624s1.677 7.063 2.444 8.293c.665 1.043.699 3.902.694 4.794v.254s.235 2.527.225 4.644v.756c.002-.018.002-.036 0-.054 0 .579-.069 1.155-.205 1.717l-.03.098c0-.122 0-.239.035-.356-.344 1.437-.508 2.912-.489 4.39-.044 2.536.342 5.541 1.882 7.316 2.668 3.054 4.345 2.673 4.345 2.673s-1.281 3.815-2.864 4.58c-.06.029-.116.065-.167.108 0-.078-.029-.151-.039-.225-.176.191-.311.416-.395.661s-.116.505-.093.764c-.113 1.678.948 4.39 1.955 5.653.374.365.832.633 1.334.78-.08.056-.163.107-.249.152-.176.096-.357.182-.543.258-.257.109-.529.18-.806.21-.536.014-1.063.143-1.545.376-.482.234-.909.568-1.251.98-.978 1.268-1.603 3 .342 4.522l7.063 2.438s12.072 1.547 11.437-1.17z" fill="url(#b)"/><path d="m355.006 265.96-6.843-2.439c-1.886-1.522-1.285-3.253-.332-4.527.328-.406.739-.737 1.207-.971.467-.234.979-.365 1.501-.385.463-.058.908-.217 1.305-.463.434-.235.805-.569 1.085-.975.499-.791.768-1.705.777-2.639 0 0 7.507-2.195 9.56 0 .367.397.673.846.909 1.331.682 1.516 1.016 3.164.978 4.824 0 0 .381 2.381 1.002 5.103.621 2.721-11.149 1.141-11.149 1.141z" fill="#2d293d"/><path d="m388.457 262.594-6.842-2.439c-1.887-1.521-1.286-3.253-.333-4.521.326-.408.736-.74 1.203-.974.466-.234.978-.365 1.5-.382.27-.028.534-.099.782-.21.181-.076.357-.162.528-.259 1.911-1.048 1.862-3.624 1.862-3.624s7.503-2.195 9.56 0c.276.298.517.625.719.976 1.285 2.219 1.144 5.18 1.144 5.18s.381 2.385.977 5.102-11.1 1.151-11.1 1.151z" fill="#2d293d"/><path d="m363.271 253.556c.366.397.673.846.909 1.331l-11.242 1.303c.5-.791.769-1.705.778-2.639 0 0 7.502-2.19 9.555.005z" fill="#000" opacity=".1"/><path d="m397.446 251.171v2.102c-1.75 2.873-10.211 2.244-12.669.805.181-.076.357-.163.528-.259 1.911-1.049 1.862-3.624 1.862-3.624s7.502-2.195 9.56 0c.276.297.517.625.719.976z" fill="#000" opacity=".1"/><path d="m398.78 242.108c-.523.916-.969 1.873-1.334 2.863v7.536c-1.916 3.146-11.853 2.097-13.197.38-1.344-1.716-2.747-6.185-1.237-6.96 1.511-.776 2.772-4.58 2.772-4.58s-1.628.38-4.209-2.673c-2.58-3.054-1.813-9.824-1.334-11.444.479-1.619 0-7.058 0-7.058s.098-3.819-.665-5.058c-.762-1.239-2.39-8.292-2.39-8.292s0-2.385-1.339-3.624-2.199-6.107-2.199-6.107c-.783-1.217-1.12-2.666-.954-4.102.284-2.386-1.627-4.961-1.627-4.961l-3.25-10.307-3.06-7.726-1.721 4.482s-.488 10.493-.092 12.683c.395 2.19.977 8.014.977 8.014s-1.911 3.814-1.051 7.058.548 10.214.548 10.214.86 14.399.093 15.545c-.768 1.147-.67 4.01-.67 4.01s3.91 8.39 2.678 9.536c-1.231 1.146-.86 4.292-.86 4.292s2.674 0 1.53 1.147c-1.144 1.146-2.009 7.155-2.009 7.155l-11.559 1.351s-1.056-1.331-2.586-4.877.284-3.146 1.823-3.532c1.54-.385.567-1.331-1.251-2.478-1.818-1.146-.762-3.721-.762-3.721s2.771-4.673 1.813-5.054c-.958-.38-1.051-6.965-1.051-6.965s-1.911-7.805-1.432-9.922-1.53-7.15-1.53-7.15l-.669-6.01c-2.046-3.41-2.792-7.441-2.102-11.355v-9.268s-2.679-17.931-3.06-26.993c-.244-5.805-.176-13.727-.098-18.668.049-2.77.098-4.609.098-4.609l41.291-4.293s-.039 1.903.748 6.122c.425 2.263 1.085 5.195 2.121 8.858 2.962 10.492 1.149 18.311 1.149 18.311l-.386 13.263s3.631 8.868 2.869 11.921c-.461 1.813-.72 3.671-.772 5.541 0 0 8.123 19.365 7.263 24.994-.861 5.629 2.673 14.501 2.673 14.501s.968 6.293.01 8.01z" fill="#464353"/><path d="m375.173 192.413 12.571-1.673s-7.122 7.253-12.571 1.673z" fill="#000" opacity=".05"/><path d="m385.926 178.482s.43 4.439-2.293 6.107c0 0 4.873-.761 2.293-6.107z" fill="#000" opacity=".1"/><path d="m385.153 164.366s-10.508 8.634-14.33 7.917 14.33-7.917 14.33-7.917z" fill="#000" opacity=".1"/><path d="m359.591 196.462s-7.982 1.809-8.221 5.009c-.24 3.2 8.221-5.009 8.221-5.009z" fill="#000" opacity=".1"/><path d="m361.345 236.245s-11.275 2.097-8.074 3.526 8.46 2.576 8.46 2.576 3.642.19-.386-6.102z" fill="#000" opacity=".05"/><g fill="#000" opacity=".05"><path d="m350.993 242.044c-.283-.177-.523-.415-.702-.697-.178-.282-.291-.601-.329-.932l-.117.2s-1.051 2.576.767 3.717c.205.132.406.263.587.39.337-.063.699-.112 1.046-.2 1.539-.38.567-1.331-1.252-2.478z" opacity=".05"/><path d="m365.52 241.278c.312-.283.303-1.014.112-1.951-.489.737-.631 1.888-.64 2.761.118-.303.298-.579.528-.81z" opacity=".05"/><path d="m363.784 193.823c-.415 1.128-.671 2.308-.762 3.507.218-.828.511-1.635.875-2.41z" opacity=".05"/><path d="m389.611 188.818c.075-.343.11-.693.103-1.044-.142.712-.24 1.371-.313 1.951.063-.297.132-.58.21-.907z" opacity=".05"/><path d="m363.516 227.738c.156-.234.244-1.025.283-2.122-.354.849-.541 1.758-.552 2.678.067-.196.157-.382.269-.556z" opacity=".05"/><path d="m365.862 245.727c-.593 1.913-1.032 3.871-1.315 5.853l-11.559 1.332s-1.056-1.332-2.586-4.878c-.123-.274-.233-.554-.327-.839-.694.317-.978 1.034-.059 3.127 1.53 3.531 2.591 4.878 2.591 4.878l11.559-1.337s.86-6.009 2.004-7.156c.586-.551.225-.839-.308-.98z" opacity=".05"/><path d="m350.612 228.596s.093 6.58 1.051 6.961c.489-1.088.807-2.122.376-2.293-.977-.38-1.05-6.965-1.05-6.965s-1.911-7.805-1.432-9.922c.479-2.116-1.53-7.15-1.53-7.15l-.67-6.01c-2.045-3.41-2.791-7.441-2.102-11.355v-9.268s-2.678-17.931-3.059-26.993c-.245-5.805-.176-13.726-.098-18.668 0-.892.029-1.682.044-2.351l-.328.034s-.053 1.834-.097 4.61c-.079 4.941-.152 12.863.097 18.662.382 9.063 3.055 26.999 3.055 26.999v9.267c-.686 3.914.062 7.942 2.107 11.351l.665 6.009s2.008 5.054 1.529 7.156 1.442 9.926 1.442 9.926z" opacity=".05"/><path d="m384.64 250.341c-.939-1.356-1.565-2.904-1.833-4.531-1.177 1.063.176 5.19 1.467 6.829 1.334 1.717 11.276 2.765 13.196-.386v-1.814c-2.605 2.551-11.569 1.527-12.83-.098z" opacity=".05"/><path d="m399.166 239.561c-.524.917-.972 1.874-1.339 2.864v1.351c.22-.488.528-1.142.978-1.912.302-.751.445-1.557.42-2.366 0 0-.044.044-.059.063z" opacity=".05"/><path d="m385.227 241.069c.363-.735.678-1.493.943-2.269 0 0-1.628.381-4.208-2.673-1.877-2.219-1.985-6.414-1.716-9.155-.489 1.624-1.246 8.395 1.334 11.448 1.687 1.995 2.962 2.522 3.647 2.649z" opacity=".05"/><path d="m380.241 219.914c.169 1.879.233 3.767.191 5.653.048-.298.113-.592.196-.883.488-1.624 0-7.058 0-7.058s.097-3.819-.67-5.058-2.366-8.302-2.366-8.302 0-2.385-1.339-3.624-2.199-6.107-2.199-6.107c-.79-1.214-1.136-2.663-.978-4.102.288-2.386-1.623-4.961-1.623-4.961l-3.25-10.302-3.06-7.726-1.725 4.487s0 .566-.059 1.464l1.398-3.644 3.06 7.712 3.25 10.301s1.911 2.576 1.623 4.961c-.158 1.439.187 2.888.977 4.102 0 0 .861 4.878 2.2 6.107 1.339 1.23 1.334 3.625 1.334 3.625s1.628 7.058 2.39 8.292c.763 1.234.65 5.063.65 5.063z" opacity=".05"/></g><path d="m388.267 44.412-.719 3.4827.044 1.5511.03 1.1414-3.989.4098-.444-.8244c-.827-1.4926-2.542-4.5265-3.094-4.9948-.738-.6146-2.053-10.3018-.489-9.7263.963.3711 1.753 1.0855 2.219 2.0048 0 0 7.854.8975 6.442 6.9557z" fill="#ffcdd3"/><path d="m387.622 50.5872-3.989.4098-.445-.8244c.537-.6095 1.268-1.0145 2.071-1.1461.802-.1317 1.625.0183 2.328.4242z" fill="#000" opacity=".1"/><path d="m388.628 52.4749-5.259 1.2146-.112-.7805-.298-2.1023s2.082-2.7705 5.093-.6926l.264 1.0682z" fill="#eb4626"/><path d="m303.436 44.7924-5.616 3.0047-.488-1.0536c-.533-1.117-1.33-2.7998-1.55-3.4144-.332-.9268-2.673-2.0974-2.673-2.0974-5.866-5.6046 1.124-10.4238 1.124-10.4238 3.705-7.4386 7.82 2.5267 7.82 2.5267s.577 5.2533.171 5.6045-.406 1.7901-.406 1.7901c.536 1.031.988 2.1026 1.354 3.2047.171.5317.264.8585.264.8585z" fill="#ffcdd3"/><path d="m303.436 44.7925-5.616 3.0047-.488-1.0536c.791-.6634 3.602-2.9267 4.526-2.834.44.055.886.0664 1.329.0342.156.5219.249.8487.249.8487z" fill="#000" opacity=".1"/><path d="m304.008 46.4851-6.31 3.1023-.127-1.3512-.088-.9365s3.656-3.1267 4.736-3.0047c.547.079 1.101.079 1.647 0l.074 1.1316z" fill="#eb4626"/><path d="m372.973 67.5472s-27.508 3.0974-22.366 1.4292c3.578-1.1658 5-3.4145 5.298-5.9509.245-2.1121-.303-4.39-1.021-6.3411-.647-1.7309-1.465-3.3927-2.444-4.9607 0 0 21.017-11.5408 16.819-1.0487-.648 1.587-1.05 3.2629-1.193 4.9704-.126 1.6969.058 3.4026.543 5.0339.792 2.647 2.303 5.0237 4.364 6.8679z" fill="#ffcdd3"/><path d="m369.244 50.6604c-.648 1.5869-1.05 3.2629-1.193 4.9704-1.979 1.6633-4.149 1.5511-6.94 1.5511-2.141 0-4.517.5171-6.227-.5121-.647-1.7309-1.465-3.3928-2.444-4.9607 0 0 21.012-11.5408 16.804-1.0487z" fill="#000" opacity=".1"/><path d="m360.739 57.9136c6.282 0 11.374-5.0818 11.374-11.3505 0-6.2688-5.092-11.3506-11.374-11.3506-6.281 0-11.373 5.0818-11.373 11.3506 0 6.2687 5.092 11.3505 11.373 11.3505z" fill="#ffcdd3"/><path d="m372.973 67.5472s-27.508 3.0974-22.366 1.4292c3.578-1.1658 5-3.4144 5.298-5.9509 1.369-1.4633 4.121-2.551 5.866-3.1169 1.613-.5414 3.355-.5703 4.985-.0829.641.1928 1.252.4752 1.813.839.802 2.6567 2.326 5.0393 4.404 6.8825z" fill="#000" opacity=".1"/><path d="m388.628 52.4749-5.259 1.2146-.112-.7805c.563-.7719 1.351-1.3518 2.256-1.6608s1.884-.332 2.803-.0659z" fill="#000" opacity=".1"/><path d="m304.008 46.4851-6.31 3.1023-.127-1.3512c2.044-1.0967 4.168-2.0375 6.354-2.8144z" fill="#000" opacity=".1"/><path d="m383.853 136.719c-10.66 1.697-25.812 3.863-28.216 3.131-1.999-.605-8.373-.541-13.92-.351.048-2.77.097-4.609.097-4.609l41.291-4.293s-.039 1.902.748 6.122z" fill="#000" opacity=".1"/><path d="m394.479 134.221s-35.079 6.01-38.842 4.878c-3.764-1.132-23.095.093-23.095.093-8.7 5.819-5.068-2.766-5.068-2.766s-.763-4.483.288-8.107c.706-2.661 1.188-5.376 1.442-8.116 0 0-.19-5.727.86-7.063 1.051-1.337 2.298-10.873 2.298-10.873s.953-6.4873.86-7.9165.283-5.4387.283-5.4387l1.247-6.6777c-7.171-.9511-28.965-14.3065-28.965-14.3065-1.051-4.4826-9.174-14.9747-9.174-14.9747-.118-.8823-.343-1.747-.669-2.5754-.572-1.5268 8.03-4.5803 8.03-4.5803s6.403 7.8045 7.742 9.9214c1.339 2.117 5.924 6.0094 5.924 6.0094.712-.0731 1.432.0204 2.102.2732l.112.0341c1.536.602 2.977 1.4235 4.277 2.4389 2.155-.051 4.246.7361 5.831 2.195 0 0 3.91-.5756 4.589.0927.68.6682 4.013 0 4.013 0s3.343-7.0582 5.543-5.0095c2.199 2.0487 11.53 1.9511 11.53 1.9511 1.241-1.6487 4.267-2.8291 6.158-3.4144 1.614-.5392 3.355-.5681 4.986-.0829.703.2094 1.365.5395 1.955.9755l5.674 5.5314s1.623-2.1023 1.432-2.5755c-.19-.4731 1.911-.8585 1.911-.8585s2.772-.8584 3.823-1.1462c1.05-.2878 2.013.8487 2.101.9511-.034-.1219-.752-2.4388-.489-4.1948.264-1.756-1.148-3.4145-1.148-3.4145 3.343-8.2044 10.894-1.3365 10.894-1.3365s.861 4.4827.098 6.1996c-.762 1.717.763 5.3412.572 6.2972-.191.9561.386 2.5755.386 4.39 0 1.8146-.977 5.2436-1.53 6.7704-.552 1.5267-5.161 4.9606-5.161 4.9606s-.288 5.4387-2.297 8.5849-.748 13.9061-.748 13.9061 1.911 8.395 4.301 11.068 5.924 17.906 5.924 17.906z" fill="#3f3d56"/><path d="m343.344 71.4543s-1.051-3.1462-2.009-3.4144c-.951-.3492-1.877-.7631-2.771-1.239l.616-1.1755s3.587.9755 4.164 2.034 0 3.7949 0 3.7949z" fill="#000" opacity=".1"/><path d="m324.131 64.4938c-.191.9755-8.7 1.8096-8.7 1.8096l4.301-4.3022.107.039c1.543.6052 2.988 1.4318 4.292 2.4536z" fill="#000" opacity=".1"/><g fill="#575988"><path d="m299.516 52.1627c.421 0 .763-.3407.763-.7609 0-.4203-.342-.7609-.763-.7609s-.762.3406-.762.7609c0 .4202.341.7609.762.7609z"/><path d="m300.494 53.6895c.421 0 .762-.3407.762-.761 0-.4202-.341-.7609-.762-.7609s-.763.3407-.763.7609c0 .4203.342.761.763.761z"/><path d="m301.452 55.0993c.421 0 .762-.3407.762-.761 0-.4202-.341-.7609-.762-.7609s-.763.3407-.763.7609c0 .4203.342.761.763.761z"/><path d="m302.454 56.621c.421 0 .762-.3407.762-.7609 0-.4203-.341-.761-.762-.761s-.763.3407-.763.761c0 .4202.342.7609.763.7609z"/><path d="m392.553 56.3967c.343 0 .621-.2774.621-.6195s-.278-.6195-.621-.6195c-.342 0-.62.2774-.62.6195s.278.6195.62.6195z"/><path d="m392.651 57.8063c.343 0 .621-.2773.621-.6194 0-.3422-.278-.6195-.621-.6195s-.621.2773-.621.6195c0 .3421.278.6194.621.6194z"/><path d="m392.734 59.2111c.343 0 .621-.2773.621-.6195 0-.3421-.278-.6194-.621-.6194s-.621.2773-.621.6194c0 .3422.278.6195.621.6195z"/></g><path d="m343.378 97.3065c-.093-.1122 21.457 27.0425 38.183 11.3505.014.005-26.413 3.58-38.183-11.3505z" fill="#000" opacity=".1"/><path d="m331.012 111.423s12.894.351 14.243 4.053v3.854c-.367.203-.78.31-1.2.31s-.833-.107-1.2-.31c-1.3-.703-9.096-4.654-11.843-2.751z" fill="#000" opacity=".1"/><path d="m331.252 111.423s12.332.336 13.622 3.868v3.668c-.351.195-.747.297-1.149.297s-.797-.102-1.148-.297c-1.242-.664-8.695-4.434-11.325-2.619z" fill="#3f3d56"/><path d="m338.051 83.4829c1.317 3.043 2.996 5.917 5 8.5605 2.179 2.9218 4.821 5.4704 7.82 7.5459 0 0-12.605-14.3406-12.82-16.1064z" fill="#000" opacity=".1"/><path d="m333.833 68.5326s2.15 9.2677 7.693 12.4139z" fill="#000" opacity=".1"/><path d="m330.534 69.4691c-.054-.1708-1.911 7.3166 7.145 11.4773 0 0-3.846-1.3023-7.145-11.4773z" fill="#000" opacity=".1"/><path d="m386.835 63.2548c-.142 0 4.467 2.9267 5.723 4.2925 0 0-3.001-4.4876-5.723-4.2925z" fill="#000" opacity=".1"/><path d="m357.665 56.8504c.002.2476.055.4922.156.7182.101.2261.249.4287.432.5951.184.1665.4.293.636.3717.235.0787.484.1079.731.0856 3.466.2146 7.078.3658 10.264-.9756.598-.2129 1.135-.5678 1.564-1.0341.567-.6975.68-1.6438.909-2.512.45-1.6975 1.408-3.2047 2.097-4.8192 1.166-2.7278 1.557-5.7233 1.129-8.6581-.09-.8995-.388-1.766-.87-2.5315-.919-1.3121-2.595-1.8438-3.812-2.8877-1.217-1.0438-1.999-2.6388-3.421-3.4144-1.281-.7121-2.85-.6243-4.292-.3804-2.836.4806-5.554 1.4989-8.006 2.9998-.826.4878-1.73 1.0877-2.678.9072-.831-.156-1.437-.8536-1.955-1.5072-.667 1.561-.947 3.2592-.817 4.9509.036.2483.028.501-.024.7463-.119.2967-.301.5645-.533.7854-.855.9755-1.388 2.5608-.542 3.5656.366.4341.933.6731 1.29 1.117.64.7951.425 1.9511.411 2.9657-.036.3542.054.7097.254 1.0048.185.172.411.2934.657.3524.246.0589.502.0535.746-.0158.484-.1456.992-.1937 1.495-.1415.53.172.988.5152 1.3.9756 1.579 2.0535 2.205 4.2875 2.879 6.7362z" fill="#2d293d"/><g fill="#000" opacity=".1"><path d="m371.854 55.748c-.43.4662-.967.8212-1.564 1.0341-3.207 1.3316-6.814 1.1804-10.264.9755-.371.0037-.737-.0781-1.071-.239-.528-.3073-.728-.9512-.889-1.5365-.675-2.4389-1.296-4.6778-2.899-6.7118-.309-.4692-.766-.8213-1.3-.9999-.503-.0474-1.01.0006-1.495.1414-.243.07-.5.0762-.745.0181-.246-.0581-.473-.1786-.658-.3498-.2-.2951-.29-.6505-.254-1.0048 0-1.0243.229-2.1706-.411-2.9657-.357-.4438-.924-.6828-1.29-1.1218-.239-.3237-.386-.706-.425-1.1062-.039-.4003.032-.8035.205-1.1669-.611.9756-.87 2.1999-.161 3.0389.366.4341.933.6731 1.29 1.117.64.7999.425 1.9511.41 2.9657-.037.3537.051.7094.25 1.0048.185.1728.412.2947.659.3537s.505.0531.748-.0172c.485-.1455.993-.1936 1.496-.1414.53.1719.987.5152 1.3.9755 1.598 2.0341 2.224 4.2681 2.898 6.7167.079.6026.381 1.154.846 1.5463.335.1611.703.2413 1.075.2341 3.466.2146 7.078.3707 10.264-.9756.599-.2115 1.136-.5666 1.564-1.034.216-.2748.381-.5852.489-.9171.005.0634-.029.1171-.068.1659z" opacity=".1"/><path d="m349.732 39.2074c.154-.1664.272-.3622.347-.5755.044-.2469.044-.4995 0-.7463-.095-1.3907.086-2.7865.533-4.1071l-.064-.0732c-.668 1.5586-.948 3.2558-.816 4.9461.015.185.015.371 0 .556z" opacity=".1"/></g><path d="m355.636 63.7279s14.209 1.8828 15.485-.2488z" fill="#000" opacity=".1"/><path d="m383.257 57.86s7.898 0 9.633 2.9657z" fill="#000" opacity=".1"/><path d="m427.446 321.332c-2.343 2.09-5.387 3.226-8.529 3.181-.801 0-1.911.151-1.916.951.02.234.1.46.235.653.992 1.65 2.558 2.878 4.399 3.449 1.71.517 3.538.429 5.322.337l5.206-.269c.977-.053 1.955-.102 2.932-.224.978-.122 2.043-.322 3.065-.488 2.51-.356 5.048-.474 7.581-.351.674.024 1.466 0 1.867-.488s.195-1.419.044-2.151c-.313-1.507 0-3.088-.289-4.6-.488-2.653-2.79-4.687-5.312-5.648-2.347-.888-6.501-1.907-8.72-.424-2.341 1.556-3.773 4.155-5.885 6.072z" fill="#3f3d56"/><path d="m432.617 232.43c.46 2.181 2.576 3.849 2.635 6.073.054 1.785-1.222 3.283-2.141 4.809-.866 1.582-1.597 3.233-2.185 4.937-1.73 4.436-3.877 8.699-6.412 12.731-1.222 1.951-2.591 4.034-2.312 6.302.194 1.06.57 2.08 1.109 3.014l3.666 7.268c.803 1.451 1.431 2.992 1.872 4.59.318 1.381.347 2.81.533 4.215.577 4.458 2.673 8.945 1.432 13.267-.108.371-.489.819-.787.561 1.212 2.258 2.185 4.531 2.092 7.092-.049 1.342-.46 2.742.034 3.99.21.522.577 1.01.572 1.571 0 .371-.171.717-.21 1.078-.103 1.029.845 1.888 1.828 2.214.982.327 2.053.303 3.045.6 1.906.571 3.27 2.21 4.887 3.347 1.66 1.141 3.616 1.776 5.631 1.829.287.03.577-.028.831-.166.144-.126.259-.28.338-.453s.121-.362.121-.552c.089-.911-.049-1.83-.4-2.675-.351-.846-.905-1.592-1.613-2.174-.311-.193-.568-.462-.748-.78-.091-.282-.115-.581-.069-.873.295-3.998.223-8.015-.215-11.999-.197-1.263-.261-2.543-.19-3.82.102-1.063.425-2.117.308-3.175-.118-1.059-.66-2.024-.978-3.044-.567-1.814-.41-3.765-.489-5.663-.097-3.297-.855-6.536-1.608-9.755-.298-1.264-.625-2.586-1.52-3.522-.762-.795-1.994-1.556-1.706-2.615.16-.39.398-.743.699-1.039.354-.443.614-.954.764-1.5.149-.547.186-1.119.106-1.68.322.082.662.05.962-.091.301-.14.543-.381.686-.68 5.953-2.804 10.752-8.414 12.893-14.633.126-.462.321-.902.577-1.307.552-.771 1.51-1.103 2.361-1.527 2.668-1.341 4.511-3.853 6.202-6.312.978-1.424 1.955-2.897 2.395-4.575.231-1.085.341-2.193.328-3.302l.151-5.732c.033-.377-.003-.757-.108-1.122-.144-.34-.355-.648-.62-.907-1.626-1.715-3.761-2.864-6.09-3.278-1.564-.278-3.163-.224-4.746-.356-3.07-.253-6.1-1.205-9.169-.975-4.825.356-9.121 3.692-11.394 7.955-.796 1.503-1.637 2.81-3.348 2.839z" fill="#464353"/><path d="m405.833 195.164c.065.885-.055 1.774-.352 2.61-.376.8-1.32 1.424-2.146 1.097.25-.561-.41-1.2-1.026-1.131-.303.069-.584.211-.82.414-.236.202-.419.458-.534.746-.408.82-.545 1.747-.391 2.649.196 1.122.846 2.2.675 3.327-.137.936-.826 1.868-.46 2.736.238.397.536.754.885 1.059.483.593.719 1.349.66 2.112-.059.762-.409 1.473-.978 1.985l9.248.185c-.338 1.542.356 3.117 1.148 4.488 2.218 3.768 5.28 6.972 8.947 9.362 3.667 2.389 7.838 3.897 12.187 4.408-.235.137-.436.324-.59.549-.154.224-.256.479-.298.748-.043.268-.025.543.052.804.077.26.21.501.392.703.752.747 2.028.654 2.971.171.944-.483 1.682-1.283 2.542-1.902 1.519-1.074 3.371-1.572 5.225-1.405 1.158.112 2.282.488 3.446.546 3.421.181 6.354-2.278 9.648-3.282 2.4-.737 5.122-.737 7.136-2.234.87-.644 1.584-1.703 1.329-2.747-.21-.599-.543-1.149-.977-1.614-1.159-1.498-1.843-3.297-2.674-5-1.646-3.37-3.912-6.401-6.681-8.936-2.09-1.823-4.305-3.498-6.628-5.014-.561-.414-1.16-.775-1.789-1.078-.811-.356-1.71-.527-2.444-.976-1.085-.683-1.71-1.887-2.546-2.858-1.833-2.137-4.648-3.117-6.906-4.795-1.515-1.127-2.855-2.61-4.663-3.151-.88-.268-1.813-.288-2.693-.551-1.999-.605-3.456-2.376-5.416-3.093-1.549-.565-3.26-.419-4.887-.619-1.835-.226-3.588-.892-5.108-1.941-.49-.399-1.039-.718-1.628-.947-2.478-.751-2.678 3.854-2.932 5.449-.328 2.37-.924 4.726-.924 7.126z" fill="#566397"/><path d="m408.247 210.607c.416 4.497-2.986 8.853-1.994 13.258.21.936.616 1.829.763 2.78.415 2.61-1.149 5.083-2.64 7.268l-12.805 18.755c-.514.823-1.128 1.58-1.828 2.254-2.444 2.17-6.12 1.951-9.336 2.595-2.259.463-4.392 1.404-6.256 2.76-.084.065-.139.16-.154.265-.014.105.013.211.076.296.531.722 1.234 1.299 2.046 1.68s1.706.553 2.602.501c.337.439 0 1.092-.464 1.409-.685.488-1.633.6-1.77 1.766-.046.405.036.815.235 1.171.518.786 1.32 1.342 2.238 1.551 4.434 1.356 9.224-1.024 12.542-4.258 3.319-3.234 5.699-7.317 8.954-10.605 1.804-1.824 3.852-3.38 5.709-5.146 3.705-3.526 6.589-7.804 9.365-12.092.836-1.292 1.681-2.619 2.028-4.116.347-1.498.186-3.015.582-4.464.518-1.897 1.911-3.414 3.07-5.004 2.272-3.122 3.792-6.941 3.489-10.79-.303-3.848-2.688-7.643-6.324-8.951-1.128-.447-2.37-.522-3.544-.214-1.491.458-2.59 1.688-3.607 2.868l-2.444 2.8c-.595.62-1.062 1.351-1.373 2.151-.158.403-.196.843-.109 1.267s.294.814.598 1.123" fill="#fbbebe"/><path d="m414.738 192.159c-1.681.098-3.534.264-4.721 1.464-.498.551-.901 1.18-1.193 1.863-1.153 2.346-2.278 4.8-2.361 7.414-.068 2.088.538 4.132.856 6.195.264 1.717-.406 3.468-.533 5.204 2.087-.639 4.844-1.507 6.735-2.585 1.29-.736 2.537-1.575 3.944-2.044 2.009-.668 5.377.488 7.288 1.415.103-1.336-.904-3.668-.797-5.009.015-.565.116-1.124.298-1.659.286-.565.625-1.103 1.012-1.605.728-1.18 1.062-2.56.956-3.942-.106-1.381-.648-2.694-1.547-3.75-1.696-1.902-4.35-2.614-6.882-2.927-1.595-.184-3.201-.239-4.805-.165" fill="#566397"/></g></svg>