<svg fill="none" height="398" viewBox="0 0 516 398" width="516" xmlns="http://www.w3.org/2000/svg" xmlns:xlink="http://www.w3.org/1999/xlink"><linearGradient id="a"><stop offset="0" stop-color="#808080" stop-opacity=".25"/><stop offset=".54" stop-color="#808080" stop-opacity=".12"/><stop offset="1" stop-color="#808080" stop-opacity=".1"/></linearGradient><linearGradient id="b" gradientUnits="userSpaceOnUse" x1="238.296" x2="238.296" xlink:href="#a" y1="375.053" y2="25.1987"/><linearGradient id="c" gradientUnits="userSpaceOnUse" x1="17331.1" x2="17331.1" xlink:href="#a" y1="28701.9" y2="21917.9"/><linearGradient id="d" gradientUnits="userSpaceOnUse" x1="-81022.3" x2="-81022.3" xlink:href="#a" y1="218477" y2="81894.6"/><g fill="#eb4626"><path d="m485.136 219.243c-18.141 24.883-12.154 60.401-1.668 88.697 3.512 9.473 7.501 19.492 5.68 29.798-2.224 12.598-12.677 22.038-23.543 27.18-19.808 9.37-43.208 7.874-60.927-3.933-15.291-10.19-26.054-27.124-41.642-36.828-26.087-16.235-59.954-8.982-88.988 3.413-20.54 8.769-43.041 20.061-63.058 11.965-14.086-5.698-23.571-20.2-28.561-35.703-2.41-7.485-4.096-15.61-8.897-21.469-2.854-3.483-6.626-5.911-10.504-7.939-35.396-18.528-80.9256-6.948-115.2419-27.621-23.1679-13.96-37.5876-41.052-43.57882-69.534s-4.508474-58.548-2.12218-88.0995c1.69589-21.0012 4.37873-43.4429 17.0099-59.9464 13.3586-17.4485 35.748-24.38254 55.7697-21.6497 20.0217 2.7328 37.9723 13.8495 53.6753 27.12 19.642 16.5545 37.713 37.338 62.141 43.6235 16.639 4.2799 34.316 1.2506 51.613-.088 28.914-2.2326 57.726.3381 86.361 3.2424 27.412 2.7791 55.015 5.8825 80.977 14.9935 18.372 6.4472 32.935 18.6342 50.232 26.9622 11.274 5.429 23.678 6.689 34.289 13.702 13.094 8.638 24.928 23.942 21.087 42.308-3.628 17.457-20.467 26.601-30.104 39.806z" opacity=".1"/><path d="m485.136 219.243c-18.141 24.883-12.154 60.401-1.668 88.697 3.512 9.473 7.501 19.492 5.68 29.798-2.224 12.598-12.677 22.038-23.543 27.18-19.808 9.37-43.208 7.874-60.927-3.933-15.291-10.19-26.054-27.124-41.642-36.828-26.087-16.235-59.954-8.982-88.988 3.413-20.54 8.769-43.041 20.061-63.058 11.965-14.086-5.698-23.571-20.2-28.561-35.703-2.41-7.485-4.096-15.61-8.897-21.469-2.854-3.483-6.626-5.911-10.504-7.939-35.396-18.528-80.9256-6.948-115.2419-27.621-23.1679-13.96-37.5876-41.052-43.57882-69.534s-4.508474-58.548-2.12218-88.0995c1.69589-21.0012 4.37873-43.4429 17.0099-59.9464 13.3586-17.4485 35.748-24.38254 55.7697-21.6497 20.0217 2.7328 37.9723 13.8495 53.6753 27.12 19.642 16.5545 37.713 37.338 62.141 43.6235 16.639 4.2799 34.316 1.2506 51.613-.088 28.914-2.2326 57.726.3381 86.361 3.2424 27.412 2.7791 55.015 5.8825 80.977 14.9935 18.372 6.4472 32.935 18.6342 50.232 26.9622 11.274 5.429 23.678 6.689 34.289 13.702 13.094 8.638 24.928 23.942 21.087 42.308-3.628 17.457-20.467 26.601-30.104 39.806z" opacity=".1"/><path d="m485.136 219.243c-18.141 24.883-12.154 60.401-1.668 88.697 3.512 9.473 7.501 19.492 5.68 29.798-2.224 12.598-12.677 22.038-23.543 27.18-19.808 9.37-43.208 7.874-60.927-3.933-15.291-10.19-26.054-27.124-41.642-36.828-26.087-16.235-59.954-8.982-88.988 3.413-20.54 8.769-43.041 20.061-63.058 11.965-14.086-5.698-23.571-20.2-28.561-35.703-2.41-7.485-4.096-15.61-8.897-21.469-2.854-3.483-6.626-5.911-10.504-7.939-35.396-18.528-80.9256-6.948-115.2419-27.621-23.1679-13.96-37.5876-41.052-43.57882-69.534s-4.508474-58.548-2.12218-88.0995c1.69589-21.0012 4.37873-43.4429 17.0099-59.9464 13.3586-17.4485 35.748-24.38254 55.7697-21.6497 20.0217 2.7328 37.9723 13.8495 53.6753 27.12 19.642 16.5545 37.713 37.338 62.141 43.6235 16.639 4.2799 34.316 1.2506 51.613-.088 28.914-2.2326 57.726.3381 86.361 3.2424 27.412 2.7791 55.015 5.8825 80.977 14.9935 18.372 6.4472 32.935 18.6342 50.232 26.9622 11.274 5.429 23.678 6.689 34.289 13.702 13.094 8.638 24.928 23.942 21.087 42.308-3.628 17.457-20.467 26.601-30.104 39.806z" opacity=".1"/><path d="m485.136 219.243c-18.141 24.883-12.154 60.401-1.668 88.697 3.512 9.473 7.501 19.492 5.68 29.798-2.224 12.598-12.677 22.038-23.543 27.18-19.808 9.37-43.208 7.874-60.927-3.933-15.291-10.19-26.054-27.124-41.642-36.828-26.087-16.235-59.954-8.982-88.988 3.413-20.54 8.769-43.041 20.061-63.058 11.965-14.086-5.698-23.571-20.2-28.561-35.703-2.41-7.485-4.096-15.61-8.897-21.469-2.854-3.483-6.626-5.911-10.504-7.939-35.396-18.528-80.9256-6.948-115.2419-27.621-23.1679-13.96-37.5876-41.052-43.57882-69.534s-4.508474-58.548-2.12218-88.0995c1.69589-21.0012 4.37873-43.4429 17.0099-59.9464 13.3586-17.4485 35.748-24.38254 55.7697-21.6497 20.0217 2.7328 37.9723 13.8495 53.6753 27.12 19.642 16.5545 37.713 37.338 62.141 43.6235 16.639 4.2799 34.316 1.2506 51.613-.088 28.914-2.2326 57.726.3381 86.361 3.2424 27.412 2.7791 55.015 5.8825 80.977 14.9935 18.372 6.4472 32.935 18.6342 50.232 26.9622 11.274 5.429 23.678 6.689 34.289 13.702 13.094 8.638 24.928 23.942 21.087 42.308-3.628 17.457-20.467 26.601-30.104 39.806z" opacity=".1"/><path d="m485.136 219.243c-18.141 24.883-12.154 60.401-1.668 88.697 3.512 9.473 7.501 19.492 5.68 29.798-2.224 12.598-12.677 22.038-23.543 27.18-19.808 9.37-43.208 7.874-60.927-3.933-15.291-10.19-26.054-27.124-41.642-36.828-26.087-16.235-59.954-8.982-88.988 3.413-20.54 8.769-43.041 20.061-63.058 11.965-14.086-5.698-23.571-20.2-28.561-35.703-2.41-7.485-4.096-15.61-8.897-21.469-2.854-3.483-6.626-5.911-10.504-7.939-35.396-18.528-80.9256-6.948-115.2419-27.621-23.1679-13.96-37.5876-41.052-43.57882-69.534s-4.508474-58.548-2.12218-88.0995c1.69589-21.0012 4.37873-43.4429 17.0099-59.9464 13.3586-17.4485 35.748-24.38254 55.7697-21.6497 20.0217 2.7328 37.9723 13.8495 53.6753 27.12 19.642 16.5545 37.713 37.338 62.141 43.6235 16.639 4.2799 34.316 1.2506 51.613-.088 28.914-2.2326 57.726.3381 86.361 3.2424 27.412 2.7791 55.015 5.8825 80.977 14.9935 18.372 6.4472 32.935 18.6342 50.232 26.9622 11.274 5.429 23.678 6.689 34.289 13.702 13.094 8.638 24.928 23.942 21.087 42.308-3.628 17.457-20.467 26.601-30.104 39.806z" opacity=".1"/><path d="m485.136 219.243c-18.141 24.883-12.154 60.401-1.668 88.697 3.512 9.473 7.501 19.492 5.68 29.798-2.224 12.598-12.677 22.038-23.543 27.18-19.808 9.37-43.208 7.874-60.927-3.933-15.291-10.19-26.054-27.124-41.642-36.828-26.087-16.235-59.954-8.982-88.988 3.413-20.54 8.769-43.041 20.061-63.058 11.965-14.086-5.698-23.571-20.2-28.561-35.703-2.41-7.485-4.096-15.61-8.897-21.469-2.854-3.483-6.626-5.911-10.504-7.939-35.396-18.528-80.9256-6.948-115.2419-27.621-23.1679-13.96-37.5876-41.052-43.57882-69.534s-4.508474-58.548-2.12218-88.0995c1.69589-21.0012 4.37873-43.4429 17.0099-59.9464 13.3586-17.4485 35.748-24.38254 55.7697-21.6497 20.0217 2.7328 37.9723 13.8495 53.6753 27.12 19.642 16.5545 37.713 37.338 62.141 43.6235 16.639 4.2799 34.316 1.2506 51.613-.088 28.914-2.2326 57.726.3381 86.361 3.2424 27.412 2.7791 55.015 5.8825 80.977 14.9935 18.372 6.4472 32.935 18.6342 50.232 26.9622 11.274 5.429 23.678 6.689 34.289 13.702 13.094 8.638 24.928 23.942 21.087 42.308-3.628 17.457-20.467 26.601-30.104 39.806z" opacity=".1"/><path d="m485.136 219.243c-18.141 24.883-12.154 60.401-1.668 88.697 3.512 9.473 7.501 19.492 5.68 29.798-2.224 12.598-12.677 22.038-23.543 27.18-19.808 9.37-43.208 7.874-60.927-3.933-15.291-10.19-26.054-27.124-41.642-36.828-26.087-16.235-59.954-8.982-88.988 3.413-20.54 8.769-43.041 20.061-63.058 11.965-14.086-5.698-23.571-20.2-28.561-35.703-2.41-7.485-4.096-15.61-8.897-21.469-2.854-3.483-6.626-5.911-10.504-7.939-35.396-18.528-80.9256-6.948-115.2419-27.621-23.1679-13.96-37.5876-41.052-43.57882-69.534s-4.508474-58.548-2.12218-88.0995c1.69589-21.0012 4.37873-43.4429 17.0099-59.9464 13.3586-17.4485 35.748-24.38254 55.7697-21.6497 20.0217 2.7328 37.9723 13.8495 53.6753 27.12 19.642 16.5545 37.713 37.338 62.141 43.6235 16.639 4.2799 34.316 1.2506 51.613-.088 28.914-2.2326 57.726.3381 86.361 3.2424 27.412 2.7791 55.015 5.8825 80.977 14.9935 18.372 6.4472 32.935 18.6342 50.232 26.9622 11.274 5.429 23.678 6.689 34.289 13.702 13.094 8.638 24.928 23.942 21.087 42.308-3.628 17.457-20.467 26.601-30.104 39.806z" opacity=".1"/><path d="m485.136 219.243c-18.141 24.883-12.154 60.401-1.668 88.697 3.512 9.473 7.501 19.492 5.68 29.798-2.224 12.598-12.677 22.038-23.543 27.18-19.808 9.37-43.208 7.874-60.927-3.933-15.291-10.19-26.054-27.124-41.642-36.828-26.087-16.235-59.954-8.982-88.988 3.413-20.54 8.769-43.041 20.061-63.058 11.965-14.086-5.698-23.571-20.2-28.561-35.703-2.41-7.485-4.096-15.61-8.897-21.469-2.854-3.483-6.626-5.911-10.504-7.939-35.396-18.528-80.9256-6.948-115.2419-27.621-23.1679-13.96-37.5876-41.052-43.57882-69.534s-4.508474-58.548-2.12218-88.0995c1.69589-21.0012 4.37873-43.4429 17.0099-59.9464 13.3586-17.4485 35.748-24.38254 55.7697-21.6497 20.0217 2.7328 37.9723 13.8495 53.6753 27.12 19.642 16.5545 37.713 37.338 62.141 43.6235 16.639 4.2799 34.316 1.2506 51.613-.088 28.914-2.2326 57.726.3381 86.361 3.2424 27.412 2.7791 55.015 5.8825 80.977 14.9935 18.372 6.4472 32.935 18.6342 50.232 26.9622 11.274 5.429 23.678 6.689 34.289 13.702 13.094 8.638 24.928 23.942 21.087 42.308-3.628 17.457-20.467 26.601-30.104 39.806z" opacity=".1"/><path d="m485.136 219.243c-18.141 24.883-12.154 60.401-1.668 88.697 3.512 9.473 7.501 19.492 5.68 29.798-2.224 12.598-12.677 22.038-23.543 27.18-19.808 9.37-43.208 7.874-60.927-3.933-15.291-10.19-26.054-27.124-41.642-36.828-26.087-16.235-59.954-8.982-88.988 3.413-20.54 8.769-43.041 20.061-63.058 11.965-14.086-5.698-23.571-20.2-28.561-35.703-2.41-7.485-4.096-15.61-8.897-21.469-2.854-3.483-6.626-5.911-10.504-7.939-35.396-18.528-80.9256-6.948-115.2419-27.621-23.1679-13.96-37.5876-41.052-43.57882-69.534s-4.508474-58.548-2.12218-88.0995c1.69589-21.0012 4.37873-43.4429 17.0099-59.9464 13.3586-17.4485 35.748-24.38254 55.7697-21.6497 20.0217 2.7328 37.9723 13.8495 53.6753 27.12 19.642 16.5545 37.713 37.338 62.141 43.6235 16.639 4.2799 34.316 1.2506 51.613-.088 28.914-2.2326 57.726.3381 86.361 3.2424 27.412 2.7791 55.015 5.8825 80.977 14.9935 18.372 6.4472 32.935 18.6342 50.232 26.9622 11.274 5.429 23.678 6.689 34.289 13.702 13.094 8.638 24.928 23.942 21.087 42.308-3.628 17.457-20.467 26.601-30.104 39.806z" opacity=".1"/><path d="m485.136 219.243c-18.141 24.883-12.154 60.401-1.668 88.697 3.512 9.473 7.501 19.492 5.68 29.798-2.224 12.598-12.677 22.038-23.543 27.18-19.808 9.37-43.208 7.874-60.927-3.933-15.291-10.19-26.054-27.124-41.642-36.828-26.087-16.235-59.954-8.982-88.988 3.413-20.54 8.769-43.041 20.061-63.058 11.965-14.086-5.698-23.571-20.2-28.561-35.703-2.41-7.485-4.096-15.61-8.897-21.469-2.854-3.483-6.626-5.911-10.504-7.939-35.396-18.528-80.9256-6.948-115.2419-27.621-23.1679-13.96-37.5876-41.052-43.57882-69.534s-4.508474-58.548-2.12218-88.0995c1.69589-21.0012 4.37873-43.4429 17.0099-59.9464 13.3586-17.4485 35.748-24.38254 55.7697-21.6497 20.0217 2.7328 37.9723 13.8495 53.6753 27.12 19.642 16.5545 37.713 37.338 62.141 43.6235 16.639 4.2799 34.316 1.2506 51.613-.088 28.914-2.2326 57.726.3381 86.361 3.2424 27.412 2.7791 55.015 5.8825 80.977 14.9935 18.372 6.4472 32.935 18.6342 50.232 26.9622 11.274 5.429 23.678 6.689 34.289 13.702 13.094 8.638 24.928 23.942 21.087 42.308-3.628 17.457-20.467 26.601-30.104 39.806z" opacity=".1"/></g><path d="m485.136 219.243c-18.141 24.883-12.154 60.401-1.668 88.697 3.512 9.473 7.501 19.492 5.68 29.798-2.224 12.598-12.677 22.038-23.543 27.18-19.808 9.37-43.208 7.874-60.927-3.933-15.291-10.19-26.054-27.124-41.642-36.828-26.087-16.235-59.954-8.982-88.988 3.413-20.54 8.769-43.041 20.061-63.058 11.965-14.086-5.698-23.571-20.2-28.561-35.703-2.41-7.485-4.096-15.61-8.897-21.469-2.854-3.483-6.626-5.911-10.504-7.939-35.396-18.528-80.9256-6.948-115.2419-27.621-23.1679-13.96-37.5876-41.052-43.57882-69.534s-4.508474-58.548-2.12218-88.0995c1.69589-21.0012 4.37873-43.4429 17.0099-59.9464 13.3586-17.4485 35.748-24.38254 55.7697-21.6497 20.0217 2.7328 37.9723 13.8495 53.6753 27.12 19.642 16.5545 37.713 37.338 62.141 43.6235 16.639 4.2799 34.316 1.2506 51.613-.088 28.914-2.2326 57.726.3381 86.361 3.2424 27.412 2.7791 55.015 5.8825 80.977 14.9935 18.372 6.4472 32.935 18.6342 50.232 26.9622 11.274 5.429 23.678 6.689 34.289 13.702 13.094 8.638 24.928 23.942 21.087 42.308-3.628 17.457-20.467 26.601-30.104 39.806z" fill="#ff3000" opacity=".1"/><path d="m396.167 332.736s1.529-45.282 26.036-70.869c10.286-10.736 17.042-24.373 18.83-39.13.836-7.004 1.029-14.069.575-21.108" opacity=".5" stroke="#535461" stroke-miterlimit="10" stroke-width="2"/><path d="m456.959 185.422c-1.677 5.058-15.698 16.675-15.698 16.675s-4.296-17.699-2.618-22.752c.398-1.202 1.03-2.314 1.859-3.272.829-.959 1.838-1.744 2.971-2.312 1.132-.569 2.365-.908 3.629-1s2.533.066 3.736.465 2.315 1.031 3.274 1.859c.958.828 1.744 1.837 2.312 2.97.569 1.132.908 2.365 1 3.628s-.066 2.532-.465 3.734z" fill="#69463f" opacity=".5"/><path d="m462.802 218.448c-4.17 3.335-22.241 5.475-22.241 5.475s6.023-17.189 10.194-20.52c.98-.853 2.124-1.5 3.361-1.9 1.237-.401 2.542-.547 3.837-.43 1.295.116 2.553.493 3.699 1.108s2.155 1.455 2.968 2.47c.812 1.015 1.411 2.183 1.761 3.435.349 1.252.442 2.562.272 3.851-.17 1.288-.599 2.529-1.26 3.648-.662 1.119-1.543 2.093-2.591 2.863z" fill="#69463f" opacity=".5"/><path d="m446.269 266.083c-5.273.778-21.967-6.485-21.967-6.485s13.872-11.802 19.145-12.581c1.254-.185 2.532-.121 3.761.187s2.385.856 3.402 1.611c1.018.755 1.876 1.703 2.527 2.79s1.081 2.291 1.267 3.544c.185 1.253.121 2.53-.187 3.759-.309 1.228-.856 2.384-1.611 3.401-.756 1.017-1.704 1.875-2.791 2.526s-2.292 1.081-3.546 1.266z" fill="#69463f" opacity=".5"/><path d="m425.636 299.312c-5.064 1.658-22.751-2.696-22.751-2.696s11.682-13.974 16.746-15.633c2.431-.798 5.081-.598 7.365.556s4.016 3.167 4.814 5.598c.799 2.43.599 5.079-.555 7.362s-3.169 4.014-5.6 4.813z" fill="#69463f" opacity=".5"/><path d="m421.002 218.527c2.461 4.724 18.169 13.974 18.169 13.974s1.427-18.152-1.034-22.882c-.584-1.123-1.385-2.12-2.355-2.935-.97-.814-2.092-1.429-3.3-1.81s-2.479-.521-3.742-.411c-1.262.11-2.49.468-3.614 1.052-1.124.585-2.121 1.385-2.936 2.355-.814.97-1.43 2.091-1.811 3.299s-.521 2.479-.411 3.74c.111 1.262.468 2.489 1.053 3.613z" fill="#69463f" opacity=".5"/><path d="m397.367 257.689c3.762 3.775 21.5 7.907 21.5 7.907s-4.073-17.749-7.831-21.524c-1.806-1.812-4.258-2.833-6.817-2.838-2.558-.005-5.014 1.007-6.827 2.812-1.812 1.805-2.833 4.256-2.838 6.814s1.007 5.013 2.813 6.825z" fill="#69463f" opacity=".5"/><path d="m379.62 298.909c3.067 4.354 19.855 11.427 19.855 11.427s-1.01-18.18-4.082-22.539c-.711-1.08-1.632-2.007-2.708-2.725-1.077-.717-2.286-1.211-3.557-1.452s-2.578-.223-3.842.051-2.461.8-3.517 1.546c-1.057.746-1.953 1.696-2.635 2.795s-1.136 2.324-1.335 3.602c-.198 1.278-.138 2.583.178 3.837s.881 2.431 1.661 3.463z" fill="#eb4626" opacity=".5"/><path d="m401.551 313.995s-13.901-20.213-11.464-39.232c1.074-7.971-.467-16.075-4.392-23.095-1.89-3.318-4.081-6.456-6.543-9.375" opacity=".5" stroke="#535461" stroke-miterlimit="10" stroke-width="2"/><path d="m380.621 230.296c.894 2.742-1.469 12.312-1.469 12.312s-7.567-6.327-8.461-9.065c-.43-1.316-.32-2.749.307-3.984s1.719-2.17 3.036-2.6 2.751-.319 3.986.307c1.235.627 2.171 1.719 2.601 3.035z" fill="#eb4626" opacity=".5"/><path d="m393.794 242.798c-.737 2.779-7.928 9.537-7.928 9.537s-2.91-9.421-2.173-12.21c.355-1.339 1.227-2.482 2.425-3.179 1.197-.696 2.623-.888 3.962-.533 1.34.354 2.484 1.226 3.18 2.423.697 1.198.889 2.623.534 3.962z" fill="#eb4626" opacity=".5"/><path d="m401.921 268.857c-2.043 2.034-11.658 4.234-11.658 4.234s2.243-9.602 4.291-11.636c.487-.483 1.064-.866 1.699-1.127.635-.26 1.315-.393 2.001-.391s1.365.139 1.999.404c.633.264 1.208.651 1.691 1.137.484.487.867 1.064 1.128 1.699.261.634.394 1.314.391 2-.002.686-.139 1.365-.404 1.998-.264.633-.651 1.208-1.138 1.691z" fill="#eb4626" opacity=".5"/><path d="m403.631 289.965c-1.673 2.348-10.796 6.132-10.796 6.132s.588-9.842 2.261-12.191c.397-.559.901-1.034 1.482-1.399.581-.364 1.228-.61 1.905-.725.676-.114 1.369-.094 2.037.059.669.153 1.301.436 1.86.833s1.035.901 1.399 1.482c.365.581.611 1.228.726 1.904.114.676.094 1.368-.059 2.036-.153.669-.436 1.301-.833 1.86z" fill="#eb4626" opacity=".5"/><path d="m375.617 256.263c2.59 1.269 12.399.25 12.399.25s-5.222-8.365-7.812-9.63c-1.245-.608-2.679-.697-3.989-.248-1.31.45-2.388 1.401-2.996 2.645-.609 1.244-.698 2.678-.248 3.988.45 1.309 1.401 2.387 2.646 2.995z" fill="#eb4626" opacity=".5"/><path d="m377.929 280.928c2.854.435 11.908-3.469 11.908-3.469s-7.488-6.42-10.337-6.837c-1.37-.208-2.766.136-3.882.957s-1.86 2.051-2.068 3.42.136 2.765.957 3.88c.821 1.116 2.052 1.859 3.422 2.067z" fill="#eb4626" opacity=".5"/><path d="m383.461 304.583c2.739.926 12.326-1.39 12.326-1.39s-6.293-7.591-9.031-8.504c-1.315-.436-2.75-.333-3.989.288-1.238.62-2.18 1.707-2.616 3.022-.437 1.314-.334 2.748.287 3.987.621 1.238 1.708 2.179 3.023 2.616z" fill="#eb4626" opacity=".5"/><path d="m380.621 230.296c.894 2.742-1.469 12.312-1.469 12.312s-7.567-6.327-8.461-9.065c-.43-1.316-.32-2.749.307-3.984s1.719-2.17 3.036-2.6 2.751-.319 3.986.307c1.235.627 2.171 1.719 2.601 3.035z" fill="#fff" opacity=".5"/><path d="m393.794 242.798c-.737 2.779-7.928 9.537-7.928 9.537s-2.91-9.421-2.173-12.21c.355-1.339 1.227-2.482 2.425-3.179 1.197-.696 2.623-.888 3.962-.533 1.34.354 2.484 1.226 3.18 2.423.697 1.198.889 2.623.534 3.962z" fill="#fff" opacity=".5"/><path d="m401.921 268.857c-2.043 2.034-11.658 4.234-11.658 4.234s2.243-9.602 4.291-11.636c.487-.483 1.064-.866 1.699-1.127.635-.26 1.315-.393 2.001-.391s1.365.139 1.999.404c.633.264 1.208.651 1.691 1.137.484.487.867 1.064 1.128 1.699.261.634.394 1.314.391 2-.002.686-.139 1.365-.404 1.998-.264.633-.651 1.208-1.138 1.691z" fill="#fff" opacity=".5"/><path d="m403.631 289.965c-1.673 2.348-10.796 6.132-10.796 6.132s.588-9.842 2.261-12.191c.397-.559.901-1.034 1.482-1.399.581-.364 1.228-.61 1.905-.725.676-.114 1.369-.094 2.037.059.669.153 1.301.436 1.86.833s1.035.901 1.399 1.482c.365.581.611 1.228.726 1.904.114.676.094 1.368-.059 2.036-.153.669-.436 1.301-.833 1.86z" fill="#fff" opacity=".5"/><path d="m375.617 256.263c2.59 1.269 12.399.25 12.399.25s-5.222-8.365-7.812-9.63c-1.245-.608-2.679-.697-3.989-.248-1.31.45-2.388 1.401-2.996 2.645-.609 1.244-.698 2.678-.248 3.988.45 1.309 1.401 2.387 2.646 2.995z" fill="#fff" opacity=".5"/><path d="m377.929 280.928c2.854.435 11.908-3.469 11.908-3.469s-7.488-6.42-10.337-6.837c-1.37-.208-2.766.136-3.882.957s-1.86 2.051-2.068 3.42.136 2.765.957 3.88c.821 1.116 2.052 1.859 3.422 2.067z" fill="#fff" opacity=".5"/><path d="m383.461 304.583c2.739.926 12.326-1.39 12.326-1.39s-6.293-7.591-9.031-8.504c-1.315-.436-2.75-.333-3.989.288-1.238.62-2.18 1.707-2.616 3.022-.437 1.314-.334 2.748.287 3.987.621 1.238 1.708 2.179 3.023 2.616z" fill="#fff" opacity=".5"/><path d="m375.83 368.805h39.538l9.888-60.275h-59.31z" fill="#776e8f"/><path d="m373.513 308.53 9.235 56.324h33.269l-.649 3.951h-39.538l-9.884-60.275z" fill="#000" opacity=".1"/><path d="m383.327 25.1987h-290.0624v349.8503h290.0624z" fill="url(#b)"/><path d="m379.62 29.6733h-282.6484v340.9107h282.6484z" fill="#fff"/><path d="m320.773 68.1184h-113.986v5.5583h113.986z" fill="#c0bccf"/><path d="m320.773 85.7197h-113.986v5.5584h113.986z" fill="#c0bccf"/><path d="m293.435 103.321h-59.31v5.558h59.31z" fill="#ff3000"/><path d="m320.773 179.748h-113.986v5.558h113.986z" fill="#c0bccf" opacity=".5"/><path d="m320.773 197.349h-113.986v5.559h113.986z" fill="#c0bccf" opacity=".5"/><path d="m293.435 214.951h-59.31v5.558h59.31z" fill="#ff3000" opacity=".5"/><path d="m320.773 291.378h-113.986v5.558h113.986z" fill="#c0bccf" opacity=".5"/><path d="m320.773 308.979h-113.986v5.558h113.986z" fill="#c0bccf" opacity=".5"/><path d="m293.435 326.58h-59.31v5.558h59.31z" fill="#ff3000" opacity=".5"/><g opacity=".5"><path d="m166.656 210.75-2.391-1.075c.037-.363.052-.728.046-1.093.017-.309.017-.618 0-.927-.236-2.436-1.788-4.557-2.886-6.785-1.006-2.034-1.644-4.229-1.886-6.485-.292-2.779 0-5.66-1.02-8.273-.829-2.107-2.469-3.867-4.225-5.424-1.972-1.849-4.275-3.309-6.789-4.303-2.567-.926-5.518-1.162-8.085-.217-2.317.852-4.101 2.552-5.825 4.205-1.251 1.103-2.357 2.36-3.289 3.743-1.052 1.723-1.502 3.706-1.854 5.66-.553 3.13-.934 6.287-1.14 9.459-.18 2.644-.463 5.646-2.724 7.267-1.103.792-2.655 1.237-3.16 2.436-.143.361-.201.749-.167 1.135-.014.322.009.643.069.959.033.185.07.366.116.551-.649 1.613-1.194 3.265-1.631 4.947-.338 1.251-.649 2.478-.927 3.669h.751.399l4.318.102h.06l4.634.106h.023l4.319.102h.106l1.247.088h.407l17.27.398h.092l1.149.028h.404l3.456.079 5.097.116h.037l3.837.092h.408.787l-.204-4.02c.844-6.156-.829-6.54-.829-6.54zm-19.401-.491c0 3.409-3.651 7.582-3.651 7.582l-3.675-5.002.135-.195 3.54 4.817s3.651-4.168 3.651-7.582c.085-.174.183-.341.292-.5l.084.259c-.141.197-.266.405-.376.621zm5.616 13.377c0-.172 0-.348-.032-.519-.033-.172-.028-.324-.051-.491s-.042-.329-.065-.496-.056-.329-.088-.495c-.033-.167-.065-.329-.102-.496 0-.056-.023-.107-.037-.167-.051-.217-.107-.435-.167-.653s-.097-.352-.153-.523c0-.079-.046-.158-.074-.232s-.079-.25-.121-.375l-.083-.241c-.037-.106-.074-.218-.116-.324-.069-.195-.143-.385-.218-.579-.074-.195-.153-.385-.231-.574-.158-.39-.329-.774-.501-1.163-.672-1.501-1.427-2.978-2.122-4.442-.373-.766-.704-1.552-.991-2.353l-.088.116c-.141.199-.266.408-.376.625 0 3.409-3.651 7.582-3.651 7.582l-3.675-5.002-3.215 4.632c-.464.231-.927 1.019-1.288 2.14-.102.301-.2.634-.292.982-.065.236-.125.463-.181.727-.032.125-.06.25-.088.38l-.083.394v.06c-.056.268-.112.546-.163.829-.051.282-.111.607-.162.926-.037.201-.069.4-.097.598-.065.384-.121.773-.176 1.162-.033.227-.065.464-.093.672l-.111.862c.236.708.5 1.389.774 2.102.174.375.276.779.301 1.191 5.7 1.519 11.699 1.519 17.399 0-.002-.014-.002-.028 0-.042-.085-.387-.123-.784-.111-1.181.093-1.113.248-2.22.463-3.316.069-.541.098-1.086.088-1.631v-.194c-.014-.176-.018-.334-.023-.487zm0 0c0-.172 0-.348-.032-.519-.033-.172-.028-.324-.051-.491s-.042-.329-.065-.496-.056-.329-.088-.495c-.033-.167-.065-.329-.102-.496 0-.056-.023-.107-.037-.167-.051-.217-.107-.435-.167-.653s-.097-.352-.153-.523c0-.079-.046-.158-.074-.232s-.079-.25-.121-.375l-.083-.241c-.037-.106-.074-.218-.116-.324-.069-.195-.143-.385-.218-.579-.074-.195-.153-.385-.231-.574-.158-.39-.329-.774-.501-1.163-.672-1.501-1.427-2.978-2.122-4.442-.373-.766-.704-1.552-.991-2.353l-.088.116c-.141.199-.266.408-.376.625 0 3.409-3.651 7.582-3.651 7.582l-3.675-5.002-3.215 4.632c-.464.231-.927 1.019-1.288 2.14-.102.301-.2.634-.292.982-.065.236-.125.463-.181.727-.032.125-.06.25-.088.38l-.083.394v.06c-.056.268-.112.546-.163.829-.051.282-.111.607-.162.926-.037.201-.069.4-.097.598-.065.384-.121.773-.176 1.162-.033.227-.065.464-.093.672l-.111.862c.236.708.5 1.389.774 2.102.174.375.276.779.301 1.191 5.7 1.519 11.699 1.519 17.399 0-.002-.014-.002-.028 0-.042-.085-.387-.123-.784-.111-1.181.093-1.113.248-2.22.463-3.316.069-.541.098-1.086.088-1.631v-.194c-.014-.176-.018-.334-.023-.487zm0 0c0-.172 0-.348-.032-.519-.033-.172-.028-.324-.051-.491s-.042-.329-.065-.496-.056-.329-.088-.495c-.033-.167-.065-.329-.102-.496 0-.056-.023-.107-.037-.167-.051-.217-.107-.435-.167-.653s-.097-.352-.153-.523c0-.079-.046-.158-.074-.232s-.079-.25-.121-.375l-.083-.241c-.037-.106-.074-.218-.116-.324-.069-.195-.143-.385-.218-.579-.074-.195-.153-.385-.231-.574-.158-.39-.329-.774-.501-1.163-.672-1.501-1.427-2.978-2.122-4.442-.373-.766-.704-1.552-.991-2.353l-.088.116c-.141.199-.266.408-.376.625 0 3.409-3.651 7.582-3.651 7.582l-3.675-5.002-3.215 4.632c-.464.231-.927 1.019-1.288 2.14-.102.301-.2.634-.292.982-.065.236-.125.463-.181.727-.032.125-.06.25-.088.38l-.083.394v.06c-.056.268-.112.546-.163.829-.051.282-.111.607-.162.926-.037.201-.069.4-.097.598-.065.384-.121.773-.176 1.162-.033.227-.065.464-.093.672l-.111.862c.236.708.5 1.389.774 2.102.174.375.276.779.301 1.191 5.7 1.519 11.699 1.519 17.399 0-.002-.014-.002-.028 0-.042-.085-.387-.123-.784-.111-1.181.093-1.113.248-2.22.463-3.316.069-.541.098-1.086.088-1.631v-.194c-.014-.176-.018-.334-.023-.487zm0 0c0-.172 0-.348-.032-.519-.033-.172-.028-.324-.051-.491s-.042-.329-.065-.496-.056-.329-.088-.495c-.033-.167-.065-.329-.102-.496 0-.056-.023-.107-.037-.167-.051-.217-.107-.435-.167-.653s-.097-.352-.153-.523c0-.079-.046-.158-.074-.232s-.079-.25-.121-.375l-.083-.241c-.037-.106-.074-.218-.116-.324-.069-.195-.143-.385-.218-.579-.074-.195-.153-.385-.231-.574-.158-.39-.329-.774-.501-1.163-.672-1.501-1.427-2.978-2.122-4.442-.373-.766-.704-1.552-.991-2.353l-.088.116c-.141.199-.266.408-.376.625 0 3.409-3.651 7.582-3.651 7.582l-3.675-5.002-3.215 4.632c-.464.231-.927 1.019-1.288 2.14-.102.301-.2.634-.292.982-.065.236-.125.463-.181.727-.032.125-.06.25-.088.38l-.083.394v.06c-.056.268-.112.546-.163.829-.051.282-.111.607-.162.926-.037.201-.069.4-.097.598-.065.384-.121.773-.176 1.162-.033.227-.065.464-.093.672l-.111.862c.236.708.5 1.389.774 2.102.174.375.276.779.301 1.191 5.7 1.519 11.699 1.519 17.399 0-.002-.014-.002-.028 0-.042-.085-.387-.123-.784-.111-1.181.093-1.113.248-2.22.463-3.316.069-.541.098-1.086.088-1.631v-.194c-.014-.176-.018-.334-.023-.487z" fill="url(#c)" opacity=".5"/><path d="m153.038 191.328h-21.315v14.359h21.315z" fill="#493545" opacity=".5"/><path d="m156.578 207.164-8.92 12.562-9.322-.81s-12.164.806-4.055-8.509c3.897-4.479 5.171-8.213 5.445-10.876.296-2.881-.58-4.521-.58-4.521l10.134-1.213c-.457 1.365-.515 2.832-.167 4.229 1.27 5.261 7.465 9.138 7.465 9.138z" fill="#c77485" opacity=".5"/><path d="m149.109 198.012c-1.322 1-2.869 1.661-4.506 1.924-1.637.264-3.313.121-4.882-.414.297-2.881-.579-4.521-.579-4.521l10.133-1.214c-.456 1.364-.514 2.829-.166 4.225z" fill="#000" opacity=".1"/><path d="m142.997 199.661c5.597 0 10.134-4.536 10.134-10.13 0-5.595-4.537-10.13-10.134-10.13s-10.134 4.535-10.134 10.13c0 5.594 4.537 10.13 10.134 10.13z" fill="#c77485" opacity=".5"/><path d="m156.207 207.683-.236-.926-.204-.815-.301-1.205-.056-.222-.046-.185s.241-.728-1.348-.491l-.297.051c-.25.051-.542.12-.876.213l-.301.092-.398.125c-1.262.411-2.413 1.105-3.364 2.029-.428.409-.806.866-1.126 1.362-.033.046-.056.088-.084.125-.11.172-.207.352-.292.537 0 3.65-3.651 8.106-3.651 8.106l-3.563-5.146-.07-.102-.848-1.232-.301-.398-.102-.139-1.853-2.487-.464-.621-.152-.209-.227-.301-.533-.708-2.085 1.218-2.781 1.621-1.621 10.538v.291l.051.871.338 5.725v.079l-.593 2.372.088.046c1.399.755 2.856 1.399 4.355 1.927l.394.139c.464.153.899.292 1.353.426.017.069.029.138.037.208 0-.064 0-.134 0-.199 5.686 1.624 11.713 1.624 17.399 0l.107-.032c.264-.074.533-.153.792-.241l.422-.134c1.143-.383 2.263-.831 3.355-1.344l.389-8.291.278-5.98v-.342z" fill="#000" opacity=".1"/><path d="m152.871 223.084c0-.185 0-.37-.032-.555-.033-.186-.028-.348-.051-.524s-.042-.352-.065-.528-.056-.352-.088-.528c-.033-.176-.065-.352-.102-.528 0-.06-.023-.116-.037-.176-.051-.232-.107-.463-.167-.699-.06-.237-.097-.376-.153-.561 0-.083-.046-.167-.074-.245-.028-.079-.079-.269-.121-.403l-.083-.26c-.037-.115-.074-.231-.116-.347-.069-.208-.143-.412-.218-.621-.074-.208-.152-.412-.231-.616-.158-.417-.329-.829-.501-1.241-.672-1.603-1.427-3.182-2.122-4.748-.373-.821-.704-1.66-.991-2.515l-.088.125c-.141.213-.267.436-.376.667 0 3.645-3.651 8.106-3.651 8.106l-3.674-5.35-3.216 4.942c-.464.246-.927 1.089-1.288 2.289-.102.324-.2.676-.292 1.051-.065.25-.125.514-.181.778-.032.134-.06.269-.088.408l-.083.421v.065c-.056.287-.112.584-.163.885-.05.301-.111.648-.162.977-.037.213-.069.426-.097.639-.065.413-.12.829-.176 1.242-.033.241-.065.463-.093.718l-.111.926c.236.76.5 1.51.774 2.247.174.403.276.834.301 1.273 5.686 1.625 11.713 1.625 17.399 0-.002-.015-.002-.031 0-.046-.086-.416-.123-.84-.111-1.265.093-1.188.248-2.371.463-3.543.069-.578.098-1.16.088-1.742v-.208c-.014-.176-.018-.343-.023-.51zm0 0c0-.185 0-.37-.032-.555-.033-.186-.028-.348-.051-.524s-.042-.352-.065-.528-.056-.352-.088-.528c-.033-.176-.065-.352-.102-.528 0-.06-.023-.116-.037-.176-.051-.232-.107-.463-.167-.699-.06-.237-.097-.376-.153-.561 0-.083-.046-.167-.074-.245-.028-.079-.079-.269-.121-.403l-.083-.26c-.037-.115-.074-.231-.116-.347-.069-.208-.143-.412-.218-.621-.074-.208-.152-.412-.231-.616-.158-.417-.329-.829-.501-1.241-.672-1.603-1.427-3.182-2.122-4.748-.373-.821-.704-1.66-.991-2.515l-.088.125c-.141.213-.267.436-.376.667 0 3.645-3.651 8.106-3.651 8.106l-3.674-5.35-3.216 4.942c-.464.246-.927 1.089-1.288 2.289-.102.324-.2.676-.292 1.051-.065.25-.125.514-.181.778-.032.134-.06.269-.088.408l-.083.421v.065c-.056.287-.112.584-.163.885-.05.301-.111.648-.162.977-.037.213-.069.426-.097.639-.065.413-.12.829-.176 1.242-.033.241-.065.463-.093.718l-.111.926c.236.76.5 1.51.774 2.247.174.403.276.834.301 1.273 5.686 1.625 11.713 1.625 17.399 0-.002-.015-.002-.031 0-.046-.086-.416-.123-.84-.111-1.265.093-1.188.248-2.371.463-3.543.069-.578.098-1.16.088-1.742v-.208c-.014-.176-.018-.343-.023-.51zm0 0c0-.185 0-.37-.032-.555-.033-.186-.028-.348-.051-.524s-.042-.352-.065-.528-.056-.352-.088-.528c-.033-.176-.065-.352-.102-.528 0-.06-.023-.116-.037-.176-.051-.232-.107-.463-.167-.699-.06-.237-.097-.376-.153-.561 0-.083-.046-.167-.074-.245-.028-.079-.079-.269-.121-.403l-.083-.26c-.037-.115-.074-.231-.116-.347-.069-.208-.143-.412-.218-.621-.074-.208-.152-.412-.231-.616-.158-.417-.329-.829-.501-1.241-.672-1.603-1.427-3.182-2.122-4.748-.373-.821-.704-1.66-.991-2.515l-.088.125c-.141.213-.267.436-.376.667 0 3.645-3.651 8.106-3.651 8.106l-3.674-5.35-3.216 4.942c-.464.246-.927 1.089-1.288 2.289-.102.324-.2.676-.292 1.051-.065.25-.125.514-.181.778-.032.134-.06.269-.088.408l-.083.421v.065c-.056.287-.112.584-.163.885-.05.301-.111.648-.162.977-.037.213-.069.426-.097.639-.065.413-.12.829-.176 1.242-.033.241-.065.463-.093.718l-.111.926c.236.76.5 1.51.774 2.247.174.403.276.834.301 1.273 5.686 1.625 11.713 1.625 17.399 0-.002-.015-.002-.031 0-.046-.086-.416-.123-.84-.111-1.265.093-1.188.248-2.371.463-3.543.069-.578.098-1.16.088-1.742v-.208c-.014-.176-.018-.343-.023-.51zm4.912-8.694-1.654-6.6-.283-1.13-.079-.311-.403-1.612c.001-.013.001-.027 0-.041.01-.071-.002-.144-.032-.209-.061-.12-.214-.245-.57-.278-.136-.009-.272-.009-.408 0-.403.04-.801.115-1.191.223-.19.051-.394.106-.612.176l-.398.125h-.037c-1.067.35-2.058.9-2.919 1.621-.569.474-1.068 1.026-1.483 1.64l-.088.125c-.141.213-.266.436-.375.667 0 3.645-3.652 8.106-3.652 8.106l-3.674-5.35-.209-.301-.037-.051-.533-.783-.403-.537-.106-.139-1.9-2.534-.602-.82v-.028l-.209-.282-.398-.528-1.39.81-3.476 2.024-1.603 10.427v.111l.047.76.342 5.804v.328l-.523 2.089c1.399.755 2.856 1.399 4.355 1.927l.394.139c.464.153.899.292 1.353.426.017.069.029.139.037.209 0-.065 0-.135 0-.199 5.686 1.624 11.713 1.624 17.399 0l.107-.033c.264-.074.533-.153.792-.241l.422-.134c1.143-.382 2.263-.831 3.355-1.343l.384-8.282.278-5.915zm-22.788 15.994c.017.069.029.139.037.209 0-.065 0-.135 0-.199zm17.876-7.3c0-.185 0-.37-.032-.555-.033-.186-.028-.348-.051-.524s-.042-.352-.065-.528-.056-.352-.088-.528c-.033-.176-.065-.352-.102-.528 0-.06-.023-.116-.037-.176-.051-.232-.107-.463-.167-.699-.06-.237-.097-.376-.153-.561 0-.083-.046-.167-.074-.245-.028-.079-.079-.269-.121-.403l-.083-.26c-.037-.115-.074-.231-.116-.347-.069-.208-.143-.412-.218-.621-.074-.208-.152-.412-.231-.616-.158-.417-.329-.829-.501-1.241-.672-1.603-1.427-3.182-2.122-4.748-.373-.821-.704-1.66-.991-2.515l-.088.125c-.141.213-.267.436-.376.667 0 3.645-3.651 8.106-3.651 8.106l-3.674-5.35-3.216 4.942c-.464.246-.927 1.089-1.288 2.289-.102.324-.2.676-.292 1.051-.065.25-.125.514-.181.778-.032.134-.06.269-.088.408l-.083.421v.065c-.056.287-.112.584-.163.885-.05.301-.111.648-.162.977-.037.213-.069.426-.097.639-.065.413-.12.829-.176 1.242-.033.241-.065.463-.093.718l-.111.926c.236.76.5 1.51.774 2.247.174.403.276.834.301 1.273 5.686 1.625 11.713 1.625 17.399 0-.002-.015-.002-.031 0-.046-.086-.416-.123-.84-.111-1.265.093-1.188.248-2.371.463-3.543.069-.578.098-1.16.088-1.742v-.208c-.014-.176-.018-.343-.023-.51zm0 0c0-.185 0-.37-.032-.555-.033-.186-.028-.348-.051-.524s-.042-.352-.065-.528-.056-.352-.088-.528c-.033-.176-.065-.352-.102-.528 0-.06-.023-.116-.037-.176-.051-.232-.107-.463-.167-.699-.06-.237-.097-.376-.153-.561 0-.083-.046-.167-.074-.245-.028-.079-.079-.269-.121-.403l-.083-.26c-.037-.115-.074-.231-.116-.347-.069-.208-.143-.412-.218-.621-.074-.208-.152-.412-.231-.616-.158-.417-.329-.829-.501-1.241-.672-1.603-1.427-3.182-2.122-4.748-.373-.821-.704-1.66-.991-2.515l-.088.125c-.141.213-.267.436-.376.667 0 3.645-3.651 8.106-3.651 8.106l-3.674-5.35-3.216 4.942c-.464.246-.927 1.089-1.288 2.289-.102.324-.2.676-.292 1.051-.065.25-.125.514-.181.778-.032.134-.06.269-.088.408l-.083.421v.065c-.056.287-.112.584-.163.885-.05.301-.111.648-.162.977-.037.213-.069.426-.097.639-.065.413-.12.829-.176 1.242-.033.241-.065.463-.093.718l-.111.926c.236.76.5 1.51.774 2.247.174.403.276.834.301 1.273 5.686 1.625 11.713 1.625 17.399 0-.002-.015-.002-.031 0-.046-.086-.416-.123-.84-.111-1.265.093-1.188.248-2.371.463-3.543.069-.578.098-1.16.088-1.742v-.208c-.014-.176-.018-.343-.023-.51zm0 0c0-.185 0-.37-.032-.555-.033-.186-.028-.348-.051-.524s-.042-.352-.065-.528-.056-.352-.088-.528c-.033-.176-.065-.352-.102-.528 0-.06-.023-.116-.037-.176-.051-.232-.107-.463-.167-.699-.06-.237-.097-.376-.153-.561 0-.083-.046-.167-.074-.245-.028-.079-.079-.269-.121-.403l-.083-.26c-.037-.115-.074-.231-.116-.347-.069-.208-.143-.412-.218-.621-.074-.208-.152-.412-.231-.616-.158-.417-.329-.829-.501-1.241-.672-1.603-1.427-3.182-2.122-4.748-.373-.821-.704-1.66-.991-2.515l-.088.125c-.141.213-.267.436-.376.667 0 3.645-3.651 8.106-3.651 8.106l-3.674-5.35-3.216 4.942c-.464.246-.927 1.089-1.288 2.289-.102.324-.2.676-.292 1.051-.065.25-.125.514-.181.778-.032.134-.06.269-.088.408l-.083.421v.065c-.056.287-.112.584-.163.885-.05.301-.111.648-.162.977-.037.213-.069.426-.097.639-.065.413-.12.829-.176 1.242-.033.241-.065.463-.093.718l-.111.926c.236.76.5 1.51.774 2.247.174.403.276.834.301 1.273 5.686 1.625 11.713 1.625 17.399 0-.002-.015-.002-.031 0-.046-.086-.416-.123-.84-.111-1.265.093-1.188.248-2.371.463-3.543.069-.578.098-1.16.088-1.742v-.208c-.014-.176-.018-.343-.023-.51zm0 0c0-.185 0-.37-.032-.555-.033-.186-.028-.348-.051-.524s-.042-.352-.065-.528-.056-.352-.088-.528c-.033-.176-.065-.352-.102-.528 0-.06-.023-.116-.037-.176-.051-.232-.107-.463-.167-.699-.06-.237-.097-.376-.153-.561 0-.083-.046-.167-.074-.245-.028-.079-.079-.269-.121-.403l-.083-.26c-.037-.115-.074-.231-.116-.347-.069-.208-.143-.412-.218-.621-.074-.208-.152-.412-.231-.616-.158-.417-.329-.829-.501-1.241-.672-1.603-1.427-3.182-2.122-4.748-.373-.821-.704-1.66-.991-2.515l-.088.125c-.141.213-.267.436-.376.667 0 3.645-3.651 8.106-3.651 8.106l-3.674-5.35-3.216 4.942c-.464.246-.927 1.089-1.288 2.289-.102.324-.2.676-.292 1.051-.065.25-.125.514-.181.778-.032.134-.06.269-.088.408l-.083.421v.065c-.056.287-.112.584-.163.885-.05.301-.111.648-.162.977-.037.213-.069.426-.097.639-.065.413-.12.829-.176 1.242-.033.241-.065.463-.093.718l-.111.926c.236.76.5 1.51.774 2.247.174.403.276.834.301 1.273 5.686 1.625 11.713 1.625 17.399 0-.002-.015-.002-.031 0-.046-.086-.416-.123-.84-.111-1.265.093-1.188.248-2.371.463-3.543.069-.578.098-1.16.088-1.742v-.208c-.014-.176-.018-.343-.023-.51zm0 0c0-.185 0-.37-.032-.555-.033-.186-.028-.348-.051-.524s-.042-.352-.065-.528-.056-.352-.088-.528c-.033-.176-.065-.352-.102-.528 0-.06-.023-.116-.037-.176-.051-.232-.107-.463-.167-.699-.06-.237-.097-.376-.153-.561 0-.083-.046-.167-.074-.245-.028-.079-.079-.269-.121-.403l-.083-.26c-.037-.115-.074-.231-.116-.347-.069-.208-.143-.412-.218-.621-.074-.208-.152-.412-.231-.616-.158-.417-.329-.829-.501-1.241-.672-1.603-1.427-3.182-2.122-4.748-.373-.821-.704-1.66-.991-2.515l-.088.125c-.141.213-.267.436-.376.667 0 3.645-3.651 8.106-3.651 8.106l-3.674-5.35-3.216 4.942c-.464.246-.927 1.089-1.288 2.289-.102.324-.2.676-.292 1.051-.065.25-.125.514-.181.778-.032.134-.06.269-.088.408l-.083.421v.065c-.056.287-.112.584-.163.885-.05.301-.111.648-.162.977-.037.213-.069.426-.097.639-.065.413-.12.829-.176 1.242-.033.241-.065.463-.093.718l-.111.926c.236.76.5 1.51.774 2.247.174.403.276.834.301 1.273 5.686 1.625 11.713 1.625 17.399 0-.002-.015-.002-.031 0-.046-.086-.416-.123-.84-.111-1.265.093-1.188.248-2.371.463-3.543.069-.578.098-1.16.088-1.742v-.208c-.014-.176-.018-.343-.023-.51zm0 0c0-.185 0-.37-.032-.555-.033-.186-.028-.348-.051-.524s-.042-.352-.065-.528-.056-.352-.088-.528c-.033-.176-.065-.352-.102-.528 0-.06-.023-.116-.037-.176-.051-.232-.107-.463-.167-.699-.06-.237-.097-.376-.153-.561 0-.083-.046-.167-.074-.245-.028-.079-.079-.269-.121-.403l-.083-.26c-.037-.115-.074-.231-.116-.347-.069-.208-.143-.412-.218-.621-.074-.208-.152-.412-.231-.616-.158-.417-.329-.829-.501-1.241-.672-1.603-1.427-3.182-2.122-4.748-.373-.821-.704-1.66-.991-2.515l-.088.125c-.141.213-.267.436-.376.667 0 3.645-3.651 8.106-3.651 8.106l-3.674-5.35-3.216 4.942c-.464.246-.927 1.089-1.288 2.289-.102.324-.2.676-.292 1.051-.065.25-.125.514-.181.778-.032.134-.06.269-.088.408l-.083.421v.065c-.056.287-.112.584-.163.885-.05.301-.111.648-.162.977-.037.213-.069.426-.097.639-.065.413-.12.829-.176 1.242-.033.241-.065.463-.093.718l-.111.926c.236.76.5 1.51.774 2.247.174.403.276.834.301 1.273 5.686 1.625 11.713 1.625 17.399 0-.002-.015-.002-.031 0-.046-.086-.416-.123-.84-.111-1.265.093-1.188.248-2.371.463-3.543.069-.578.098-1.16.088-1.742v-.208c-.014-.176-.018-.343-.023-.51zm0 0c0-.185 0-.37-.032-.555-.033-.186-.028-.348-.051-.524s-.042-.352-.065-.528-.056-.352-.088-.528c-.033-.176-.065-.352-.102-.528 0-.06-.023-.116-.037-.176-.051-.232-.107-.463-.167-.699-.06-.237-.097-.376-.153-.561 0-.083-.046-.167-.074-.245-.028-.079-.079-.269-.121-.403l-.083-.26c-.037-.115-.074-.231-.116-.347-.069-.208-.143-.412-.218-.621-.074-.208-.152-.412-.231-.616-.158-.417-.329-.829-.501-1.241-.672-1.603-1.427-3.182-2.122-4.748-.373-.821-.704-1.66-.991-2.515l-.088.125c-.141.213-.267.436-.376.667 0 3.645-3.651 8.106-3.651 8.106l-3.674-5.35-3.216 4.942c-.464.246-.927 1.089-1.288 2.289-.102.324-.2.676-.292 1.051-.065.25-.125.514-.181.778-.032.134-.06.269-.088.408l-.083.421v.065c-.056.287-.112.584-.163.885-.05.301-.111.648-.162.977-.037.213-.069.426-.097.639-.065.413-.12.829-.176 1.242-.033.241-.065.463-.093.718l-.111.926c.236.76.5 1.51.774 2.247.174.403.276.834.301 1.273 5.686 1.625 11.713 1.625 17.399 0-.002-.015-.002-.031 0-.046-.086-.416-.123-.84-.111-1.265.093-1.188.248-2.371.463-3.543.069-.578.098-1.16.088-1.742v-.208c-.014-.176-.018-.343-.023-.51zm0 0c0-.185 0-.37-.032-.555-.033-.186-.028-.348-.051-.524s-.042-.352-.065-.528-.056-.352-.088-.528c-.033-.176-.065-.352-.102-.528 0-.06-.023-.116-.037-.176-.051-.232-.107-.463-.167-.699-.06-.237-.097-.376-.153-.561 0-.083-.046-.167-.074-.245-.028-.079-.079-.269-.121-.403l-.083-.26c-.037-.115-.074-.231-.116-.347-.069-.208-.143-.412-.218-.621-.074-.208-.152-.412-.231-.616-.158-.417-.329-.829-.501-1.241-.672-1.603-1.427-3.182-2.122-4.748-.373-.821-.704-1.66-.991-2.515l-.088.125c-.141.213-.267.436-.376.667 0 3.645-3.651 8.106-3.651 8.106l-3.674-5.35-3.216 4.942c-.464.246-.927 1.089-1.288 2.289-.102.324-.2.676-.292 1.051-.065.25-.125.514-.181.778-.032.134-.06.269-.088.408l-.083.421v.065c-.056.287-.112.584-.163.885-.05.301-.111.648-.162.977-.037.213-.069.426-.097.639-.065.413-.12.829-.176 1.242-.033.241-.065.463-.093.718l-.111.926c.236.76.5 1.51.774 2.247.174.403.276.834.301 1.273 5.686 1.625 11.713 1.625 17.399 0-.002-.015-.002-.031 0-.046-.086-.416-.123-.84-.111-1.265.093-1.188.248-2.371.463-3.543.069-.578.098-1.16.088-1.742v-.208c-.014-.176-.018-.343-.023-.51z" fill="#fff" opacity=".5"/><path d="m139.994 211.227-.31-.042c-.469-.063-.933-.156-1.39-.278l-.172-.046c-1.13-.32-2.367-.894-2.645-1.904-.083-.325-.073-.667.027-.986.156-.552.367-1.085.631-1.594v-.028c.034-.071.073-.141.115-.208.383-.747.961-1.376 1.673-1.82l-.556.088-4.708.764-7.297 1.176s-1.298-.259-3.063 4.604c0 .061-.042.116-.06.181-.427 1.191-.876 2.677-1.34 4.535-.319 1.287-.611 2.552-.88 3.779-.079.371-.158.737-.232 1.098.836.985 1.735 1.913 2.692 2.779l.153.144c1.876 1.697 3.948 3.164 6.172 4.368l.088.046c1.4.755 2.856 1.399 4.356 1.927l.394.139c.083-.857.176-1.806.287-2.779 0-.097 0-.195.037-.292l.111-.926c.028-.237.061-.463.093-.718.056-.412.111-.829.176-1.242.028-.213.06-.426.097-.639.051-.329.107-.658.163-.977.055-.32.106-.598.162-.885v-.065l.083-.421c.028-.139.056-.273.088-.408.056-.264.116-.528.181-.778.093-.375.19-.727.292-1.051.37-1.2.801-2.043 1.288-2.289l3.216-4.942.134-.208.06-.093z" fill="#000" opacity=".1"/><path d="m134.142 178.419c-.463.639-.426 1.519-.635 2.316-.495 1.811-2.46 2.946-2.91 4.771-.264 1.065.042 2.195-.139 3.279-.329 1.996-2.154 3.349-3.174 5.095-.516.9-.823 1.905-.896 2.939-.073 1.035.089 2.073.475 3.036.238.486.435.991.588 1.51.117.774.068 1.563-.143 2.316-.348 1.649-.705 3.465.092 4.952.672 1.255 2.067 1.992 3.471 2.223 1.418.16 2.852.095 4.249-.194 1.534-.237 3.104-.51 4.439-1.297l-5.018-12.108c-.505-1.223-1.024-2.487-1.02-3.812.041-.977.253-1.94.626-2.844.971-2.62 2.381-5.056 4.17-7.203.727.843.672 2.126 1.279 3.062.536.692 1.251 1.225 2.066 1.542 2.378 1.16 4.821 2.181 7.317 3.057.156.02.306.078.435.169.128.091.233.213.303.354.071.141.106.297.101.455-.004.158-.047.312-.126.449l-1.89 7.8c-.417 1.719-.783 3.706.287 5.095 1.071 1.39 3.485 2.048 3.499 3.84-.02.284-.02.569 0 .852.125.839 1.121 1.242 1.969 1.284 1.392.027 2.748-.441 3.827-1.321s1.81-2.114 2.062-3.483c.463-3.066-1.566-5.892-2.414-8.879-1.427-5.026.463-10.922-2.34-15.337-2.27-3.58-6.408-4.553-10.337-4.997-2.757-.325-8.271-1.483-10.213 1.079z" fill="#000" opacity=".1"/><path d="m134.142 177.955c-.463.64-.426 1.52-.635 2.316-.495 1.812-2.46 2.946-2.91 4.771-.264 1.066.042 2.196-.139 3.28-.329 1.996-2.154 3.349-3.174 5.095-.516.899-.823 1.904-.896 2.939s.089 2.073.475 3.036c.238.486.435.991.588 1.51.117.773.068 1.563-.143 2.316-.348 1.649-.705 3.465.092 4.952.672 1.255 2.067 1.991 3.471 2.223 1.418.16 2.852.094 4.249-.195 1.534-.236 3.104-.509 4.439-1.297l-5.018-12.107c-.505-1.223-1.024-2.488-1.02-3.813.041-.977.253-1.939.626-2.844.971-2.619 2.381-5.055 4.17-7.202.727.843.672 2.126 1.279 3.061.536.692 1.251 1.225 2.066 1.543 2.378 1.159 4.821 2.18 7.317 3.057.156.02.306.078.435.169.128.091.233.212.303.354.071.141.106.297.101.455-.004.157-.047.312-.126.449l-1.89 7.8c-.417 1.718-.783 3.705.287 5.095 1.071 1.39 3.485 2.047 3.499 3.84-.02.284-.02.568 0 .852.125.838 1.121 1.241 1.969 1.283 1.392.028 2.748-.44 3.827-1.32s1.81-2.114 2.062-3.483c.463-3.067-1.566-5.892-2.414-8.88-1.427-5.025.463-10.922-2.34-15.336-2.27-3.58-6.408-4.553-10.337-4.998-2.757-.324-8.271-1.482-10.213 1.079z" fill="#493545" opacity=".5"/></g><g opacity=".5"><path d="m131.292 302.022c.042 1.551-1.014 2.876-1.853 4.168-.839 1.293-1.46 3.057-.598 4.35.283.426.709.755.964 1.199.894 1.552-.593 3.335-1.135 5.04-.626 1.968.102 4.169 1.418 5.767s3.132 2.677 4.967 3.626c3.858 2.056 7.999 3.529 12.288 4.373 2.243.412 4.634.598 6.737-.301 1.46-.669 2.652-1.81 3.386-3.238.733-1.428.966-3.061.659-4.636-.532-2.437-2.316-4.396-3.243-6.698-.216-.452-.321-.949-.306-1.45.079-.875.751-1.561 1.274-2.27 1.313-1.929 1.85-4.283 1.502-6.591-.366-2.307-1.25-4.502-2.586-6.42-.477-.795-1.107-1.487-1.853-2.038-1.01-.681-2.262-.875-3.466-1.047-5.032-.704-10.245-1.472-15.319-1.732-1.603-.083-2.78.232-3.572 1.732-1.21 2.238.676 3.919.736 6.166z" fill="#444176" opacity=".5"/><path d="m157.208 317.775-9.55 13.576-9.323-.811s-.305 3.243-4.054-8.509c-2.094-6.572 2.164-4.289 3.003-6.109.838-1.82 2.316-3.428 2.441-4.771.297-2.881-.579-4.521-.579-4.521l10.134-1.213c-.457 1.365-.515 2.832-.167 4.229 1.27 5.271 8.095 8.129 8.095 8.129z" fill="#c77485" opacity=".5"/><path d="m142.844 306.199c6.653 0 12.047-4.251 12.047-9.495s-5.394-9.496-12.047-9.496c-6.654 0-12.047 4.252-12.047 9.496s5.393 9.495 12.047 9.495z" fill="#444176" opacity=".5"/><path d="m149.109 309.641c-1.322 1.001-2.869 1.661-4.506 1.925-1.637.263-3.313.121-4.882-.415.296-2.881-.579-4.521-.579-4.521l10.133-1.213c-.456 1.363-.514 2.829-.166 4.224z" fill="#000" opacity=".1"/><path d="m142.997 311.29c5.596 0 10.133-4.535 10.133-10.13s-4.537-10.13-10.133-10.13c-5.597 0-10.134 4.535-10.134 10.13s4.537 10.13 10.134 10.13z" fill="#c77485" opacity=".5"/><path d="m156.207 319.312-.236-.926-.204-.815-.301-1.205-.056-.222-.046-.185s.241-.727-1.348-.491l-.297.051c-.25.051-.542.12-.876.213l-.301.093-.398.125c-1.262.41-2.413 1.104-3.364 2.028-.428.409-.806.866-1.126 1.362-.033.046-.056.088-.084.125-.11.172-.207.352-.292.538 0 3.649-3.651 8.105-3.651 8.105l-3.563-5.146-.07-.102-.848-1.232-.301-.398-.102-.139-1.853-2.487-.464-.621-.152-.208-.228-.302-.532-.708-2.085 1.218-2.781 1.621-1.621 10.538v.292l.051.87.338 5.725v.079l-.593 2.372.088.046c1.399.755 2.856 1.399 4.355 1.927l.394.139c.464.153.899.292 1.353.426.017.069.029.138.037.209 0-.065 0-.135 0-.2 5.686 1.625 11.713 1.625 17.399 0l.107-.032c.264-.074.533-.153.792-.241l.422-.134c1.143-.383 2.263-.831 3.355-1.344l.389-8.291.278-5.98v-.342z" fill="#000" opacity=".1"/><path d="m152.871 334.714c0-.186 0-.371-.032-.556-.033-.185-.028-.348-.051-.524-.024-.176-.042-.352-.065-.528s-.056-.352-.088-.528c-.033-.176-.065-.352-.102-.528 0-.06-.023-.116-.037-.176-.051-.231-.107-.463-.167-.699s-.097-.375-.153-.561c0-.083-.046-.166-.074-.245s-.079-.269-.121-.403l-.083-.259c-.037-.116-.074-.232-.116-.348-.069-.208-.144-.412-.218-.621-.074-.208-.153-.412-.231-.616-.158-.416-.329-.829-.501-1.241-.672-1.603-1.427-3.182-2.122-4.748-.373-.82-.704-1.66-.992-2.515l-.088.125c-.14.213-.266.436-.375.667 0 3.646-3.651 8.106-3.651 8.106l-3.675-5.35-3.215 4.942c-.464.246-.927 1.089-1.288 2.289-.102.324-.2.676-.292 1.051-.065.25-.125.514-.181.778-.032.135-.06.269-.088.408l-.083.421v.065c-.056.287-.112.584-.163.885s-.111.648-.162.977c-.037.213-.069.426-.097.639-.065.413-.121.83-.176 1.242-.033.241-.065.463-.093.718l-.111.926c.236.76.5 1.51.774 2.247.174.403.276.834.301 1.273 5.686 1.625 11.713 1.625 17.399 0-.002-.015-.002-.031 0-.046-.086-.416-.123-.84-.111-1.264.093-1.189.248-2.371.463-3.544.069-.578.098-1.16.088-1.741v-.209c-.014-.176-.018-.343-.023-.509zm0 0c0-.186 0-.371-.032-.556-.033-.185-.028-.348-.051-.524-.024-.176-.042-.352-.065-.528s-.056-.352-.088-.528c-.033-.176-.065-.352-.102-.528 0-.06-.023-.116-.037-.176-.051-.231-.107-.463-.167-.699s-.097-.375-.153-.561c0-.083-.046-.166-.074-.245s-.079-.269-.121-.403l-.083-.259c-.037-.116-.074-.232-.116-.348-.069-.208-.144-.412-.218-.621-.074-.208-.153-.412-.231-.616-.158-.416-.329-.829-.501-1.241-.672-1.603-1.427-3.182-2.122-4.748-.373-.82-.704-1.66-.992-2.515l-.088.125c-.14.213-.266.436-.375.667 0 3.646-3.651 8.106-3.651 8.106l-3.675-5.35-3.215 4.942c-.464.246-.927 1.089-1.288 2.289-.102.324-.2.676-.292 1.051-.065.25-.125.514-.181.778-.032.135-.06.269-.088.408l-.083.421v.065c-.056.287-.112.584-.163.885s-.111.648-.162.977c-.037.213-.069.426-.097.639-.065.413-.121.83-.176 1.242-.033.241-.065.463-.093.718l-.111.926c.236.76.5 1.51.774 2.247.174.403.276.834.301 1.273 5.686 1.625 11.713 1.625 17.399 0-.002-.015-.002-.031 0-.046-.086-.416-.123-.84-.111-1.264.093-1.189.248-2.371.463-3.544.069-.578.098-1.16.088-1.741v-.209c-.014-.176-.018-.343-.023-.509zm0 0c0-.186 0-.371-.032-.556-.033-.185-.028-.348-.051-.524-.024-.176-.042-.352-.065-.528s-.056-.352-.088-.528c-.033-.176-.065-.352-.102-.528 0-.06-.023-.116-.037-.176-.051-.231-.107-.463-.167-.699s-.097-.375-.153-.561c0-.083-.046-.166-.074-.245s-.079-.269-.121-.403l-.083-.259c-.037-.116-.074-.232-.116-.348-.069-.208-.144-.412-.218-.621-.074-.208-.153-.412-.231-.616-.158-.416-.329-.829-.501-1.241-.672-1.603-1.427-3.182-2.122-4.748-.373-.82-.704-1.66-.992-2.515l-.088.125c-.14.213-.266.436-.375.667 0 3.646-3.651 8.106-3.651 8.106l-3.675-5.35-3.215 4.942c-.464.246-.927 1.089-1.288 2.289-.102.324-.2.676-.292 1.051-.065.25-.125.514-.181.778-.032.135-.06.269-.088.408l-.083.421v.065c-.056.287-.112.584-.163.885s-.111.648-.162.977c-.037.213-.069.426-.097.639-.065.413-.121.83-.176 1.242-.033.241-.065.463-.093.718l-.111.926c.236.76.5 1.51.774 2.247.174.403.276.834.301 1.273 5.686 1.625 11.713 1.625 17.399 0-.002-.015-.002-.031 0-.046-.086-.416-.123-.84-.111-1.264.093-1.189.248-2.371.463-3.544.069-.578.098-1.16.088-1.741v-.209c-.014-.176-.018-.343-.023-.509zm4.912-8.695-1.655-6.6-.282-1.13-.079-.311-.403-1.611c.001-.014.001-.028 0-.042.01-.071-.002-.144-.033-.209-.06-.12-.213-.245-.569-.277-.136-.01-.272-.01-.408 0-.403.039-.801.114-1.191.222-.19.051-.394.106-.612.176l-.398.125h-.037c-1.067.35-2.058.9-2.919 1.621-.569.474-1.068 1.026-1.483 1.64l-.088.125c-.141.213-.266.436-.376.667 0 3.645-3.651 8.106-3.651 8.106l-3.674-5.35-.209-.301-.037-.051-.533-.783-.403-.537-.106-.139-1.9-2.534-.602-.82v-.028l-.209-.282-.398-.528-1.391.81-3.475 2.025-1.603 10.426v.111l.046.76.343 5.804v.329l-.523 2.089c1.399.754 2.855 1.398 4.355 1.926l.394.139c.463.153.899.292 1.353.427.017.068.029.138.037.208 0-.065 0-.134 0-.199 5.686 1.624 11.713 1.624 17.399 0l.107-.033c.264-.074.533-.152.792-.24l.422-.135c1.143-.382 2.263-.831 3.355-1.343l.384-8.282.278-5.915zm-22.788 15.995c.017.068.029.138.037.208 0-.065 0-.134 0-.199zm17.876-7.3c0-.186 0-.371-.032-.556-.033-.185-.028-.348-.051-.524-.024-.176-.042-.352-.065-.528s-.056-.352-.088-.528c-.033-.176-.065-.352-.102-.528 0-.06-.023-.116-.037-.176-.051-.231-.107-.463-.167-.699s-.097-.375-.153-.561c0-.083-.046-.166-.074-.245s-.079-.269-.121-.403l-.083-.259c-.037-.116-.074-.232-.116-.348-.069-.208-.144-.412-.218-.621-.074-.208-.153-.412-.231-.616-.158-.416-.329-.829-.501-1.241-.672-1.603-1.427-3.182-2.122-4.748-.373-.82-.704-1.66-.992-2.515l-.088.125c-.14.213-.266.436-.375.667 0 3.646-3.651 8.106-3.651 8.106l-3.675-5.35-3.215 4.942c-.464.246-.927 1.089-1.288 2.289-.102.324-.2.676-.292 1.051-.065.25-.125.514-.181.778-.032.135-.06.269-.088.408l-.083.421v.065c-.056.287-.112.584-.163.885s-.111.648-.162.977c-.037.213-.069.426-.097.639-.065.413-.121.83-.176 1.242-.033.241-.065.463-.093.718l-.111.926c.236.76.5 1.51.774 2.247.174.403.276.834.301 1.273 5.686 1.625 11.713 1.625 17.399 0-.002-.015-.002-.031 0-.046-.086-.416-.123-.84-.111-1.264.093-1.189.248-2.371.463-3.544.069-.578.098-1.16.088-1.741v-.209c-.014-.176-.018-.343-.023-.509zm0 0c0-.186 0-.371-.032-.556-.033-.185-.028-.348-.051-.524-.024-.176-.042-.352-.065-.528s-.056-.352-.088-.528c-.033-.176-.065-.352-.102-.528 0-.06-.023-.116-.037-.176-.051-.231-.107-.463-.167-.699s-.097-.375-.153-.561c0-.083-.046-.166-.074-.245s-.079-.269-.121-.403l-.083-.259c-.037-.116-.074-.232-.116-.348-.069-.208-.144-.412-.218-.621-.074-.208-.153-.412-.231-.616-.158-.416-.329-.829-.501-1.241-.672-1.603-1.427-3.182-2.122-4.748-.373-.82-.704-1.66-.992-2.515l-.088.125c-.14.213-.266.436-.375.667 0 3.646-3.651 8.106-3.651 8.106l-3.675-5.35-3.215 4.942c-.464.246-.927 1.089-1.288 2.289-.102.324-.2.676-.292 1.051-.065.25-.125.514-.181.778-.032.135-.06.269-.088.408l-.083.421v.065c-.056.287-.112.584-.163.885s-.111.648-.162.977c-.037.213-.069.426-.097.639-.065.413-.121.83-.176 1.242-.033.241-.065.463-.093.718l-.111.926c.236.76.5 1.51.774 2.247.174.403.276.834.301 1.273 5.686 1.625 11.713 1.625 17.399 0-.002-.015-.002-.031 0-.046-.086-.416-.123-.84-.111-1.264.093-1.189.248-2.371.463-3.544.069-.578.098-1.16.088-1.741v-.209c-.014-.176-.018-.343-.023-.509zm0 0c0-.186 0-.371-.032-.556-.033-.185-.028-.348-.051-.524-.024-.176-.042-.352-.065-.528s-.056-.352-.088-.528c-.033-.176-.065-.352-.102-.528 0-.06-.023-.116-.037-.176-.051-.231-.107-.463-.167-.699s-.097-.375-.153-.561c0-.083-.046-.166-.074-.245s-.079-.269-.121-.403l-.083-.259c-.037-.116-.074-.232-.116-.348-.069-.208-.144-.412-.218-.621-.074-.208-.153-.412-.231-.616-.158-.416-.329-.829-.501-1.241-.672-1.603-1.427-3.182-2.122-4.748-.373-.82-.704-1.66-.992-2.515l-.088.125c-.14.213-.266.436-.375.667 0 3.646-3.651 8.106-3.651 8.106l-3.675-5.35-3.215 4.942c-.464.246-.927 1.089-1.288 2.289-.102.324-.2.676-.292 1.051-.065.25-.125.514-.181.778-.032.135-.06.269-.088.408l-.083.421v.065c-.056.287-.112.584-.163.885s-.111.648-.162.977c-.037.213-.069.426-.097.639-.065.413-.121.83-.176 1.242-.033.241-.065.463-.093.718l-.111.926c.236.76.5 1.51.774 2.247.174.403.276.834.301 1.273 5.686 1.625 11.713 1.625 17.399 0-.002-.015-.002-.031 0-.046-.086-.416-.123-.84-.111-1.264.093-1.189.248-2.371.463-3.544.069-.578.098-1.16.088-1.741v-.209c-.014-.176-.018-.343-.023-.509zm0 0c0-.186 0-.371-.032-.556-.033-.185-.028-.348-.051-.524-.024-.176-.042-.352-.065-.528s-.056-.352-.088-.528c-.033-.176-.065-.352-.102-.528 0-.06-.023-.116-.037-.176-.051-.231-.107-.463-.167-.699s-.097-.375-.153-.561c0-.083-.046-.166-.074-.245s-.079-.269-.121-.403l-.083-.259c-.037-.116-.074-.232-.116-.348-.069-.208-.144-.412-.218-.621-.074-.208-.153-.412-.231-.616-.158-.416-.329-.829-.501-1.241-.672-1.603-1.427-3.182-2.122-4.748-.373-.82-.704-1.66-.992-2.515l-.088.125c-.14.213-.266.436-.375.667 0 3.646-3.651 8.106-3.651 8.106l-3.675-5.35-3.215 4.942c-.464.246-.927 1.089-1.288 2.289-.102.324-.2.676-.292 1.051-.065.25-.125.514-.181.778-.032.135-.06.269-.088.408l-.083.421v.065c-.056.287-.112.584-.163.885s-.111.648-.162.977c-.037.213-.069.426-.097.639-.065.413-.121.83-.176 1.242-.033.241-.065.463-.093.718l-.111.926c.236.76.5 1.51.774 2.247.174.403.276.834.301 1.273 5.686 1.625 11.713 1.625 17.399 0-.002-.015-.002-.031 0-.046-.086-.416-.123-.84-.111-1.264.093-1.189.248-2.371.463-3.544.069-.578.098-1.16.088-1.741v-.209c-.014-.176-.018-.343-.023-.509zm0 0c0-.186 0-.371-.032-.556-.033-.185-.028-.348-.051-.524-.024-.176-.042-.352-.065-.528s-.056-.352-.088-.528c-.033-.176-.065-.352-.102-.528 0-.06-.023-.116-.037-.176-.051-.231-.107-.463-.167-.699s-.097-.375-.153-.561c0-.083-.046-.166-.074-.245s-.079-.269-.121-.403l-.083-.259c-.037-.116-.074-.232-.116-.348-.069-.208-.144-.412-.218-.621-.074-.208-.153-.412-.231-.616-.158-.416-.329-.829-.501-1.241-.672-1.603-1.427-3.182-2.122-4.748-.373-.82-.704-1.66-.992-2.515l-.088.125c-.14.213-.266.436-.375.667 0 3.646-3.651 8.106-3.651 8.106l-3.675-5.35-3.215 4.942c-.464.246-.927 1.089-1.288 2.289-.102.324-.2.676-.292 1.051-.065.25-.125.514-.181.778-.032.135-.06.269-.088.408l-.083.421v.065c-.056.287-.112.584-.163.885s-.111.648-.162.977c-.037.213-.069.426-.097.639-.065.413-.121.83-.176 1.242-.033.241-.065.463-.093.718l-.111.926c.236.76.5 1.51.774 2.247.174.403.276.834.301 1.273 5.686 1.625 11.713 1.625 17.399 0-.002-.015-.002-.031 0-.046-.086-.416-.123-.84-.111-1.264.093-1.189.248-2.371.463-3.544.069-.578.098-1.16.088-1.741v-.209c-.014-.176-.018-.343-.023-.509zm0 0c0-.186 0-.371-.032-.556-.033-.185-.028-.348-.051-.524-.024-.176-.042-.352-.065-.528s-.056-.352-.088-.528c-.033-.176-.065-.352-.102-.528 0-.06-.023-.116-.037-.176-.051-.231-.107-.463-.167-.699s-.097-.375-.153-.561c0-.083-.046-.166-.074-.245s-.079-.269-.121-.403l-.083-.259c-.037-.116-.074-.232-.116-.348-.069-.208-.144-.412-.218-.621-.074-.208-.153-.412-.231-.616-.158-.416-.329-.829-.501-1.241-.672-1.603-1.427-3.182-2.122-4.748-.373-.82-.704-1.66-.992-2.515l-.088.125c-.14.213-.266.436-.375.667 0 3.646-3.651 8.106-3.651 8.106l-3.675-5.35-3.215 4.942c-.464.246-.927 1.089-1.288 2.289-.102.324-.2.676-.292 1.051-.065.25-.125.514-.181.778-.032.135-.06.269-.088.408l-.083.421v.065c-.056.287-.112.584-.163.885s-.111.648-.162.977c-.037.213-.069.426-.097.639-.065.413-.121.83-.176 1.242-.033.241-.065.463-.093.718l-.111.926c.236.76.5 1.51.774 2.247.174.403.276.834.301 1.273 5.686 1.625 11.713 1.625 17.399 0-.002-.015-.002-.031 0-.046-.086-.416-.123-.84-.111-1.264.093-1.189.248-2.371.463-3.544.069-.578.098-1.16.088-1.741v-.209c-.014-.176-.018-.343-.023-.509zm0 0c0-.186 0-.371-.032-.556-.033-.185-.028-.348-.051-.524-.024-.176-.042-.352-.065-.528s-.056-.352-.088-.528c-.033-.176-.065-.352-.102-.528 0-.06-.023-.116-.037-.176-.051-.231-.107-.463-.167-.699s-.097-.375-.153-.561c0-.083-.046-.166-.074-.245s-.079-.269-.121-.403l-.083-.259c-.037-.116-.074-.232-.116-.348-.069-.208-.144-.412-.218-.621-.074-.208-.153-.412-.231-.616-.158-.416-.329-.829-.501-1.241-.672-1.603-1.427-3.182-2.122-4.748-.373-.82-.704-1.66-.992-2.515l-.088.125c-.14.213-.266.436-.375.667 0 3.646-3.651 8.106-3.651 8.106l-3.675-5.35-3.215 4.942c-.464.246-.927 1.089-1.288 2.289-.102.324-.2.676-.292 1.051-.065.25-.125.514-.181.778-.032.135-.06.269-.088.408l-.083.421v.065c-.056.287-.112.584-.163.885s-.111.648-.162.977c-.037.213-.069.426-.097.639-.065.413-.121.83-.176 1.242-.033.241-.065.463-.093.718l-.111.926c.236.76.5 1.51.774 2.247.174.403.276.834.301 1.273 5.686 1.625 11.713 1.625 17.399 0-.002-.015-.002-.031 0-.046-.086-.416-.123-.84-.111-1.264.093-1.189.248-2.371.463-3.544.069-.578.098-1.16.088-1.741v-.209c-.014-.176-.018-.343-.023-.509zm0 0c0-.186 0-.371-.032-.556-.033-.185-.028-.348-.051-.524-.024-.176-.042-.352-.065-.528s-.056-.352-.088-.528c-.033-.176-.065-.352-.102-.528 0-.06-.023-.116-.037-.176-.051-.231-.107-.463-.167-.699s-.097-.375-.153-.561c0-.083-.046-.166-.074-.245s-.079-.269-.121-.403l-.083-.259c-.037-.116-.074-.232-.116-.348-.069-.208-.144-.412-.218-.621-.074-.208-.153-.412-.231-.616-.158-.416-.329-.829-.501-1.241-.672-1.603-1.427-3.182-2.122-4.748-.373-.82-.704-1.66-.992-2.515l-.088.125c-.14.213-.266.436-.375.667 0 3.646-3.651 8.106-3.651 8.106l-3.675-5.35-3.215 4.942c-.464.246-.927 1.089-1.288 2.289-.102.324-.2.676-.292 1.051-.065.25-.125.514-.181.778-.032.135-.06.269-.088.408l-.083.421v.065c-.056.287-.112.584-.163.885s-.111.648-.162.977c-.037.213-.069.426-.097.639-.065.413-.121.83-.176 1.242-.033.241-.065.463-.093.718l-.111.926c.236.76.5 1.51.774 2.247.174.403.276.834.301 1.273 5.686 1.625 11.713 1.625 17.399 0-.002-.015-.002-.031 0-.046-.086-.416-.123-.84-.111-1.264.093-1.189.248-2.371.463-3.544.069-.578.098-1.16.088-1.741v-.209c-.014-.176-.018-.343-.023-.509z" fill="#444176" opacity=".5"/><path d="m139.994 322.856-.31-.042c-.469-.063-.933-.156-1.39-.278l-.172-.046c-1.13-.32-2.367-.894-2.645-1.904-.083-.325-.074-.666.027-.986.156-.551.367-1.085.63-1.594v-.028c.035-.071.074-.141.116-.208.383-.747.961-1.376 1.673-1.82l-.556.088-4.708.764-7.298 1.176s-1.297-.259-3.062 4.605c0 .06-.042.115-.061.18-.426 1.191-.875 2.678-1.339 4.535-.319 1.288-.611 2.552-.88 3.78-.079.37-.158.736-.232 1.097.836.985 1.735 1.913 2.692 2.78l.153.143c1.875 1.698 3.948 3.164 6.172 4.368l.088.046c1.4.755 2.856 1.399 4.356 1.927l.394.139c.083-.857.176-1.806.287-2.779 0-.097 0-.194.037-.292l.111-.926c.028-.236.06-.463.093-.718.055-.412.111-.829.176-1.241.028-.214.06-.427.097-.64.051-.329.107-.657.162-.977.056-.32.107-.598.163-.885v-.065l.083-.421c.028-.139.056-.273.088-.408.056-.264.116-.528.181-.778.092-.375.19-.727.292-1.051.37-1.2.801-2.043 1.288-2.288l3.215-4.943.135-.208.06-.093z" fill="#000" opacity=".1"/><path d="m140.768 298.196c1.446-.246 2.901-.774 4.337-.464 1.205.25 2.21 1.052 3.313 1.608 1.065.535 2.229.843 3.42.903.434.057.875-.029 1.255-.246.575-.398.658-1.213.561-1.908-.278-1.973-1.511-3.668-2.78-5.206-.507-.657-1.092-1.25-1.742-1.765-1.664-1.228-3.865-1.436-5.927-1.343-2.354.106-4.744.56-6.788 1.741-1.39.797-4.578 3.307-3.47 5.123 1.163 1.899 6 1.867 7.821 1.557z" fill="#000" opacity=".1"/><path d="m140.768 297.732c1.446-.245 2.901-.773 4.337-.463 1.205.25 2.21 1.052 3.313 1.608 1.065.535 2.229.842 3.42.903.434.057.875-.029 1.255-.246.575-.398.658-1.213.561-1.908-.278-1.973-1.511-3.669-2.78-5.206-.507-.657-1.092-1.25-1.742-1.765-1.664-1.228-3.865-1.436-5.927-1.343-2.354.106-4.744.56-6.788 1.741-1.39.797-4.578 3.307-3.47 5.123 1.163 1.899 6 1.867 7.821 1.556z" fill="#444176" opacity=".5"/></g><path d="m268.011 275.05h.069c.102 3.103.543 5.91 1.391 6.689 2.02 1.852 10.397-1.853 9.823-4.095-.116-.463-.311-1.223-.556-2.182 2.261-.282 4.193-.926 4.962-2.251l1.455 4.484.102.319h.028.083c.959 9.088 3.133 27.959 4.87 30.488 2.317 3.349 4.981 17.861 4.981 17.861l4.981 29.769s1.919 17.138 3.068 18.991c.334.354.778.584 1.26.653-.672 2.01-1.635 4.359-2.78 5.67-2.317 2.603-5.366 7.814-8.048 7.443-2.683-.371-3.448 5.211 1.533 5.952 2.757.412 7.154-.088 10.532-.616 0 1.491 1.038 3.205 3.647 3.594 4.981.746 15.328-1.486 15.328-1.486s8.804-3.706 9.198-6.328c.278-1.899-1.071-9.523-1.821-13.52 1.39-2.228-.093-21.455-.093-21.455l-2.683-36.838s1.534-20.464 0-24.188c-.959-2.316-1.316-12.97-1.45-20.589l1.853.12c.106-.127.202-.262.287-.403l.464.033s2.317-2.603.384-6.698c-1.422-3.043-1.153-16.781-.926-23.623l.273-3.242c.102-.099.179-.219.227-.352 3.594-.485 7.087-1.543 10.347-3.131.983-.409 1.899-.965 2.715-1.649 1.918-1.853.765-13.025-3.067-29.77-3.832-16.744-7.28-15.257-7.28-15.257s-9.197-.746-13.414-6.328c-4.216-5.581-7.048-5.507-7.048-5.507-.106-.732-.18-1.422-.231-2.066 0-.241-.037-.463-.051-.704 1.433-1.333 2.526-2.989 3.188-4.831.862-.463 1.923-.616 2.747-1.2.211-.152.402-.33.57-.528.827-.762 1.352-1.796 1.478-2.913.132-1.22.074-2.453-.171-3.655-.292-1.778-.723-3.599-1.761-4.998-1.038-1.398-2.59-2.242-4.087-3.024-4.052-2.128-8.116-4.234-12.19-6.318-.796-.486-1.685-.802-2.609-.927-1.631-.092-3.095 1.024-4.411 2.085-.525.413-1.028.853-1.506 1.32-.407.36-.778.759-1.108 1.19-1.538 2.061-2.191 5.943-1.515 8.518.213.816.672 1.052 1.237 1.043-.839 1.666-1.275 3.507-1.274 5.373.009 2.043.532 4.05 1.521 5.838.988 1.788 2.411 3.299 4.137 4.394 0 .259 0 .514.023.759.019.951-.012 1.902-.093 2.849 0 0-10.194 5.507-11.338 8.11-1.145 2.603-5.366 4.466-5.366 4.466s-8.048 4.094-8.048 18.606l-4.217 20.464-.765 39.07s.529-.463 1.391-1.121c-.028.26-.051.528-.075.802-.114 1.493-.153 2.991-.115 4.488zm51.479 101.12c-.157.597-.389 1.389-.681 2.316-.13-.769-.26-1.529-.389-2.251.333-.033.69-.051 1.07-.065z" fill="url(#d)"/><path d="m305.571 371.371s-1.479 6.642-3.707 9.222c-2.229 2.58-5.148 7.749-7.724 7.379-2.577-.371-3.323 5.164 1.478 5.901 4.8.736 14.739-1.473 14.739-1.473s8.489-3.706 8.855-6.272-2.215-15.864-2.215-15.864z" fill="#53526b"/><path d="m305.571 371.371s-1.479 6.642-3.707 9.222c-2.229 2.58-5.148 7.749-7.724 7.379-2.577-.371-3.323 5.164 1.478 5.901 4.8.736 14.739-1.473 14.739-1.473s8.489-3.706 8.855-6.272-2.215-15.864-2.215-15.864z" fill="#000" opacity=".05"/><path d="m319.226 374.322s-1.478 6.642-3.707 9.222-5.162 7.749-7.733 7.378c-2.572-.37-3.323 5.165 1.478 5.902 4.8.736 14.762-1.478 14.762-1.478s8.489-3.706 8.855-6.272-2.215-15.864-2.215-15.864z" fill="#53526b"/><path d="m285.642 273.248s2.951 31.724 5.166 35.045 4.796 17.708 4.796 17.708l4.796 29.51s1.853 16.972 2.951 18.815c1.098 1.844 14.795 1.052 14.795 1.052l-8.516-97.706z" fill="#5f5d7e"/><path d="m285.642 273.248s2.951 31.724 5.166 35.045 4.796 17.708 4.796 17.708l4.796 29.51s1.853 16.972 2.951 18.815c1.098 1.844 14.795 1.052 14.795 1.052l-8.516-97.706z" fill="#000" opacity=".05"/><path d="m279.738 258.115.964 3.062 5.213 16.541.102.315h.028c.699.157 15.471 3.552 18.659 4.595.172.053.341.116.505.19 1.478.736 3.322 27.296 3.322 27.296s1.108 25.086 1.854 26.93c.746 1.843 3.707 39.834 5.537 38.732 1.83-1.103 15.129 0 15.129 0 1.478-1.478 0-21.395 0-21.395l-2.623-36.514s1.478-20.287 0-23.979-1.478-28.403-1.478-28.403l-30.206-4.72-2.92-.463z" fill="#5f5d7e"/><path d="m280.702 261.182 5.213 16.541.125.324c.7.157 15.472 3.553 18.659 4.595h.32l-8.252-21.872-.237-.63-2.682.171z" fill="#000" opacity=".02"/><path d="m315.167 184.343s-13.655 14.757-22.144 2.58l-8.118 5.535 1.478 8.486-4.8 64.184s12.547-.37 21.402 2.58c2.466.875 5.131 1.027 7.681.438 2.549-.588 4.878-1.892 6.711-3.759l-1.46-56.435 3.323-17.338z" fill="#000" opacity=".1"/><path d="m315.167 183.236s-13.655 14.757-22.144 2.58l-8.118 5.535 1.478 8.486-4.8 64.184s12.547-.37 21.402 2.58c2.466.875 5.131 1.027 7.681.439 2.549-.589 4.878-1.893 6.711-3.76l-1.46-56.435 3.323-17.338z" fill="#53526b"/><path d="m286.749 259.598s0 9.593-2.215 13.65c-2.215 4.058-15.128 1.853-15.128 1.853l2.58-13.65z" fill="#d6dbe6"/><path d="m270.81 281.739c1.946 1.852 10.013-1.853 9.457-4.058-.39-1.561-1.752-7.147-2.526-10.315l-.537-2.228s-4.726-1.478-6.394 0c-.607.537-1.034 2.654-1.233 5.211-.343 4.442.005 10.213 1.233 11.39z" fill="#fdc2cc"/><path d="m288.579 189.873 12.914 9.959s19.188-1.107 14.392-10.329c-2.088-4.056-3.348-8.487-3.707-13.034-.156-1.678-.156-3.367 0-5.045 0 0-17.714-16.211-15.499 2.215.174 1.414.276 2.836.306 4.261.264 13.831-8.406 11.973-8.406 11.973z" fill="#fdc2cc"/><path d="m296.716 173.643c.174 1.414.276 2.837.306 4.261 1.987 1.317 4.32 2.016 6.704 2.011 3.304 0 5.737-3.215 7.933-5.35-.245-3.062.552-3.136.552-3.136s-17.71-16.23-15.495 2.214z" fill="#000" opacity=".1"/><path d="m303.726 179.178c6.726 0 12.178-5.45 12.178-12.173 0-6.722-5.452-12.172-12.178-12.172-6.725 0-12.177 5.45-12.177 12.172 0 6.723 5.452 12.173 12.177 12.173z" fill="#fdc2cc"/><path d="m312.396 178.622s2.029.186 6.088 5.716c4.059 5.531 12.914 6.272 12.914 6.272s3.322-1.478 7.011 15.123c3.688 16.601 4.796 27.667 2.951 29.51-1.844 1.844-9.225 4.433-12.932 4.433 0 0-1.107 23.238.737 27.296 1.844 4.057-.371 6.642-.371 6.642l-16.217-1.107s-5.538-7.008-6.645-19.181-4.796-46.852-2.952-50.909c1.845-4.058 9.963-14.387 9.597-15.494-.367-1.107-.181-8.301-.181-8.301z" fill="#000" opacity=".1"/><path d="m312.438 178.511s2.729-.074 6.788 5.461 12.909 6.272 12.909 6.272 3.322-1.478 7.011 15.123c3.688 16.601 4.795 27.667 2.951 29.51-1.844 1.844-9.225 4.428-12.914 4.428 0 0-1.107 23.239.737 27.296 1.844 4.058-.371 6.643-.371 6.643l-16.217-1.107s-5.537-7.009-6.645-19.181c-1.107-12.173-4.805-46.848-2.961-50.887 1.845-4.039 9.963-14.387 9.597-15.494s-.885-8.064-.885-8.064z" fill="#d6dbe6"/><path d="m269.582 270.344c1.765-1.348 5.097-3.446 8.164-2.983l-.537-2.228s-4.727-1.478-6.395 0c-.616.537-1.038 2.65-1.232 5.211z" fill="#000" opacity=".1"/><path d="m296.92 180.836s-9.411 6.087-10.518 8.671c-1.108 2.585-5.167 4.429-5.167 4.429s-7.747 4.057-7.747 18.444l-4.059 20.288 18.451 25.823s2.214-25.823 3.322-32.095c1.107-6.272 2.581-18.064 2.581-18.064s5.537-7.009 4.796-8.852c-.742-1.844-1.659-18.644-1.659-18.644z" fill="#000" opacity=".1"/><path d="m296.92 180.725s-9.814 5.461-10.917 8.041-5.166 4.428-5.166 4.428-7.748 4.058-7.748 18.445l-4.059 20.288-.737 38.732s6.645-6.272 11.441-3.321c4.796 2.95 7.747-9.593 7.747-9.593s2.215-25.823 3.322-32.095c1.108-6.271 2.581-18.064 2.581-18.064s5.537-7.008 4.796-8.852c-.741-1.843-1.26-18.009-1.26-18.009z" fill="#d6dbe6"/><path d="m293.037 152.197c.625-.794 1.347-1.507 2.15-2.121 1.269-1.056 2.673-2.159 4.249-2.066.891.118 1.747.425 2.511.898 3.923 2.066 7.836 4.154 11.737 6.263 1.441.778 2.928 1.602 3.934 3.001 1.005 1.399 1.413 3.196 1.696 4.956.236 1.193.293 2.414.167 3.623-.115 1.185-.691 2.278-1.604 3.043-1.051.764-2.492.769-3.373 1.769-.509.579-.732 1.39-1.093 2.094-.362.704-.987 1.389-1.701 1.264-.713-.125-1.144-.88-1.246-1.644-.046-.775-.001-1.552.134-2.316.139-1.39-.037-2.862-.843-3.895-.556-.704-1.353-1.131-1.891-1.853-1.288-1.742-.699-4.632-2.113-6.267-.41-.428-.926-.738-1.496-.901s-1.173-.172-1.747-.026c-1.145.241-2.192.862-3.244 1.39-1.421.717-2.909 1.291-4.443 1.714-1.288.352-2.78 1.195-3.221-.519-.671-2.515-.046-6.364 1.437-8.407z" fill="#000" opacity=".1"/><path clip-rule="evenodd" d="m173.743 58.1789c-.184.2186-.375.4314-.575.6355-3.824 3.8887-9.73 4.124-13.179.5275-8.381-8.7335-22.854-8.946-32.946-.4788-4.168 3.4918-10.006 3.0895-13.037-.8944-3.037-3.9834-2.123-10.0495 2.044-13.5413 17.709-14.851 43.094-14.4879 57.788.8268 3.272 3.4081 3.174 9.0345-.095 12.9247" fill="#ff3000" fill-rule="evenodd"/><path d="m195.299 29.1997c32.212 27.791 36.042 77.0143 8.332 109.9603-27.71 32.947-76.301 36.944-108.5129 9.153s-36.0418-77.014-8.3318-109.9608c27.7097-32.94677 76.3007-36.94356 108.5127-9.1525z" stroke="#ff3000" stroke-width="20"/><rect fill="#ff3000" height="182.07" rx="12.1624" transform="matrix(.643407 -.765524 .756929 .653498 209.952 160.759)" width="24.3248"/><path d="m293.408 151.831c.624-.794 1.347-1.507 2.149-2.121 1.27-1.056 2.674-2.159 4.249-2.066.892.119 1.748.425 2.512.899 3.92 2.066 7.177.111 11.737 6.262.973 1.316 2.928 1.603 3.934 3.002 1.005 1.398 1.413 3.196 1.696 4.956.236 1.192.292 2.413.166 3.622-.114 1.185-.69 2.278-1.603 3.043-1.052.764-2.493.769-3.373 1.77-.51.578-.732 1.389-1.094 2.093-.361.704-.987 1.39-1.7 1.265-.714-.125-1.145-.88-1.247-1.645-.045-.774 0-1.552.135-2.316.139-1.389-.037-2.862-.843-3.895-.557-.704-1.354-1.13-1.891-1.853-1.288-1.741-.7-4.632-2.113-6.267-.41-.427-.927-.738-1.497-.901-.569-.163-1.172-.171-1.746-.025-1.145.241-2.192.861-3.244 1.389-1.421.717-2.909 1.291-4.444 1.714-1.288.352-2.78 1.195-3.22-.519-.676-2.515-.046-6.369 1.437-8.407z" fill="#865a61"/><path d="m326.667 208.132s4.921 12.544 1.228 17.708l-8.118-1.853s7.381 2.215 6.274-2.214c-1.107-4.428.616-13.641.616-13.641z" fill="#000" opacity=".1"/><path d="m329.355 239.125s-10.704.736-13.655-1.478c3.887 2.966 8.477 4.873 13.321 5.535z" fill="#000" opacity=".1"/><path d="m283.246 215.502s-5.537 16.971-5.166 19.551c.37 2.58 1.107 30.988 1.107 30.988l1.107-.371-.37-30.987z" fill="#000" opacity=".1"/><path d="m322.177 226.026s-18.464-21.168-15.87-6.643c1.854 10.33 8.855 15.865 12.177 16.972 3.323 1.107 3.693-10.329 3.693-10.329z" fill="#fdc2cc"/><path d="m326.607 206.474s.371 13.651 2.215 15.494c1.844 1.844-1.107 4.058-1.107 4.058l-7.382-1.853s1.854 12.173-5.903 10.7c0 0 5.167 4.794 10.333 5.535s4.796-1.107 4.796-1.107l7.747-9.222z" fill="#d6dbe6"/><path d="m328.65 239.5 7.488-1.644-1.001-3.451-4.633-1.853-6.024 2.779z" fill="#d6dbe6"/><path d="m144.619 106.378 9.966-7.6842s-6.677 1.4312-6.487-9.236c-.002-.0355-.002-.0711 0-.1066 0-.9634.093-2.0195.232-3.1821 1.71-14.234-11.959-1.7092-11.959-1.7092.118 1.2602.118 2.5287 0 3.7889v.1019c-.271 3.5077-1.238 6.9263-2.845 10.0559-3.712 7.1144 11.093 7.9714 11.093 7.9714z" fill="#fdc2cc"/><path d="m137.645 86.271c1.691 1.6443 2.725 4.6319 5.268 4.6319 1.841.004 3.642-.5358 5.176-1.5517 0-.9634.093-2.0195.232-3.1821 1.71-14.234-11.959-1.7092-11.959-1.7092s1.464-.5049 1.283 1.8111z" fill="#000" opacity=".1"/><path d="m142.914 90.4395c5.189 0 9.396-4.2057 9.396-9.3936s-4.207-9.3936-9.396-9.3936c-5.19 0-9.397 4.2057-9.397 9.3936s4.207 9.3936 9.397 9.3936z" fill="#fdc2cc"/><path d="m151.926 69.017c-.539-.6809-1.162-1.2909-1.854-1.8157-1.084-.9032-2.289-1.8528-3.637-1.7694-.763.1015-1.496.3635-2.15.7689-3.359 1.7694-6.144.0973-10.05 5.3591-.834 1.1256-2.507 1.3896-3.369 2.5707-.862 1.1812-1.209 2.7329-1.455 4.2429-.203 1.0214-.251 2.0676-.143 3.1034.103 1.0166.602 1.9519 1.39 2.6031.899.6531 2.136.6578 2.891 1.5147.38.5581.691 1.16.927 1.7925.306.6022.843 1.1719 1.455 1.0839.611-.088.977-.7504 1.065-1.3896.039-.6615 0-1.3253-.115-1.9778-.116-1.1719.032-2.4503.722-3.335.464-.6068 1.159-.9681 1.618-1.5841 1.102-1.4869.602-3.9835 1.811-5.3638.354-.363.798-.6259 1.286-.7617.488-.1359 1.004-.14 1.494-.0118.974.2779 1.909.6795 2.781 1.195 1.216.6139 2.49 1.1057 3.804 1.4683 1.103.3011 2.381 1.0237 2.757-.4632.588-2.1862.037-5.4842-1.228-7.2304z" fill="#000" opacity=".1"/><path d="m151.926 68.5539c-.539-.6809-1.162-1.291-1.854-1.8158-1.084-.9032-2.289-1.8527-3.637-1.7694-.763.1015-1.496.3636-2.15.7689-3.359 1.7694-6.144.0973-10.05 5.3592-.834 1.1256-2.507 1.3896-3.369 2.5707-.862 1.1812-1.209 2.7329-1.455 4.2429-.203 1.0214-.251 2.0675-.143 3.1034.103 1.0166.602 1.9518 1.39 2.6031.899.6531 2.136.6577 2.891 1.5146.38.5582.691 1.1601.927 1.7926.306.6022.843 1.1719 1.455 1.0839.611-.088.977-.7504 1.065-1.3896.039-.6615 0-1.3253-.115-1.9778-.116-1.1719.032-2.4503.722-3.335.464-.6068 1.159-.9681 1.618-1.5842 1.102-1.4868.602-3.9834 1.811-5.3637.354-.3631.798-.6259 1.286-.7618s1.004-.1399 1.494-.0118c.974.278 1.909.6796 2.781 1.1951 1.216.6138 2.49 1.1057 3.804 1.4683 1.103.3011 2.381 1.0237 2.757-.4632.588-2.1863.037-5.4842-1.228-7.2304z" fill="#865a61"/><path d="m133.517 111.32-.186 7.11c2.693.732 5.471 1.101 8.262 1.098.463 0 .95 0 1.422-.032 2.475-.107 4.928-.508 7.308-1.195h.046c.44-.13.876-.264 1.307-.412h.046l.394-.139c1.5-.528 2.956-1.173 4.355-1.927l.088-.047c.153-.083.306-.166.464-.254l-.718-9.584 1.144-6.5726-6.265-4.266c-.351.5076-.745.9849-1.176 1.4266-.619.6457-1.343 1.1814-2.141 1.5842-4.495 2.2138-9.61-1.3063-12.154-3.4833l-.579-.5141c-.658-.5975-1.034-1.0051-1.034-1.0051l-3.132 4.8357z" fill="#000" opacity=".1"/><path d="m133.517 111.784-.186 7.11c2.693.731 5.471 1.1 8.262 1.097.463 0 .95 0 1.422-.032 2.475-.107 4.928-.508 7.308-1.195h.046c.44-.13.876-.264 1.307-.412h.046l.394-.139c1.5-.528 2.956-1.173 4.355-1.927l.088-.047c.153-.083.306-.166.464-.254l-.718-9.584 1.144-6.5725-6.265-4.266c-.351.5077-.745.9849-1.176 1.4267-.619.6457-1.343 1.1813-2.141 1.5841-4.495 2.2137-9.61-1.3062-12.154-3.4832l-.579-.5142c-.658-.5975-1.034-1.0051-1.034-1.0051l-3.132 4.8357z" fill="#53526b"/><path d="m150.883 112.353s.343 2.729.793 5.989h.046l.394-.138c1.5-.528 2.956-1.173 4.355-1.927l.088-.047c.153-.083.306-.166.464-.254 2.054-1.153 3.972-2.533 5.718-4.114l.152-.143c.958-.867 1.857-1.795 2.693-2.779l.097-.116c-1.654-5.739-5.097-7.546-5.097-7.546s-3.132-1.4262-3.99-3.4179c-.857-1.9917-8.423-6.2021-8.423-6.2021v.0324c0 .3566-.121 3.6221-.302 6.9062-.115 2.1354-.259 4.2794-.426 5.6414-.036.443-.117.88-.241 1.306-.588 1.404 3.679 6.809 3.679 6.809z" fill="#555388"/></svg>