<svg fill="none" height="364" viewBox="0 0 490 364" width="490" xmlns="http://www.w3.org/2000/svg" xmlns:xlink="http://www.w3.org/1999/xlink"><linearGradient id="a"><stop offset="0" stop-color="#808080" stop-opacity=".25"/><stop offset=".54" stop-color="#808080" stop-opacity=".12"/><stop offset="1" stop-color="#808080" stop-opacity=".1"/></linearGradient><linearGradient id="b" gradientUnits="userSpaceOnUse" x1="246.402" x2="246.402" xlink:href="#a" y1="351.802" y2="10.5625"/><linearGradient id="c" gradientUnits="userSpaceOnUse" x1="82616.8" x2="82616.8" xlink:href="#a" y1="117247" y2="35286.2"/><clipPath id="d"><path d="m0 0h490v364h-490z"/></clipPath><g clip-path="url(#d)"><path d="m49.286 36.4477c-3.0497 1.2631-6.1796 2.8845-7.8555 5.7266-1.7751 3.0023-1.5627 6.7305-1.2322 10.2042 2.8797 30.1271 10.4662 62.1675-2.6343 89.4575-6.359 13.24-16.9952 23.849-25.455 35.873-8.45983 12.023-14.84719 27.035-10.91941 41.179 4.79642 17.284 22.69801 26.866 34.76461 40.167 7.8981 8.696 13.4357 19.263 20.805 28.411 7.3693 9.149 17.4673 17.208 29.2317 17.746 16.9201.777 30.6861-13.81 47.2751-17.19 16.995-3.459 34.108 5.345 47.889 15.884 13.78 10.539 26.314 23.307 42.37 29.887 17.731 7.272 37.72 6.16 56.386 10.529 16.995 3.983 32.64 12.453 49.513 16.968 16.872 4.515 36.648 4.242 49.72-7.291 17.038-15.083 15.697-41.948 26.579-61.9 10.107-18.537 29.892-29.604 43.21-45.992 23.963-29.495 23.179-74.577 2.832-106.656-20.347-32.078-57.203-51.5016-94.889-56.5589-16.996-2.2765-34.496-1.9654-50.835-7.1453-43.734-13.857-69.761-63.5064-114.411-73.83785-28.382-6.55613-55.985 4.7981-80.16 18.77285-20.9848 12.132-40.3452 6.7212-62.184 15.7659z" fill="#eb4626" opacity=".1"/><path d="m91.9063 133.776s-16.1124 15.182-33.405 15.634c-7.2616.145-14.2804 2.637-20.0024 7.103-2.7047 2.135-5.2078 4.512-7.4779 7.103" stroke="#535461" stroke-miterlimit="10" stroke-width="2"/><g fill="#ff3000"><path d="m20.1157 163.988c2.3227-1.178 11.1885-.396 11.1885-.396s-4.5982 7.612-6.9208 8.791c-.5563.329-1.1744.54-1.8159.621-.6416.081-1.293.03-1.9138-.151-.6207-.181-1.1977-.487-1.695-.9-.4974-.413-.9045-.923-1.1961-1.499-.2917-.576-.4617-1.206-.4994-1.851-.0378-.644.0575-1.29.2799-1.896s.5672-1.16 1.013-1.628.983-.839 1.5785-1.091z"/><path d="m29.4488 150.532c2.5918.273 9.607 5.741 9.607 5.741s-8.0255 3.893-10.5936 3.624c-1.2016-.181-2.2868-.818-3.03-1.778-.7431-.96-1.0869-2.169-.9598-3.375.1272-1.207.7154-2.318 1.6423-3.102.9269-.785 2.1211-1.182 3.3341-1.11z"/><path d="m51.5804 139.687c2.0961 1.541 5.3913 9.799 5.3913 9.799s-8.88-.674-10.9761-2.211c-.9447-.762-1.5589-1.858-1.7149-3.061-.156-1.202.1583-2.419.8775-3.396.7191-.977 1.7879-1.64 2.984-1.851 1.1961-.21 2.4275.047 3.4382.72z"/><path d="m70.176 135.252c2.3274 1.164 6.9727 8.747 6.9727 8.747s-8.8658.835-11.1932-.33c-.5872-.256-1.1161-.628-1.5544-1.095-.4384-.467-.7769-1.017-.9951-1.619-.2183-.601-.3115-1.241-.2742-1.88.0373-.638.2045-1.263.4913-1.835s.6873-1.08 1.177-1.492c.4897-.413 1.0585-.721 1.6715-.908.6131-.186 1.2577-.245 1.8946-.174.6368.07 1.2526.27 1.8098.586z"/><path d="m43.9892 164.856c.7743-2.484-1.4918-11.081-1.4918-11.081s-6.7414 5.806-7.5156 8.29c-.2182.6-.3122 1.237-.2764 1.874.0359.637.2008 1.26.4848 1.831.2841.572.6813 1.079 1.1677 1.493s1.0518.724 1.662.913 1.2525.253 1.8879.187c.6355-.066 1.2509-.261 1.809-.571s1.0472-.731 1.4378-1.236c.3907-.504.6746-1.083.8346-1.7z"/><path d="m65.6723 159.374c0-2.602-4.7445-10.124-4.7445-10.124s-4.6925 7.541-4.6878 10.152c.0037 1.25.5047 2.448 1.3927 3.329s2.0903 1.374 3.3423 1.37c1.2521-.003 2.4514-.503 3.3341-1.39.8826-.887 1.3764-2.087 1.3727-3.337z"/><path d="m86.0147 151.192c.4343-2.564-2.9647-10.779-2.9647-10.779s-5.9059 6.655-6.3355 9.219c-.145 1.203.1794 2.415.9061 3.385.7267.971 1.7997 1.625 2.9964 1.826s2.4251-.065 3.4302-.744 1.7097-1.719 1.9675-2.902z"/></g><path d="m112.843 93.5723s-19.4072-10.6426-25.1761-26.9457c-2.3701-6.8556-6.9041-12.7583-12.9211-16.8216-2.8713-1.9075-5.9117-3.5483-9.083-4.9018" stroke="#535461" stroke-miterlimit="10" stroke-width="2"/><path d="m61.9806 34.6518c1.8364 1.8429 3.8145 10.5106 3.8145 10.5106s-8.6676-2.0267-10.504-3.8743c-.811-.8991-1.2445-2.0752-1.2109-3.2847s.5319-2.3598 1.3915-3.2126c.8597-.8529 2.015-1.343 3.2266-1.3688 1.2117-.0259 2.3869.4145 3.2823 1.2298z" fill="#ff3000"/><path d="m77.6775 39.3792c.5382 2.5452-2.5162 10.8924-2.5162 10.8924s-6.1702-6.4054-6.7084-8.9552c-.1598-.6167-.1927-1.2593-.0967-1.889.0959-.6297.3187-1.2335.6549-1.7748.3362-.5414.7788-1.0091 1.3011-1.3749s1.1134-.6221 1.7377-.7534c.6243-.1314 1.2687-.135 1.8944-.0108.6258.1243 1.2198.3739 1.7462.7337.5264.3599.9743.8225 1.3166 1.36.3424.5375.572 1.1387.6751 1.7673z" fill="#ff3000"/><path d="m94.8144 57.0963c-.8214 2.4651-7.6809 8.1351-7.6809 8.1351s-2.0866-8.6394-1.2652-11.1091c.395-1.1876 1.2464-2.1698 2.3668-2.7306 1.1204-.5609 2.418-.6544 3.6075-.26 1.1894.3944 2.1732 1.2444 2.735 2.363.5617 1.1185.6554 2.4141.2604 3.6016z" fill="#ff3000"/><path d="m104.766 73.3807c-.392 2.5687-6.1939 9.3133-6.1939 9.3133s-3.5218-8.1633-3.1299-10.732c.0653-.6349.259-1.2498.5694-1.8077.3105-.5579.7311-1.0469 1.2366-1.4376.5054-.3907 1.085-.6749 1.7037-.8353.6186-.1604 1.2631-.1937 1.8951-.0978.632.0958 1.238.3188 1.781.6553.543.3366 1.012.7798 1.379 1.3027.366.5229.622 1.1147.753 1.7394.13.6247.132 1.2694.006 1.8949z" fill="#ff3000"/><path d="m68.4907 57.6007c2.6059-.0283 10.1027-4.8264 10.1027-4.8264s-7.6053-4.619-10.2113-4.5907c-1.252.0144-2.4471.5247-3.3223 1.4188-.8751.8941-1.3587 2.0986-1.3443 3.3487.0144 1.25.5256 2.4431 1.4211 3.3169.8956.8737 2.102 1.3565 3.3541 1.3421z" fill="#ff3000"/><path d="m80.3684 76.5197c2.4737-.806 8.1907-7.6213 8.1907-7.6213s-8.6439-2.1351-11.1177-1.3292c-.6104.174-1.1794.469-1.6731.8676-.4936.3985-.9016.8924-1.1996 1.452s-.48 1.1735-.5349 1.8049.0183 1.2674.2152 1.87c.1969.6025.5136 1.1592.931 1.6367.4174.4776.9269.8662 1.4982 1.1426s1.1925.4349 1.8266.4661c.634.0312 1.2679-.0657 1.8636-.2847z" fill="#ff3000"/><path d="m94.4367 93.3272c2.5776-.3771 9.3663-6.1273 9.3663-6.1273s-8.1578-3.5632-10.7307-3.1861c-.6336.0652-1.2475.2578-1.8047.5661-.5571.3083-1.046.726-1.4372 1.228-.3912.5019-.6766 1.0777-.839 1.6927s-.1984 1.2564-.106 1.8857c.0925.6292.3115 1.2333.644 1.7758s.7715 1.0122 1.2906 1.3808c.519.3687 1.1075.6286 1.7299.7642.6223.1356 1.2658.144 1.8915.0248z" fill="#ff3000"/><path d="m246.402 351.802c94.384 0 170.896-76.389 170.896-170.62 0-94.2304-76.512-170.6195-170.896-170.6195-94.383 0-170.896 76.3891-170.896 170.6195 0 94.231 76.513 170.62 170.896 170.62z" fill="url(#b)"/><path d="m246.402 348.974c92.819 0 168.064-75.123 168.064-167.792 0-92.6686-75.245-167.7916-168.064-167.7916s-168.0635 75.123-168.0635 167.7916c0 92.669 75.2445 167.792 168.0635 167.792z" fill="#ff3000"/><path d="m246.402 314.567c73.786 0 133.601-59.718 133.601-133.385 0-73.666-59.815-133.3849-133.601-133.3849s-133.601 59.7189-133.601 133.3849c0 73.667 59.815 133.385 133.601 133.385z" fill="#dde1ec"/><path d="m250.179 71.3634h-7.554v117.8316h7.554z" fill="#535461" opacity=".3"/><g fill="#000" opacity=".1"><path d="m361.12 178.354h-106.692v9.427h106.692z" opacity=".1"/><path d="m179.102 143.087-4.38 8.351 67.131 35.098 4.381-8.351z" opacity=".1"/><path d="m246.402 197.207c7.822 0 14.163-6.33 14.163-14.14 0-7.809-6.341-14.139-14.163-14.139s-14.162 6.33-14.162 14.139c0 7.81 6.34 14.14 14.162 14.14z" opacity=".1"/></g><path d="m361.12 176.469h-106.692v9.426h106.692z" fill="#535461"/><path d="m246.265 176.311-67.132-35.098-4.38 8.35 67.132 35.099z" fill="#535461"/><path d="m246.402 195.322c7.822 0 14.163-6.331 14.163-14.14s-6.341-14.14-14.163-14.14-14.162 6.331-14.162 14.14 6.34 14.14 14.162 14.14z" fill="#535461"/><path d="m123.177 197.207c0-73.668 59.814-133.3848 133.602-133.3848 20.71-.0183 41.14 4.7781 59.672 14.0093 18.531 9.2313 34.656 22.6435 47.095 39.1755-22.735-41.2509-66.64-69.2099-117.153-69.2099-73.788 0-133.601 59.7169-133.601 133.3849-.044 28.94 9.384 57.102 26.847 80.201-10.83-19.66-16.493-41.739-16.462-64.176z" fill="#000" opacity=".01"/><path d="m369.844 83.0617c-1.586-1.5224-14.937 8.4839-14.937 8.4839s-4.754.8672-3.621 4.1241c1.133 3.2568-4.981 21.4973-4.981 21.4973l-2.487-3.474c.24-4.077-.883-6.966-1.978-8.767-.09-.146-.18-.287-.27-.419l.435-.151c-.165-2.224-3.73-5.6133-5.623-7.2724 0-.2403 0-.4713 0-.7164.118-2.6583 1.185-5.4626 0-7.8711-1.341-2.7478-5.264-4.1288-5.594-7.1453-.198-1.8005 1.02-3.4266 1.558-5.161 1.284-4.1477-1.383-8.3802-3.933-11.9528-.863-1.3395-1.914-2.5489-3.12-3.5915-1.149-.8388-2.411-1.5115-3.749-1.9985-3.734-1.5082-7.553-2.267-11.405-3.2992-3.697-.9804-7.105-1.447-10.858-.2169-.891.2398-1.704.7058-2.361 1.3527-.892.9993-1.01 2.4227-1.595 3.6151-.945 1.9183-2.979 3.0636-4.778 4.2938s-3.602 2.9175-3.611 5.0385c0 3.0117 3.446 4.9065 4.598 7.7108 1.076 2.6112 0 5.5193-.6 8.2718-.25.8896-.275 1.8276-.071 2.729.238.6718.596 1.2947 1.058 1.8382.713.9426 1.477 1.8193 2.238 2.7148l-.35.1367c-6.335-.6504-10.409 7.3807-10.409 7.3807.292.062.571.132.845.212l-.269.349c-1.915 2.482-3.479 5.215-4.65 8.121l-5.193 6.947s-1.133-17.3727 1.586-21.28c2.719-3.9072-2.488-6.2969-2.488-6.2969s-11.33-12.5938-12.902-11.5097c-1.572 1.084 3.847 14.7666 8.601 16.9394 0 0 .472 4.3409-.472 7.1642-.571 1.786-3.621 20.63-3.621 20.63s-2.714 15.851 9.735 8.012c8.086-5.08 13.312-13.828 15.975-19.324.186-.386.36-.756.524-1.108.123.583.207 1.174.25 1.768l.472 18.16c.12 4.492-.862 8.945-2.86 12.971l-5.548 11.232.619.188-.373.537c-3.654 5.369-9.867 17.44 2.922 23.59l16.995 2.173-.906 4.341s-7.015 13.244-9.055 22.364c-1.266 5.585-3.245 10.985-5.887 16.068l.524.278c-.108.123-.222.25-.33.382-1.031 1.157-1.712 2.582-1.964 4.11l-2.304 3.261s-.906 13.461.907 16.723c.991 1.782 4.281 2.913 7.081 3.573 4.154.985 7.506-3.3 5.302-6.83l-.029-.047h-.042c-.472-2.192-1.917-8.993-1.445-11.576.132-.735.255-1.466.316-2.21.114-.979.412-1.927.879-2.795.075-.146.155-.288.236-.429l.245.104c.76.325 1.511.631 2.224.9-1.105 1.004-1.889 3.082-.945 7.357 0 0 .09 10.695.907 12.377.817 1.683 9.956 3.907 11.542 2.173 1.587-1.735-1.019-7.711-1.019-7.711l-.081.057c-.524-3.465-1.17-9.667.421-12.109.642-.985 1.265-2.003 1.822-2.955l.344-.589c2.956 1.47 6.081 2.578 7.79 1.81 0 0 7.468-17.373 7.015-19.541s11.543-26.71 11.543-26.71 10.183-11.312-2.262-19.108c-3.951-2.484-6.831-4.152-8.922-5.279l-1.751-9.143c-.901-4.794-.74-9.726.472-14.451l1.888-7.193.156-.612s4.754-9.771 4.527-14.333c-.017-.355.022-.71.118-1.052.052.217.109.444.17.679 1.249 4.742 2.895 9.371 4.919 13.838 3.612 8.135 8.97 7.49 11.906 6.335.629-.243 1.187-.638 1.625-1.15.437-.512.74-1.124.882-1.782 1.058-5.062 3.961-19.244 4.145-23.161.165-3.062.543-6.1098 1.133-9.1198 7.45-4.3503 13.785-11.9481 12.199-13.4705z" fill="url(#c)"/><path d="m314.425 222.207s-.996 1.993-2.36 4.388c-.534.942-1.128 1.956-1.737 2.931-2.158 3.446 0 14.423 0 14.423l-4.721.646-4.721-2.357-.864-7.966v-5.825l5.382-6.009 2.36-2.602z" fill="#f8bdc5"/><path d="m314.425 222.207s-.996 1.993-2.36 4.388c-2.084-1.112-4.099-2.35-6.033-3.705l-.416-.292-.222-.161 2.361-2.601z" fill="#000" opacity=".01"/><path d="m337.506 181.946s-11.43 24.325-10.995 26.479c.434 2.154-6.685 19.376-6.685 19.376-1.624.764-4.608-.335-7.421-1.791-2.122-1.129-4.172-2.388-6.137-3.771l-.416-.292-.25-.179 18.761-51.883-16.599-12.156-1.227-.9-7.422-5.468 22.661 4.092s.788-.099 4.957 2.229c2.001 1.117 4.782 2.79 8.625 5.307 11.844 7.763 2.148 18.957 2.148 18.957z" fill="#5e52ad"/><path d="m337.506 181.946s-11.43 24.325-10.995 26.479c.434 2.154-6.685 19.376-6.685 19.376-1.624.764-4.608-.335-7.421-1.791-2.122-1.129-4.172-2.388-6.137-3.771l-.416-.292-.25-.179 18.761-51.883-16.599-12.156-1.227-.9-7.422-5.468 22.661 4.092s.788-.099 4.957 2.229c2.001 1.117 4.782 2.79 8.625 5.307 11.844 7.763 2.148 18.957 2.148 18.957z" fill="#000" opacity=".0009"/><path d="m302.784 226.51s-5.609-.863-3.664 8.182c0 0 .085 10.605.864 12.254.779 1.65 9.489 3.875 10.995 2.154 1.506-1.72-.972-7.64-.972-7.64s-6.359 4.628-8.087-.325c-1.728-4.954.864-14.625.864-14.625z" fill="#5d3e53"/><path d="m298.898 224.789c-.612.582-1.109 1.272-1.468 2.036-.445.866-.729 1.805-.835 2.772-.057.735-.175 1.466-.298 2.191-.538 3.069 1.525 12.161 1.525 12.161l-8.195 1.291-3.017-3.229-.647-7.102c.805-2.436 1.241-4.978 1.294-7.542 0-1.852.944-3.506 1.888-4.713.64-.805 1.374-1.531 2.186-2.163 0 0 9.295 2.79 7.567 4.298z" fill="#f8bdc5"/><path d="m298.898 224.789c-.612.582-1.109 1.273-1.468 2.036-3.356-1.512-6.883-3.421-8.167-4.128l-.099-.052c.64-.805 1.374-1.532 2.186-2.164 0 0 9.276 2.8 7.548 4.308z" fill="#000" opacity=".01"/><path d="m325.425 175.489s-5.387 10.119-8.842 18.513c-2.266 5.515-6.949 18.646-9.914 27.007l-.434 1.235c-1.303 3.7-2.172 6.203-2.172 6.203-.574.004-1.146-.081-1.695-.25-.51-.137-1.081-.321-1.69-.547l-.684-.259c-.68-.264-1.417-.57-2.12-.891-3.427-1.527-7.081-3.516-8.408-4.242l-.5-.278c2.53-5.061 4.419-10.417 5.622-15.945 1.94-9.04 8.625-22.152 8.625-22.152l.864-4.308-16.174-2.154c-12.184-6.08-6.264-18.066-2.785-23.387.593-.924 1.235-1.816 1.921-2.673l12.94 2.828s2.04.651 6.572 2.654l2.082.943c2.54 1.164 5.665 2.663 9.442 4.586 12.737 6.428 7.35 13.117 7.35 13.117z" fill="#5e52ad"/><path d="m297.742 243.303c.461.776.682 1.671.635 2.573-.047.901-.361 1.768-.901 2.492s-1.283 1.272-2.135 1.575c-.851.303-1.774.348-2.651.128-2.648-.655-5.787-1.777-6.732-3.544-1.723-3.229-.864-16.577-.864-16.577l2.267-3.337s-1.185 14.748 1.619 16.025c2.804 1.278 8.733.599 8.733.599z" fill="#5d3e53"/><path d="m300.036 56.0877c-.861.2393-1.643.7029-2.266 1.3433-.85.9898-.944 2.4038-1.52 3.5868-.897 1.8853-2.833 3.04-4.551 4.2419s-3.432 2.894-3.441 4.9961c0 2.9882 3.304 4.8641 4.381 7.6402 1.024 2.5923 0 5.4721-.572 8.201-.238.8836-.261 1.8113-.066 2.7054.225.6633.568 1.281 1.011 1.8241 2.081 2.8279 4.668 5.3354 6.061 8.5545 1.058 2.446 1.35 5.147 1.629 7.8.401 3.818.802 7.707.075 11.477-.07.226-.07.468 0 .693.124.216.319.383.553.471 1.373.667 2.868 1.049 4.393 1.124 1.526.075 3.051-.159 4.484-.687 1.432-.528 2.743-1.34 3.854-2.387 1.11-1.047 1.997-2.308 2.607-3.705.944-2.136 1.308-4.714 3.177-6.099.218-.181.481-.299.76-.345.441.013.868.155 1.228.411 2.426 1.31 5.367 1.348 8.072.81 1.634-.325 3.305-.905 4.386-2.177 2.129-2.527.944-6.302 1.086-9.5965.113-2.6347 1.128-5.4155 0-7.8004-1.275-2.7243-5.019-4.0911-5.33-7.0699-.189-1.7816.972-3.3983 1.487-5.1139 1.223-4.1147-1.317-8.3095-3.744-11.8491-.816-1.3204-1.816-2.5185-2.969-3.5585-1.088-.8275-2.29-1.4942-3.569-1.9796-3.555-1.4941-7.181-2.2482-10.858-3.2663-3.522-1.0039-6.765-1.4705-10.358-.2451z" fill="#85555c"/><path d="m318.093 117.577h-12.51v-20.2388c.372-1.9438.59-3.9137.652-5.8916 0-.6646 0-1.3433 0-2.0267-.118-2.4132-.619-4.8217-1.931-6.2922-3.451-3.8743 11.212-3.2286 11.212-3.2286.45 1.7791 1.034 3.5216 1.747 5.2129 1.062 2.6389 2.475 5.1231 4.201 7.3856 1.519 2.0133 3.465 3.6663 5.698 4.8406 8.611 4.3078-9.069 20.2388-9.069 20.2388z" fill="#f8bdc5"/><path d="m317.249 85.112c-1.271 1.6535-2.969 2.9289-4.913 3.6881-1.944.7593-4.059.9736-6.115.6198-.119-2.4132-.619-4.8217-1.931-6.2922-3.451-3.8743 11.212-3.2286 11.212-3.2286.45 1.7791 1.034 3.5216 1.747 5.2129z" fill="#000" opacity=".01"/><path d="m308.17 88.9485c6.312 0 11.43-5.1088 11.43-11.4108s-5.118-11.4107-11.43-11.4107-11.429 5.1087-11.429 11.4107 5.117 11.4108 11.429 11.4108z" fill="#f8bdc5"/><path d="m355.61 97.1261c-.561 2.9859-.92 6.0059-1.076 9.0399-.175 3.879-2.941 17.943-3.951 22.963-.128.644-.412 1.246-.829 1.753-.417.508-.953.904-1.56 1.155-2.804 1.145-7.903 1.786-11.33-6.278-1.933-4.437-3.5-9.024-4.688-13.715-.42-1.577-.736-3.18-.944-4.799l7.553-4.091c.711.664 1.313 1.436 1.785 2.286 1.043 1.787 2.115 4.652 1.888 8.692l2.361 3.445s5.82-18.0849 4.72-21.3134c-1.1-3.2286 3.451-4.0911 3.451-4.0911s12.723-9.8979 14.234-8.3944c1.511 1.5036-4.499 9.0401-11.614 13.348z" fill="#f8bdc5"/><path d="m293.724 105.737c-.589 1.684-1.267 3.336-2.03 4.949-2.54 5.453-7.515 14.14-15.22 19.164-11.859 7.749-9.272-7.965-9.272-7.965s2.904-18.684 3.451-20.451c.864-2.7997.43-7.1029.43-7.1029-4.527-2.1539-9.702-15.714-8.196-16.7933s12.275 11.4108 12.275 11.4108 4.961 2.3566 2.36 6.2451c-2.601 3.8884-1.51 21.0963-1.51 21.0963l4.99-6.876c1.11-2.87 2.601-5.577 4.432-8.051.945-1.286 1.606-2.0641 1.606-2.0641z" fill="#f8bdc5"/><path d="m340.574 105.44c-1.586.585-7.728 3.059-8.408 6.599-.42-1.577-.735-3.18-.944-4.798l7.554-4.091c.716.664 1.323 1.437 1.798 2.29z" fill="#000" opacity=".01"/><path d="m293.724 105.737c-.589 1.684-1.267 3.336-2.03 4.949-.292-2.13-1.496-7.579-6.26-9.337.945-1.287 1.606-2.0642 1.606-2.0642z" fill="#000" opacity=".01"/><path d="m318.093 117.577h-12.51v-20.2389c.372-1.9437.59-3.9137.652-5.8916 2.572 2.4792 1.935 6.3205 1.935 6.3205l6.685 15.082 3.238-13.3334-1.076-1.7203 4.438-5.2694c1.518 2.0132 3.464 3.6662 5.698 4.8405 8.62 4.2796-9.06 20.2106-9.06 20.2106z" fill="#000" opacity=".01"/><path d="m326.931 158.903s-9.8-.778-18.303-1.146l-.854-.037c-1.209-.048-2.361-.085-3.489-.113-8.252-.198-17.585-3.078-19.171-3.583.595-.92 1.238-1.809 1.926-2.663l12.94 2.828s2.039.651 6.571 2.654l-7.435-5.482 22.66 4.092s.788-.099 4.957 2.229z" fill="#000" opacity=".01"/><path d="m318.094 100.355-1.077-1.7207 4.787-5.7172s9.872 4.8311 12.459 3.7706c0 0 6.255 5.1843 6.467 8.1823 0 0-9.054 3.012-8.842 7.541.212 4.53-4.296 14.206-4.296 14.206l-1.888 7.739c-1.162 4.69-1.323 9.572-.472 14.328l1.723 9.582s-13.587-1.074-22.661-1.291c-9.073-.217-19.407-3.658-19.407-3.658l5.292-11.118c1.908-4.013 2.843-8.417 2.729-12.858l-.472-18s-.43-9.04-7.554-10.548c0 0 3.881-7.9655 9.914-7.3197 0 0 8.79-3.6622 11.401-1.1878 2.611 2.4745 1.968 6.3535 1.968 6.3535l6.685 15.082z" fill="#ed677b"/><path d="m299.923 75.1859c1.732 0 3.092-1.8335 4.825-1.7392.897.0471 1.666.6174 2.407 1.1312 2.801 1.9363 5.918 3.3716 9.211 4.2419 1.279.3394 2.634.5939 3.918.2828s2.488-1.3197 2.634-2.6347c.036-.5796-.041-1.1606-.226-1.7109-1.454-5.0562-4.743-9.3901-9.225-12.1555-1.794-1.0982-3.984-1.9371-5.972-1.249-1.794.6174-2.95 2.2954-4.249 3.6763-.978 1.0341-2.089 1.9343-3.304 2.6772-.944.5703-2.361.9426-2.904 1.989-1.024 1.9512.586 5.4721 2.885 5.4909z" fill="#000" opacity=".01"/><path d="m299.923 74.7569c1.732 0 3.092-1.8334 4.825-1.7391.897.0471 1.666.6174 2.407 1.1311 2.801 1.9363 5.918 3.3717 9.211 4.242 1.279.3393 2.634.5938 3.918.2828 1.284-.3111 2.488-1.3197 2.634-2.6347.036-.5796-.041-1.1606-.226-1.711-1.454-5.0562-4.743-9.39-9.225-12.1554-1.794-1.0982-3.984-1.9372-5.972-1.2491-1.794.6175-2.95 2.2954-4.249 3.6764-.978 1.034-2.089 1.9342-3.304 2.6771-.944.5703-2.361.9427-2.904 1.989-1.024 1.9701.586 5.4674 2.885 5.4909z" fill="#85555c"/><path d="m294.697 123.926s10.565 3.874 17.467.862l3.451.217s5.736 4.016 11.802 2.22" fill="#000" opacity=".05"/><path d="m344.724 117.469s-1.723 4.091-.864 5.382z" fill="#000" opacity=".05"/><path d="m275.936 116.177s.864 4.091 0 5.383z" fill="#000" opacity=".05"/><path d="m454.773 209.401s-19.753 19.72-8.602 48.98-19.11 77.919-19.11 77.919.326-.047.944-.151c40.567-7.15 60.72-53.467 38.164-87.878-8.408-12.797-15.291-27.804-11.396-38.87z" fill="#ff3000"/><path d="m454.773 209.73s-19.753 19.721-8.602 48.981-19.11 77.914-19.11 77.914.326-.047.944-.15c40.567-7.15 60.72-53.468 38.164-87.879-8.408-12.792-15.291-27.799-11.396-38.866z" fill="#000" opacity=".1"/><path d="m454.773 209.401s-11.151 24.169 0 43.889c11.151 19.721 1.888 75.059-27.717 83.01" stroke="#535461" stroke-miterlimit="10"/><path d="m489.953 289.158s-22.538-3.582-24.591 16.582c-2.054 20.163-43.352 22.958-43.352 22.958l.774.514c34.085 22.34 66.673 14.229 61.759-15.436-1.813-11.025-1.662-22.101 5.41-24.618z" fill="#ff3000"/><path d="m489.953 289.158s-17.496 3.832-16.051 19.716c1.444 15.883-25.965 34.92-51.873 19.828" stroke="#535461" stroke-miterlimit="10"/><path d="m470.125 329.433s-17.751-3.544-22.486-8.272c-4.735-4.727-26.035-12.994-28.4-7.07-2.366 5.925-31.951 25.994-11.836 29.538 20.116 3.545 47.337 4.714 53.252 2.357s9.47-16.553 9.47-16.553z" fill="#a8a8a8"/><path d="m407.403 341.419c20.121 3.544 47.337 4.713 53.252 2.357 4.508-1.801 7.638-10.445 8.875-14.47l.59.122s-3.55 14.178-9.465 16.539c-5.915 2.362-33.136 1.183-53.252-2.356-5.806-1.023-7.468-3.427-6.84-6.467.491 1.984 2.516 3.511 6.84 4.275z" fill="#000" opacity=".2"/></g></svg>