<svg fill="none" height="315" viewBox="0 0 515 315" width="515" xmlns="http://www.w3.org/2000/svg" xmlns:xlink="http://www.w3.org/1999/xlink"><linearGradient id="a" gradientUnits="userSpaceOnUse" x1="260.489" x2="260.489" y1="144.562" y2="68.5005"><stop offset="0" stop-color="#808080" stop-opacity=".25"/><stop offset=".54" stop-color="#808080" stop-opacity=".12"/><stop offset="1" stop-color="#808080" stop-opacity=".1"/></linearGradient><path d="m311.269 106.332c-2.786-.529-5.666-.214-8.272.902-1.573.697-3.275 1.054-4.995 1.046-1.72-.007-3.419-.379-4.985-1.09-1.847-.809-3.848-1.208-5.865-1.169s-4.001.515-5.816 1.396c-1.036.55-2.191.84-3.364.843-4.736 0-8.677-4.769-9.496-11.0629.945-.6925 1.749-1.5598 2.368-2.555 2.777-4.4736 7.078-7.3442 11.908-7.3442 4.829 0 9.076 2.836 11.839 7.2653.831 1.3397 1.995 2.4416 3.378 3.1987s2.938 1.1436 4.515 1.122h.123c3.784.0198 7.049 3.0431 8.662 7.4481z" fill="#eb4626" opacity=".1"/><path d="m325.673 86.5777-7.656 4.8584 4.647-8.454c-1.318-1.0491-2.947-1.6304-4.632-1.6524h-.123c-.532.0094-1.064-.0285-1.589-.1134l-2.584 1.6424 1.114-2.0222c-1.839-.6421-3.428-1.8509-4.538-3.4527l-4.647 2.9594 2.96-5.3318c-2.718-3.2603-6.378-5.2629-10.404-5.2629-4.829 0-9.13 2.8756-11.908 7.3492-.821 1.3433-1.985 2.4441-3.372 3.1895-1.387.7453-2.947 1.1086-4.52 1.0524h-.262c-5.332 0-9.654 6.047-9.654 13.4998 0 7.4526 4.322 13.4996 9.654 13.4996 1.173-.003 2.327-.291 3.364-.838 1.814-.883 3.799-1.361 5.816-1.401 2.016-.04 4.018.359 5.866 1.169 1.561.701 3.253 1.066 4.965 1.07 1.711.005 3.405-.352 4.97-1.045 1.834-.795 3.817-1.186 5.815-1.148s3.965.505 5.767 1.37c1.026.537 2.167.819 3.325.823 5.332 0 9.654-6.042 9.654-13.4996.029-2.8804-.668-5.7218-2.028-8.2617z" fill="#566397" opacity=".1"/><path d="m246.879 138.19c.301-.045.602-.104.898-.178-.038.298-.123.588-.251.858-.354.525-.837.949-1.401 1.234-.073-.068-.167-.108-.266-.115-.098-.006-.196.022-.277.08-.636.375-1.144.927-1.82 1.253-.237.118-.494.212-.716.34-.552.344-1.01.821-1.331 1.386-.112.136-.186.299-.214.472-.027.173-.008.351.056.515.07.1.163.183.271.241.275.191.603.29.937.281.203 0 .395-.088.592-.123.198-.034.533 0 .799-.049.386-.048.764-.146 1.125-.291l1.317-.459c.375-.12.74-.27 1.09-.449.208-.108.405-.241.622-.345.239-.107.487-.194.74-.261l.75-.222c.109-.039.225-.055.34-.045.104 0 .192.084.296.114.165.032.336.017.493-.045l.873-.251c.184-.041.359-.113.518-.212.176-.172.309-.382.389-.614.081-.232.106-.48.075-.723-.004-.745-.09-1.488-.256-2.215-.111.046-.208.119-.282.212-.088-.128-.192-.246-.286-.36-.4-.464-.696-1.009-.868-1.598.317-.232.582-.528.779-.868-.458-1.751-.932-3.531-1.864-5.08-.306-.493-.656-.987-.987-1.48-.907-1.44-1.095-3.26-2.131-4.607-.1-.136-.153-.301-.153-.471 0-.169.053-.334.153-.471.119-.153.311-.306.271-.493-.039-.187-.167-.271-.113-.399.054-.129.089-.099.143-.148.173-.163.153-.444.168-.686.098-.606.359-1.174.755-1.643.069-.119.163-.221.276-.3.094-.06.202-.084.296-.143.335-.208.311-.696.468-1.056.208-.493.73-.72 1.076-1.105.434-.493.542-1.179.986-1.608.046-.045.096-.086.148-.123-.197.733-.286 1.49-.266 2.249-.044 2.599.597 5.293.296 7.892-.237 2.047 1.016 4.094 2.787 5.115.695.371 1.421.679 2.171.922 1.114.4 2.219.809 3.31 1.263.769.329 1.529.675 2.279 1.04.922.454 1.819.957 2.688 1.505 1.106.618 2.089 1.434 2.901 2.407.467-.032.914-.203 1.282-.493.291.231.646.404.923.661.376.397.628.896.725 1.435h-.114l.04.769c.01.066-.001.133-.03.193-.028.037-.063.069-.103.093l-.592.4c-.429.291-.903.656-.928 1.179-.014.152.032.305.129.424.145.134.33.217.527.237 1.019.273 2.077.37 3.128.286.504-.033.978-.251 1.332-.612.274-.375.445-.815.493-1.277.128-.775.237-1.554.321-2.338.024-.53.131-1.052.315-1.549.014-.044.044-.081.084-.104h.143c.026-.016.047-.038.064-.063.016-.026.026-.055.03-.085.188-.76.281-1.54.276-2.323.007-.203-.025-.405-.093-.597-.081-.161-.197-.302-.339-.412-.143-.11-.309-.187-.485-.224-.35-.071-.704-.112-1.061-.123-.299-.028-.594-.085-.883-.168-.117-.041-.241-.056-.365-.044-.062.008-.119.039-.161.086s-.065.107-.066.17c.007.045.024.087.05.124l-.301-.06c-.242-.044-.587-.153-.943-.236v-.188c0-.069-.019-.136-.056-.195-.037-.058-.089-.105-.151-.135l-5.076-2.713-.952-.493c-2.081-1.115-4.232-2.141-6.314-3.256-.143.045-.256-.118-.296-.256-.039-.138-.069-.316-.202-.375s-.153-.035-.202-.089c-.017-.024-.029-.051-.035-.08s-.006-.059 0-.087c.069-1.017.794-1.949.646-2.96-.137-.41-.199-.841-.182-1.272.105-.279.234-.548.384-.804.247-.617 0-1.362.272-1.973.182-.398.306-.82.37-1.253.132-.857.393-1.688.774-2.466.183-.397.424-.765.716-1.09.152-.168.325-.316.468-.494.405-.562.656-1.22.73-1.908.291-1.225.326-2.496.104-3.734-.13-.408-.209-.831-.237-1.258 0-.493.202-1.095-.044-1.504.262-.203.438-.497.493-.824.002-.115.026-.229.069-.335.081-.123.191-.223.321-.291.197-.153.348-.357.435-.591s.107-.487.058-.731c.261.118.538-.148.661-.41.123-.261.222-.587.493-.695.19-.043.383-.071.577-.084.306-.079.494-.375.711-.607.48-.431 1.032-.7736 1.633-1.0109 1.701-.8631 3.093-2.2343 4.439-3.5858.706-.6588 1.347-1.3839 1.914-2.1653.153-.2236.293-.4558.419-.6955h.035v.0395c0 .0838.044.1677.069.2515.059.2023.133.3996.202.5968.166.597.457 1.1519.854 1.6277.06.0613.125.119.192.1727.078.062.16.1181.247.1677.35.1861.734.3017 1.129.3403.148 0 .301.0296.454.0345h.454l3.108.0839c-1.066-1.5537-1.15-3.5661-1.081-5.4552.178-4.8436 1.12-9.7316.247-14.4962-.071-.5781-.276-1.1319-.597-1.6178-.515-.5734-1.212-.9515-1.973-1.0703-.75-.1169-1.486-.3052-2.2-.5623-.547-.3347-1.127-.6108-1.731-.8237-.457-.0838-.925-.0838-1.382 0-.562.0838-1.119.1824-1.677.2959l-.133.0296h-.089-.025-.083-.03-.079-.034-.074-.04-.064-.044-.06-.044l-.054.0247-.05.0246-.049.0247-.049.0246-.05.0296-.044.0296-.044.0296-.045.0345-.039.0296-.045.0395-.034.0296-.045.0444-.029.0345c-.018.0158-.033.0341-.045.0543v.0296l-.054.0789c-.043.0738-.079.1514-.108.2318-.014.0388-.026.0783-.035.1184-.019.0829-.034.1669-.044.2515v.1283.2565c0 .0838 0 .3008.044.4291-.682.4031-1.25.9725-1.652 1.6548-.402.6824-.624 1.4555-.647 2.2471-.022.7916.157 1.5759.52 2.2797.363.7037.899 1.304 1.557 1.7447.004.0772.004.1546 0 .2318v.0493c-.01.2712-.038.5414-.084.8089-.762-.1486-1.537-.2164-2.313-.2022-.464 0-.928.0394-1.396.0789-.494-.5919-.947-1.243-1.391-1.8842l-1.026-1.5043c-.36-.4943-.69-1.0099-.987-1.5439-.252-.4932-.449-.9864-.725-1.4797-.577-.9864-1.524-1.8052-1.638-2.9347l-.271.0592c-.148-.2466-.336-.4933-.405-.6412-.372-.8027-.658-1.6426-.853-2.5057-.059-.4531-.198-.8923-.41-1.2972-.166-.2392-.367-.452-.596-.6313-.372-.35-.807-.6247-1.283-.8089-.211-.0777-.436-.1112-.661-.0984-.225.0127-.445.0714-.646.1724-.069-.0247-.133-.0543-.203-.074-.237-.0901-.493-.1218-.745-.0926-.252.0291-.494.1184-.705.2603-.382.3476-.612.8311-.641 1.3465-.104.7001.017 1.4151.345 2.042.39.6905 1.071 1.1542 1.643 1.7017.395.3831.742.8138 1.031 1.2824.09 1.0388.063 2.0843-.079 3.1172-.074.4439-.188.878-.227 1.3219-.143 1.6129.696 3.2258.4 4.814-.051.2379-.026.4857.071.7086.097.223.262.4098.471.5343.452.1833.924.3125 1.406.3848.928.2367 1.736.8335 2.669 1.0555.434.1036.883.1233 1.312.2367h.069c-.332.3756-.569.8256-.691 1.312-.187.8089 0 1.6721-.202 2.4662-.201.6559-.52 1.2694-.942 1.8102l-2.259 3.2652c-.506.7637-1.062 1.4936-1.663 2.1851-1.036 1.1295-2.826 2.0269-3.349 3.3889l-.045-.099c-.744.547-1.021 1.568-1.618 2.279-.286.345-.646.626-.961.942-.394.486-.744 1.006-1.046 1.553-.923 1.198-1.729 2.481-2.408 3.833-.33.715-.587 1.48-.848 2.2-1.036 2.915-2.723 5.682-3.423 8.7-.173.735-.622 1.401-.691 2.156 0 .81.234 1.604.676 2.284.582 1.085 1.218 2.14 1.736 3.255.306.651.567 1.322.903 1.973.335.651.819 1.332 1.199 2.017.902 1.763 1.575 3.635 2.002 5.569zm12.717-55.0897-.088-.0444c-.347-.1479-.664-.3567-.938-.6165-.823-.8879-1.183-2.2196-1.44-3.4083-.03-.1381-.059-.2811-.084-.4242 1.039 1.3823 1.897 2.8925 2.55 4.4934z" fill="url(#a)"/><path d="m255.823 71.5537c-.059-.45-.198-.8859-.41-1.2873-.167-.2393-.37-.4522-.601-.6314-.372-.3464-.808-.6177-1.283-.799-.242-.0943-.503-.1282-.761-.099-.257.0292-.504.1207-.719.2667-.382.3433-.612.8239-.641 1.3367-.104.6952.017 1.4055.345 2.0272.395.6856 1.076 1.1443 1.643 1.6918.417.3953.778.8449 1.075 1.3366.136.2568.302.4968.494.7152.096.1081.216.1922.35.2453.135.0531.28.0738.424.0605.241-.0622.459-.1903.631-.3699.232-.2022.864-.5721.883-.8977.02-.3255-.493-.8582-.596-1.1048-.365-.7987-.645-1.6336-.834-2.4909z" fill="#fbbebe"/><path d="m269.122 84.2102c-1.015-.2728-2.062-.4023-3.113-.3848-1.751.0247-3.556.4489-5.224-.0887-.43-.1491-.849-.3305-1.253-.5426-.344-.148-.659-.355-.932-.6116-.829-.8829-1.189-2.2048-1.445-3.3836-.23-1.1874-.362-2.3916-.395-3.6006-.418.2335-.888.3574-1.366.36-.239-.007-.467-.1004-.642-.2627-.175-.1624-.285-.3827-.31-.6202.107 1.1168.085 2.2422-.065 3.354-.074.439-.187.8681-.226 1.312-.144 1.5981.7 3.2011.399 4.7795-.05.2365-.025.4827.073.7039.097.2212.262.4063.47.5292.453.1839.927.3131 1.411.3847.927.2368 1.741.8237 2.673 1.0457.434.1035.883.1233 1.312.2367.617.1628 1.174.4933 1.801.6264.468.0839.952.0247 1.43.0642.479.0394.819.143 1.229.1578.509-.0169 1.009-.1428 1.466-.3691s.86-.5478 1.183-.9429c.632-.841 1.145-1.7656 1.524-2.7473z" fill="#f86d70"/><path d="m269.122 84.2102c-1.015-.2728-2.062-.4023-3.113-.3848-1.751.0247-3.556.4489-5.224-.0887-.43-.1491-.849-.3305-1.253-.5426-.344-.148-.659-.355-.932-.6116-.829-.8829-1.189-2.2048-1.445-3.3836-.23-1.1874-.362-2.3916-.395-3.6006-.418.2335-.888.3574-1.366.36-.239-.007-.467-.1004-.642-.2627-.175-.1624-.285-.3827-.31-.6202.107 1.1168.085 2.2422-.065 3.354-.074.439-.187.8681-.226 1.312-.144 1.5981.7 3.2011.399 4.7795-.05.2365-.025.4827.073.7039.097.2212.262.4063.47.5292.453.1839.927.3131 1.411.3847.927.2368 1.741.8237 2.673 1.0457.434.1035.883.1233 1.312.2367.617.1628 1.174.4933 1.801.6264.468.0839.952.0247 1.43.0642.479.0394.819.143 1.229.1578.509-.0169 1.009-.1428 1.466-.3691s.86-.5478 1.183-.9429c.632-.841 1.145-1.7656 1.524-2.7473z" fill="#000" opacity=".1"/><g opacity=".1"><path d="m200.11 264.429v2.54c0 2.525-1.003 4.946-2.788 6.731-1.786 1.785-4.208 2.788-6.733 2.788s-4.946-1.003-6.732-2.788c-1.785-1.785-2.788-4.206-2.788-6.731v-2.54c0-2.525 1.003-4.946 2.788-6.732 1.786-1.785 4.207-2.788 6.732-2.788s4.947 1.003 6.733 2.788c1.785 1.786 2.788 4.207 2.788 6.732z" fill="#3f3d56" opacity=".1"/><path d="m181.069 223.806v-2.536c0-2.524 1.003-4.946 2.788-6.731 1.786-1.785 4.207-2.788 6.732-2.788s4.947 1.003 6.733 2.788c1.785 1.785 2.788 4.207 2.788 6.731v2.536c.001.932-.137 1.86-.409 2.752-.656 2.191-2.079 4.072-4.008 5.299-1.93 1.228-4.237 1.719-6.499 1.385-2.263-.334-4.329-1.472-5.821-3.205s-2.31-3.945-2.304-6.231z" fill="#3f3d56" opacity=".1"/><path d="m200.11 242.83v2.54c0 2.525-1.003 4.946-2.788 6.731-1.786 1.785-4.208 2.788-6.733 2.788s-4.946-1.003-6.732-2.788c-1.785-1.785-2.788-4.206-2.788-6.731v-2.54c0-2.525 1.003-4.946 2.788-6.732 1.786-1.785 4.207-2.788 6.732-2.788s4.947 1.003 6.733 2.788c1.785 1.786 2.788 4.207 2.788 6.732z" fill="#3f3d56" opacity=".1"/><path d="m190.589 276.488c2.524.008 4.942 1.014 6.726 2.799 1.784 1.784 2.789 4.202 2.795 6.725v2.536c0 2.524-1.003 4.946-2.788 6.731-1.786 1.785-4.208 2.788-6.733 2.788s-4.946-1.003-6.732-2.788c-1.785-1.785-2.788-4.207-2.788-6.731v-2.536c.006-2.523 1.011-4.941 2.795-6.725 1.784-1.785 4.202-2.791 6.725-2.799z" fill="#3f3d56" opacity=".1"/><path d="m181.069 221.512v2.294c-.005 2.286.814 4.497 2.307 6.229 1.492 1.732 3.558 2.869 5.82 3.203 2.262.333 4.569-.159 6.498-1.386 1.929-1.228 3.351-3.109 4.007-5.299z" fill="#000" opacity=".1"/><path d="m181.069 243.091v2.299c.002 2.282.824 4.487 2.316 6.214 1.492 1.726 3.555 2.86 5.813 3.193 2.258.334 4.56-.155 6.488-1.376 1.928-1.222 3.352-3.095 4.015-5.279z" fill="#000" opacity=".1"/><path d="m181.069 264.675v2.294c.002 2.282.824 4.487 2.316 6.214s3.555 2.86 5.813 3.194c2.258.333 4.56-.155 6.488-1.377s3.352-3.095 4.015-5.279z" fill="#000" opacity=".1"/><path d="m181.069 286.235v2.293c-.006 2.287.812 4.499 2.304 6.232s3.558 2.871 5.821 3.205c2.262.334 4.569-.158 6.499-1.385 1.929-1.228 3.352-3.109 4.008-5.3z" fill="#000" opacity=".1"/><path d="m161.189 245.552.76.583c.683.522 1.53.782 2.389.733.858-.049 1.671-.404 2.29-1.001.619-.596 1.004-1.395 1.085-2.25.081-.856-.148-1.713-.644-2.415-.202-.288-.447-.544-.725-.759l-.76-.573c-.755-.582-1.711-.841-2.658-.719-.946.122-1.805.615-2.388 1.37-.583.756-.842 1.712-.72 2.658s.615 1.805 1.371 2.388z" fill="#3f3d56" opacity=".1"/><path d="m172.042 244.832.759.587c.756.583 1.249 1.442 1.371 2.388.122.947-.137 1.903-.72 2.658-.582.756-1.442 1.249-2.388 1.371s-1.902-.137-2.658-.72l-.76-.587c-.755-.583-1.248-1.442-1.37-2.388-.123-.946.136-1.902.719-2.658.583-.755 1.442-1.248 2.388-1.37.947-.122 1.903.137 2.659.719z" fill="#3f3d56" opacity=".1"/><path d="m178.494 249.814.76.587c.755.583 1.248 1.442 1.37 2.388s-.136 1.902-.719 2.658c-.583.755-1.442 1.248-2.389 1.37-.946.122-1.902-.136-2.658-.719l-.759-.587c-.756-.583-1.249-1.442-1.371-2.388s.137-1.902.72-2.658c.582-.755 1.441-1.248 2.388-1.37.946-.123 1.902.136 2.658.719z" fill="#3f3d56" opacity=".1"/><path d="m184.951 254.796.76.587c.374.288.687.648.923 1.057.235.41.387.862.447 1.331.061.468.029.944-.095 1.4-.123.456-.336.883-.624 1.257-.289.374-.648.688-1.058.923s-.862.388-1.33.448c-.469.06-.945.028-1.401-.095-.456-.124-.883-.336-1.258-.624l-.769-.587c-.374-.289-.688-.648-.923-1.058s-.387-.862-.448-1.33c-.06-.469-.028-.945.096-1.401.123-.456.335-.883.624-1.257.288-.374.648-.688 1.058-.923.409-.235.862-.387 1.33-.448.469-.06.945-.028 1.401.096.456.123.883.335 1.257.624z" fill="#3f3d56" opacity=".1"/><path d="m161.258 245.607.691.528c.683.522 1.53.782 2.389.733.858-.049 1.671-.404 2.29-1.001.619-.596 1.004-1.395 1.085-2.25.081-.856-.148-1.713-.644-2.415z" fill="#000" opacity=".1"/><path d="m167.72 250.588.691.528c.683.522 1.531.782 2.389.733s1.671-.403 2.29-1c.619-.596 1.004-1.395 1.085-2.251s-.147-1.712-.644-2.414z" fill="#000" opacity=".1"/><path d="m174.173 255.57.685.528c.683.526 1.532.789 2.392.742.861-.047 1.676-.402 2.297-1 .621-.597 1.007-1.398 1.087-2.256s-.151-1.716-.65-2.418z" fill="#000" opacity=".1"/><path d="m164.563 127.329c-1.436-.031-2.864.225-4.201.754-1.336.528-2.553 1.318-3.58 2.323-1.026 1.005-1.842 2.205-2.399 3.529-.557 1.325-.844 2.747-.844 4.183 0 1.437.287 2.859.844 4.184.557 1.324 1.373 2.524 2.399 3.529 1.027 1.005 2.244 1.794 3.58 2.323 1.337.528 2.765.785 4.201.754-1.436-.031-2.864.226-4.201.754-1.336.528-2.553 1.318-3.58 2.323-1.026 1.005-1.842 2.205-2.399 3.529-.557 1.325-.844 2.747-.844 4.183 0 1.437.287 2.859.844 4.184.557 1.324 1.373 2.524 2.399 3.529 1.027 1.005 2.244 1.794 3.58 2.323 1.337.528 2.765.785 4.201.754-2.862 0-5.608 1.137-7.632 3.161s-3.161 4.769-3.161 7.631 1.137 5.607 3.161 7.631 4.77 3.161 7.632 3.161c-1.436-.031-2.864.226-4.201.754-1.336.528-2.553 1.318-3.58 2.323-1.026 1.005-1.842 2.205-2.399 3.529-.557 1.325-.844 2.747-.844 4.183 0 1.437.287 2.859.844 4.184.557 1.324 1.373 2.524 2.399 3.529 1.027 1.005 2.244 1.794 3.58 2.323 1.337.528 2.765.785 4.201.754h52.053c1.436.031 2.864-.226 4.2-.754 1.336-.529 2.554-1.318 3.58-2.323 1.027-1.005 1.843-2.205 2.4-3.529.557-1.325.844-2.747.844-4.184 0-1.436-.287-2.858-.844-4.183-.557-1.324-1.373-2.524-2.4-3.529-1.026-1.005-2.244-1.795-3.58-2.323s-2.764-.785-4.2-.754c2.862 0 5.608-1.137 7.632-3.161s3.161-4.769 3.161-7.631-1.137-5.607-3.161-7.631-4.77-3.161-7.632-3.161c1.436.031 2.864-.226 4.2-.754 1.336-.529 2.554-1.318 3.58-2.323 1.027-1.005 1.843-2.205 2.4-3.529.557-1.325.844-2.747.844-4.184 0-1.436-.287-2.858-.844-4.183-.557-1.324-1.373-2.524-2.4-3.529-1.026-1.005-2.244-1.795-3.58-2.323s-2.764-.785-4.2-.754c1.436.031 2.864-.226 4.2-.754 1.336-.529 2.554-1.318 3.58-2.323 1.027-1.005 1.843-2.205 2.4-3.529.557-1.325.844-2.747.844-4.184 0-1.436-.287-2.858-.844-4.183-.557-1.324-1.373-2.524-2.4-3.529-1.026-1.005-2.244-1.795-3.58-2.323-1.336-.529-2.764-.785-4.2-.754 2.862 0 5.608-1.137 7.632-3.161s3.161-4.769 3.161-7.631-1.137-5.607-3.161-7.631-4.77-3.161-7.632-3.161c1.436.031 2.864-.226 4.2-.754 1.336-.529 2.554-1.319 3.58-2.323 1.027-1.005 1.843-2.205 2.4-3.5295.557-1.3244.844-2.7465.844-4.1832 0-1.4366-.287-2.8588-.844-4.1831-.557-1.3244-1.373-2.5242-2.4-3.5291-1.026-1.005-2.244-1.7948-3.58-2.3232-1.336-.5285-2.764-.7848-4.2-.7541h-2.378c-1.366-9.2827-11.839-16.5037-24.601-16.5037-12.761 0-23.234 7.221-24.6 16.5037h-.494c-1.436-.0307-2.864.2256-4.2.7541-1.336.5284-2.554 1.3182-3.58 2.3232-1.027 1.0049-1.843 2.2047-2.4 3.5291-.557 1.3243-.844 2.7465-.844 4.1831 0 1.4367.287 2.8588.844 4.1832.557 1.3245 1.373 2.5245 2.4 3.5295 1.026 1.004 2.244 1.794 3.58 2.323 1.336.528 2.764.785 4.2.754-2.862 0-5.607 1.137-7.632 3.161-2.024 2.024-3.161 4.769-3.161 7.631s1.137 5.607 3.161 7.631c2.025 2.024 4.77 3.161 7.632 3.161z" fill="#eb4626" opacity=".1"/><g fill="#000"><path d="m153.77 94.9528c.008 2.8598 1.147 5.6002 3.17 7.6222 2.022 2.022 4.763 3.162 7.623 3.17h52.053l-51.737-21.5792h-.316c-2.859.0078-5.599 1.1466-7.621 3.1678-2.023 2.0211-3.163 4.7603-3.172 7.6192z" opacity=".1"/><path d="m227.093 116.562c-.015 2.857-1.157 5.593-3.178 7.613-2.021 2.021-4.757 3.163-7.615 3.179h-52.033l51.742-21.584h.316c2.853.022 5.583 1.166 7.599 3.186 2.015 2.02 3.154 4.752 3.169 7.606z" opacity=".1"/><path d="m227.093 159.7c-.009 2.859-1.149 5.598-3.171 7.619-2.023 2.021-4.763 3.16-7.622 3.168h-52.033l51.742-21.579h.316c2.856.014 5.59 1.157 7.607 3.178 2.017 2.022 3.153 4.758 3.161 7.614z" opacity=".1"/><path d="m227.093 202.878c-.009 2.859-1.149 5.598-3.171 7.619-2.023 2.021-4.763 3.16-7.622 3.168h-52.033l51.742-21.579h.316c2.856.014 5.59 1.156 7.607 3.178 2.017 2.021 3.153 4.758 3.161 7.614z" opacity=".1"/><path d="m153.77 138.116c.008 2.86 1.147 5.6 3.17 7.622 2.022 2.023 4.763 3.162 7.623 3.17h52.053l-51.737-21.579h-.316c-2.859.008-5.599 1.147-7.621 3.168-2.023 2.021-3.163 4.76-3.172 7.619z" opacity=".1"/><path d="m153.77 181.279c.015 2.857 1.158 5.593 3.178 7.614 2.021 2.02 4.757 3.162 7.615 3.178h52.053l-51.737-21.584h-.316c-2.858.015-5.594 1.157-7.615 3.178-2.02 2.02-3.163 4.756-3.178 7.614z" opacity=".1"/></g><path d="m159.734 256.69 17.142-9.229c.9-.529 1.561-1.386 1.842-2.392s.161-2.082-.335-3.001c-.496-.92-1.329-1.611-2.324-1.929-.995-.317-2.074-.237-3.011.225.467-.251.879-.592 1.214-1.002.336-.411.587-.883.739-1.391.153-.507.204-1.04.15-1.567-.053-.527-.209-1.039-.46-1.505-.251-.467-.592-.88-1.003-1.215-.41-.335-.883-.586-1.39-.738-.508-.153-1.04-.204-1.568-.151-.527.054-1.038.21-1.505.461l-.785.424c-2.096-2.816-6.832-3.334-11.03-1.075s-6.368 6.496-5.174 9.796l-.153.084c-.467.251-.88.591-1.215 1.002-.335.41-.586.883-.738 1.39-.153.507-.204 1.04-.151 1.567.054.527.21 1.039.461 1.506.251.466.592.879 1.002 1.214.411.335.883.586 1.391.739.507.152 1.04.203 1.567.15.528-.053 1.039-.21 1.506-.461-.943.508-1.645 1.369-1.953 2.394-.307 1.026-.195 2.131.313 3.074.507.942 1.369 1.644 2.394 1.952 1.026.308 2.131.195 3.074-.312z" fill="#eb4626" opacity=".1"/><path d="m150.455 247.94c.51.94 1.37 1.64 2.394 1.947 1.024.308 2.128.198 3.072-.305l17.127-9.218-20.862 2.066-.103.055c-.935.512-1.63 1.372-1.935 2.393-.304 1.021-.194 2.121.307 3.062z" fill="#000" opacity=".1"/><path d="m178.41 242.05c.505.943.616 2.047.309 3.071s-1.007 1.885-1.947 2.394l-17.142 9.229 13.211-16.277.103-.059c.944-.503 2.048-.613 3.072-.305s1.884 1.008 2.394 1.947z" fill="#000" opacity=".1"/></g><g opacity=".1"><path d="m107.607 287.63v.725c-.03.704-.33 1.37-.839 1.857-.509.488-1.186.76-1.891.76s-1.382-.272-1.891-.76c-.509-.487-.81-1.153-.839-1.857v-.725c-.016-.368.043-.736.173-1.08.13-.345.329-.66.584-.926.255-.267.561-.478.9-.623s.704-.219 1.073-.219.733.074 1.072.219c.34.145.646.356.901.623.255.266.454.581.584.926.13.344.189.712.173 1.08z" fill="#3f3d56" opacity=".1"/><path d="m102.147 275.985v-.73c.029-.704.33-1.369.839-1.857.509-.487 1.186-.76 1.891-.76s1.382.273 1.891.76c.509.488.809 1.153.839 1.857v.73c.001.267-.039.534-.118.789-.187.629-.595 1.169-1.149 1.522-.553.353-1.215.494-1.864.398-.65-.096-1.242-.423-1.67-.92-.428-.498-.662-1.133-.659-1.789z" fill="#3f3d56" opacity=".1"/><path d="m107.607 281.445v.725c-.03.704-.33 1.369-.839 1.857-.509.487-1.186.759-1.891.759s-1.382-.272-1.891-.759c-.509-.488-.81-1.153-.839-1.857v-.725c-.016-.368.043-.736.173-1.081s.329-.66.584-.926.561-.478.9-.622c.339-.145.704-.22 1.073-.22s.733.075 1.072.22c.34.144.646.356.901.622s.454.581.584.926.189.713.173 1.081z" fill="#3f3d56" opacity=".1"/><path d="m104.879 291.083c.724.002 1.417.291 1.928.803s.799 1.206.8 1.929v.725c.016.369-.043.736-.173 1.081s-.329.66-.584.926-.561.478-.901.623c-.339.144-.703.219-1.072.219s-.734-.075-1.073-.219c-.339-.145-.645-.357-.9-.623s-.454-.581-.584-.926-.189-.712-.173-1.081v-.725c.001-.724.289-1.418.801-1.93.513-.513 1.207-.801 1.931-.802z" fill="#3f3d56" opacity=".1"/><path d="m102.147 275.329v.656c-.003.656.231 1.291.659 1.789s1.021.824 1.67.92 1.311-.045 1.864-.398c.554-.353.962-.893 1.149-1.522z" fill="#000" opacity=".1"/><path d="m102.147 281.514v.656c-.003.656.231 1.291.659 1.789s1.021.824 1.67.92 1.311-.045 1.864-.398c.554-.352.962-.893 1.149-1.522z" fill="#000" opacity=".1"/><path d="m102.147 287.714v.656c-.003.656.231 1.291.659 1.789s1.021.824 1.67.92 1.311-.045 1.864-.398c.554-.352.962-.893 1.149-1.522z" fill="#000" opacity=".1"/><path d="m102.147 293.885v.656c-.003.656.231 1.291.659 1.788.428.498 1.021.825 1.67.921s1.311-.046 1.864-.398c.554-.353.962-.893 1.149-1.522z" fill="#000" opacity=".1"/><path d="m96.4489 282.214.2171.173c.1947.161.4418.245.6943.236.2526-.009.493-.111.6756-.285.1826-.175.2947-.411.3149-.662.0203-.252-.0526-.503-.2049-.704-.0572-.085-.1271-.16-.2072-.222l-.2171-.168c-.1072-.083-.2297-.144-.3605-.18-.1307-.035-.2673-.045-.4017-.027-.1344.017-.2642.06-.3818.128-.1177.067-.2209.157-.3038.264s-.1439.229-.1795.36-.0451.268-.0279.402.0607.264.128.382c.0673.117.1572.221.2644.303z" fill="#3f3d56" opacity=".1"/><path d="m99.5617 282.012.217.168c.1116.081.2057.184.2773.302.071.118.118.249.137.385.02.136.012.275-.023.409-.035.133-.096.258-.1805.367-.0841.109-.1893.2-.3093.268-.1199.068-.2523.111-.3892.127s-.2757.004-.4079-.035c-.1323-.038-.2555-.103-.3622-.19l-.222-.168c-.2166-.168-.3577-.414-.3924-.686-.0347-.271.0399-.545.2074-.762.1674-.216.4141-.357.6856-.392s.5457.04.7622.207z" fill="#3f3d56" opacity=".1"/><path d="m101.411 283.438.218.167c.215.169.356.415.391.687.035.271-.038.546-.204.763-.168.216-.414.356-.685.391-.271.034-.544-.041-.76-.208l-.217-.168c-.2083-.169-.3419-.414-.3727-.68-.0307-.267.0437-.535.2075-.748.1642-.212.4042-.352.6702-.391.265-.038.535.029.752.187z" fill="#3f3d56" opacity=".1"/><path d="m103.261 284.868.217.168c.112.081.206.183.277.301s.118.249.138.386c.02.136.012.275-.023.408-.035.134-.097.259-.181.368s-.189.2-.309.268-.252.111-.389.127-.276.004-.408-.035c-.133-.039-.256-.104-.362-.191l-.218-.167c-.207-.17-.341-.414-.372-.681-.031-.266.044-.535.208-.747.163-.213.404-.353.669-.391.266-.039.536.028.753.186z" fill="#3f3d56" opacity=".1"/><path d="m96.4686 282.234.1973.153c.1948.161.4418.245.6944.236.2525-.009.4929-.11.6756-.285.1826-.175.2946-.41.3149-.662s-.0527-.503-.205-.704z" fill="#000" opacity=".1"/><path d="m98.3235 283.66.1973.153c.1947.161.4418.245.6943.236.2526-.01.493-.111.6756-.286.1823-.174.2943-.41.3153-.662.02-.252-.053-.502-.205-.704z" fill="#000" opacity=".1"/><path d="m100.173 285.09.198.148c.216.167.489.242.76.208s.517-.175.685-.39c.131-.179.201-.395.201-.617s-.07-.437-.201-.616z" fill="#000" opacity=".1"/><path d="m97.4158 248.329c-.8203 0-1.607.326-2.187.906-.5801.58-.9059 1.367-.9059 2.187s.3258 1.607.9059 2.187c.58.58 1.3667.905 2.187.905-.7995.032-1.5557.372-2.1102.949-.5544.577-.8641 1.346-.8641 2.146 0 .801.3097 1.57.8641 2.147.5545.577 1.3107.917 2.1102.948-.8203 0-1.607.326-2.187.906-.5801.58-.9059 1.367-.9059 2.187s.3258 1.607.9059 2.187c.58.58 1.3667.906 2.187.906-.8203 0-1.607.326-2.187.905-.5801.58-.9059 1.367-.9059 2.187s.3258 1.607.9059 2.187c.58.58 1.3667.906 2.187.906h14.9222c.82 0 1.607-.326 2.187-.906s.906-1.367.906-2.187-.326-1.607-.906-2.187c-.58-.579-1.367-.905-2.187-.905.82 0 1.607-.326 2.187-.906s.906-1.367.906-2.187-.326-1.607-.906-2.187-1.367-.906-2.187-.906c.8-.031 1.556-.371 2.11-.948.555-.577.864-1.346.864-2.147 0-.8-.309-1.569-.864-2.146-.554-.577-1.31-.917-2.11-.949.82 0 1.607-.325 2.187-.905s.906-1.367.906-2.187-.326-1.607-.906-2.187-1.367-.906-2.187-.906c.82 0 1.607-.326 2.187-.906s.906-1.366.906-2.186c0-.821-.326-1.607-.906-2.187s-1.367-.906-2.187-.906c.82 0 1.607-.326 2.187-.906s.906-1.366.906-2.187c0-.82-.326-1.606-.906-2.186s-1.367-.906-2.187-.906h-.681c-.394-2.659-3.399-4.73-7.054-4.73s-6.6593 2.071-7.049 4.73h-.1382c-.8203 0-1.607.326-2.187.906-.5801.58-.9059 1.366-.9059 2.186 0 .821.3258 1.607.9059 2.187.58.58 1.3667.906 2.187.906-.8203 0-1.607.326-2.187.906-.5801.58-.9059 1.366-.9059 2.187 0 .82.3258 1.606.9059 2.186.58.58 1.3667.906 2.187.906z" fill="#eb4626" opacity=".1"/><g fill="#000"><path d="m94.3229 239.052c.0026.819.3293 1.604.9088 2.183.5794.58 1.3646.907 2.1841.909h14.9222l-14.8284-6.185h-.0938c-.8195.003-1.6047.329-2.1841.909-.5795.579-.9062 1.364-.9088 2.184z" opacity=".1"/><path d="m115.342 245.237c-.002.819-.329 1.604-.909 2.184-.579.579-1.364.906-2.184.908h-14.922l14.828-6.185h.094c.82.003 1.605.329 2.184.909.58.579.907 1.364.909 2.184z" opacity=".1"/><path d="m115.342 257.627c-.004.819-.331 1.603-.91 2.182s-1.364.907-2.183.91h-14.922l14.828-6.19h.094c.82.004 1.605.332 2.185.912.579.58.906 1.366.908 2.186z" opacity=".1"/><path d="m115.342 269.982c-.002.82-.329 1.605-.909 2.184-.579.58-1.364.906-2.184.909h-14.922l14.828-6.185h.094c.82.002 1.605.329 2.184.908.58.58.907 1.365.909 2.184z" opacity=".1"/><path d="m94.3229 251.422c.0026.819.3293 1.604.9088 2.184.5794.579 1.3646.906 2.1841.908h14.9222l-14.8284-6.185h-.0938c-.8195.003-1.6047.329-2.1841.909-.5795.579-.9062 1.364-.9088 2.184z" opacity=".1"/><path d="m94.3229 263.797c.0026.82.3293 1.605.9088 2.184.5794.58 1.3646.906 2.1841.909h14.9222l-14.8284-6.185h-.0938c-.8195.002-1.6047.329-2.1841.908-.5795.58-.9062 1.365-.9088 2.184z" opacity=".1"/></g><path d="m96.0346 285.411 4.9334-2.649c-.279-.194-.516-.442-.699-.729-.182-.286-.3062-.606-.3644-.941s-.0496-.678.0253-1.009c.0751-.331.2151-.645.4111-.922-.072-.134-.17-.252-.287-.348-.1183-.097-.254-.169-.3998-.212-.1458-.044-.2987-.058-.4501-.042-.1513.016-.298.061-.4317.134l-.222.118c-.6018-.804-1.9731-.957-3.162-.306-1.1888.651-1.8252 1.86-1.4799 2.807l-.0444.025c.2786.194.516.442.6984.728.1825.287.3064.607.3646.941.0582.335.0497.678-.0253 1.009-.0749.332-.2146.645-.4112.922.1452.264.3877.462.676.55.2882.088.5996.061.868-.076z" fill="#eb4626" opacity=".1"/><path d="m93.3708 282.9c.0703.136.1667.256.2837.355.117.098.2523.172.398.218.1458.046.2993.062.4515.049.1522-.014.3002-.058.4355-.129l4.9329-2.643-6.0034.552h-.0295c-.1376.072-.2592.171-.3576.292-.0984.12-.1716.259-.2153.408-.0438.149-.0571.305-.0391.459.0179.155.0666.304.1433.439z" fill="#000" opacity=".1"/><path d="m101.387 281.213c.144.271.176.587.088.881-.088.293-.288.541-.557.688l-4.9328 2.644 3.7836-4.666h.0296c.134-.076.2816-.123.4336-.141.153-.018.307-.005.455.037s.286.113.406.209c.12.095.22.214.294.348z" fill="#000" opacity=".1"/></g><g opacity=".1"><path d="m373.059 258.613v3.093c0 3.078 1.223 6.03 3.4 8.207 2.177 2.176 5.129 3.399 8.208 3.399 3.078 0 6.03-1.223 8.207-3.399 2.177-2.177 3.4-5.129 3.4-8.207v-3.093c0-3.078-1.223-6.03-3.4-8.206-2.177-2.177-5.129-3.399-8.207-3.399-3.079 0-6.031 1.222-8.208 3.399-2.177 2.176-3.4 5.128-3.4 8.206z" fill="#3f3d56" opacity=".1"/><path d="m396.274 209.092v-3.092c0-3.078-1.223-6.03-3.4-8.207-2.177-2.176-5.129-3.399-8.208-3.399-3.078 0-6.03 1.223-8.207 3.399-2.177 2.177-3.4 5.129-3.4 8.207v3.092c-.003 1.137.163 2.267.493 3.354.816 2.651 2.554 4.922 4.899 6.401 2.346 1.48 5.144 2.07 7.888 1.665 2.743-.406 5.251-1.781 7.068-3.875 1.817-2.095 2.823-4.772 2.837-7.545z" fill="#3f3d56" opacity=".1"/><path d="m373.059 232.304v3.098c0 3.078 1.223 6.03 3.4 8.206 2.177 2.177 5.129 3.399 8.208 3.399 3.078 0 6.03-1.222 8.207-3.399 2.177-2.176 3.4-5.128 3.4-8.206v-3.098c0-3.078-1.223-6.03-3.4-8.206-2.177-2.177-5.129-3.4-8.207-3.4-3.079 0-6.031 1.223-8.208 3.4-2.177 2.176-3.4 5.128-3.4 8.206z" fill="#3f3d56" opacity=".1"/><path d="m384.667 273.312c-3.076.009-6.023 1.235-8.198 3.409-2.175 2.175-3.401 5.121-3.41 8.197v3.092c0 3.078 1.223 6.03 3.4 8.207 2.177 2.176 5.129 3.399 8.208 3.399 3.078 0 6.03-1.223 8.207-3.399 2.177-2.177 3.4-5.129 3.4-8.207v-3.092c-.008-3.076-1.233-6.024-3.409-8.198-2.175-2.175-5.122-3.4-8.198-3.408z" fill="#3f3d56" opacity=".1"/><path d="m396.274 206.296v2.797c-.014 2.772-1.021 5.449-2.838 7.544-1.817 2.094-4.324 3.469-7.068 3.875-2.743.405-5.541-.185-7.887-1.665-2.346-1.479-4.084-3.75-4.899-6.4z" fill="#000" opacity=".1"/><path d="m396.274 232.605v2.797c-.014 2.773-1.021 5.449-2.838 7.544s-4.324 3.469-7.068 3.875c-2.743.405-5.541-.185-7.887-1.665-2.346-1.479-4.084-3.75-4.899-6.4z" fill="#000" opacity=".1"/><path d="m396.274 258.909v2.797c-.014 2.773-1.021 5.449-2.838 7.544s-4.324 3.47-7.068 3.875c-2.743.406-5.541-.185-7.887-1.664-2.346-1.48-4.084-3.751-4.899-6.401z" fill="#000" opacity=".1"/><path d="m396.274 285.214v2.796c-.014 2.773-1.021 5.45-2.838 7.544-1.817 2.095-4.324 3.47-7.068 3.875-2.743.406-5.541-.185-7.887-1.664-2.346-1.48-4.084-3.75-4.899-6.401z" fill="#000" opacity=".1"/><path d="m420.509 235.599-.927.715c-.833.642-1.87.963-2.92.905s-2.044-.492-2.802-1.222c-.757-.73-1.226-1.708-1.322-2.755-.096-1.048.187-2.095.799-2.95.247-.351.547-.662.888-.923l.927-.715c.921-.71 2.087-1.026 3.24-.877 1.154.149 2.201.75 2.911 1.671.711.921 1.026 2.087.877 3.24s-.75 2.201-1.671 2.911z" fill="#3f3d56" opacity=".1"/><path d="m407.279 234.726-.922.705c-.473.346-.872.782-1.174 1.284-.301.502-.499 1.06-.582 1.64-.082.579-.048 1.17.102 1.736.149.567.411 1.097.768 1.561.358.463.805.851 1.315 1.139s1.073.47 1.655.538c.582.067 1.171.016 1.733-.148s1.086-.44 1.54-.81l.922-.71c.456-.352.839-.79 1.125-1.289.287-.5.473-1.051.546-1.622.074-.571.035-1.151-.116-1.707-.15-.556-.409-1.077-.76-1.533-.352-.456-.79-.838-1.29-1.125-.499-.286-1.05-.472-1.622-.546-.571-.073-1.151-.034-1.707.116-.556.151-1.077.409-1.533.761z" fill="#3f3d56" opacity=".1"/><path d="m399.411 240.798-.927.715c-.473.345-.872.782-1.174 1.284-.301.502-.499 1.059-.582 1.639-.082.58-.048 1.171.102 1.737.149.566.411 1.097.768 1.56.358.464.805.851 1.315 1.139s1.073.471 1.655.538 1.171.017 1.733-.147c.562-.165 1.086-.44 1.54-.81l.927-.711c.456-.351.839-.789 1.125-1.289.287-.499.473-1.05.546-1.621.074-.572.035-1.152-.116-1.708-.15-.555-.409-1.076-.76-1.532-.352-.456-.79-.838-1.29-1.125-.499-.287-1.05-.472-1.622-.546-.571-.074-1.151-.034-1.707.116s-1.077.409-1.533.761z" fill="#3f3d56" opacity=".1"/><path d="m391.538 246.869-.923.711c-.921.71-1.522 1.757-1.671 2.91-.149 1.154.167 2.319.877 3.24.711.921 1.758 1.522 2.911 1.671 1.154.149 2.32-.166 3.241-.877l.922-.715c.473-.345.872-.782 1.174-1.284.301-.502.499-1.059.582-1.639.082-.58.048-1.171-.102-1.737-.149-.566-.411-1.097-.769-1.56-.357-.464-.805-.851-1.315-1.139s-1.072-.471-1.654-.538-1.171-.017-1.733.147c-.563.165-1.086.44-1.54.81z" fill="#3f3d56" opacity=".1"/><path d="m420.42 235.668-.838.646c-.833.642-1.87.963-2.92.905s-2.044-.492-2.802-1.222c-.757-.73-1.226-1.708-1.322-2.755-.096-1.048.187-2.095.799-2.95z" fill="#000" opacity=".1"/><path d="m412.547 241.74-.833.641c-.835.624-1.864.931-2.904.865s-2.022-.499-2.771-1.223c-.75-.725-1.216-1.692-1.317-2.729s.171-2.076.766-2.93z" fill="#000" opacity=".1"/><path d="m404.68 247.807-.839.646c-.833.639-1.868.958-2.916.899s-2.04-.492-2.797-1.221c-.756-.728-1.225-1.704-1.323-2.749s.183-2.091.791-2.947z" fill="#000" opacity=".1"/><path d="m416.395 91.4903c3.489 0 6.836 1.3859 9.303 3.8529 2.467 2.4669 3.853 5.8128 3.853 9.3018s-1.386 6.835-3.853 9.302-5.814 3.852-9.303 3.852c3.445.067 6.726 1.482 9.138 3.941 2.412 2.46 3.764 5.767 3.764 9.212 0 3.444-1.352 6.752-3.764 9.211s-5.693 3.874-9.138 3.941c3.445.066 6.726 1.481 9.138 3.941 2.412 2.459 3.764 5.766 3.764 9.211s-1.352 6.752-3.764 9.211-5.693 3.874-9.138 3.941c3.489 0 6.836 1.386 9.303 3.853s3.853 5.813 3.853 9.302c0 3.488-1.386 6.834-3.853 9.301s-5.814 3.853-9.303 3.853h-63.452c-3.49 0-6.836-1.386-9.303-3.853s-3.854-5.813-3.854-9.301c0-3.489 1.387-6.835 3.854-9.302s5.813-3.853 9.303-3.853c-1.749.034-3.487-.281-5.113-.927-1.625-.646-3.106-1.609-4.354-2.834-1.249-1.224-2.241-2.686-2.918-4.298-.677-1.613-1.026-3.344-1.026-5.093s.349-3.48 1.026-5.093 1.669-3.074 2.918-4.298c1.248-1.225 2.729-2.189 4.354-2.834 1.626-.646 3.364-.961 5.113-.927-1.749.034-3.487-.282-5.113-.927-1.625-.646-3.106-1.609-4.354-2.834-1.249-1.225-2.241-2.686-2.918-4.299-.677-1.612-1.026-3.344-1.026-5.092 0-1.749.349-3.481 1.026-5.093.677-1.613 1.669-3.074 2.918-4.299 1.248-1.224 2.729-2.188 4.354-2.833 1.626-.646 3.364-.961 5.113-.928-3.49 0-6.836-1.385-9.303-3.852s-3.854-5.813-3.854-9.302 1.387-6.8349 3.854-9.3018c2.467-2.467 5.813-3.8529 9.303-3.8529-1.749.0338-3.487-.2813-5.113-.9271-1.625-.6457-3.106-1.6091-4.354-2.8337-1.249-1.2247-2.241-2.686-2.918-4.2985-.677-1.6126-1.026-3.3439-1.026-5.0929 0-1.7489.349-3.4802 1.026-5.0928.677-1.6125 1.669-3.0738 2.918-4.2985 1.248-1.2246 2.729-2.188 4.354-2.8337 1.626-.6458 3.364-.9609 5.113-.9271-1.749.0339-3.487-.2813-5.113-.927-1.625-.6458-3.106-1.6091-4.354-2.8338-1.249-1.2246-2.241-2.6859-2.918-4.2985-.677-1.6125-1.026-3.3439-1.026-5.0928s.349-3.4803 1.026-5.0928c.677-1.6126 1.669-3.0739 2.918-4.2985 1.248-1.2247 2.729-2.188 4.354-2.8338 1.626-.6457 3.364-.9609 5.113-.927h2.9c1.668-11.3149 14.454-20.1191 29.988-20.1191s28.32 8.8042 29.987 20.1191h.577c3.445.0667 6.726 1.4817 9.138 3.9409s3.764 5.7665 3.764 9.2112-1.352 6.752-3.764 9.2112-5.693 3.8742-9.138 3.9409c3.445.0667 6.726 1.4817 9.138 3.9409 2.412 2.4593 3.764 5.7665 3.764 9.2112s-1.352 6.752-3.764 9.2112c-2.412 2.4593-5.693 3.8743-9.138 3.941z" fill="#eb4626" opacity=".1"/><g fill="#000"><path d="m429.546 52.0364c-.01 3.4843-1.399 6.823-3.863 9.2867-2.464 2.4638-5.803 3.8526-9.288 3.863h-63.452l63.063-26.3043h.389c3.486.0105 6.826 1.3999 9.29 3.8647 2.464 2.4649 3.852 5.8048 3.861 9.2899z" opacity=".1"/><path d="m340.176 78.3406c.011 3.4852 1.4 6.8245 3.865 9.2885 2.466 2.4639 5.806 3.8521 9.291 3.8612h63.448l-63.063-26.3043h-.385c-3.486.0104-6.826 1.3997-9.291 3.8644s-3.854 5.8046-3.865 9.2902z" opacity=".1"/><path d="m340.176 130.949c.011 3.486 1.4 6.826 3.865 9.29 2.465 2.465 5.805 3.854 9.291 3.865h63.448l-63.063-26.304h-.385c-3.485.009-6.825 1.397-9.291 3.861-2.465 2.464-3.854 5.803-3.865 9.288z" opacity=".1"/><path d="m340.176 183.563c.011 3.485 1.4 6.825 3.865 9.29 2.465 2.464 5.805 3.854 9.291 3.864h63.448l-63.063-26.309h-.385c-3.486.01-6.826 1.4-9.291 3.864-2.465 2.465-3.854 5.805-3.865 9.291z" opacity=".1"/><path d="m429.546 104.645c-.009 3.485-1.397 6.825-3.861 9.29s-5.804 3.854-9.29 3.864h-63.452l63.063-26.3088h.389c3.486.0104 6.826 1.3999 9.29 3.8647 2.464 2.4649 3.852 5.8051 3.861 9.2901z" opacity=".1"/><path d="m429.546 157.258c-.01 3.485-1.399 6.823-3.863 9.287s-5.803 3.853-9.288 3.863h-63.452l63.063-26.304h.389c3.486.01 6.826 1.4 9.29 3.864 2.464 2.465 3.852 5.805 3.861 9.29z" opacity=".1"/></g><path d="m422.26 249.173-20.896-11.246c-1.05-.67-1.808-1.712-2.122-2.917-.313-1.205-.159-2.485.432-3.581.59-1.097 1.574-1.929 2.753-2.33 1.18-.402 2.467-.342 3.604.167-.621-.275-1.179-.676-1.638-1.177-.46-.501-.81-1.092-1.03-1.734-.221-.643-.306-1.325-.25-2.002.055-.677.25-1.336.572-1.934.322-.599.765-1.124 1.299-1.543.535-.42 1.151-.724 1.809-.895.658-.17 1.344-.203 2.015-.095.671.107 1.313.352 1.885.719l.957.493c2.555-3.453 8.321-4.064 13.437-1.312 5.115 2.752 7.769 7.921 6.309 11.941l.193.104c.619.277 1.174.678 1.631 1.18.457.501.806 1.091 1.024 1.733.219.642.302 1.322.246 1.998s-.251 1.333-.573 1.93-.763 1.122-1.297 1.541c-.533.418-1.147.723-1.804.893-.656.171-1.341.205-2.011.099s-1.311-.348-1.883-.713c.603.287 1.142.693 1.583 1.195.441.501.776 1.087.984 1.721.208.635.285 1.305.226 1.971-.058.665-.251 1.311-.567 1.9-.316.588-.748 1.106-1.271 1.522-.522.417-1.123.723-1.767.9s-1.317.222-1.979.131-1.298-.315-1.871-.659z" fill="#eb4626" opacity=".1"/><path d="m433.606 238.514c-.625 1.142-1.677 1.99-2.925 2.359-1.249.37-2.593.231-3.739-.386l-20.891-11.246 25.429 2.516.128.069c.571.307 1.076.725 1.485 1.227.409.503.715 1.082.901 1.703s.247 1.273.18 1.917c-.066.645-.259 1.271-.568 1.841z" fill="#000" opacity=".1"/><path d="m399.515 231.332c-.615 1.15-.751 2.496-.376 3.744.374 1.249 1.228 2.299 2.374 2.92l20.895 11.246-16.106-19.838-.123-.069c-1.149-.615-2.495-.751-3.744-.376-1.249.374-2.299 1.227-2.92 2.373z" fill="#000" opacity=".1"/></g><path d="m257.5 315c142.213 0 257.5-5.079 257.5-11.345 0-6.265-115.287-11.344-257.5-11.344s-257.5 5.079-257.5 11.344c0 6.266 115.287 11.345 257.5 11.345z" fill="#ff3000"/><path d="m247.634 310.595c30.786 0 55.742-3.328 55.742-7.433s-24.956-7.433-55.742-7.433-55.742 3.328-55.742 7.433 24.956 7.433 55.742 7.433z" fill="#000" opacity=".1"/><path d="m251.497 303.192c-1.746.34-3.547.265-5.258-.219-1.711-.485-3.284-1.364-4.593-2.568s-2.316-2.698-2.941-4.363-.849-3.453-.656-5.221c1.293-11.423 5.313-29.826 16.309-57.452 12.746-32.03 8.149-39.769-5.51-62.739-4.41-7.423-9.412-15.833-14.799-26.635-13.891-27.749-8.613-49.136-1.756-62.1525 7.291-13.855 17.719-21.1105 18.883-21.8947l10.764 17.8058-.987.9864c-.025 0 .493 0 1.243 1.3663-4.212 3.6503-7.676 8.0845-10.196 13.0559-5.969 11.9508-5.18 25.6478 2.343 40.6768 5.036 10.072 9.812 18.107 14.024 25.195 7.567 12.725 13.541 22.777 15.519 35.468 2.048 13.135-.493 27.266-8.43 47.252-10.463 26.285-13.812 42.734-14.833 51.563-.275 2.399-1.306 4.648-2.944 6.421-1.638 1.774-3.798 2.98-6.168 3.444z" fill="#ff3000"/><path d="m201.758 45.649 45.654-45.649 46.099 45.649h-31.33v34.9062h-29.094v-34.6843z" fill="#ff3000"/><path d="m347.28 302.97c16.074 0 29.104-1.738 29.104-3.882s-13.03-3.881-29.104-3.881-29.105 1.737-29.105 3.881 13.031 3.882 29.105 3.882z" fill="#000" opacity=".1"/><path d="m349.297 299.103c-.911.178-1.851.139-2.745-.113-.893-.252-1.715-.711-2.398-1.34-.683-.628-1.209-1.409-1.535-2.278s-.443-1.803-.341-2.725c.671-5.964 2.772-15.572 8.514-29.994 6.654-16.726 4.252-20.765-2.876-32.761-2.304-3.872-4.933-8.266-7.74-13.909-7.241-14.486-4.489-25.648-.907-32.445 2.36-4.523 5.737-8.436 9.865-11.433l5.619 9.297-.523.493s.267 0 .651.716c-2.201 1.905-4.011 4.22-5.327 6.816-3.113 6.24-2.699 13.387 1.228 21.239 2.629 5.258 5.12 9.455 7.321 13.155 3.946 6.643 7.068 11.891 8.104 18.521 1.066 6.856-.251 14.234-4.405 24.661-5.461 13.722-7.212 22.309-7.744 26.921-.14 1.254-.677 2.43-1.533 3.357-.855.927-1.984 1.557-3.223 1.797z" fill="#ff3000"/><path d="m323.325 164.632 23.836-23.833 24.073 23.833h-16.358v18.225h-15.193v-18.106z" fill="#ff3000"/><path d="m147.989 302.97c16.073 0 29.104-1.738 29.104-3.882s-13.031-3.881-29.104-3.881c-16.074 0-29.105 1.737-29.105 3.881s13.031 3.882 29.105 3.882z" fill="#000" opacity=".1"/><path d="m145.971 299.103c.911.178 1.851.139 2.745-.113.893-.252 1.715-.711 2.398-1.34.683-.628 1.209-1.409 1.535-2.278s.443-1.803.341-2.725c-.67-5.964-2.772-15.572-8.514-29.994-6.654-16.726-4.252-20.765 2.876-32.761 2.304-3.872 4.933-8.266 7.74-13.909 7.241-14.486 4.489-25.648.908-32.445-2.361-4.523-5.738-8.436-9.866-11.433l-5.619 9.297.523.493s-.266 0-.651.716c2.201 1.905 4.011 4.22 5.327 6.816 3.113 6.24 2.699 13.387-1.228 21.239-2.629 5.258-5.12 9.455-7.32 13.155-3.947 6.643-7.069 11.891-8.105 18.521-1.066 6.856.251 14.234 4.405 24.661 5.461 13.722 7.212 22.309 7.745 26.921.139 1.254.676 2.43 1.532 3.357.855.927 1.984 1.557 3.223 1.797z" fill="#ff3000"/><path d="m171.943 164.632-23.836-23.833-24.073 23.833h16.358v18.225h15.193v-18.106z" fill="#ff3000"/><g fill="#000"><path d="m247.639 144.328c5.486-1.624 9.777-3.47 9.583-4.123-.193-.653-4.797.134-10.283 1.758s-9.776 3.469-9.583 4.122 4.797-.133 10.283-1.757z" opacity=".1"/><path d="m252.077 154.194c5.486-1.624 9.777-3.47 9.583-4.123-.193-.653-4.797.134-10.283 1.758s-9.776 3.469-9.583 4.122 4.797-.134 10.283-1.757z" opacity=".1"/><path d="m257.008 161.59c5.486-1.624 9.777-3.47 9.584-4.123-.194-.653-4.798.134-10.284 1.758s-9.776 3.469-9.583 4.122c.194.653 4.798-.134 10.283-1.757z" opacity=".1"/><path d="m260.959 168.989c5.486-1.624 9.776-3.469 9.583-4.122s-4.797.134-10.283 1.757c-5.486 1.624-9.776 3.47-9.583 4.123s4.797-.134 10.283-1.758z" opacity=".1"/></g><path d="m434.691 299.907h-20.955c-1.152 0-2.258-.458-3.073-1.273s-1.273-1.92-1.273-3.072c0-1.153.458-2.258 1.273-3.073s1.921-1.273 3.073-1.273c-.582.02-1.163-.078-1.707-.287-.544-.21-1.041-.527-1.46-.932s-.752-.89-.98-1.427-.345-1.114-.345-1.697.117-1.16.345-1.696c.228-.537.561-1.023.98-1.428s.916-.722 1.46-.931c.544-.21 1.125-.307 1.707-.288h.957c.548-3.739 4.765-6.649 9.896-6.654 5.13-.004 9.372 2.901 9.91 6.635h.192c.583-.02 1.164.078 1.708.287s1.041.526 1.46.931c.419.406.752.891.98 1.428.228.536.345 1.113.345 1.696s-.117 1.16-.345 1.697-.561 1.022-.98 1.427c-.419.406-.916.722-1.46.932-.544.209-1.125.307-1.708.287 1.153 0 2.259.458 3.074 1.273s1.272 1.92 1.272 3.073c0 1.152-.457 2.258-1.272 3.072-.815.815-1.921 1.273-3.074 1.273z" fill="#65997d"/><path d="m439.032 286.871c-.001 1.151-.458 2.255-1.272 3.069-.814.815-1.917 1.274-3.069 1.276h-20.95l20.817-8.706h.129c1.154.003 2.26.464 3.075 1.281.815.818 1.272 1.925 1.27 3.08z" fill="#000" opacity=".1"/><path d="m409.519 295.606c.004 1.151.463 2.253 1.277 3.067.815.813 1.918 1.271 3.069 1.273h20.955l-20.832-8.666h-.113c-1.15.002-2.253.457-3.069 1.267-.815.81-1.278 1.909-1.287 3.059z" fill="#000" opacity=".1"/><path d="m307.323 294.718h-11.894c-.654 0-1.281-.26-1.744-.722-.462-.463-.722-1.09-.722-1.744s.26-1.281.722-1.744c.463-.462 1.09-.722 1.744-.722-.654 0-1.281-.26-1.744-.723-.462-.462-.722-1.089-.722-1.743 0-.655.26-1.282.722-1.744.463-.463 1.09-.723 1.744-.723h.548c.306-2.121 2.703-3.773 5.614-3.773 2.91 0 5.307 1.643 5.623 3.763h.109c.654 0 1.281.26 1.744.723.462.462.722 1.09.722 1.744s-.26 1.281-.722 1.744c-.463.462-1.09.722-1.744.722.654 0 1.281.26 1.744.722.462.463.722 1.09.722 1.744s-.26 1.281-.722 1.744c-.463.462-1.09.722-1.744.722z" fill="#65997d"/><path d="m309.789 287.32c0 .654-.26 1.281-.722 1.744-.463.462-1.09.722-1.744.722h-11.894l11.84-4.932h.054c.654 0 1.281.259 1.744.722.462.462.722 1.09.722 1.744z" fill="#000" opacity=".1"/><path d="m293.042 292.267c0 .654.26 1.281.722 1.744.463.462 1.09.722 1.744.722h11.889l-11.839-4.932h-.074c-.65.006-1.271.269-1.728.731-.458.461-.714 1.085-.714 1.735z" fill="#000" opacity=".1"/><path d="m84.5754 308.711h-25.1581c-.6979.022-1.393-.097-2.044-.349-.6511-.252-1.2449-.633-1.7461-1.119-.5013-.486-.8998-1.068-1.172-1.711-.2721-.642-.4124-1.333-.4124-2.032 0-.698.1403-1.389.4124-2.032.2722-.643.6707-1.224 1.172-1.71.5012-.486 1.095-.867 1.7461-1.119.651-.252 1.3461-.371 2.044-.35-.6979.022-1.393-.097-2.044-.349-.6511-.253-1.2449-.633-1.7461-1.119-.5013-.486-.8998-1.068-1.172-1.711-.2721-.643-.4124-1.334-.4124-2.032s.1403-1.389.4124-2.032c.2722-.643.6707-1.224 1.172-1.71.5012-.486 1.095-.867 1.7461-1.119.651-.252 1.3461-.371 2.044-.35h1.1445c.6561-4.483 5.7222-7.975 11.8736-7.98s11.2225 3.477 11.8884 7.956h.2269c1.3545.041 2.6395.609 3.5829 1.581.9433.973 1.4709 2.275 1.4709 3.63s-.5276 2.656-1.4709 3.629c-.9434.973-2.2284 1.54-3.5829 1.582 1.3545.041 2.6395.609 3.5829 1.581.9433.973 1.4709 2.275 1.4709 3.63s-.5276 2.656-1.4709 3.629c-.9434.973-2.2284 1.54-3.5829 1.582z" fill="#65997d"/><path d="m89.7797 293.076c-.0026 1.38-.5515 2.703-1.5266 3.68s-2.2973 1.528-3.6777 1.533h-25.158l24.9706-10.446h.1529c.6877-.001 1.3688.134 2.0044.396.6356.263 1.2131.649 1.6997 1.135.4865.486.8725 1.063 1.1358 1.698s.3989 1.316.3989 2.004z" fill="#000" opacity=".1"/><path d="m54.371 303.532c.0065 1.381.5589 2.703 1.5367 3.678s2.3015 1.523 3.6823 1.526h25.1581l-24.9953-10.397h-.1529c-1.3804.001-2.7045.547-3.6838 1.52-.9794.973-1.5347 2.293-1.5451 3.673z" fill="#000" opacity=".1"/><path d="m136.149 75.4947c-1.957-.3756-3.982-.1592-5.816.6215-1.094.4892-2.279.7421-3.477.7421-1.199 0-2.384-.2529-3.478-.7421-1.294-.5665-2.695-.8457-4.107-.8185-1.412.0273-2.801.3604-4.072.9763-.725.3846-1.532.5877-2.353.5919-3.315 0-6.072-3.3392-6.645-7.7487.662-.4833 1.225-1.0895 1.658-1.7855 1.943-3.1321 4.933-5.1396 8.332-5.1396 3.398 0 6.358 1.973 8.302 5.0853.581.9337 1.393 1.7023 2.357 2.2318s2.048.8022 3.148.7917h.089c2.639-.0049 4.923 2.1111 6.062 5.1938z" fill="#eb4626" opacity=".1"/><path d="m146.223 61.6691-5.358 3.3984 3.251-5.9188c-.92-.7379-2.061-1.1461-3.241-1.1591h-.084c-.371.0086-.743-.0178-1.11-.0789l-1.82 1.1492.78-1.4156c-1.287-.4498-2.398-1.2938-3.177-2.4119l-3.261 2.0667 2.052-3.7338c-1.899-2.2788-4.464-3.6796-7.281-3.6796-3.379 0-6.413 2.0075-8.337 5.1396-.576.9344-1.39 1.7001-2.357 2.2198-.967.5196-2.055.7747-3.153.7396h-.162c-3.73 0-6.759 4.2319-6.759 9.4504 0 5.2184 3.029 9.4503 6.759 9.4503.821-.0018 1.628-.205 2.353-.5918 1.27-.616 2.66-.9491 4.072-.9763 1.412-.0273 2.813.252 4.106.8184 1.101.4913 2.292.7467 3.498.7497 1.19-.0014 2.366-.2518 3.453-.7349 1.283-.5557 2.671-.8292 4.07-.802 1.398.0273 2.774.3546 4.035.9599.718.3765 1.517.5744 2.328.577 3.734 0 6.758-4.2319 6.758-9.4503.018-2.0102-.468-3.9927-1.415-5.766z" fill="#566397" opacity=".1"/><path d="m65.4208 129.751c1.9494-.371 3.9649-.155 5.7913.621 1.0932.489 2.2774.742 3.4752.742s2.3821-.253 3.4753-.742c1.2936-.566 2.6947-.846 4.1067-.818 1.412.027 2.8013.36 4.0721.976.7252.384 1.5324.587 2.353.592 3.315 0 6.0774-3.339 6.6497-7.749-.6633-.482-1.2263-1.088-1.6575-1.785-1.9436-3.133-4.9576-5.14-8.3367-5.14s-6.3536 1.973-8.2972 5.085c-.5836.936-1.3987 1.705-2.3665 2.234s-2.0556.799-3.1584.785h-.0839c-2.6243 0-4.9132 2.116-6.0231 5.199z" fill="#eb4626" opacity=".1"/><path d="m55.3181 115.925 5.3572 3.399-3.2558-5.919c.9206-.737 2.0615-1.145 3.241-1.159h.0888c.3716.008.7432-.018 1.1099-.079l1.8153 1.149-.7794-1.416c1.2878-.449 2.4012-1.293 3.1818-2.411l3.2508 2.061-2.0571-3.734c1.9041-2.278 4.4644-3.679 7.286-3.679 3.3791 0 6.3882 2.007 8.3367 5.139.5764.935 1.3895 1.701 2.3571 2.221.9675.52 2.0552.775 3.153.739h.1776c3.7342 0 6.7581 4.232 6.7581 9.45 0 5.219-3.0239 9.451-6.7581 9.451-.8208-.003-1.6285-.207-2.353-.592-1.2708-.616-2.6601-.949-4.0721-.977-1.412-.027-2.8131.252-4.1068.819-1.0989.491-2.2887.747-3.4925.75-1.1898-.001-2.3662-.251-3.4531-.735-1.2842-.556-2.6729-.83-4.072-.802-1.3991.027-2.7761.354-4.0377.96-.7183.377-1.5171.575-2.3284.577-3.7293 0-6.7581-4.232-6.7581-9.451-.0188-2.008.4662-3.989 1.4108-5.761z" fill="#566397" opacity=".1"/><path d="m271.899 133.701c.314.038.619.134.898.282.366.258.64.626.784 1.05.372 1.056.549 2.171.523 3.29.059.903-.056 1.809-.34 2.668-.087.266-.24.505-.444.696-.179.143-.388.244-.612.296-.237.082-.489.109-.738.079-.249-.031-.488-.119-.697-.257-.385-.399-.612-.925-.637-1.479-.05-.763-.35-1.487-.853-2.062-.409-.38-.987-.572-1.287-1.041-.356-.562-.168-1.292.059-1.914.192-.542.493-1.637 1.046-1.913.552-.277 1.711.197 2.298.305z" fill="#fbbebe"/><path d="m251.087 136.355c.169.603.471 1.161.883 1.633.252.291.563.641.429.986-.052.124-.133.234-.236.321-1.855 1.815-4.44 2.698-7.03 3.018-.04.01-.083.01-.123 0-.074-.034-.094-.128-.104-.212-.042-.268-.042-.541 0-.809.098-.306.256-.589.466-.833.209-.244.465-.444.753-.587.573-.291 1.064-.72 1.43-1.248.375-.705.217-1.623.661-2.284.207-.25.462-.455.75-.604.288-.148.604-.236.927-.259.217-.034.691-.281.878-.168.188.114.242.824.316 1.046z" fill="#fbbebe"/><path d="m272.151 133.637c.001-.063.024-.123.065-.17.042-.047.099-.078.162-.086.124-.013.249.004.365.049.289.079.585.133.883.163.358.011.714.052 1.065.123.176.037.341.113.484.223.142.109.259.249.34.409.069.189.101.39.094.591.004.778-.089 1.554-.276 2.309 0 .054-.04.123-.094.143s-.099 0-.143 0c-.039.022-.069.057-.084.098-.185.496-.291 1.016-.316 1.544-.088.775-.192 1.549-.32 2.318-.049.459-.219.897-.494 1.268-.356.358-.828.575-1.332.612-1.054.082-2.115-.015-3.137-.286-.197-.02-.382-.103-.528-.237-.093-.119-.139-.269-.128-.419 0-.494.493-.883.927-1.169l.642-.39c.041-.023.076-.055.103-.094.028-.06.038-.126.03-.192l-.04-.76c.392.011.774.128 1.105.338s.599.506.775.856c.084.163.163.355.33.419.111.024.226.005.323-.054.096-.059.166-.152.195-.261.057-.219.057-.448 0-.666-.345-1.86-.261-3.774-.493-5.653-.013-.21-.079-.414-.192-.592-.099-.138-.286-.246-.311-.434z" fill="#f86d70"/><path d="m246.292 140.843c-.088.143-.227.252-.305.405-.047.069-.066.154-.054.236.012.083.054.159.118.213.086.039.183.05.276.029 1.859-.232 3.604-1.021 5.007-2.264.233-.197.438-.424.612-.675.162-.247.3-.548.577-.652.168.722.256 1.46.261 2.2.028.245-.002.492-.088.723-.085.23-.224.437-.405.604-.151.098-.318.17-.493.212l-.874.247c-.156.061-.328.077-.493.044-.097-.043-.198-.079-.301-.108-.113-.014-.228-.001-.335.039l-.75.222c-.256.063-.505.148-.745.257-.217.103-.414.236-.621.35-.352.174-.717.32-1.091.439l-1.322.459c-.361.143-.739.241-1.124.291-.267 0-.533 0-.8.044-.266.044-.389.104-.596.123-.334.008-.662-.089-.938-.276-.106-.063-.198-.147-.271-.247-.187-.291 0-.68.163-.986.32-.567.781-1.042 1.337-1.381.231-.128.493-.222.715-.336.676-.325 1.184-.873 1.82-1.247.637-.375 1.002.572.72 1.035z" fill="#f86d70"/><path d="m264.86 87.6134c.699.4798 1.499.7921 2.338.9125.439.0525.881.0756 1.322.069 1.845-.0044 3.686-.1578 5.505-.4587-.782-.7475-1.376-1.6706-1.731-2.693-.134-.552-.162-1.1243-.084-1.6869.106-.721.271-1.432.493-2.1258-.776.0443-1.555.0246-2.328-.0592-.439-.0444-1.519-.4439-1.904-.1381s-.089 1.2775-.079 1.7411c.002.0164.002.033 0 .0493-.019.6993-.169 1.3888-.444 2.0322-.257.633-.679 1.1856-1.222 1.6003-.543.4146-1.188.6761-1.866.7573z" fill="#fbbebe"/><path d="m268.417 83.1743c.554.3615 1.179.6005 1.833.7009.655.1004 1.323.0598 1.96-.1189.106-.721.271-1.432.493-2.1258-.776.0443-1.555.0246-2.328-.0592-.439-.0444-1.519-.4439-1.904-.1381s-.064 1.2775-.054 1.7411z" fill="#000" opacity=".1"/><path d="m270.952 83.7169c2.561 0 4.637-2.0758 4.637-4.6364s-2.076-4.6364-4.637-4.6364-4.637 2.0758-4.637 4.6364 2.076 4.6364 4.637 4.6364z" fill="#fbbebe"/><path d="m251.284 102.529c-.001.374.095.741.278 1.067.184.326.448.599.768.792.356.19.739.325 1.135.4 2.106.582 4.287.851 6.472.799.471-.005.937-.102 1.371-.286.216-.096.406-.243.553-.427.148-.185.249-.402.296-.634-.013-.131.017-.263.087-.376.069-.112.174-.198.297-.245.198-.15.35-.353.437-.585s.107-.484.057-.727c.266.118.542-.148.666-.41.123-.261.222-.582.493-.69.19-.043.383-.071.577-.084.306-.079.493-.375.71-.602.483-.424 1.037-.7586 1.638-.9862 1.707-.8631 3.093-2.2245 4.44-3.5661.706-.6519 1.347-1.3704 1.914-2.1455.153-.2269.296-.4587.424-.6955.412-.7886.77-1.6043 1.071-2.4415.208-.4363.301-.9184.271-1.4008.002-.0427.002-.0855 0-.1282-.088-.3055-.23-.5928-.419-.8484-.427-.7308-1.1-1.2852-1.9-1.5636-.799-.2121-1.618.0444-2.466.2171-.273.0619-.55.1048-.829.1282-.877.0128-1.749-.1239-2.58-.4045l-.922-.2515c-.459-.1282-.691-.6856-1.155-.7843-.209-.0278-.421-.0161-.626.0346-.955.1405-1.879.4424-2.733.8927-.185.1063-.361.2267-.528.3601-.602.452-1.037 1.0927-1.233 1.82-.192.804 0 1.6573-.207 2.4662-.199.6521-.519 1.2611-.942 1.7954l-2.26 3.2455c-.505.7594-1.062 1.4829-1.667 2.1653-1.218 1.3021-3.453 2.303-3.488 4.099z" fill="#f86d70"/><path d="m257.332 71.5537c-.059-.45-.197-.8859-.409-1.2873-.168-.2393-.371-.4522-.602-.6314-.372-.3464-.808-.6177-1.283-.799-.241-.0943-.502-.1282-.76-.099s-.505.1207-.719.2667c-.382.3433-.613.8239-.642 1.3367-.104.6952.017 1.4055.346 2.0272.394.6856 1.075 1.1443 1.642 1.6918.417.3953.779.8449 1.076 1.3366.136.2568.301.4968.493.7152.096.1081.216.1922.351.2453.134.0531.279.0738.423.0605.241-.0622.46-.1903.632-.3699.232-.2022.863-.5721.883-.8977.019-.3255-.494-.8582-.597-1.1048-.365-.7987-.644-1.6336-.834-2.4909z" fill="#fbbebe"/><path d="m241.039 125.237c.582 1.076 1.223 2.121 1.741 3.231.301.646.567 1.312.903 1.938.335.627.819 1.327 1.204 2.003.899 1.756 1.572 3.619 2.002 5.544 1.391-.209 2.73-.679 3.947-1.386.079-.049.158-.099.232-.153.325-.233.597-.532.799-.878-.459-1.741-.933-3.507-1.87-5.041-.301-.493-.651-.986-.986-1.479-.913-1.431-1.101-3.236-2.136-4.578-.1-.135-.154-.298-.154-.466s.054-.331.154-.466c.118-.153.31-.301.271-.493-.04-.193-.173-.271-.114-.4.06-.128.089-.098.143-.143.173-.162.153-.444.168-.68.098-.605.359-1.171.755-1.638.072-.115.166-.216.276-.296.094-.059.207-.084.301-.143.331-.207.306-.69.464-1.05.212-.494.735-.711 1.075-1.095.439-.494.548-1.169.987-1.594.047-.045.099-.086.153-.123-.202.727-.293 1.48-.272 2.234-.044 2.58.602 5.253.296 7.818-.236 2.037 1.017 4.069 2.792 5.085.697.368 1.425.674 2.176.913 1.115.395 2.225.804 3.315 1.258.769.329 1.529.672 2.279 1.031.924.443 1.823.937 2.693 1.479 1.106.612 2.091 1.421 2.906 2.388.367-.029.725-.136 1.048-.314.323-.177.605-.422.826-.717.441-.591.789-1.247 1.031-1.944.272-.575.439-1.195.493-1.83.003-.068-.015-.137-.051-.195-.036-.059-.088-.106-.151-.135l-5.086-2.698-.952-.493c-2.081-1.105-4.242-2.126-6.324-3.231-.138.039-.256-.118-.296-.256-.039-.139-.069-.311-.202-.375s-.153-.03-.202-.084c-.017-.024-.029-.052-.035-.08-.006-.029-.006-.059 0-.088.069-.986.794-1.933.646-2.935-.137-.406-.199-.834-.182-1.262.108-.276.237-.543.385-.799.251-.612 0-1.352.276-1.973.182-.396.305-.817.365-1.248.133-.857.395-1.689.779-2.466.184-.395.425-.761.716-1.085.153-.163.325-.311.493-.494.404-.557.656-1.21.73-1.894.29-1.216.326-2.479.104-3.709-.128-.405-.207-.824-.237-1.248 0-.562.251-1.218-.138-1.622-.161-.145-.356-.245-.568-.291-.905-.236-1.826-.401-2.757-.494l-4.252-.552c-.491-.033-.971-.156-1.416-.365-.563-.353-.984-.892-1.189-1.524-.75.542-1.026 1.558-1.623 2.259-.291.345-.646.621-.986.937-.388.41-.744.849-1.066 1.312-.924 1.188-1.73 2.464-2.407 3.808-.331.71-.587 1.45-.854 2.185-1.036 2.895-2.728 5.642-3.453 8.636-.172.735-.621 1.396-.69 2.141.008.823.26 1.624.725 2.303z" fill="#434175"/><path d="m263.291 101.187c.104.193.157.408.153.627-.093-.493-.74-.73-.779-1.194 0-.212 0-.202.153-.089.153.114.286.474.473.656z" fill="#000" opacity=".1"/><path d="m261.328 102.608c.134.116.235.266.291.434.11.238.131.507.059.76-.094-.045-.123-.163-.153-.262-.047-.158-.115-.309-.202-.449-.074-.123-.429-.409-.424-.542s.335-.01.429.059z" fill="#000" opacity=".1"/><path d="m261.101 86.923c.302.2557.633.4743.987.651.917.4637 1.933.7103 2.861 1.1591.459.2269.893.4933 1.327.7744l2.747 1.7411c.22.1288.423.2828.607.4587.326.3552.326.9865.627 1.3515.168.1897.373.3425.603.4486s.48.1633.733.168c.505.0017 1.005-.0834 1.48-.2516.289-.0867.572-.1904.849-.3107.288-.1224.561-.278.814-.4637.257-.1749.477-.3993.646-.6602.17-.2608.285-.5528.34-.8589.032-.4195-.023-.8411-.162-1.2381-.077-.258-.176-.5088-.296-.7497-.065-.1385-.143-.2706-.232-.3946-.632-.8927-1.742-1.312-2.817-1.5241-.567-.1085-1.144-.1775-1.712-.2762-.273.062-.55.1048-.828.1283-.877.0128-1.75-.124-2.58-.4045l-.923-.2515c-.459-.1283-.69-.6857-1.154-.7843-.209-.0279-.422-.0162-.627.0345-.955.1406-1.879.4425-2.733.8928-.195.105-.381.2254-.557.3601z" fill="#000" opacity=".1"/><path d="m258.861 74.6365c.119 1.1196 1.061 1.9433 1.638 2.9101.281.4932.494.9864.73 1.4797.298.5292.627 1.0398.987 1.529l1.031 1.4797c.57.8992 1.231 1.7372 1.973 2.5007 1.352.2318 2.467 1.2331 3.759 1.7165 1.051.309 2.127.5269 3.216.651 1.076.2121 2.186.6314 2.817 1.5241.233.3543.411.7418.528 1.1493.14.3968.195.8185.163 1.238-.056.3052-.172.5963-.342.8563-.169.26-.388.4836-.645.6579-.503.356-1.066.6183-1.662.7744-.475.1706-.976.2557-1.48.2516-.254-.0034-.504-.0601-.734-.1663-.231-.1062-.436-.2596-.603-.4503-.301-.3748-.296-.9864-.627-1.3465-.182-.1779-.386-.332-.606-.4587l-2.748-1.7411c-.427-.2836-.87-.5421-1.327-.7744-.927-.4538-1.944-.6955-2.861-1.1641-.918-.4685-1.776-1.2281-1.973-2.2442-.558-3.1123-2.713-5.7363-4.553-8.3061.059 0 .039-.1479.064-.2071.264-.605.744-1.0902 1.346-1.3614.613-.2452 1.255-.4126 1.909-.4981z" fill="#f86d70"/><path d="m268.574 74.6366c-.039-.3408.028-.6854.193-.9865.186-.2308.417-.4211.679-.5594.262-.1382.55-.2215.845-.2446.558-.1184 1.115-.2121 1.677-.2959.457-.092.927-.1004 1.387-.0247.603.2131 1.183.4874 1.731.8188.714.2565 1.451.4448 2.2.5623.761.115 1.458.4897 1.973 1.0604.324.4928.526 1.056.587 1.6425.878 4.7351-.069 9.5885-.246 14.4025-.069 1.8693 0 3.8719 1.085 5.4256l-3.118-.079c-.794-.0246-1.652-.0641-2.284-.5573-.51-.4861-.873-1.1069-1.045-1.7905-.213-.5113-.348-1.0517-.4-1.603-.049-1.1344.592-2.2442.385-3.354-.22-.8405-.726-1.5782-1.431-2.0864-.682-.4982-1.315-1.0615-1.889-1.6819-.932-1.1838-1.11-2.7966-.987-4.301.125-.8854.176-1.7795.153-2.6733-.039-.6835-.285-1.3389-.705-1.8793-.487-.4727-.77-1.1169-.79-1.7953z" fill="#434175"/><path d="m268.767 73.6499c.18-.2264.404-.414.658-.5513.254-.1374.534-.2217.822-.2478-.305.1064-.565.3112-.74.582-.165.3011-.232.6457-.193.9865.02.6803.307 1.3255.8 1.7954.419.539.665 1.1925.705 1.8743.023.8954-.028 1.7912-.153 2.6783-.113 1.4797.064 3.1123.987 4.2961.574.6203 1.206 1.1836 1.889 1.6819.689.5022 1.187 1.2242 1.411 2.0469.207 1.1147-.434 2.2245-.385 3.354.052.5514.187 1.0918.4 1.603.172.6836.535 1.3044 1.045 1.7905.632.4932 1.48.5376 2.284.5573l2.21.0592c.05.0789.099.1579.153.2368l-3.117-.0789c-.795-.0247-1.653-.0642-2.284-.5574-.511-.4861-.874-1.1069-1.046-1.7904-.213-.5114-.347-1.0518-.4-1.6031-.049-1.1344.592-2.2442.385-3.354-.223-.8207-.719-1.541-1.406-2.042-.682-.4982-1.315-1.0615-1.889-1.6819-.932-1.1838-1.11-2.7966-.987-4.301.125-.8854.176-1.7795.153-2.6733-.039-.6835-.285-1.3389-.705-1.8793-.491-.4711-.778-1.1155-.799-1.7954-.037-.3418.034-.6864.202-.9864z" fill="#000" opacity=".1"/><path d="m245.35 122.48 5.737 13.934c.325-.233.598-.532.799-.878-.458-1.741-.932-3.507-1.869-5.041-.301-.493-.651-.986-.987-1.479-.912-1.431-1.1-3.236-2.136-4.578-.1-.134-.153-.298-.153-.466 0-.167.053-.331.153-.466.119-.153.311-.301.271-.493-.039-.192-.172-.271-.113-.399.059-.129.089-.099.143-.144.173-.162.153-.443.168-.68.098-.604.359-1.171.754-1.638.073-.115.166-.216.277-.296.093-.059.207-.084.301-.143.33-.207.306-.69.463-1.05.212-.494.735-.711 1.076-1.095.439-.494.547-1.169.986-1.593l.04-.099-.434-2.693z" fill="#000" opacity=".1"/></svg>