<svg fill="none" height="59" viewBox="0 0 107 59" width="107" xmlns="http://www.w3.org/2000/svg"><g clip-rule="evenodd" fill="#ff3000" fill-rule="evenodd"><path d="m14.4765 33.8195c-3.8503 0-6.77499 1.888-8.28626 3.7253v-9.4367c0-1.7384-1.36529-3.1785-3.07148-3.1785-1.70536 0-3.11876 1.4401-3.11876 3.1785v27.4649c0 1.7384 1.4134 3.1785 3.11876 3.1785 1.70619 0 3.07148-1.4401 3.07148-3.1785v-13.3091c1.07249-1.4409 2.9736-2.8311 5.36166-2.8311 2.6808 0 4.387 1.0429 4.387 4.371v11.77c0 1.7385 1.4133 3.1786 3.0706 3.1786 1.7543 0 3.1188-1.4401 3.1188-3.1786v-14.2048c0-4.6685-2.4851-7.5495-7.6518-7.5495zm17.1573.2493c-1.7543 0-3.1187 1.4401-3.1187 3.1776v18.3266c0 1.7384 1.3644 3.1785 3.0706 3.1785 1.7054 0 3.1188-1.4401 3.1188-3.1785v-18.3266c0-1.7375-1.4134-3.1776-3.0707-3.1776zm57.7701 10.0815c.2928-2.3849 1.9492-5.3142 5.8004-5.3142 4.0942 0 5.6547 3.029 5.8007 5.3142zm17.5961 1.2913c0-6.2573-4.777-11.6221-11.7957-11.6221-7.1649 0-12.1856 5.6124-12.1856 12.5661 0 7.6975 5.4106 12.6144 12.5754 12.6144 2.7289 0 5.4599-.6457 7.7509-1.9861.73-.447 1.315-1.2423 1.315-2.1854 0-1.3413-1.12-2.4839-2.437-2.4839-.439 0-.828.0998-1.169.2984-1.4627.8442-3.2179 1.3403-4.7781 1.3403-3.9963 0-6.3843-2.532-6.7741-5.5617h13.7942c2.388 0 3.704-.8942 3.704-2.98zm-43.8443-1.2913c.2928-2.3849 1.9492-5.3142 5.8004-5.3142 4.095 0 5.6544 3.029 5.8004 5.3142zm5.8004-10.3308c-7.1648 0-12.1847 5.6124-12.1847 12.5661 0 7.6975 5.4097 12.6144 12.5745 12.6144 2.7298 0 5.4595-.6457 7.7505-1.9861.7316-.447 1.3155-1.2423 1.3155-2.1854 0-1.3413-1.1206-2.4839-2.4369-2.4839-.4388 0-.8287.0998-1.1696.2984-1.4623.8442-3.2166 1.3403-4.7768 1.3403-3.9972 0-6.3852-2.532-6.775-5.5617h13.7939c2.3888 0 3.7043-.8942 3.7043-2.98 0-6.2573-4.7777-11.6221-11.7957-11.6221zm-15.1923.1495c-.5359 0-.9746.1488-1.5594.3973-1.4142.5459-2.8276 1.8871-3.8512 3.3272l.049-.4471c0-1.7874-1.4134-3.1785-3.1686-3.1785-1.7062 0-3.0706 1.441-3.0706 3.2284v18.2767c0 1.7384 1.3644 3.1785 3.1187 3.1785 1.6581 0 3.0715-1.4401 3.0715-3.1785v-13.0124c1.0236-1.5398 3.4605-2.4331 5.0697-2.6317 1.9492-.2992 2.9238-1.5897 2.9238-3.1295 0-1.539-.9257-2.8304-2.5829-2.8304zm-22.6591-33.969c-8.9333 0-16.1745 7.25451-16.1745 16.2042 0 8.9497 7.2412 16.2043 16.1745 16.2043 8.9332 0 16.1744-7.2546 16.1744-16.2043 0-8.94969-7.2412-16.2042-16.1744-16.2042zm0 3.63972c6.9151 0 12.5413 5.63658 12.5413 12.56448 0 6.928-5.6262 12.5645-12.5413 12.5645-6.9152 0-12.5414-5.6365-12.5414-12.5645 0-6.9279 5.6262-12.56448 12.5414-12.56448z"/><path d="m38.7821 16.6197c-.0531 0-.1061-.0017-.1592-.0059-1.012-.0797-1.7626-.8991-1.6755-1.8281.2107-2.257-1.5179-4.3602-3.9358-4.78734-.9978-.177-1.6506-1.06366-1.4582-1.97941.1916-.91658 1.1563-1.51738 2.1541-1.34038 4.2419.75038 7.2752 4.43833 6.9052 8.39543-.0821.8809-.8858 1.5457-1.8306 1.5457"/></g></svg>